/* XPM */
static char *_27f1c136fb843ebb7876f716fff195ajaZ5R3B6hnlKLCko[] = {
/* columns rows colors chars-per-pixel */
"64 64 162 2 ",
"   c #040602",
".  c #060B03",
"X  c #080E04",
"o  c #160D04",
"O  c #190F05",
"+  c #071002",
"@  c #0A1303",
"#  c #0E1B03",
"$  c #1D1206",
"%  c #101E04",
"&  c #221607",
"*  c #251807",
"=  c #231708",
"-  c #261909",
";  c #2B1D0B",
":  c #311F0D",
">  c #122304",
",  c #162905",
"<  c #182C06",
"1  c #2F200E",
"2  c #32210F",
"3  c #3A250F",
"4  c #362511",
"5  c #3B2711",
"6  c #3D2A13",
"7  c #412C14",
"8  c #432F18",
"9  c #473015",
"0  c #4A3016",
"q  c #453019",
"w  c #4B3319",
"e  c #4F381E",
"r  c #503719",
"t  c #553A1C",
"y  c #593C1D",
"u  c #909595",
"i  c #969A9A",
"p  c #9B9E9B",
"a  c #A19F92",
"s  c #9EA09E",
"d  c #A3A39D",
"f  c #A8A49E",
"g  c #9FA3A4",
"h  c #A4A5A2",
"j  c #A6A8A6",
"k  c #ABABA6",
"l  c #A3A7A9",
"z  c #A7ACAB",
"x  c #ABAEAC",
"c  c #B0AFA6",
"v  c #B1AEAB",
"b  c #AEB1AE",
"n  c #B8B3A6",
"m  c #B3B2AD",
"M  c #BAB6AE",
"N  c #BEB9AF",
"B  c #AAAFB1",
"V  c #ADB2B2",
"C  c #AFB8B6",
"Z  c #B3B5B3",
"A  c #B8B6B1",
"S  c #B6B8B5",
"D  c #BABAB5",
"F  c #B3B7B9",
"G  c #B6BABA",
"H  c #BCBDBB",
"J  c #C1BEB6",
"K  c #C0BFBA",
"L  c #BEC0BE",
"P  c #C4C1B7",
"I  c #C3C2BD",
"U  c #CAC6BD",
"Y  c #CBC9BF",
"T  c #D5CDBE",
"R  c #BCBFC0",
"E  c #BEC2C2",
"W  c #BFC6C8",
"Q  c #C3C5C3",
"!  c #C9C7C2",
"~  c #C6C8C6",
"^  c #CBCAC4",
"/  c #C3C6C8",
"(  c #C6C9CA",
")  c #CBCDCB",
"_  c #D1CDC5",
"`  c #D1CECA",
"'  c #CED0CE",
"]  c #D6D2C7",
"[  c #D2D2CD",
"{  c #D9D4CC",
"}  c #DEDACE",
"|  c #C6CED0",
" . c #CCCED1",
".. c #CED1D2",
"X. c #D3D4D3",
"o. c #D9D6D3",
"O. c #D6D8D5",
"+. c #DBDAD5",
"@. c #D4D6D9",
"#. c #D6D9DA",
"$. c #DBDCDA",
"%. c #DADDDD",
"&. c #DEDDDE",
"*. c #DEDFDF",
"=. c #E2DED5",
"-. c #E0DFDB",
";. c #DFE0D7",
":. c #DEE0DE",
">. c #DEE1DF",
",. c #E6E0D4",
"<. c #E2E3DF",
"1. c #E4E2DD",
"2. c #E9E5DD",
"3. c #F0EADF",
"4. c #DBDDE1",
"5. c #DCDDE0",
"6. c #DCDFE2",
"7. c #DFE1E2",
"8. c #DFE1E3",
"9. c #DDE2E4",
"0. c #E1E1E2",
"q. c #E3E1E3",
"w. c #E3E4E3",
"e. c #E5E5E3",
"r. c #E1E3E4",
"t. c #E0E2E6",
"y. c #E4E4E5",
"u. c #E7E7E4",
"i. c #E4E5E7",
"p. c #E6E6E7",
"a. c #E9E5E1",
"s. c #E7E9E5",
"d. c #EBEAE5",
"f. c #EDEDE4",
"g. c #E4E6E9",
"h. c #E6E7E9",
"j. c #E8E7E8",
"k. c #E5E8E8",
"l. c #EAE9E8",
"z. c #EAEDE9",
"x. c #EFEEEB",
"c. c #E8EBEF",
"v. c #ECEBED",
"b. c #EBEDED",
"n. c #EFEFEF",
"m. c #F1EEED",
"M. c #F1EFEE",
"N. c #EFF0E9",
"B. c #F1F0E5",
"V. c #F4F2EB",
"C. c #F1F5EF",
"Z. c #FBF8EE",
"A. c #EDEFF2",
"S. c #EFF0F1",
"D. c #F1F0F1",
"F. c #F3F4F2",
"G. c #F5F6F6",
"H. c #FBF7F2",
"J. c #FCFBF3",
"K. c #F7F9FC",
"L. c #FEFFFE",
"P. c white",
/* pixels */
"G ( / 4.k.c.8.r.4.8.4.4.5.$.) @.4.9.@.4.M.$.P.P.P.v.X.( @.....( ..4.%.#.[ @.) / #.s.9.X...X.X.O.O.) $.8.i.N.D.y.b.G.w.0.$.*...R ",
"H ( @.5.$...4.@.@.X.%.4.*. .)  .o.X.Q ..z.0.n.P.M.S.i. .@.@.@.../ #.$.X.[ @.) ..( ' ( #.:.:.[ W X.) #.o.$.$.i.y.M.v.i.$.$.$. .H ",
"/ @.%.@.' [ $.' ) ) [ [ Q H H Q I ' ) [ *.$.$.e.0.:.r.g.g.#.( Q  .%.) ) ..*.c.@.W #.;.;.#.X.~ L F L Q ! S X.O.$.$.o.#.(  .w.5. .",
"X.8.X.$.....Q ~ ~ Q K K K K I Q ~ ~ L D ~ [ X.x.l.0.@.5.X.#.W ' #.4.@.@.! R  .B W k.F.:.s.9.' G F z Q H E $.~ w.X.K / ( ) 5.@.$.",
"@...X.0.d.) I ^ ~ I I D H I Q Q P L D L P I H b ! X.#.%.#.%.X.( g.9.4.@.W R W F L ' X.~ ' E E F H E ..E E ) O.' Q ~ H G X.o.&.0.",
"$.o.X.[ _ ! ' ) ~ [ ~ I H I I ^ ' X.L L W Q _ ^ / ! ( ..X.....) @.@...W E W W W ( ' ' | E / G E ( / E F G G G z R ( ~ E &.c.j.$.",
") o.#.R ' X.O.I H I Q H K I ~ ~ L L m b A D I ^ ) [ ) X...( W / O.X.4...E R B z z z G G W W E ) ) E C G L Z Q E Q ..) &.@.g.$.) ",
"` / $.! <.;.;.O.$.^ D D X.~ ) [ ~ I A b b A I ~ { f.) Q @...) / ( / C C B C z V C V B C S Z E H V G E E F F G E E E H G I ) ` ) ",
"+.+.$.~ { ~ ~ ' w w t t t t t 0 0 y y y y y y y w w w w t t t e t w w y y y y y w w w 0 w w t t r t y w w y y y ..)  .E G ~ ! o.",
") ^ ~ L m ! ~ R 7 7 6 9 r r r r e 9 9 9 r r r r 0 7 7 7 6 8 r t e r r 8 9 8 r r w q w 7 7 7 6 9 r r r e r 9 9 9 ..) G ~ Q ) I ! ",
"I ~ I Z k G E H 1 1 ; * * $ * 1 ; ; ; 1 1 ; ; ; ; ; ; ; ; ; = = & * 2 ; ; 2 ; ; ; ; ; ; ; : ; - & & * - ; ; ; 2 F L L L H L Z Q ",
"D k m A Z S V x w w 0 r w 9 9 5 6 6 6 e e e e e w w w w w w w q 7 6 6 6 6 e e e 8 w w w w w w w w 9 q 6 6 6 6 e / ) ^ ^ U M Z m ",
"I M D b V Z F G 5 6 6 6 6 3 5 5 5 4 5 4 1 4 5 6 7 3 7 5 6 8 6 5 7 3 5 5 5 2 3 2 5 7 7 7 5 7 7 7 6 5 6 5 5 5 4 2 Z V S S ! I ~ ! ",
"H Q G V p F D G Z V H & # $ o &                       . X @ @ = $ @ X .         X X X X @ X X X $ O o o & Z L S Z B Z j x d D I ",
"G D H m H Q S F b h k $ o O o O                       . X X @ $ $ @ .               X X X X X X $ o $ o * Z L C ( V B G H i G S ",
"-.<.X.) ) ! Q ! I Z H : O * * *     . .     . .       . X X @ $ ; X .                 X X X X   1 $ * & ; Z V F H I Q ( E ( o.+.",
"<.O.` @.X.@.X.i.+.$.j.6 ; 1 4 2     . .     + + .     . . X + - 1 X                   . + .     5 * 1 4 2 ! ..-.0.x...$.$.:.g.z.",
"w.0.@.o.5.$.:.i.#.X.` 7 ; 2 7 5   X @ .   . + + .     + . + . ; 2 +             . . . . . .     9 1 4 4 5 #.#.#.z.P.P.i.$.F.P.P.",
"8.*.#.@.0.0.%.i.%.0.4.6 ; 1 7 7   X @ @ . @ @ @ X . + + + + + ; 2 X . .         . . . + + + .   e ; 4 6 5 [ ! Q E ) ~ L L Q $.%.",
"c.5.%...( Q X.o. .X. .6 ; 4 8 e   @ @ @ + @ # @ + X + @ @ @ + ; 1   . . . .   . . + . @ + + . X w 1 1 6 3 *.Q Q H L H E G H $.K.",
"g. .@.( ( / D ` @.4.@.w 2 5 q y . + # # @ @ # # + + @ @ @ @ @ ; 1   X . . +   . @ @ @ @ + @ + + e 2 2 6 7 4.) ( ) ~ ' W L G G ) ",
"5.@.) ~ ! ) ( )  .@.4.w 8 8 w y + # # # # # # # @ + @ # # # @ 1 4 X + + # @ + + @ @ @ @ # @ @ @ e 4 4 7 r / / o.m L G ..#. . .X.",
"$.) ( ) ! ) ) o.@. .| 8 8 4 q y # # > # # > % % # # # # # # # 6 6 + + # # # # @ # # # # # @ @ @ w 6 6 w t / / $.s.X.@.:...( ..( ",
"z.X.#...) ..X./ R | W 8 4 5 8 y % % # > > > > > > > > > > # # 6 6 @ @ # > % # @ % % % # > # # # 7 6 6 q y H ! E W L ( L ) ( ' ~ ",
"{ / ' ..~ G ( E | W ( 8 4 w 8 y > > > > > > > > > , > % # > # q 6 # @ % > % # # # % > % % % # # 8 4 7 8 y A H D b L ' ~ ) ~ ' ~ ",
"~ M L Q W ..( ..E W ..8 4 8 8 y $ 1 1 9 y y y y w w 0 5 1 = $ 6 q O & 3 9 e y y w w e 8 4 - ; - 8 4 8 q t A K I H H L L Q ' L ^ ",
"L P L X...( G R R | E w 2 w q y * $ $ 3 r r r r w 7 6 2 = $ $ 4 w $ * 1 2 5 w r e q q 6 - = $ = 8 4 q 8 y I _ [ ^ L D D A ~ ^ I ",
"L ! ] [ / C W | | E V w 2 w q w       . .   . . . X @ @ . X X 4 6 X + . . . + @ X X X o X X X @ w 4 w 8 y ` D ^ ^ I I o.X.' [ U ",
"P U P L L ~ / ..R F x t 4 6 w 0     . .   . . . . . X X . .   5 7   X . . . . . X . . . X X X @ w 2 w 8 w { ;.s.;.^ Y P _ _ ^ _ ",
"M N m m L L Z L Z H S e 4 7 e 0 . . . . . . . . . . . .       5 7 . . . . .   . X .   . X X X X e 4 8 e 0 <.B.~ L L L L m k M I ",
"b M f b b b Z G F Z H t 4 6 e 0 + + + @ X X X X X . . . .   X 4 6 X . X X . .   . X . .   X X @ e 4 6 e 9 P U L m A m S L m c b ",
"k b d b b k x b B k z q 4 4 8 r @ + . + X @ @ X X . .     X . 4 5 X X X @ X X . . . . X X X X   w 4 6 q y +.D b h D m c M k I L ",
"! Q ) ) ~ [ ~ L ( X.X.5 * - 4 5 @ @ @ @ X @ X X @ . . . . . @ - ; @ @ @ X X X X . X @ @ X @ @ @ 7 ; 1 3 0 L H Z D ) H ) ' s.1.! ",
"o.a.B.F.J.P.B.+.X.) Q 1 & & ; 4 # @ @ @ @ @ @ @ @ X @ . @ @ @ * - @ @ # # X @ @ @ @ @ @ @ @ # @ 6 1 1 4 9 o.[ X.X.) ..X.' ' ^ 2.",
"+.$.5.$.o.$.e.) ) ) z.$ o $ $ ; % % @ @ @ @ @ @ @ X @ @ @ @ @ $ $ @ @ @ @ @ @ # @ # # @ @ # # @ & & = ; 5 J.+.O.X.+.O.) s.N.;.1.",
"<.1.2.X.) ) D X.' L R $ O O $ ; % % @ @ @ @ @ @ @ @ X @ @ @ @ o $ @ @ @ # @ X # @ # # @ @ # % % $ $ $ $ ; ^ } f.P.D.P.z.P.K.C.H.",
"-.-.o.^ ' ' ! ~ ( G A $ $ $ $ ; , % % @ # @ % % # @ # # # > > o $ % # % % # # # # > > # # % > , $ O $ $ ; +.! ^ :.N.P.S.X.<.s.Z.",
"d.=.^ U ^ ^ D L A L A - $ * - ; , , > > > > % > > > # > > , > # = % > > > > > > # > , > > , < < $ O & $ : I I P Z I Q Q X._ _ { ",
"2._ { _ ! [ O.I O.X.L ; $ ; - 3 < , , , , > , , > > , , , , , $ 1 > > , , > > > > > , , , < < < 1 O ; ; 4 D D J D A b L ~ I I ' ",
"` ! I ! <.' +.+.w 9 t t t t y 0 w y y y y y y y w w 0 0 t t r t e w w y y y y y 0 0 w 0 w w y r t t t w w y y y L Z Z Q ^ I I ! ",
"J J ! ] { K ` ` 7 7 6 8 r r r r r 9 w 8 r r r r w 7 7 7 5 0 r r t w r 9 9 9 e r 9 w 9 7 6 7 6 9 r r r w r 7 8 8 L c k L L I L m ",
"J K ! { ! _ { J ; ; ; ; & * * * ; ; ; ; ; ; ; ; ; ; ; ; ; ; & - & - ; ; 1 2 ; ; ; ; ; 1 1 1 1 * & & * ; ; ; ; 4 ^ D D L ~ U D M ",
"K T T ! U ! { ^ w w w w w w 7 6 7 6 6 r e e t e 0 w w w 0 0 r 9 q 6 6 6 6 e e t 9 0 w w r 0 w w w 9 q 6 7 6 5 e [ X.L I I A f J ",
"A ! ] ! } Y ! K 6 6 7 5 5 5 7 5 5 5 5 4 1 4 5 5 7 3 6 6 6 6 6 5 6 5 5 6 4 2 2 2 5 7 7 5 6 6 6 6 6 6 5 5 6 3 4 4 ~ ' ' ' Q M D M ",
"Z H c m Y J J A ! K K K ^ ~ ^ @. .( R S H H F H R E G E G G E ~ Q G k p h L I ~ I L D I ^ I L Z I D m L m x x G ~ O.X.%.K A H m ",
"H S m S K J M M ! ^ ! K H v H X.Q H R b F Z S F G F V F l Z S Q D b s p k m m M ^ I D Q P L I G L L ] P / F m Z x A S S Q I ! H ",
") o.X.D.5.o.K H D K D k v H Q ^ ! F H G Q K H B V B g V V V b Z b b k b b k l s k h z b Z G I L b z G I V ( E x Z H H G m S ( ) ",
"+.` ! I S A a k A D m m k v K c. .) Z Z S F B g u B F C V F V ~ I ' W b z h z g z j k b G S G h S S A I x g Z G V V x S [ +.e.i.",
"o.[ $.O.' ^ ) ) ) Q L m Z j D X. .Q H Q X.S Q R G F R R H ( O.Q ~ ) ( ! L G G H / R H F S F G V G ( [ E G G / :.^ ) ) ) s.G.<.[ ",
"[ X.+.$.O.+.+.+.' +.<.^ I A P H m J ) c.0.5.X.) / E @. .H ) b.O.) ) ' ~ ) ) ' ~ ) #.#...) ( S G Q ) d.$.$.$.k.$.;.s.O.) <.<.$.<.",
"J ~ ) { [ +.o.+.] +.[ { I k M A J Q !  .) `  .@.D.K.5.X.O.` ) ` ) +.' Q ' ' +.( ) ..[ o.o.G G H ~ ) ' ( N.F.F.z.$.;.<.[ 2.a.-.I ",
"M I Q I U ! { 1.+.;.+.+.{ U H K X.o.@.` o.v.5. .H.i.o.X.*.) Q ^ ^ ^ ~ E / H ~ I ) ) ) X.*.O.H ) ) W Q ..X.#.8.s.$.C.s.o.^ I K c ",
"I ' [ ` U M Y _ ] 1.f.V.2.Y U M =.j.-.{ ` q. .-.P.D.5.(  .E ) Q G S ) b F W ) W ~ $.s.$.X.! ! R ~ ) ) E E / ..+.X.X.[ L ^ ! ` _ ",
"^ [ e._ _ J P ] _ 1.J.P.B.2.3.+.a.=.M.-.( 5.X.X.$.P.P.$.[ K H ^ { ' L L Q ( X.[ ( E Q [ R R E ) ) L z R ....) L G S D m D { [ I ",
"^ ~ o.! Y _ _ Y U { 1.2.+.{ { ] -.-.o.` !  .X.X.@.A.A.Q ( D A ` $.[ ~ L ! ~ ) ~ ) E ~ X.[ o.$.[ ) H Z V { ( $.[ H ! ~ ) I ~ I m ",
"I $.<.U P { _ n Y { } ] U ^ 1.~ / !  .R I l ` X.[ ) H  .@.` / ( $.) L L ) ` ) ) ~ ~ 0.o.Q j.5.` Q L H Z I H L H Z I ~ ) { 2.2.I ",
"] -.-.{ _ _ K ] U ] } M N M A H ` H ` ) Q E ! R R E ! / X.X.H ! X.^ L Q ) [ ) ! E  .#.Q Q $.X.K ^ H ! ! ! ! D v m D ^ { s.;.] ' ",
"[ ] { _ J J J K n a J U n H H I v D S ) _ Q G E H ! ) Q H R H ! ' ~ ~ ~ ~ ~ L G K ! ~ ! K ~ [ ! D H ^ _ ! K I I _ ] ,.<.+._ { { ",
"-.-.] ] J J ! ! { n Y U I U Z D x h k Q =./ ^ ^ R / F R Q H z K ^ ) L L H ) G L H ! Q D A Q ! J _ A J K _ ` ! ` ^ [ ,.U 3.2.Z.f.",
"*.-.] U ] T _ ] 2.=.U n c I _ ! j h k K { S E R ! ) H Q Q ( R ! ) ' ~ ~ B I I Q Q ^ J h c m Z m m f v D ` ` ! ) ' I ^ I ] +.1.1.",
") [ ` o.=.` J I I M J D A P U A k k x H o./ Q H / ) ( ( / / Q ) ) /  .) K I ^ A Q ` _ H X.K ^ A m j D A I [ ! ` ! ^ o.! ! o.+.+.",
"Q @.$.@.Q o.! K ) ! ^ ! Q H I D v k ( K o.K 0.Q Q ( Q o.X. .Q F H ) !  .Q ^ b.@.R K ( o.&.X.K K F R Z A v ! ) K I ^  .Q Q [ ) ) ",
"R / @.r.#...%.#.@.@.%.4.:. .) Q E @./ [ =.i.x.0.@.D.i...@.@.@. ./ o.$.o.[ X.) ..(  . .X.&.$.X.Q O.` @.o.-.^ i.q.o.v.` ( ) )  .S ",
"G / / 4.g.c.r.r.5.5.4.*.*.@.| o.4.9.O.$.M.#.P.P.P.v.X.( @.@... . .#.$.#...@.) ( o.g.0.X. .@.X.@.o. .@.r.j.v.D.i.v.G.0.0.$.-...E "
};
