/* XPM */
static char *fb78f5fdecf14b16d6a7ae7d8d6c4490YX1v3GzTYYjcfRmr[] = {
/* columns rows colors chars-per-pixel */
"64 64 155 2 ",
"   c #8A918D",
".  c #919696",
"X  c #939896",
"o  c #969C9A",
"O  c #9A9E9B",
"+  c #A19F92",
"@  c #9DA296",
"#  c #9DA19D",
"$  c #A2A49D",
"%  c #A8A49E",
"&  c #A9AD9F",
"*  c #9B9FA0",
"=  c #9EA3A2",
"-  c #A3A6A2",
";  c #A5A9A5",
":  c #ABACA5",
">  c #A3A7A9",
",  c #A6ABAA",
"<  c #ABAEAB",
"1  c #B0AFA5",
"2  c #B1AEAA",
"3  c #AEB0A7",
"4  c #AEB1AD",
"5  c #B0B1A6",
"6  c #B8B3A6",
"7  c #B3B3AD",
"8  c #BAB6AE",
"9  c #B5B8AF",
"0  c #BCB8AF",
"q  c #ABAFB1",
"w  c #ADB3B2",
"e  c #AFB8B6",
"r  c #B3B5B3",
"t  c #B8B6B1",
"y  c #B6B9B5",
"u  c #BABBB5",
"i  c #B2B7B9",
"p  c #B6BABA",
"a  c #BBBDBB",
"s  c #C0BEB6",
"d  c #C0BFB9",
"f  c #BFC2B6",
"g  c #BEC1BD",
"h  c #C2C1B7",
"j  c #C3C2BD",
"k  c #C9C6BD",
"l  c #C7CABF",
"z  c #CAC8BE",
"x  c #D5CDBE",
"c  c #B4BDC1",
"v  c #BBBFC0",
"b  c #B7C0C0",
"n  c #BDC2C2",
"m  c #BFC6C8",
"M  c #C3C5C3",
"N  c #C9C7C2",
"B  c #C6C8C5",
"V  c #CACAC4",
"C  c #C2C7C8",
"Z  c #C6CACA",
"A  c #CBCDCB",
"S  c #D1CEC5",
"D  c #D1CECA",
"F  c #CED0CD",
"G  c #D5D2C7",
"H  c #D9D2C3",
"J  c #D2D2CD",
"K  c #D9D5CB",
"L  c #DDDACE",
"P  c #C6CED0",
"I  c #CBCED1",
"U  c #CED1D2",
"Y  c #CFD5DB",
"T  c #D3D4D3",
"R  c #D9D6D2",
"E  c #D6D9D5",
"W  c #DBDAD5",
"Q  c #D4D6D9",
"!  c #D6D9DA",
"~  c #DBDCDB",
"^  c #D9DCDC",
"/  c #DBDCDF",
"(  c #DDDFDD",
")  c #DEDDDE",
"_  c #E1DACA",
"`  c #E2DED5",
"'  c #E0DFDB",
"]  c #DFE0D7",
"[  c #DEE0DE",
"{  c #DEE1DF",
"}  c #E5E2D6",
"|  c #E9E1D1",
" . c #E3E2DD",
".. c #E2E3DF",
"X. c #E9E5DD",
"o. c #F0EADF",
"O. c #DBDDE1",
"+. c #DCDDE0",
"@. c #DCDFE2",
"#. c #DFE0E1",
"$. c #DEE1E2",
"%. c #DEE0E3",
"&. c #DFE2E3",
"*. c #DDE2E4",
"=. c #E1E1E2",
"-. c #E3E1E3",
";. c #E3E3E3",
":. c #E2E4E1",
">. c #E4E4E3",
",. c #E6E6E3",
"<. c #E0E0E5",
"1. c #E0E3E6",
"2. c #E4E5E7",
"3. c #E6E6E7",
"4. c #E9E5E1",
"5. c #E5E8E4",
"6. c #E6E9E5",
"7. c #E7E8E7",
"8. c #EBEAE5",
"9. c #EDEDE4",
"0. c #E4E5E8",
"q. c #E4E6E8",
"w. c #E5E7EA",
"e. c #E8E7E8",
"r. c #E5E9EA",
"t. c #E8E9E8",
"y. c #EBE8E8",
"u. c #EBEAEB",
"i. c #EAEDE9",
"p. c #EFEEEB",
"a. c #E8EBEF",
"s. c #ECEBED",
"d. c #EBEEEC",
"f. c #EFEFEF",
"g. c #F0EEEB",
"h. c #F1EEED",
"j. c #F0EEEE",
"k. c #F1EFEE",
"l. c #EEF1EB",
"z. c #F1F0E5",
"x. c #F4F2EB",
"c. c #F1F5EF",
"v. c #FAF5EC",
"b. c #FBF8EE",
"n. c #ECEFF1",
"m. c #EFF0F1",
"M. c #F1F0F1",
"N. c #F3F5F2",
"B. c #F5F6F6",
"V. c #FAF7F3",
"C. c #F4F9F6",
"Z. c #FBFBF4",
"A. c #F6FBFC",
"S. c #FEFEFE",
"D. c white",
/* pixels */
"p Z C / q.a.@.=./ %.%.@.) ~ A Q @.+.! +.k.) S.S.S.s.T Z Q Q Q Z U @.~ Q T Q A Z E 6.*.T U E T T ~ F ~ ) w.s.M.3.t.B.=.=.) ' I v ",
"a Z Q +.~ U / Q Q Q / / ) I Z A E R M I t.=.n.S.k.n.4.I Q Q Y A C T / T A T A T P U P T [ ! T n T A R W ~ ) 3.=.k.f.-.) +.~ I a ",
"C Q / Q A T / F A A T J M a a N M A A J ' ) ) 3.=.) <.w.&.Q Z C U ~ A A U %.s.Q m E { ] ] Q M g r a M M t E E ~ W E +.C I e.+.I ",
"T %.T ~ T U B B N j d a a j j M B B a p Z D J p.8.=.) +.T Q C A / ) Q Q C v A q m r.c.{ 5.*.F p i , m g v ~ N r.T d B C D ! ! ! ",
"Q T U =.9.A j V M M M u a j M M j j a j j j a 4 C T Q ~ Q ~ E A q.*.%.! n n m p b U ] B m g g g n C U n n A R A M M a p U T ) -.",
"~ T T T A N F V B D B j a j j V A T u a j j A V M M Z U Q T I A ! Q U m n n m m P m m F m m g m Z n a p a p p < g Z Z n ) n.e.~ ",
"A R Q d G J E M u M N a h j N N d j 7 4 u u j V G J A T U C C C Q Q ! U n c w , , , e g g m m m A n r p a y n c C T A ~ Q e.Q A ",
"D C ~ N ..] ~ W ~ V u 9 Q A A A B M y : 4 u M V T 9.A C U U A C C B i i w w , w e w , e f f b g w p n n i p p n v a a u M A D D ",
"W W / B T N V A T f v M B j N a A V u 5 7 p r V g B p b m n Z n n Z n w b b b e e n g g m m ] b b g g g P n n U Q A A C p Z N R ",
"V A M a 7 N Z a g p a T Z Z N Z V f 7 7 6 h l G V l B p B M M M j A g g e g m b n P w w g m { g q e g w g g P Y U A y B M B j N ",
"N M j t : a j v a v C C i M a C V 9 u 0 & h f 6 u g M f e p w n M g g y = f e e y y w e f f g , e e g e w y g p w g n a a d t M ",
"u : 7 t r r w q w r r v C r M Z F h u 9 3 u : 9 9 g 4 w X # X ; = ; , = = 9 f w ; r ; g B g B 9 e g g g g F C n C F V A z t t 2 ",
"j t u < 2 r i a a C C M n v a M M f 7 3 @ 3 : f f t w , # , = , # @ 4 , e f , ; # # # ; ; 3 9 ; q = w f r 4 4 , r r i t N d V A ",
"d M a r O y y p r < n i r r i a 7 3 @ @ @ & : f f j w 4 = g Z Z , w 4 w e , o   = # = 4 # w = f @ # - , - w g y w w t ; < $ y d ",
"a a a < a M y r < ; : ; ; r < < - $ @ @ # ; 3 4 4 5 N E 4 w g Z w y w 4 g = , = 4 9 , ; , @ e # # = = g w r n r A w < i p o r u ",
"W ' T A A N M Z j w a r O O - : 3 ; y e & 4 ; y u u F [ C g n Z m n F U F f , g P P Z B U U g w e ; # w w r r r a v C N C A T ~ ",
"-.T D Q T E U 3.W ~ r.T j w 4 w y 3 t y y B B u j B V ..:.U A B E [ ! / E F ] A.S.5.c.l.[ i.m.S.S.F n g M M U [ =.d.U / ) / 6.t.",
">.=.Q T +.) +.4.! T F ! 6.E g u V l V V j M B l h R J J T T J F Z F Q ] U F B B B F T 5.Z.A.S.C.C.S.6.Z E / ~ Q i.S.S.:.~ N.S.S.",
"+.@.Q Q ) -.) 3.[ [ ! F V B y h ] E t.8.F g f f h a u u j j M A F a p m g B g M y n C ] =.l.S.Z.S.C.Z U Z J M M n Z Z g g M / ) ",
"m.+./ T M M Q T F T U *.U %.V g A B j B V f 4 @ & & u j u N N B p 4 f p y g n A 3 g M Q U F 3.N.S.T Q i.,.=.M M f n d n a a ! A.",
">.I Q Z Z M u J E %.T *.Q Q ! ! E A A g M 7 f 3 u k j V M N A V j 9 u 9 a M J F n A M p M M A k.r.~ T ' W W A B A B F n g a r A ",
"+.Q A B Z A Z A U Y ! [ %.T Q T =.T p 3 f f f t : 1 : 7 1 1 a N j p u 9 f j M j p j A V S j W ..B W ' ' M M M Q 9 a p Q Q I I Q ",
") A B A B A D T U U Z @.B n Z T Z M p y g f g y j u k j V A W J M f j j G J J u j M k j S V M D B  .T R B M B W 5.T Q / T Z U M ",
"4.E Q Q A U T C m m m g r p a a d Z p g Q M V M T J R K N N j j t 7 y f F j V u j j j l B u u u V V K D M a M M M g Z n A Z F Z ",
"J M A U M a Z v I m P p p < i n a p w n p A M j M V V F M a a V B V l j h u 0 : 3 9 7 9 9 u y t 2 N S N N 7 a a < n F A A B U B ",
"V t g B C I Z I v C T i p , p y a r n A B j u j V V K F N j u j j M A j l j 9 7 9 u j u f u : $ + d d t s t d j u a g p M A j V ",
"u j j T T Z c c v A v p w w y y C r v A B j f l 6.N./ W B M M j V N j M F J B V j j B V j j 9 7 t j 7 8 s d S J A d u u t M V l ",
"u V G J C r C P P n w q , $ # p r A Q Z g p a ,...~ l.F n A A a B A B T S M J J A j j B M j t < 2 t s k S D u N V j M R T J G j ",
"k z h d j C C U v i q = 4 ; w 4 p < Y c r A F C g ! M B p B A U U U Z B V T ] ] [ G V a r t g r t t d S N K ' 4.' G B j F A z G ",
"u 0 7 7 a g r u r a r a r < i n n w n C g A f p g y p n n p a w p < r y y 3 p B B f p f t t r 3 d a s s k } z.N d u j u 7 1 0 u ",
"7 t % < 4 r q a r r v v p r i e n c p p a A g p y y y g p n p < < , - ; w 4 3 i g p s p y p : j N M t 1 : j N d t r 7 t u 7 7 : ",
": < $ 4 r : < w r ; : a n p p U P w p y r n p i g e w w r n a w ; o , - w w r n F 7 p M F A ..~ T B u d a ~ u < ; t r 3 u : j j ",
"N N A A N T M g A J T Q Q Q l.C.N.S.5.[ l.%.l.! r.Q I C P C i q < = w v v n g B p r p ~ Q W W W x.C N G B g p 8 y A a A J 8.=.k ",
"R 4.z.M.V.S.z.W T F M n F ~ %./ [ ! U *.*.[ [ [ ~ 3.r.Q <.+.Z p v a Z C Z E ) r.%.F ,.Z [  .[ [ W V G W L W J R T F A Q F F N X.",
"~ ~ ' ) E ~ ,.A A V 8.T T G E T ] [ U T B E [ Q Q ! / / +.Q P I P i I Z Z B Q :.F B T T J W ~ W } J A L L Z.W W T W Q A 5.l.] ..",
"-.` 4.J A A a ! U g g p 4 r > n m e p g g e g p F Z Q Q E I C A r n U Y U %.m.U g f g g r 7 h J F V V S V N W X.S.N.S.i.S.A.v.Z.",
"'  .W N D D B M B i y g a p y n n p g i q p a > p i p n C T +.P i C C ! A C a M 8 4 : # 7 4 7 7 f l u G } L V A ..f.S.i.T ..8.b.",
"8.W N k B A u a u f y y M J U C Z i Q c q m b Z g w p 4 Z A A A r y C Z c p p M h g y 7 u a u u p h h S j j j h 7 g B M T V G T ",
"4.N K S A G E j E T p j B M j i C P q.n c v c m i n Z B n T Q ) r C B A Z M j M V g p y j j 7 f h 9 t s l u u f p 9 4 M B j j S ",
"S N k N } F W E ] V V j R 4.A T P O.A.@.m e C m = i P Z Z ~ ~ +.C T F Q =.,.Q F M T J F J J f h u 0 l l V h k h t t t j A a j V ",
"s s N S _ d D A i.C.! V F R M M U Z A.*.r i < , i c I I Z T Q Q C A A M r A +.%...3.! E J V J z.} L _ | 8.6.V.` j 3 < u M j s 9 ",
"s s N G N S J d X.} A y j M M M A Z Z C C m i c i q I I a Z v I A n a r , M Z T B h M f u j N 9 l 5 x L s j K R V p y f M N u t ",
"N x N N k N K V s J D u t M j B C C C n C m v q v v v m p n C Z A j a - r j A A B a a h j u t t u u k K W 6.A M T T j M d u % s ",
"t z H S _ k N k N A M M M a 4 a n r M M Z C m i p c i P i Z A Z U B 4 > , a B B Z p t f u d j u f u 7 k u f u M V A F F N 8 t t ",
"t a 2 7 N s s s k s d d V Z A Q I Z a t a a p a a n a n r a n B M p : o ; d j M N u u k N j a r j u 7 f 2 2 < a Z Q E +.j r u r ",
"p t 7 t s s t 2 N A N d a 2 d I j v a q i r r r i i w r > r u M t 7 # o : t 7 u V V u C j j a a g g G j C i 7 r < r t t j M Z u ",
"Z K E M.=.R d s t d t 2 r t j C Z t n a j a a w w q = q q w < y 3 4 : 7 < < > O ; - : w r u M j < , p M r C v < r a v r t t Z V ",
"W J M M t 2 % ; t t r 2 2 2 j f.I A t i i p q = . q c i w i w M M F n w : = < = : > , < p r y - a r t j q = r i r w < r D ~ -.y.",
"E T ~ T U A V A G M a 7 8 ; r T I M d M Q c M n v i v v a Z W C B A Z M a a u a C a v i i i i 2 p Z R a r p B :.B F A A 8.B.=.T ",
"J T ) W W R R W J Q ..V j u d h 7 d N s.-.Q I I M n Q I u Z d.E A A D Z Z A U Z A ~ ~ I A Z p a M Z 9.~ ~ ~ 5.~ W ,.Q A .. .~  .",
"a V S J J W J ` G W G G u 7 t t d M M D D D U Q s.A.+.I ! T A D A ` D M T A R Z Z U U R R a a a N A F Z p.N.N.8.[ [ ..G 4.X.~ h ",
"u j j h j V K ' ) W ~ ~ K k s d T Q R A R s.+.D V.y.R T ' A M V M A B n C a B n A D D U ' Q u Z A C M I Q ! &.r.W N.8.T N j h 3 ",
"j J U D z 8 z S G  .g.z.4.k k 7 ` y.` D I ) I ' S.M.<.A I j Z M p y A 7 a g A B C ~ 4.~ R Z M v Z A Z M C C U ~ Q E J f V N J D ",
"A J 4.V S s k G S } V.S.x.X.o.` y.R k.X.V <.T T ' S.S.O.I j d N J G M a M Z T J Z M C D v n j A A v , v I D A d a r p 9 u K G j ",
"V V R S k S x z k R X.,.W W K G ' ' R D M D T T Q k.n.j Z t t D ! T M g B M A V Z g N T U R ~ U D a r w K Z ) J t N N A M j M 7 ",
"s ~ ' k k K S 1 z K _ S k V } M V M I v M , I R I A a I Q D C Z ~ A f n A J Z A A Z =.R j 4.' U M v a r j a a a r B B D J 4.X.h ",
"D ' ` K S S k S k H _ 8 0 0 t u D a A A j B M d v j M M U T d M T B j M A D Z Z M I R M M ' T d V v N N N N t 2 2 u S J 4. .G S ",
"J S R S s s s s 7 + h k 7 u u M r r t A V C i M v Z A Z j v t Z J B B Z Z V M u v M M N d Z T N t u V S N j j j A G [ } W S K W ",
"' ' K H s s N N K 6 k k k d t u 2 - 2 j ` M A N v M y v M v : d V A j a a A a a a N j t r N k s S t s d V D N D N G ) N 9.X.v.9.",
"-.` K k S x S D X.` k 6 2 M S V : - - a K t M v M V d v M Z v N A A Z M w d d M M V d : 2 2 t 2 r % 2 s D D M D S k S h K W }  .",
"V I J ` ` S s N k 8 s u t j k t 2 % q a R M Z d A I A C C Z M A V B T A d M N r j J V s T d N t r > s t d J N D V V R N N R ` R ",
"M Q Q Q d T V d Z N N N M u j u 2 < Z s R v ' B M N C T Q Z v a a A N A N V s.Q v d A Q ' T M a r v r 7 2 M D d j V I j s T I V ",
"v Z Q <.O.I ) Q Q Q +.@.' U A M n Q Z I ` <.s.<.R f.-.I Q +.Y U C Q ~ T U T A I Z I I Q +.Q T M R D R R ' A y.-.R s.A A A A I y ",
"i Z C +.1.n.<.&.) %.+.+.) Q I T O.<.R ) s.` S.S.S.s.T I T U U A I / ~ Q T Q A A R e.<.R I R T R Q I Q <.y.s.M.-.s.B.<.&.' ) U v "
};
