/* XPM */
static char *_109c63ab0414f1ef9fe6a7271fdb90dJYwRjMeP5wY3TiHo[] = {
/* columns rows colors chars-per-pixel */
"64 64 168 2 ",
"   c #010302",
".  c #030907",
"X  c #0E0903",
"o  c #050C0A",
"O  c #150E05",
"+  c #180F06",
"@  c #120E09",
"#  c #07120E",
"$  c #08130F",
"%  c #171007",
"&  c #1A1207",
"*  c #15110C",
"=  c #1C140B",
"-  c #1F180D",
";  c #081611",
":  c #0A1B15",
">  c #0C1F18",
",  c #1A1610",
"<  c #1E1912",
"1  c #21170A",
"2  c #241A0C",
"3  c #2A1E0D",
"4  c #231E16",
"5  c #291F11",
"6  c #0D241C",
"7  c #0F281F",
"8  c #2E200E",
"9  c #30220F",
"0  c #272017",
"q  c #2D2112",
"w  c #272118",
"e  c #2B2318",
"r  c #322514",
"t  c #362816",
"y  c #3A2A16",
"u  c #31271A",
"i  c #35291A",
"p  c #3B2D1B",
"a  c #3F301D",
"s  c #0F2A20",
"d  c #102C22",
"f  c #133226",
"g  c #143629",
"h  c #163B2D",
"j  c #412F19",
"k  c #44341E",
"l  c #48361F",
"z  c #4A381E",
"x  c #473620",
"c  c #483720",
"v  c #4D3A21",
"b  c #533E22",
"n  c #413C36",
"m  c #184031",
"M  c #46423D",
"N  c #48443F",
"B  c #4E4A45",
"V  c #524D46",
"C  c #524E49",
"Z  c #56514C",
"A  c #59554E",
"S  c #5C5751",
"D  c #5E5953",
"F  c #5E5D5B",
"G  c #605C57",
"H  c #615E5A",
"J  c #63615E",
"K  c #6A645D",
"L  c #656361",
"P  c #6A6661",
"I  c #6E6962",
"U  c #6D6C6A",
"Y  c #736D64",
"T  c #736E6A",
"R  c #777067",
"E  c #76726D",
"W  c #7B746C",
"Q  c #737270",
"!  c #797572",
"~  c #7D7973",
"^  c #7F7C78",
"/  c #80786F",
"(  c #837C73",
")  c #887F75",
"_  c #807E7A",
"`  c #898076",
"'  c #878079",
"]  c #85817C",
"[  c #8E857A",
"{  c #89837C",
"}  c #8B847C",
"|  c #8A857E",
" . c #91897E",
".. c #91897F",
"X. c #868482",
"o. c #898682",
"O. c #8D8984",
"+. c #8E8C89",
"@. c #938C83",
"#. c #928D86",
"$. c #988F84",
"%. c #928E8A",
"&. c #979086",
"*. c #999186",
"=. c #989187",
"-. c #94918D",
";. c #9B948B",
":. c #9C948B",
">. c #9E968D",
",. c #9F988E",
"<. c #959391",
"1. c #9A9693",
"2. c #9E9993",
"3. c #9D9B99",
"4. c #A0978C",
"5. c #A2998E",
"6. c #A39B91",
"7. c #A39C93",
"8. c #A59E97",
"9. c #A29E99",
"0. c #A6A097",
"q. c #A9A196",
"w. c #A5A19C",
"e. c #ABA49B",
"r. c #AFA89F",
"t. c #B0A79A",
"y. c #B2A99E",
"u. c #A6A4A2",
"i. c #AAA6A2",
"p. c #ADA7A1",
"a. c #AEA9A5",
"s. c #ADABA9",
"d. c #B3ADA4",
"f. c #B2AEA9",
"g. c #B7B0A7",
"h. c #B9B1A6",
"j. c #B6B2AD",
"k. c #BBB4AC",
"l. c #BEB8AF",
"z. c #B5B3B1",
"x. c #BAB6B1",
"c. c #BDB9B3",
"v. c #BCBAB8",
"b. c #C2BCB5",
"n. c #C2BEBA",
"m. c #C6C1BB",
"M. c #C9C4BD",
"N. c #C6C4C1",
"B. c #CBC6C1",
"V. c #CDC9C3",
"C. c #CECCC9",
"Z. c #D1CCC6",
"A. c #D2CEC9",
"S. c #D5D1CC",
"D. c #D8D4CF",
"F. c #D6D4D1",
"G. c #DAD6D1",
"H. c #DDD9D5",
"J. c #DFDCD8",
"K. c #E1DEDA",
"L. c #E4E1DE",
"P. c #E7E4E1",
"I. c #E9E6E4",
"U. c #EBE9E7",
"Y. c #EDECEA",
"T. c #F0EFED",
"R. c #F4F3F1",
"E. c #FAFAF9",
/* pixels */
"- , - 4 , 2 , = , * = 1 1 2 = = = = 1 1 2 1 & 1 2 2 1 3 2 9 2 y r y 8 3 5 2 1 3 1 8 2 1 & & & & & - 2 & & 8 1 2 q q r y a k a k ",
"= , = - = - = = = & = & & & & % & = 1 & 1 1 1 1 1 1 + 1 & 2 2 9 3 3 3 1 1 & O O O + + O X X O O O O O O O & % = = 1 2 8 t k x k ",
"- < Z C S S D P I P H G H H H D S D S A Z C V V V N N A G S 3 3 9 3 V V M M n n M M M M M B B B C C V Z Z Z C C A C A K K E l x ",
"4 e Y T R I ! ) +.#.{ { { { o.) ) } ~ W R Y Y I R Y R R / / 9 r y y Y Y Y K H K I K Y K Y Y Y Y T W W ( R / R Y R R W ( { | x k ",
"e e ) ( { ) | *.8.8.p.e.w.w.8.6.:.>.$. .[ [ ) ) ` ` ` ` [  .y r y y / / ( ` [ ) ) ` ` [  .*. .[ :.6.q.>.:.4.:.*.$.*. . .&.1.y i ",
"4 4 _ ) | o.8.d.b.f.k.b.k.d.d.7.5.d.8.*.:.*. .@.$. . .[  .4.3 4 r t / `  .[  . .4.5.*.4.q.7.4.q.h.d.e.8.y.8.5.4.5.:.:.&.&.:.e w ",
"4 4 @.#.;.1.e.d.c.n.M.M.M.n.e.q.e.b.l.t.5.5.>.*.*. . . .*.*.1 3 2 < /  .$.4.q.7.5.:.5.q.q.y.t.j.d.d.y.e.q.e.t.e.q.7.7.$.*.>.e w ",
"e r #.$.#.7.p.b.M.b.M.n.M.b.e.q.q.d.e.d.e.q.1.>.4.4.5.4.4.*.- - , < W / ` 4.4.5.5.5.5.*.5.q.4.8.e.q.:.6.7.y.d.t.t.5.5.$.;.;.w w ",
"i p $.8.8.8.y.b.M.V.V.n.M.f.i.2.;.7.;.8.>.*.7.;.5.7.6.7.5.8.5 4 - 4 I P R o.$.1.:.#.*.@.$.@.*.#.O.@.&.&.t.y.h.h.h.q.5.*.4.4.e 0 ",
"p k 1.w.e.t.k.m.n.b.z.u.v.#.#.#.*.o.o.o.} o.$.) 6.6.9.8.q.q.3 3 2 2 P K / O.$.#.) #.O.) @.) | $.~ ' ,.0.q.5.e.y.t.t.t.5.4.*.0 0 ",
"j x 6.q.d.e.k.M.d.N.n.1.2.i t t e r t y j y t p k k k k k t 2 = & @ @ = 4 5 5 r q r 5 t t y t 5 0 - < 0.0.5.e.y.t.t.y.q.5.5.0 0 ",
"p p p.t.f.l.b.M.c.n.f.8.8.2 5 1 1 r 3 3 r 5 q j y t j y t r 3 & + % & 4 , = 2 - = 1 2 3 r y e 3 q - * | ,.r.g.h.y.y.y.y.t.q.4 0 ",
"e r e.d.k.k.n.Z.H.F.f.9.1.& = O - 2 1 2 3 3 9 9 8 9 y 9 9 9 3 & O & & 2 1 & & O + O & 1 2 3 3 3 8 2 - -.7.g.k.g.h.y.d.h.k.t.0 0 ",
"5 5 q.f.j.b.n.M.V.A.s.8.%.O & % O & & & 2 3 1 2 1 2 3 3 3 2 2 & O O + - & O O & O O & 1 1 1 1 1 1 2 8 :.a.g.k.g.h.k.y.y.h.h.0 4 ",
"5 5 t.p.j.b.M.b.M.v.N.u.%.9 3 5 2 ; ; $ o o . . .             & & ; ; # ; o o .     .         3 8 8 - w.a.a.h.b.k.h.h.y.y.h.< w ",
"5 5 q.p.g.b.n.A.B.z.f.1.1.3 3 1 1 : ; ; $ $ $ o o .           % O : : ; $ o # o o .   .       3 8 = - -.e.h.M.m.h.h.h.h.y.a.4 4 ",
"t e 8.q.d.b.b.b.M.v.s.<.<.2 - & X > : : : ; $ # o o o . .     & = : : ; : ; $ $ o o . .       1 = & @ +.8.z.c.b.c.h.h.y.y.y.e 4 ",
"p i 8.q.d.k.b.l.B.j.w.-.O.& - O @ 6 > : : ; ; ; # # o o . .   - 8 6 6 : : ; ; $ $ $ o o o .   & & % * 9.s.V.Z.M.M.l.h.h.y.y.4 4 ",
"j p e.q.t.b.b.b.N.j.9.<.] - & * * 7 7 > 6 : : : ; ; $ # o . . q q 7 6 6 6 : : : ; $ $ # o o . - - * * 9.u.j.M.V.M.b.k.h.y.d.4 4 ",
"p k e.e.d.M.M.M.B.i.<.u.<.2 1 = @ s 7 7 6 6 > : : ; ; $ $ # o 0 0 7 7 6 6 6 : : : ; $ $ $ # # 2 - = # s.u.v.V.b.b.h.b.h.j.k.0 4 ",
"p k 8.t.b.b.Z.K.S.m.w.9.3.q 1 & * d d 7 7 6 6 > : : : ; ; ; # 5 0 7 d 7 7 6 6 6 6 : ; : ; $ $ q - + * s.s.n.N.m.b.b.k.l.b.y.4 4 ",
"x j 7.p.d.n.Z.D.C.C.N.z.s.r 2 2 = f d d s s 7 7 6 > > : ; ; ; u q f f f d 7 7 6 6 > : : ; ; $ r 1 1 & 3.<.s.k.n.M.n.b.k.h.h.4 4 ",
"p p 7.8.h.B.D.H.H.N.v.<.+.r 2 2 2 g g f f d 7 7 7 6 6 > > : : p a g f f f 7 7 7 6 6 6 6 > : ; r 2 2 2 <.<.z.s.z.M.S.M.b.l.k.4 4 ",
"a p 4.8.k.n.A.K.F.C.s.1.+.r 2 3 q h g g f d d d 7 7 6 6 > > : p l h g g f f f d 7 7 6 6 > > : r 3 3 5 3.u.z.v.B.S.M.V.A.B.b.4 0 ",
"p p >.9.d.b.M.L.A.C.z.3.3.p r t y h h h g g g f s s d 7 6 6 > p l m h g g g g f d d d 7 6 6 6 j r t i <.<.s.j.M.M.M.M.Z.S.Z.r 4 ",
"x x :.9.p.b.S.Z.S.A.n.<.-.z l j k h m h h g g g f f d 7 s s 6 j k m m m h h g f f d d d 7 7 7 v k j k 1.3.i.z.n.Z.M.Z.A.Z.M.4 4 ",
"x c 7.9.p.l.b.n.C.x.s.<.-.z k y j q i y t t r r t y q y t 5 q 2 q q 0 e e r r q r t r y y p y 5 j y y -.s.i.N.c.m.M.M.A.V.N.4 4 ",
"k x 6.7.d.h.b.M.B.z.s.3.w.l r 8 j q e e r q e r r i p y t q 1 1 q = 2 8 3 2 q 3 q 2 5 3 r t 5 5 t 9 k 3.i.z.n.N.M.Z.Z.Z.M.M.u 4 ",
"x x @.$.8.x.n.B.B.z.j.w.w.i q q y ; $ $ # o . . . .           4 0 ; ; $ # o o . . .           t q q y <.+.i.z.N.V.V.V.M.V.c.e 4 ",
"x x @.:.q.k.b.n.B.M.i.2.%.t r r t : : ; $ # # # . . . .       2 2 : ; ; $ # # o o . .         t r r r -.1.u.z.N.Z.Z.Z.V.M.k.e 4 ",
"j x o.@.6.d.d.b.C.V.i.O.X.e 1 r t : : ; ; ; $ # o o . .       4 q 6 : : : ; # # # . . .       q 2 r t +.<.s.f.x.n.B.M.M.c.f.4 4 ",
"x x  .*.$.w.d.b.n.a.i.%.o.< 4 3 a 6 6 : : : ; ; # # o o . .   q q 6 6 : : ; ; ; ; $ o . . . . < 2 5 p O.%.+.1.f.x.M.V.B.c.f.w 4 ",
"c x @.;.;.8.g.b.M.f.w.%.O., = r k 7 6 6 > : : ; ; $ $ o o o . 5 2 7 6 6 : : : : ; ; # o o o . , = r k -.+.<.u.z.M.B.V.b.k.j.e e ",
"x p *.*.:.5.e.j.n.k.w.O.X.- 4 t j 7 7 7 6 6 6 : : : ; $ ; # o , - 7 7 7 6 6 > : : : ; ; # # o , 4 i k ] +.+.u.z.v.M.V.B.c.x.e e ",
"p p 6.:.:.6.7.g.c.i.1.%.%.= 5 t y d s 7 7 6 6 > > : : : ; # o = = d d s 7 6 6 > : : : : ; $ # = 4 r t X.<.-.u.z.m.V.M.M.x.j.i i ",
"a k 4.7.1.6.8.w.k.d.9.+.1., 4 4 r f f d d 7 7 7 6 > : : : ; ; = - d f d d s 7 7 6 > : : ; ; ; < 2 q r X.<.u.z.v.V.A.V.M.k.f.x x ",
"p a O.*.1.8.8.d.f.z.i.1.w.< * * q g g f f s s s 7 6 6 : > ; : - - g g f d d d s 7 6 > : : : ; , = % e +.i.z.C.C.S.Z.H.C.v.a.k l ",
"k a @.O.$.9.w.d.d.j.2.+.O.< , * , h g g f f d d 7 7 6 7 > > > 1 2 h g g f d d d d 7 7 6 6 > : 4 , * < <.3.z.C.F.H.G.C.m.z.f.z k ",
"u p ;.@.#.*.7.9.i.3.1.X.X.< * * = m h g g g f f s d 7 7 6 6 > 4 4 h h h g g f f d d 7 7 6 6 > 4 * * * <.s.z.v.F.J.S.n.j.j.f.c l ",
"u p 6.>.2.2.7.i.1.<.3.+.+.< , * * m m h h g g g g d d s 7 7 6 5 e h m h h h g f f d d d 7 7 7 , , * * s.s.3.s.N.N.v.j.j.f.f.c k ",
"u p u.9.7.u.u.a.w.i.3.X.+.< * O * s 7 7 7 7 7 7 6 7 7 6 7 7 7 q q s s 6 s s 6 s s s 6 6 7 7 7 4 = @ O <.<.+.1.z.j.z.s.s.s.f.k k ",
"i p a a p k p p x c p a a i t t r e t y p t t p l l k l k r 1 - & @ @ , 4 5 5 r r 9 5 i y y t 4 4 < , , < < 4 < 4 < 4 e u p k c ",
"a a a a 5 t 5 i i j e y i 2 3 2 1 r 3 3 9 r 5 j y y j y t r 8 & + + = 4 = & 1 = = 1 2 5 r y q q e - * , , : * * , , < < w i k p ",
"p p i 5 5 2 5 5 r 5 5 5 4 & & & - 1 1 2 3 3 r q 9 9 y 9 r 8 8 & + + = 1 1 = = % + O & 1 2 q 2 5 5 1 - = @ = * @ @ * , < e i e 4 ",
"u i 4 2 = * 2 2 < 4 - = O O & % O * % = 1 3 1 1 1 2 3 3 3 3 2 % + + & = & + O % O O & 1 1 1 1 1 1 3 3 - = 1 * O * * , < 4 4 4 4 ",
"e 5 Q T U F F L L L J L F U U Q U P J F H L L H F J U J J J 3 & = = L ! ~ _ ~ X.+.-.1.<.%.$.<.<.1.1.1.%.+.-.o.^ ! ! ! E E ! 4 4 ",
"e e O.%.<.+.+.<.<.<.1.3.3.u.3.u.u.3.1.<.<.1.1.O.+.+.-.X.o.^ q 2 3 5 ~ X.O.%.3.9.w.s.s.i.s.s.f.f.f.s.f.f.s.w.9.8.3.2.&.-.+.+.4 4 ",
"e e 7.1.u.9.u.x.v.n.C.B.C.C.N.C.C.N.N.N.C.M.v.v.z.z.x.s.s.2.t q q r -.9.i.i.j.M.M.n.V.V.B.V.C.B.B.C.B.V.B.c.M.m.m.v.j.f.a.s.< w ",
"4 e u.9.f.f.n.A.A.C.H.K.J.K.U.J.L.H.H.L.K.S.M.G.S.N.m.v.j.s.p 4 < 4 3.k.n.b.V.A.D.D.D.D.D.K.D.D.H.G.H.G.H.Z.Z.Z.M.M.M.b.c.x.4 e ",
"e e i.f.f.k.V.S.F.F.H.H.H.K.P.I.I.I.L.L.L.L.G.G.D.V.m.v.j.a.a q < 2 8.z.C.Z.D.D.D.D.D.H.D.D.K.K.H.J.P.K.K.S.D.G.Z.V.n.b.l.k.e i ",
"e e f.d.k.V.M.M.A.H.K.K.H.K.P.K.L.I.L.K.L.T.L.L.H.H.B.m.z.a.a y 4 u w.j.n.S.S.D.H.D.D.K.K.D.K.K.J.P.H.K.K.S.Z.G.Z.M.Z.M.k.l.p k ",
"e e f.f.b.M.M.B.A.G.K.I.K.J.K.J.D.H.H.H.G.L.H.G.H.H.C.v.v.j.x l x j s.f.n.A.D.H.K.K.K.K.K.K.L.L.P.I.P.K.H.I.K.G.A.Z.S.M.b.j.x k ",
"e u d.k.M.B.D.A.M.K.L.K.J.L.K.F.G.S.D.H.D.H.H.M.C.M.B.B.m.s.x x x x i.x.Z.A.K.H.D.K.K.L.L.Y.I.L.I.P.Y.Y.I.L.H.H.G.S.S.B.z.j.l k ",
"i p p.b.n.M.A.H.K.K.H.K.H.S.D.H.K.M.M.M.M.M.M.S.D.Z.b.B.v.s.x c x x 1.f.Z.K.D.K.D.K.K.Y.T.U.T.T.Y.Y.E.R.T.Y.K.G.G.S.S.N.k.x.k x ",
"p p 9.x.Z.V.Z.D.H.D.K.H.H.Z.A.Z.M.S.M.M.M.G.M.M.D.V.S.v.z.i.k x x k 7.i.Z.K.G.L.K.K.K.Y.L.S.K.U.Y.R.T.T.R.Y.L.H.H.G.F.M.c.c.c l ",
"x p 8.k.M.A.D.D.M.Z.S.K.D.D.H.M.S.M.M.M.M.D.M.M.S.M.m.j.a.w.u y k k i.f.M.K.S.A.S.S.L.T.Y.K.K.T.I.K.K.I.Y.P.K.K.K.K.H.V.M.z.x l ",
"x a 6.d.M.B.A.M.M.M.M.M.M.Z.Z.M.M.Z.Z.Z.S.S.M.M.M.n.k.p.9.2.i i t k 9.f.x.V.Z.S.K.K.K.L.I.S.S.K.H.Z.H.K.T.H.S.G.H.L.J.F.N.x.x x ",
"p a ;.p.b.V.M.M.M.m.Z.Z.M.M.Z.M.M.M.Z.M.Z.M.M.M.b.c.p.d.2.3.x p i p f.9.w.n.Z.G.K.D.M.K.I.D.M.Z.S.Z.S.K.Z.M.Z.S.S.H.J.V.N.v.p p ",
"a p *.8.b.M.V.M.b.Z.M.M.M.M.M.M.m.m.M.M.M.b.M.M.M.d.w.d.1.1.j x x x 2.u.8.x.B.Z.K.D.M.Z.D.Z.Z.S.Z.Z.A.A.M.V.V.H.H.V.M.c.x.x.4 e ",
"i a :.8.p.l.l.n.b.n.b.b.M.b.M.M.m.b.m.b.m.m.b.b.x.e.8.9.4.:.x k x p 2.8.e.g.b.b.M.S.M.Z.M.M.M.Z.Z.M.M.Z.V.M.b.m.M.z.f.q.u.i.4 4 ",
"u i 1.7.f.j.f.l.k.b.k.n.b.b.b.b.b.b.b.M.b.b.b.x.f.q.9.9.1.7.v v x x 4.1.7.8.f.p.d.b.b.b.b.b.M.n.b.b.b.b.m.g.e.d.e.9.3.3.9.9.4 4 ",
"e u >.i.f.j.f.j.f.w.w.i.b.b.b.b.b.z.l.g.j.b.b.k.g.e.w.q.7.6.b v v c 7.*.6.7.8.8.8.f.j.j.h.h.b.f.b.b.h.h.j.9.7.5.6.1.2.<.;.2.4 4 ",
"e e e e e e e e p p a p p j j j k k l l k l c v c v b v b v v v v b b b b b b c x p p x p j x x k x j 4 w < 4 4 4 4 4 4 < w w 4 ",
"e e e 4 e e e e e e e p p p j y a k l k k k c k x k x c x c c x c c v c c x x c x e i p p x p p k y e e 4 4 4 4 4 4 w w w 4 4 4 "
};
