/* XPM */
static char *d0b07c14474844f6adac69c5dfe80be0EmAUE1WN6KztayYd[] = {
/* columns rows colors chars-per-pixel */
"64 64 170 2 ",
"   c #0E0903",
".  c #150D05",
"X  c #180F06",
"o  c #120E09",
"O  c #171007",
"+  c #1A1207",
"@  c #16110C",
"#  c #1C140B",
"$  c #1F180E",
"%  c #1A1610",
"&  c #1E1912",
"*  c #21160A",
"=  c #241A0C",
"-  c #2A1D0D",
";  c #231E16",
":  c #2A1F11",
">  c #2E200E",
",  c #30220F",
"<  c #272017",
"1  c #2D2212",
"2  c #272118",
"3  c #2B2318",
"4  c #332513",
"5  c #362816",
"6  c #3A2A16",
"7  c #31271A",
"8  c #35291A",
"9  c #3C2E1C",
"0  c #3F301D",
"q  c #412E17",
"w  c #412F19",
"e  c #44341E",
"r  c #48361F",
"t  c #4A381E",
"y  c #473620",
"u  c #483720",
"i  c #4D3A21",
"p  c #533E22",
"a  c #413C36",
"s  c #443F3A",
"d  c #46423D",
"f  c #48443F",
"g  c #4E4A45",
"h  c #524D47",
"j  c #524E49",
"k  c #56514C",
"l  c #59554E",
"z  c #5C5751",
"x  c #5E5953",
"c  c #5E5D5B",
"v  c #605C57",
"b  c #615E5A",
"n  c #63615E",
"m  c #6B645C",
"M  c #656361",
"N  c #696662",
"B  c #6E6962",
"V  c #6D6C6A",
"C  c #736D64",
"Z  c #736E6A",
"A  c #777067",
"S  c #76726C",
"D  c #7B746C",
"F  c #737270",
"G  c #797572",
"H  c #7D7974",
"J  c #7F7C78",
"K  c #80786F",
"L  c #857D73",
"P  c #847D75",
"I  c #887F75",
"U  c #807E7A",
"Y  c #898075",
"T  c #898076",
"R  c #87817A",
"E  c #8B8278",
"W  c #89837B",
"Q  c #8C857B",
"!  c #8E857A",
"~  c #89837C",
"^  c #89847D",
"/  c #8F877D",
"(  c #8D867E",
")  c #91897F",
"_  c #928A7F",
"`  c #868481",
"'  c #898682",
"]  c #8D8985",
"[  c #8E8C89",
"{  c #938B80",
"}  c #948C82",
"|  c #928D86",
" . c #978E84",
".. c #988F84",
"X. c #988F85",
"o. c #918E8B",
"O. c #979087",
"+. c #999186",
"@. c #95918C",
"#. c #999289",
"$. c #9C948B",
"%. c #9C948C",
"&. c #9E968D",
"*. c #9F988F",
"=. c #959391",
"-. c #9A9692",
";. c #9E9890",
":. c #9E9993",
">. c #9C9A99",
",. c #A0978C",
"<. c #A2998E",
"1. c #A39B91",
"2. c #A39C94",
"3. c #A39E97",
"4. c #A59E97",
"5. c #A89E92",
"6. c #A39E99",
"7. c #A6A097",
"8. c #A9A196",
"9. c #A8A197",
"0. c #A7A19A",
"q. c #A6A19B",
"w. c #A8A29B",
"e. c #ABA49C",
"r. c #AFA89F",
"t. c #B0A79B",
"y. c #B2A99E",
"u. c #A5A3A1",
"i. c #ABA6A1",
"p. c #ADA7A1",
"a. c #AEA9A4",
"s. c #AFABA8",
"d. c #B3ADA4",
"f. c #B3AEA9",
"g. c #B7B0A7",
"h. c #B9B1A6",
"j. c #B6B1AC",
"k. c #BBB4AC",
"l. c #BFB8AF",
"z. c #B6B3B0",
"x. c #BAB6B1",
"c. c #BEB9B3",
"v. c #BFBCB8",
"b. c #C2BCB5",
"n. c #C2BEBA",
"m. c #C6C1BB",
"M. c #C9C4BD",
"N. c #C7C4C1",
"B. c #CBC6C1",
"V. c #CEC9C3",
"C. c #CECBC8",
"Z. c #D1CCC6",
"A. c #D3CEC9",
"S. c #D6D2CC",
"D. c #D8D4CF",
"F. c #D6D3D1",
"G. c #DAD6D1",
"H. c #DDD9D5",
"J. c #DFDCD8",
"K. c #E1DEDA",
"L. c #E4E1DE",
"P. c #E6E4E1",
"I. c #E9E6E4",
"U. c #EBE9E6",
"Y. c #EDEBEA",
"T. c #F0EFED",
"R. c #F2F0EF",
"E. c #F5F4F3",
"W. c #F8F7F7",
"Q. c #FBFBFA",
/* pixels */
"$ $ % ; $ $ % # $ @ # * * # # # + * = * = * + = = = * - = , = 5 4 6 , > : = * = * > = * + X * + + * * # # - = = > 4 4 6 e r 0 e ",
"# % # $ $ $ # @ # + # + # + # # + + + * * * * + * + + * + * = , > - - # * + . . X + X .   .   . . . . . . X . # # * - > 5 9 r y ",
"$ & k j z z x N N N b b v v c x x x l l k h h g h f f l x v - - , > h h d s a s d d d d d g g g j j j z l k h h k k l n N Z y r ",
": 3 C Z Z B D T | | ~ ~ ^ ^ ( P Q Q K D A C C C A C A A K K , 4 6 4 D A B m m m m B m C C C C C Z D D G A K A C A C D L R ^ y e ",
"; 3 P P ~ I ( #.4.6.p.e.e.6.6.1.,.,.+.! _ ! Q Q T E E I Q _ 6 4 5 6 I I L T E T Y I Y ) _ ) ) Q $.1.9.,.$.,.$.+. .+.{ ) #.;.9 5 ",
"; ; U I Q ' 2.d.b.f.k.b.k.d.d.5.<.t.5.+._ _ _ ) _ ) ) Q ! ,.- ; 4 6 T ! ) ) _ ) ,.,._ ,.t.5.,.t.h.d.e.5.e.5.<.,.,.+.$.O.| $.3 2 ",
"; : | | %.%.p.d.b.n.M.B.M.b.e.e.t.b.b.t.t.<.<.) <..._ _ +.+.* > ; $ _ { +.<.9.t.8.<.5.t.y.y.y.h.h.h.y.h.d.t.t.e.9.5.5.O.#.%.3 2 ",
"3 7 |  .| 2.p.b.M.n.M.m.Z.M.k.h.h.h.b.b.h.h.t.t.9.,.,.,.,.+.# = % % { ) <.8.8.8.9.t.5.t.y.t.y.h.d.b.d.y.d.d.y.y.t.5.,. .%.%.2 2 ",
"8 9 X.4.4.5.d.b.M.S.S.A.A.A.M.b.b.b.b.b.h.h.y.h.y.t.r.9.<.2.1 = = ;  . .,.e.d.h.h.y.y.d.h.y.h.y.h.y.h.y.t.y.h.h.d.9.<.+.,.,.1 < ",
"9 e <.6.e.t.b.b.M.A.S.A.K.M.M.b.M.b.h.b.h.h.h.h.l.b.c.d.y.e.1 = = =  .-.4.d.d.k.h.h.h.d.h.t.y.y.b.h.h.h.h.t.h.y.y.t.t.<.,.+.< < ",
"9 e 1.6.d.p.b.M.M.K.D.D.S.Z.A.A.M.M.b.b.b.h.b.l.b.m.b.l.l.a.> = * * ;.i.k.m.m.b.b.b.b.b.b.y.b.M.m.h.h.l.b.h.y.h.t.t.y.9.5.,.< < ",
"8 w t.p.g.k.b.M.S.G.S.S.G.A.M.Z.M.M.b.b.h.b.b.b.b.b.b.m.l.e.e > - = 2.e.b.m.M.M.b.M.m.m.M.b.b.M.M.m.m.b.m.b.h.y.y.y.y.y.y.7.; < ",
"7 7 4.g.h.b.b.Z.K.K.S.S.Z.A.M.M.m.M.M.m.m.b.m.M.Z.V.Z.V.M.s.q > - - a.j.b.x.c.m.m.M.M.Z.M.Z.M.M.M.Z.M.M.M.m.b.h.h.h.y.h.h.e.3 2 ",
": : 4.g.h.b.n.M.Z.H.K.A.M.Z.S.S.S.Z.M.M.m.b.b.m.M.S.Z.m.j.p.4 > 4 : j.c.b.k.j.c.Z.D.S.S.S.M.M.M.M.M.M.A.M.M.b.h.d.h.d.d.h.h.; ; ",
": : p.d.d.b.M.b.S.K.L.K.S.A.A.Z.Z.Z.Z.M.M.M.B.V.S.G.V.c.j.p.> - - = x.c.N.c.c.m.S.D.D.Z.Z.S.M.M.Z.M.S.S.M.M.m.b.h.h.h.y.y.d.; ; ",
": : 4.t.b.b.M.S.Z.D.G.G.G.Z.Z.Z.Z.M.Z.Z.M.M.B.V.S.S.B.b.j.d.- - * * c.x.m.V.B.C.S.D.D.A.M.S.D.S.Z.Z.M.Z.G.M.M.m.h.h.h.y.g.y.; ; ",
"8 : 5.4.d.b.n.M.Z.D.D.D.G.A.A.S.M.M.Z.M.Z.M.Z.M.Z.A.S.m.j.j.= $ @ o j.c.N.m.m.C.G.D.H.G.S.S.S.K.G.S.Z.S.D.A.M.M.h.h.h.h.y.y.> > ",
"9 8 4.t.d.h.b.b.A.A.D.D.D.S.S.S.A.Z.M.Z.M.A.Z.M.V.V.S.m.j.j.# + o @ f.v.N.m.m.Z.G.D.K.L.D.S.G.L.I.P.P.H.D.D.M.M.M.l.h.y.y.y.2 > ",
"w 9 e.4.y.b.M.M.Z.Z.D.G.D.S.D.D.A.Z.M.M.M.Z.A.Z.Z.V.C.M.j.j.$ + X @ i.j.n.c.N.C.S.K.L.L.L.L.L.L.L.I.I.I.K.G.M.A.M.l.l.h.y.d.< ; ",
"0 e p.4.h.M.M.Z.Z.H.G.G.K.K.K.D.S.A.Z.M.Z.Z.A.M.V.V.V.A.x.j.= $ # o i.s.z.c.N.S.L.G.L.L.U.L.U.L.L.I.U.I.I.P.H.M.m.h.l.l.h.h.; ; ",
"e 0 5.t.b.b.Z.K.S.D.K.L.K.K.K.D.S.A.A.D.S.A.Z.Z.S.V.V.M.j.j.4 # # o i.a.f.c.B.S.S.K.G.G.L.L.L.U.U.I.U.U.U.I.K.M.m.b.l.l.l.y.< < ",
"0 w 2.p.d.b.M.K.G.H.L.L.L.L.U.K.K.H.K.G.K.S.S.S.S.S.V.m.j.p.4 = $ # 2.q.e.m.M.S.S.G.S.L.L.L.L.T.Y.U.U.U.K.U.K.M.m.m.k.k.k.h.; ; ",
"0 9 1.4.h.M.K.K.K.K.U.U.U.U.T.L.L.L.K.K.K.K.D.G.J.A.Z.B.p.s.4 - = ; q.6.r.c.b.S.S.S.Z.G.L.D.L.L.I.I.R.I.P.E.S.S.M.S.m.m.k.k.; ; ",
"0 9 $.5.b.n.S.K.L.P.T.T.T.T.T.L.T.I.K.K.K.G.D.S.S.G.S.M.f.p.4 = - 1 e.6.e.b.m.M.Z.S.S.G.L.L.L.L.I.Y.Y.P.T.R.G.M.S.M.V.S.M.v.; ; ",
"0 9 $.6.d.b.B.L.K.E.W.T.E.Y.U.U.U.K.H.G.K.G.D.G.G.G.M.m.f.0.w 4 5 6 6.i.q.k.m.C.S.S.G.K.L.L.L.K.K.L.L.U.Y.I.S.M.M.M.Z.S.A.S.4 < ",
"y y X.6.e.b.H.A.G.K.U.K.L.K.L.K.K.K.L.L.K.H.D.D.G.G.S.b.a.0.t e w e 2.i.j.f.b.M.Z.S.Z.S.S.H.L.D.L.K.L.I.L.L.D.Z.S.M.M.A.M.M.< < ",
"e u 2.6.p.b.M.b.D.H.K.G.K.U.K.K.L.K.L.L.K.K.G.G.D.D.S.M.f.2.t 0 6 q ;.i.f.k.m.M.Z.S.D.S.G.K.H.L.L.D.K.L.U.L.K.A.Z.M.S.A.V.M.< & ",
"e u ;.6.g.h.b.M.A.K.K.G.K.K.L.K.H.H.K.H.G.G.G.G.D.D.A.M.j.0.r 5 > w ;.e.f.m.m.Z.S.S.G.S.H.H.D.K.D.H.H.L.I.U.L.G.A.M.M.Z.M.m.3 < ",
"y u { +.6.x.n.Z.A.Z.D.S.G.G.K.D.G.K.K.K.G.G.G.G.K.D.S.m.k.p.5 1 4 5 ;.q.d.k.c.Z.Z.S.G.G.D.G.G.D.D.G.H.L.L.U.L.H.S.V.V.V.V.c.2 < ",
"y y { %.e.k.n.n.A.A.D.G.D.K.D.K.G.H.L.H.H.H.H.G.D.S.S.A.m.f.5 4 4 5 -.:.e.k.b.B.Z.S.D.S.S.G.D.G.G.H.J.H.L.L.L.K.G.A.Z.V.M.x.3 ; ",
"e y ' } ,.d.k.b.A.A.S.S.D.S.S.S.S.G.D.G.S.G.G.G.D.D.G.A.N.s.1 $ 4 5 o.2.p.k.n.B.S.D.G.G.S.S.D.G.D.H.H.H.K.L.H.D.A.M.M.M.c.s.< ; ",
"e y ) +.X.6.h.b.Z.A.V.Z.Z.V.A.Z.S.G.G.S.S.G.G.H.S.K.K.D.c.f.& = : 9 %.-.q.f.b.M.M.S.G.D.G.D.D.G.D.H.D.H.K.H.S.D.M.Z.M.M.c.s.2 ; ",
"u y { $.$.6.k.b.M.A.Z.A.Z.Z.S.A.S.D.S.A.Z.Z.A.D.Z.V.C.N.z.i.% # 4 w -.-.e.i.x.b.C.S.G.G.D.G.D.G.G.D.G.H.H.J.G.S.B.V.C.b.k.j.3 3 ",
"y 9 +.#.$.1.e.k.M.M.M.Z.M.S.S.Z.V.M.Z.S.V.M.C.B.B.b.c.s.s.6.% ; 5 e :.-.6.f.x.b.B.S.G.G.G.G.H.H.H.H.H.K.J.G.S.Z.V.M.B.B.c.x.3 3 ",
"9 9 <.;.$.<.4.h.m.M.Z.M.Z.A.S.Z.M.M.Z.M.Z.M.M.m.n.b.j.i.6.e.% : 4 5 :.2.6.a.v.c.v.C.F.G.H.G.G.G.H.K.H.L.P.G.Z.C.V.V.M.M.c.j.5 8 ",
"0 w %.2.;.1.4.w.b.M.Z.A.A.M.C.V.V.Z.Z.M.M.S.M.b.b.f.q.2.6.2.# ; - 5 2.2.2.i.f.f.m.V.S.G.J.H.J.H.H.K.P.I.U.P.G.C.Z.Z.Z.M.j.a.y y ",
"y 0 |  .%.6.4.a.d.b.C.S.F.Z.C.Z.M.A.Z.Z.C.M.V.n.f.e.2.:.>.w.& % @ : 6.6.q.6.a.f.j.N.J.J.F.H.G.J.K.K.U.E.W.E.U.H.S.Z.J.C.c.s.y y ",
"9 0 { ] | 6.e.f.d.c.N.Z.S.A.V.M.Z.A.D.A.C.m.x.d.0.;.:.2.q.e.& % @ = i.i.6.2.i.f.x.z.N.V.C.F.A.H.K.K.I.I.E.Q.E.P.H.F.C.m.x.s.y y ",
"7 9 %.| | %.6.q.f.z.n.v.m.V.C.N.M.C.A.M.N.z.a.q.=.*.:.q.a.p.& @ @ % e.i.2.6.6.f.j.s.z.x.n.v.v.N.S.G.Y.P.W.Q.W.U.J.S.n.j.j.f.y r ",
"7 9 ;.<.;.>.2.i.0.s.x.n.v.N.C.B.N.C.V.m.x.i.2.:.;.@.-.:.a.c.& @ o @ x.j.i.i.p.i.a.i.s.s.s.z.s.m.m.F.U.T.E.I.P.L.S.v.z.f.j.s.r u ",
"7 9 i.6.1.i.i.s.i.x.z.x.v.z.n.n.m.B.N.x.6.6.1.o.%.-.>.;.q.j.& + o o b.f.f.s.s.i.u.6.i.6.i.s.s.j.n.N.C.H.J.L.A.C.v.z.s.s.s.f.y y ",
"9 9 0 0 9 9 9 9 0 y 0 0 9 8 5 5 1 7 5 5 9 8 8 q t e e e 0 5 = # @ o o % = : : 4 4 : : 8 5 9 5 : ; & % & % & & & 2 & ; 3 7 8 y y ",
"9 9 0 9 : 8 1 7 8 e 4 5 5 : ; = # 4 1 - 4 > : w 6 6 w 6 5 5 > # + . # : # # = # # * - : 4 6 1 1 3 $ @ % % % % @ % % & & 2 8 0 8 ",
"9 0 8 : - $ : : 1 : : : : + O . $ = * = : > : 4 > > 6 > 5 > - @ . + @ = $ # + X X . X * = > = = : = & @ o @ O o o @ % & 3 8 3 2 ",
"7 7 : = # # = = % : * % + o o # X + . @ = - = * $ = - - - - = @ X X + # + X X X X . + # = * # = = = > $ $ # O o o @ % & ; ; ; ; ",
"3 3 F Z V c c M M n M M n V V F V N n c b M M x c M V n n n - + # # M G U U J U [ @.>.=.| @.>.=.=.-.=.@.[ @.' J H H G S S G ; ; ",
"3 3 ] o.=.[ [ @.=.=.>.>.>.u.>.u.u.>.>.=.o.>.-.] [ o.o.` ^ J 1 = : : H ` ' =.:.u.q.s.s.i.a.s.s.s.s.s.s.j.s.q.6.q.>.;.@.@.[ ] ; ; ",
"3 3 >.=.u.6.i.x.v.N.N.N.C.C.N.C.C.N.N.N.C.N.c.v.z.z.x.f.a.>.4 1 : 4 @.6.q.a.f.N.m.m.V.N.B.V.C.V.V.V.B.C.N.v.m.m.v.c.j.f.p.s.; 2 ",
"; 3 u.6.f.z.n.Z.Z.C.G.P.G.J.U.J.L.H.G.L.L.S.M.G.S.N.m.v.z.s.0 : % ; :.z.n.b.B.A.D.D.D.G.G.K.G.D.G.G.J.G.J.V.Z.Z.M.M.m.b.c.c.; 3 ",
"3 3 i.d.d.x.C.S.G.F.G.H.J.K.I.U.I.U.L.L.L.L.H.G.S.C.m.x.j.a.0 ; = ; 6.z.C.C.S.D.D.G.D.K.G.G.G.K.G.J.P.P.J.S.G.G.S.V.m.b.l.k.3 8 ",
"3 3 f.f.k.M.M.M.Z.H.K.L.J.J.L.J.L.I.L.H.L.T.L.L.H.H.N.m.z.a.e 8 1 3 u.j.m.S.D.G.G.G.D.G.G.K.K.K.J.P.G.K.L.S.Z.G.Z.M.S.m.k.x.6 y ",
"3 3 f.f.b.m.m.Z.S.G.K.I.L.K.J.J.D.H.H.H.D.L.G.G.G.J.C.n.c.j.e y y y a.j.n.Z.G.H.G.K.K.K.K.K.L.K.P.P.P.L.G.P.L.G.Z.Z.A.m.c.j.y y ",
"3 7 a.x.m.B.G.A.Z.K.L.L.J.P.J.G.D.M.H.D.G.H.G.M.C.B.N.N.m.s.y y y e u.x.V.A.K.H.G.K.K.L.L.U.U.P.I.I.Y.U.U.L.H.H.F.S.S.B.x.j.y y ",
"8 9 a.c.m.M.S.H.H.K.S.K.G.S.F.G.H.S.S.M.M.M.M.S.S.C.m.N.n.p.y y y y ;.f.S.H.G.H.G.K.K.T.T.U.T.T.Y.Y.Q.E.T.U.J.G.G.S.S.B.k.z.e y ",
"9 9 0.k.Z.V.Z.S.G.G.K.H.G.A.S.C.A.M.M.M.M.G.M.M.D.V.S.v.z.i.y y y y :.i.B.K.D.L.K.L.K.U.L.D.K.U.Y.E.Y.T.E.Y.L.H.G.J.F.N.v.c.r r ",
"y 9 2.k.M.A.G.S.M.A.G.K.G.S.G.M.S.M.M.M.M.S.M.M.S.M.m.j.a.q.8 8 9 y i.f.B.K.S.A.S.S.P.T.T.H.K.R.U.J.L.I.Y.P.L.J.L.J.G.V.m.z.e u ",
"y 0 1.d.M.Z.S.M.M.m.M.Z.M.Z.Z.M.M.M.Z.S.S.S.m.M.M.m.k.i.q.:.9 8 8 y q.f.x.V.C.A.H.K.K.L.U.D.S.K.G.A.H.L.Y.H.S.D.G.L.J.F.N.x.y y ",
"0 0 $.p.b.M.M.m.M.m.M.Z.M.M.Z.M.M.m.Z.M.Z.M.M.M.b.x.i.s.:.2.9 9 8 9 s.2.e.n.Z.G.K.D.M.K.P.D.M.Z.S.Z.S.H.Z.B.Z.S.S.J.J.V.m.v.8 0 ",
"9 0 #.4.b.M.Z.m.b.Z.M.M.m.M.M.M.m.m.M.M.M.b.M.M.m.g.e.a.;.;.e e y e >.i.6.b.B.Z.H.H.m.Z.G.Z.Z.S.A.Z.S.A.M.V.Z.J.G.B.M.c.x.x.2 2 ",
"0 8 %.4.d.k.x.m.b.M.b.b.M.b.M.M.m.m.b.m.M.m.b.b.k.e.q.2.;.%.e y y 9 ;.4.e.j.b.x.m.S.Z.M.M.m.M.Z.Z.m.M.V.V.M.l.m.M.x.j.0.u.s.& 2 ",
"3 8 -.2.f.j.f.k.k.b.k.n.b.b.b.b.b.c.b.m.c.b.b.x.f.0.5.6.;.2.u u u e ;.%.2.e.a.p.d.b.b.b.b.b.m.n.b.b.k.m.m.j.e.d.e.7.>.q.>.0.< ; ",
"3 8 %.i.f.z.f.j.f.q.e.i.h.b.b.b.c.x.b.g.k.b.b.k.f.e.6.e.2.2.p i i u 2.+.*.2.4.4.w.j.k.k.g.g.b.k.b.b.k.h.j.2.1.<.;.;.;.=.$.>.; ; ",
"3 3 3 3 3 3 3 3 8 9 9 9 9 e w e 0 y r r r r u i u i i p i p i i i i p p p p p u e 9 e e 9 e u u e e w 3 & 2 2 & ; ; ; ; 2 & ; ; ",
"3 3 3 ; 3 3 3 3 3 3 3 9 6 9 9 9 0 e y e 0 r u e r y e y u u u u u i i u u r y r 0 3 4 9 9 e 9 9 e 5 ; 3 2 2 & 2 ; ; ; 2 & 2 ; ; "
};
