/* XPM */
static char *YmFycmVsX2JvdHRvbQ__[] = {
/* columns rows colors chars-per-pixel */
"64 64 101 2 ",
"   c #2F1F10",
".  c #362413",
"X  c #3A2613",
"o  c #3D2915",
"O  c #3F2B18",
"+  c #412B16",
"@  c #4A2E16",
"#  c #442D19",
"$  c #4A2F19",
"%  c #4D3017",
"&  c #46311A",
"*  c #4C331B",
"=  c #523217",
"-  c #53351A",
";  c #5A361B",
":  c #54391D",
">  c #5C3A1C",
",  c #643D1D",
"<  c #693E1E",
"1  c #543C22",
"2  c #5D3F21",
"3  c #623E20",
"4  c #693F20",
"5  c #5C411F",
"6  c #66401E",
"7  c #6A411F",
"8  c #70431F",
"9  c #5D4222",
"0  c #644523",
"q  c #6D4321",
"w  c #664925",
"e  c #684B26",
"r  c #674C28",
"t  c #6B4D29",
"y  c #724621",
"u  c #744522",
"i  c #714823",
"p  c #734823",
"a  c #714A23",
"s  c #744823",
"d  c #754A23",
"f  c #754C23",
"g  c #734A24",
"h  c #774B24",
"j  c #744C24",
"k  c #754D24",
"l  c #754D25",
"z  c #774D25",
"x  c #784C24",
"c  c #794D25",
"v  c #7B4E24",
"b  c #7B4F24",
"n  c #7B4E27",
"m  c #7D4F26",
"M  c #764D28",
"N  c #69502B",
"B  c #6D502B",
"V  c #6E502B",
"C  c #6E522B",
"Z  c #6F522E",
"A  c #6F542E",
"S  c #7B5125",
"D  c #7A5225",
"F  c #7A5126",
"G  c #7B5227",
"H  c #7D5225",
"J  c #7D5227",
"K  c #7E5326",
"L  c #7F5427",
"P  c #70532D",
"I  c #70542F",
"U  c #72552E",
"Y  c #7D5328",
"T  c #7E5328",
"R  c #7E5428",
"E  c #7D5728",
"W  c #7E582A",
"Q  c #6D5330",
"!  c #6F5431",
"~  c #725631",
"^  c #705532",
"/  c #735831",
"(  c #725832",
")  c #745832",
"_  c #745A32",
"`  c #735835",
"'  c #745A34",
"]  c #775A35",
"[  c #775B35",
"{  c #785C37",
"}  c #785B38",
"|  c #795C39",
" . c #825327",
".. c #815527",
"X. c #815827",
"o. c #825628",
"O. c #855B29",
"+. c #895E2B",
"@. c #87612B",
"#. c #8B622D",
"$. c #8F682E",
/* pixels */
"5 0 9 w 0 0 0 0 w 0 w w w r t e i t w e 0 e 0 w w 0 r 0 w 0 w 0 w w w w 0 w e e B B I I I B e e 0 0 5 5 5 5 0 0 0 0 9 0 5 9 5 9 ",
"9 r Q ! ! ~ } } | | } / ' ) { | ) } ' ~ Z ~ ! t ~ M Z Z B Z Z I ~ ~ I I I ) ~ { { | { { / / ) I / A Z B t Z I A / / / / / ! Q 9 ",
"9 r . . + + + + + + + # # # # & & & & * * & * * * * * * * : * * * * : * * & & & # & # & * # # # + o + O + + + o O o o O # o N 9 ",
"> ` + + @ @ @ = - - - ; ; , < , < 4 q q q y y y i q q y y d l u f p p l l d d f d x l y 7 7 y 7 6 6 6 , 5 ; ; ; - = % % + . r 5 ",
"9 ` & @ - - = ; ; ; ; , , > , , , q q q q q i p i h h h h h v x G x f G J S S x x f d p d q q q q q , < , , , ; ; ; - = + . e 9 ",
"9 ` & @ ; ; ; , , , , < 7 q 7 y y q y q h h x x Y x Y v G v J Y J J L J G J S L G l l d d u y q q q q q , , > , ; ; = ; @ . e 9 ",
"0 / O @ = ; ; ; , , < 7 q y y u y h h x l l Y x x x Y  .Y J J n  .L J L L D S f x G l l x i y y q q q q q , , , > > ; - $ . r 0 ",
"w ~ & % ; ; > , , < 7 7 7 8 7 y q y h h x x x v x x Y n J ......L L R R L R R R Y Y G o.x x x x y q q q q q < , , > > - $ X N 9 ",
"0 Z # $ ; > , , < 7 y q p y p x h x x x G x v x n  .n Y Y Y  .} L  .L X. . .n Y  .Y Y G x x x x x i y p q q q , 7 6 ; ; % . e 0 ",
"9 Q - ; , , , 7 7 8 q y y p f f x x x Y J R Y Y o.Y  .o. . . .o. .X.L X.' o.o. .Y Y Y v x J x l h y q q q q , , 6 > , > = o B 9 ",
"5 Z - - , , , 6 7 7 7 q q y p d x v x R v Y Y Y Y Y o. . .o.o.o.X. . .R Y o.o.Y  .Y Y v x x x M d y y y q q q , , > , ; * o I 9 ",
"9 t - = , , 7 7 8 8 q y y y h h Y n x x Y  .Y Y o.o.o.o.o.o.o.o.O.O.X.O.Y o.Y o. . .n  .G x x h d d q y q 4 q , , 6 , 6 ; O N 9 ",
"9 B 2 0 l l l l h x x Y G G G G o.Y o.O.O.O.O.O.o.@.@.#.+.+.+.+.+.+.+.#.@.@.+.+.O.+.O.O.O.O.X.O.o.o.W R Y Y Y G M l l G q : A 9 ",
"5 I * . o o O O # # & & * - - 1 ; - : : 1 1 2 2 3 2 2 4 i i t 4 q i q y q q q q q q 3 q 2 9 2 > : : : - * * * & & # # & + & A 5 ",
"0 A + * > ; , , , q q y y h x x x v v v x  .n  . . .o.O.O.O.+. .O.o.O.o.O.O.o.O.Y  .R ..Y o.v n x x x i d q q q , , > > - o N 9 ",
"0 I & ; , 6 6 7 q q q h x x x J n v v n n n Y Y  .o.o.O.+.+.+.O.O.O.O.O.O.O.O.O.O.O.X.o.R R R R o.R x x l d q q q q , , ; o N 9 ",
"w ! & ; q q 6 q y y d x x v G J Y J R R L R R o.O.o.+.O.#.#.#.+.+.+.+.+.+.+.+.+.+.+.+.O.O.O.+.o.R J J x S x x f u y q q 5 o e 9 ",
"e / & ; 6 q y y d f G J J ..L O.O.X.O.X.o.O.O.O.O.@.+.O.#.#.#.#.+.+.+.+.#.#.+.+.+.+.O.O.o.X.O.o.o.J  .Y J x x 8 d 7 7 7 > o B w ",
"t / * , q 7 y d x l f L J R R X.o.o.X.X.O.O.O.@.#.#.#.#.#.#.#.#.#.#.#.+.#.#.+.#.+.+.+.+.O.O.o.o. .L  .J S x x d q q q 7 ; o A 0 ",
"I ) & , q q y u f f G S J  . .E  .X.X.o.O.O.+.#.#.#.#.#.#.#.#.#.#.#.+.#.#.#.#.#.#.+.+.+.O.+.O.+.X.L L G S v x 8 y 7 7 7 ; X I 0 ",
"I { & , 8 y u d f x x J J o. . .o.O.O.O.+.+.+.#.#.#.#.#.#.#.$.#.#.$.#.+.#.#.#.+.+.+.+.O.O.o.o.o. .E J J J l x x 8 t 7 q > o ! 9 ",
"I { * < q u d d x S G J L o.X.O.O.O.O.+.+.@.+.+.#.#.#.#.#.#.#.#.#.#.#.#.#.#.#.+.+.+.O.+.O.O.O.o. . .J J J J x x f 8 q q > o ) 0 ",
"B { - 6 y y d x S S J J  .X.o.O.O.O.O.+.+.+.#.#.#.#.#.#.#.$.$.#.$.#.#.#.#.#.#.#.#.#.+.+.+.O.O.O.O.O. .R J J S x x f p q , + { w ",
"B { & , 7 u d x x G l J  .o.o.X...O.O.O.+.+.#.+.#.#.#.#.#.#.#.#.#.#.$.$.#.#.#.+.+.+.+.+.O.+.o.O.X.X.L L J S x x 8 p p q , o { e ",
"t [ * 6 7 d p l x x G L R  .O.O.O.O.O.@.O.@.@.#.#.#.#.#.#.#.$.#.#.#.$.#.#.#.#.#.#.+.+.+.+.O.O.O.O.X.L  .J x f f x 8 q q , o ` r ",
"e ) 1 q G J G L L X.X.X.O.O.O.@.+.+.#.#.#.@.$.#.$.$.$.$.$.#.#.$.$.$.#.#.$.#.#.$.#.#.#.#.#.+.#.+.O.O.O.E X.W X. .G L x J h * [ t ",
"w / : . o + + & & & * * - : > > 2 2 3 3 q q q 8 q i h i M M M M ..M 4 v u u 4 n q e q q 4 0 2 2 9 > > : : - * * & & & & + & [ I ",
"0 A & , 7 7 7 7 d f x G J  . . .o.O.O.@.+.+.+.#.#.#.#.#.#.#.#.#.+.#.#.$.#.#.#.#.+.+.+.+.O.+.O.O.X. . .L  .S J x x 8 8 7 , o { l ",
"w I & , q q u h x x x v .. . .o.O.O.+.+.+.#.#.+.#.#.#.#.#.$.$.#.#.#.#.$.$.#.$.#.#.#.+.#.+.O.+.O.O.X.o.o.L J  .J x f p y q o [ r ",
"w I * < q y u d x x S .... .o.O.O.O.+.+.+.+.#.+.#.#.#.#.#.#.#.$.$.$.#.#.#.#.$.#.#.#.#.+.#.+.+.O.O.O.O.o. .R x x G x x d q + / 0 ",
"w ~ * 7 d x x x S ..G J .... .X.+.O.+.@.#.#.#.#.#.#.#.$.$.#.#.#.#.#.#.#.$.#.#.#.#.#.+.@.+.O.+.O.O.O.O.X.X.R L  .x x x f 7 # [ w ",
"0 ) : 7 u l d x S x S J .... .O.O.O.O.@.#.+.+.#.#.#.#.#.#.$.#.#.#.#.$.#.#.#.#.#.#.#.#.#.#.@.+.+.+.O.O.O.X.L L  .x S x G 7 + / w ",
"q A * q q d x x x x x J  . . .O.+.O.+.+.#.+.#.#.$.#.#.#.#.$.#.#.$.#.#.#.#.#.#.$.#.#.+.#.+.+.+.+.O.O.O.o.o...v x x n x d 7 # / w ",
"0 A * 3 u d x x D L x J  .X.X.O.+.+.+.+.+.#.+.#.#.$.#.#.#.#.#.#.#.#.#.#.#.$.#.#.#.#.#.#.#.+.O.+.@.O.O.o.X.R  .Y Y x d u 7 # B w ",
"0 Z - q y h x l G S f  .L  .O.X.X.O.O.+.+.#.+.#.#.+.#.$.#.#.#.#.#.#.$.#.#.#.#.#.#.#.#.@.+.+.O.@.+.O.O.O.o.R L G x J d y 7 + / r ",
"w N * , y y d x x S G J  .X.X.O.X.+.+.@.+.+.#.#.#.#.#.#.#.#.#.#.#.#.#.#.#.#.#.#.#.@.#.+.+.+.+.O.O.O.O.X.o.J J J x x d d 7 + / t ",
"0 Z * , 7 8 d d f x x J  .H X.X.X.O.O.O.O.+.+.O.+.+.+.#.#.#.#.+.#.#.#.#.#.#.+.#.#.#.@.+.#.@.O.O.o.O.E  .L D x J x f d 8 7 + / t ",
"e Z 2 i l l l G x L J J E X.O.O.+.O.+.+.@.+.#.#.#.#.#.#.$.$.$.$.#.#.$.$.#.#.#.#.#.#.#.#.O.@.@.@.+.O.O.O.X.X.X. .R J J J l : [ t ",
"0 Z 1 . o o + + + # & % * - - = ; ; ; > > 0 , 7 7 7 7 7 7 8 8 8 4 4 4 4 4 4 4 4 , 4 , 0 5 5 > > ; ; * - * * * & # # # # O & ` e ",
"0 Z o - > , , 7 7 7 q y 8 S H H S  .X.X.O.O.+.O.O.+.+.@.+.@.#.+.#.$.+.#.#.+.+.#.+.O.O.O.o. ...J  .J J J x x f 8 p 7 7 , , X { r ",
"e Z # > , < q q 8 p 8 8 L S H  .X.X.O.O.@.@.+.+.O.@.@.@.@.#.+.+.} +.+.+.O.+.O.O.O.O.O.O.X. .X. . ... .v S x x x u d 8 8 6 o { w ",
"0 ~ $ > q < q q 8 f k D S H H  .X.X. .O.O.O.O.+.#.O.@.@.+.@.+.+.#.#.+.+.+.+.O.+.O.O.+.o.O. .X.o. . .x v x H x f u 8 8 8 > o [ 0 ",
"w I & ; , q q q p 8 8 H x x S x S  .X.X.O.X...+.#.O.#.#.+.+.@.O.+.+.+.+.#.O.+.O.+.o.O.o.O.O. .X.S  .J v S x H x 8 f 8 f 6 o ) 0 ",
"0 I & , < q q 7 8 8 S 8 x x x  . .H  .X.X.O.O.X.O.O.O.O.+.+.+.@.#.+.+.+.+.O.+.O.+.+.O.+.O.X.X.L H H J S S x 8 H x 8 8 8 6 O / 0 ",
"0 ~ * ; , < q q 8 8 S f 8 ....X.....X.X.O.O.O.+.@.O.+.O.O.@.O.+.+.+.+.+.+.+.+.+.O.O.O.O.O.+.X.X. .L D D S S 8 8 f d y d 6 o / w ",
"e ~ * , < q 7 q 8 8 f f ..8 ..8 v ........O.O.O.O.O.#.O.#.O.#.#.#.+.+.+.+.+.O.+.O.O.O.o...o.L L  .S H S S J S H x p q q , o [ 6 ",
"e | * > , 7 < q 8 8 8 ..8  .X...v ........X.X.X.O.@.O.O.O.O.O.O.+.+.O.+.+.+.+.O.O.o.o.o.O.O.L X.X.H H H J x x x 8 d 7 7 , o / r ",
"t ) # = , < , q 8 8 8 8 8 8 8 ..8 S ..X.X.X.X.X.X.X.O.O.O.O.O.+.O.+.O.O.o.o. .o.o. .o.O...J J G H H f S x x x f d 8 7 7 , o / r ",
"e { # ; > , , , , < 7 q 7 8 f f f x x H S ..L L L X.X.E O.O. . .O. . .O.O.O.X.O.X.X.X.W E E X.R L S S S l f d d 8 8 q , > X ~ 0 ",
"t { @ = , , , , < < 7 8 p 8 7 d f S H x S S D  .S  .X.X.X.X.O.O.O.X.O.O.X.X.O.X.X.X.E E S G G Y D S H 7 f f u 8 7 7 4 , ; o ~ w ",
"e ) 2 q i t l i x 8 G f G G W J L L  .E ..L X.O.O.O.O.W O.O.O.O.+.O.@.@.@.@.#.O.O.O.O.O.O.X.X.X.E E E E G L D x x M M G i * ~ 0 ",
"r ~ :   . . . o X o + + + # & & % * * - = ; ; > > > > 5 > 6 6 , , , > , > > > 6 > 9 ; : : : * - * % % & & & + + + o o + o # ! 0 ",
"w / & * = = ; ; ; , , , 6 7 7 6 7 8 8 7 x 8 8 x f x x H H x x S S S x v S 8 ..8 x f u d 8 8 8 8 7 7 7 7 6 6 5 , , ; ; > - o ! 9 ",
"w ) * - , > ; , , < , 7 7 7 8 8 8 x f f x x x x J x x x S H  .S J J S S H H S S x x x f d f x 8 8 8 7 7 7 7 7 6 , , , 6 - + ! 0 ",
"0 | * - , , ; , , , 7 6 7 p 8 p 8 S 8 x x x S f l G S J S ..S S S  ...S H H v S J x x x f f y y f 8 8 7 7 7 7 7 < < , , - + ! 9 ",
"w | * - ; , , , , , 6 7 7 8 8 8 8 x 8 S 8 x f x f f x f x S x S S S ..S S S S ..S J x x l f h x f d p p 8 7 7 6 6 6 , , - o ! 0 ",
"0 } : - , , , , , 6 6 7 7 7 8 y p p 7 f f f S S S x J f D D G D 8 ..H H H H D D G x x d x x d x f p p p q q 7 q q , 4 , - + r 0 ",
"w { * = > , , , , , 6 , , 6 7 7 7 q 7 8 7 7 8 8 8 f 8 f 8 f 8 f 8 S 8 H S f x f x f x f x x d u p q q q q q 7 , , , , , - o r 0 ",
"0 ` : - , , 6 , , , 6 7 7 7 7 7 7 q p p 8 f 8 8 f 8 7 S f D k k S x 8 H f x f S x x d d u y 8 d y q q 6 q 6 , , 6 , , , - o r 9 ",
"w ~ * - , , , , 7 7 7 8 7 d q l f p f k L f J S S L G f f f k k 8 S S 8 f f 8 d d 8 8 q 8 7 7 7 7 6 6 , , , , > > > ; ; * X r 9 ",
"0 ! : - , > , , 6 7 q 7 7 7 q y 8 q q q p p f 8 8 S 8 S p f 8 f d d d f d p p 8 u p 8 q q 7 7 7 6 6 6 6 , > 5 > ; ; > ; $ o r 9 ",
"9 N . . o O + + o O O + & & & & & * * * * * * * * * * * : * * * * * * * * * & * & & & & & # # # + + + O O O + + + O o O + + r 2 ",
"9 Q ` ~ / / / I A A A B t P I I I ) ) ) [ / [ { [ / _ _ I I / I I I B B B Z A A P I I I ) ~ { ) ' { / ' ` | | | } } ` ! ! Q t 9 ",
"9 5 5 5 9 0 0 0 w 9 5 5 9 5 0 w e e B I I I C B t w w 6 e e 7 w 0 0 0 e 0 e 0 w 0 w e 0 w e e t e t e e w w 0 0 w 0 w 0 w 9 9 2 "
};
