/* XPM */
static char *YmlyY2hfZmVuY2U_[] = {
/* columns rows colors chars-per-pixel */
"64 64 101 2 ",
"   c #876038",
".  c #8C623A",
"X  c #91663D",
"o  c #94683F",
"O  c #976A40",
"+  c #9B6E42",
"@  c #9E7145",
"#  c #A27346",
"$  c #AB7446",
"%  c #AB7847",
"&  c #A47649",
"*  c #AA7648",
"=  c #A6794A",
"-  c #AB7C4D",
";  c #B37D4C",
":  c #B97E4D",
">  c #AD7E50",
",  c #B27E50",
"<  c #B5814E",
"1  c #B9814F",
"2  c #AE8251",
"3  c #B48352",
"4  c #BC8552",
"5  c #B48956",
"6  c #BD8B55",
"7  c #B48B59",
"8  c #BD8C59",
"9  c #BE915B",
"0  c #BE9560",
"q  c #C28753",
"w  c #C38C56",
"e  c #C88E57",
"r  c #C58F58",
"t  c #C88F58",
"y  c #C5925A",
"u  c #C9945C",
"i  c #C7985E",
"p  c #C7995F",
"a  c #CB985D",
"s  c #CB985E",
"d  c #C99A5E",
"f  c #C99B5F",
"g  c #CB9B5F",
"h  c #CC9B5F",
"j  c #C49561",
"k  c #C69661",
"l  c #CC9661",
"z  c #C59B64",
"x  c #CB9860",
"c  c #CA9B60",
"v  c #C89862",
"b  c #CA9B63",
"n  c #CC9B61",
"m  c #CD9B61",
"M  c #CB9D61",
"N  c #CC9E61",
"B  c #CD9E61",
"V  c #CD9D62",
"C  c #CC9F62",
"Z  c #CD9A65",
"A  c #CC9C64",
"S  c #CD9F65",
"D  c #CE9E64",
"F  c #CE9F65",
"G  c #CD9F69",
"H  c #D09F69",
"J  c #CCA063",
"K  c #CDA163",
"L  c #CDA164",
"P  c #CEA365",
"I  c #CFA366",
"U  c #CEA367",
"Y  c #CFA466",
"T  c #CFA168",
"R  c #CCA26A",
"E  c #CFA668",
"W  c #CDA46B",
"Q  c #CEA56B",
"!  c #CFA56E",
"~  c #D0A369",
"^  c #D0A769",
"/  c #D0A76A",
"(  c #D1A26E",
")  c #D0A66C",
"_  c #D1A86C",
"`  c #D1A96D",
"'  c #D1AA6D",
"]  c #D2AB6F",
"[  c #D2A970",
"{  c #D3AB71",
"}  c #D2AD70",
"|  c #D3AD72",
" . c #D3AE72",
".. c #D4AC73",
"X. c #D4AE73",
"o. c #D4AF73",
"O. c #D4AF75",
"+. c #D6AF78",
"@. c #D5B176",
"#. c #D5B277",
"$. c #D6B279",
/* pixels */
"X o O # & - < 2 - - * # # # # # # # # + + @ @ + + + + @ $ ; 3 t u r 6 3 , 3 5 5 6 8 y j j h h Z S S ~ ~ / / E T Q ~ U E R Q ( X ",
"> +...| #.| ] ] ] ] ` ^ Q ^ U U S n u n n s l s s u t r u u d u l t u t t t u u h h n n n n n n n V V S P P U / Q T K d y c Z X ",
"- #.` / P ^ ^ P P P U P V V c n s d a a s u s u s u s u s u u u u l u u l u u t e w e e t w u u y u u r r y w y y V K K K T H . ",
"& ..U c y y i K P K K K V V n n c h s s s s u u u u u t t t e e w w w w w w t t e u u a s s h s u h h V g g g J U K K U P ) ..X ",
"# T u 4 - - < 6 y y y 6 6 w 6 6 w 6 w w w y y u u u s u u u u u u u u u u u u u u a u a u u u u h d V V h K K K C K K h T ^ #.X ",
"& | U i 6 y d K K P K K P V K h h s s y y w w w 4 q 4 q q w w q w q w w w e e w w w e w r r u y u y y y y d i V d d g d V P @.o ",
"@ g 6 - & < 5 6 9 y y y y y y y y r w w w 4 6 w u u u s u u s u u u h u u u u u h a s s h h s h h s h d h d u y i d d V V / | o ",
"= #./ T U U P K K K V K h V h h d d s s h y y w 4 4 4 4 3 1 1 q 1 1 : 4 q w w w r r w r r r y y y u y u u d d d K i d K h d U X ",
"= ] P g K g i a i i y i y y y y y r y r w y w w 6 r r u u u u d s u u u t r t w 6 6 r w r y y y h h d V K P V P V J K C K / #.o ",
"= #.` / E P P K K h V K h g h h d s h s s u e w w 4 4 : ; ; ; ; ; ; ; : 3 4 w w r r r r r r w y w 6 r w y w y y y y y y v J ` o ",
"o < = = - < 5 y d g h h g g h g s u u r u u s s u u t u u u u u u s u s u u u u u y i u u u u h h u s d d K V K K C K U P P @.o ",
"o v w 9 9 i J d K V K K B B h g h d s s u w w w r w w w w w w w e w w w w w 4 q w w w w 6 w w r y y d d d c V K K K C K P / @.o ",
"@ ^ P K V J J J d d d i a a a a u u h s h u d u s s u u u u u u t u u r u u u l u u h h u h n n h u h l d d l d K U K V d K y   ",
"@ #.` E P P V K U U V C g g a a h u y u s u u u u t u u u u u u u u u u u t e w w w t t r t t t u h n c V U U I P ) E / ` ` ( X ",
"O ` V c z i i V U U E T U E K U S ~ G S S S S S Z Z Z S Z S S S n x x x x x l c Z V U H S ~ ~ S S G c z c j x j y j j j U ) H X ",
"X Q z 0 9 7 7 5 5 5 5 2 2 2 > - > > - > - - - - - - - * ; , 3 5 ; $ + O X X X X X X X X X X X X .   .   .     .     .   . X o . ",
"7 - - - & = - & & - & $ = = & # + O O o O o O O O + + o o . . . . R W T R E W T W z z j 0 0 z z z z c b c c z j j y y r 8 r 8 8 ",
"V S V V V K S U S U U I P E ) ) ` ..` | | ` | | ] | | | #.#.$.# o @.E E U P R P U P P E Y Y Y Y U S c l u h n Z S S S T G S S S ",
"n n u h n n h d s u u u h h d n V V h V E P P P P P P P P ^ #.@ X U y 4 9 < 6 9 9 6 6 d d i y u u u c n V Z c d n n n n h d c c ",
"u y w y w w u d d h h u d u d c K d K K c d K K J v J K K P | O o @.P K i i K K K K K V P V K V V V V S V V c h y r r w w r u y ",
"s s s h h d d s C i C C N J N J K K K K U K K K K K K P T ` Q O @ | E U C C C K K K C C d K V K K C d h i w r i s h d d n n s s ",
"a u u u y r 6 4 w 6 3 3 1 6 y g d y i 6 6 8 y 9 y 9 y i V Q ! . @ #.E J C C y 9 6 6 y i K d d d h u d i d d d d y u h c d s s s ",
"3 4 3 5 6 6 r y d g y w y i y y 9 y 9 9 9 i i i i i d d P ` A   @ @.E U U K K U K K K C z C d i i y y y w r w 6 w < - ; ; < 3 1 ",
"w w r 6 w 6 w 6 y a g J J g g i g d d d C d C V J V K C E ` c   X r 6 6 6 i i i y i i y y y y y w 9 r 6 y y y y r r y y w w w w ",
"d V d h V d V d u y w 6 y g V h C C J C g i i y i i i g P ` j   & #./ Y U h d h d d J i d d d d V d d h r y d y d i d n n h n h ",
"y w y r y w r y y d K V V V g J C C J C P P K K P K P K U | j   # ` U d i i i i K h J K K K K V V V h V V h n d h u u y r r r r ",
"u u u u u u u u a d h a y y y d i i y y y 9 y i i y 9 9 C T 8   = #.E U K K K h d V d d d d h C V g d c d h s u y y y s s s s s ",
"h h h h h u d n a d u a d h d h g g J J d J J K g d i i P | 8   = #.Q E K K V K K V V V K C g C d d s i s d h u n d c s h h s d ",
"4 q w w w r y y y i c V V V h K J J J K g i y i i y 9 v J / 9   O s y d V U K U U U I U Y U U U U V V K l h u r w w 4 4 4 1 w w ",
"V V n h d V V V n h K V V U U U K J K K K K P P P K P E / ] R   @ ) / / E P P P I I s y t w q w q q q w w w w h n c V V n n n c ",
"V U S U U E U ~ U ^ ^ ) / ` ` / E P E P P P P / P E E E E | R   * +.` Q T E T ^ ~ / G I U S / ` ` | ^ ....) ` ) ) / E E H ~ U S ",
"5 3 3 ; - - ; 2 - - - - = - 2 5 9 i z J z z z z z 0 J z W ' z   + & @ O X X . X X o + + @ # @ # # # # # # # @ + + + + @ # * - 3 ",
". > # # @ @ # + + + + + + + + o O X X X X X X X . O X O X O O # # # # $ $ & $ = * * # $ # # # # # # @ @ # # # - - > - 3 2 5 5 . ",
"O G b b S T T V ~ I H S / V H h H l l l u l u l l u l l l l l l x Z l l l l l l l l l l l l l l Z l Z G / ( ^ ) ) ) ` ^ ` ` | + ",
"X G c d d u u h n n h h s l a d u a l t u t u u t u t t t t u u u r u u t u u t u u u u u l u s s s n d a y s h V V P U E ` @.+ ",
"+ ..Q I d d y u u u u u u u e e w e w e q e q w q q q q e : : : : : : : ; q w e t u t t u u u s u s s s a u u y 6 6 < - 3 y U X ",
"+ O.E T V K K h n h h s a u u u u u e e t t t t r q t t e e t t t t t t t w q q q 1 ; $ $ $ * 1 w w w y s d V V V K B V V / ` O ",
"+ ( n d u a h d h s a s u a a u u u u u l t t t t t t t w t e e t e e w w t t t t u u u u u u r r r y w 6 w w y y y d d K Y ..O ",
"O l e q 1 q u u a s s s u a a s u u u e t t t u u t t t t t t t t t t e w q q w q q w q t u u u u u u u s a a d K h K K I I ..o ",
"X e : $ $ ; ; 4 w u s u y w w w q w q w r q w r q t t w e e r t e r e e w t u t u t u u u e r t t u u u s s d d g d h V V Y ..O ",
"+ Z l t t l t l y y e w u u u u u w w w q q 1 1 : : - $ $ $ $ * * , , : q q w r t t r t w t r u u u u d h h d V V K K P P ` | + ",
"X : $ $ $ : q q e u h s u u e u u u e u u u u e t t t t r q w r q q 4 , , : : ; ; : ; 4 q w t r w w u u h d d h V h V i d V Q + ",
"O q q q w e t t u y w u y u u u u e u e e e e e t t t t t t t t e t t t t u t t u t u t t u t r w w w y y w y w w 6 3 ; ; q u X ",
"# Z l l l l l Z h h h s u u u y u u u u u u w u t t t t t t t t t u t t t t t l t t u u t u u u u u y r r w r w y y w 6 r r Z O ",
"o : $ + $ ; ; q w u h u u u u u u t t t w e e w q w q t q e e t e e r t t t t t u t u u u u u u u h u h u h s n V V n V n S [ O ",
"# H t x l n U V V V h h s s u s s u l e s u u s x x l l l l l l l l x x u l t t u u u l l l l l h u u u h d n V V V n u d l ~ O ",
"# ( G ~ V n u V m H S S D D Z S D D Z D V H S Z Z Z Z Z l j j 8 6 4 ; , , - * , , ; , : : 4 q w e h n n V V S I I I ~ / / ( ..+ ",
"* Z c 0 r 8 8 8 5 - - # # + + # # # # # @ + + o O O X . . .     .     .   . . . . . .   .     X X o + @ # # + + + o + # # - 3 o ",
"# O O X X . X . o + & ; 3 3 - - = @ + @ # @ # @ @ + + @ # - 4 @ - T E E Q ) Q Q Q R A z z 9 y 8 r 8 8 5 5 5 5 5 3 3 ; - - * # = ",
"S G S H S Z Z s e a n S S S U / ^ ^ Q ^ ) ` ` | | | | ` ` Q H O > $.) / / E ^ P Q E E P E Q E E U V n d n d n n V H S n n n Z U ",
"y u u u u s n h S S S V V K K V K P P E ^ ^ E E P / E P T E l . = $.` / P Y K K U C K C V U d V V V V d s u u u u u u u r u u u ",
"u t u u u u u y u u u w u y y y i d d i d d V V V J U T E [ | X @ ) u 5 % - - 6 9 9 6 y 8 i d d d d u h y y y y e t u s n d u u ",
"w r r r 8 r w y y y i a d V V h K K K K K K K N K K K J P ^ ..X + $.E E P K P K K K K K h V K y y r i d d C s y y y y y r w r w ",
"s s u s y s a a a d a a h n K K N N J N K g J J K h K K P ` [ O X | T U d g i i i y V d d K J C i i y w 6 w 6 w w r w w y h u h ",
"s h d d d s a a a y a a g V h h J P K K K h N K K h K K U ^ T .   T Q E P K K K V h V d K g d d c d y i u s c c d u u u s i n d ",
"w w w y y u y a d d d d g g g h a i J g g K J K K i y y y V c . . i [ P K g h V K K K K h V K V V g V g d d s c c d d w w r w w ",
"s d d d a a a a u y y u h i a d g J i J i i i K K Y U U / ) H o . A ` / P K V V C C C V U C U K V c u i u i s y y u h s d a d a ",
"u u u u u u y u h n n d i s d u g i g g g g g i d y 6 6 r j r . . b ` T K V J J K K C i C d C g C d h d i s s n h d d u u u u u ",
"u u u u a a h s d a d h c d h i g g J d J J J J K K V V S I j . . y V i 9 9 y y i y i i i d d i y y y y y y y u u y y w y a u y ",
"u u e y u y u u s a s s d d d V h d C V g N g N V K U I / ..` X X Q ` T g d i i i i i i d i i i d d d d s s h u u h u h a y a a ",
"u h a u h u u s u h h d d V V K K K K K C K V h i y y y y d y . O ] P U J g K K K V V K V V V E S V V V c c c d n u x c a l s s ",
"h V S V S S V S V V n V V V V V V U K K K K K P P P P P / ` ( . O / / P P P P P ` P P P P V V P U K S K S c S V V G c b h n n n ",
"H ( H H ( ~ H ~ ~ / ` ` ^ ) ^ ^ / P U E P E E E E E P / / / ( . . | ] E ^ E E ` ` ` Q U U T G z z z 9 y 8 0 r j j j j x x Z G H ",
"X X O . . . . X O + @ & & & - - 2 2 5 5 5 5 5 7 7 7 7 7 9 z z . . 5 2 - & @ @ @ X X . . .   . . . . . o O o   .   . .     . . X "
};
