/* XPM */
static char *result[] = {
/* columns rows colors chars-per-pixel */
"64 64 214 2 ",
"   c black",
".  c #020202",
"X  c gray1",
"o  c gray2",
"O  c gray3",
"+  c #090909",
"@  c #0B0909",
"#  c #09090B",
"$  c gray5",
"%  c #0E0E0E",
"&  c #101011",
"*  c #111111",
"=  c #111113",
"-  c #131113",
";  c #131313",
":  c gray8",
">  c #161416",
",  c #161616",
"<  c #171617",
"1  c gray9",
"2  c #191919",
"3  c gray10",
"4  c gray11",
"5  c #1D1C1C",
"6  c #1D1D1D",
"7  c #1F1D1D",
"8  c gray12",
"9  c gray13",
"0  c #242222",
"q  c gray14",
"w  c #252424",
"e  c #252525",
"r  c #28272A",
"t  c #28282A",
"y  c #2B2A2B",
"u  c gray17",
"i  c #2B2B2C",
"p  c #2C2B2C",
"a  c #2C2C2C",
"s  c gray18",
"d  c #2F2E2E",
"f  c #2F2F2F",
"g  c #323131",
"h  c #353435",
"j  c #343437",
"k  c #353538",
"l  c #383738",
"z  c #38373A",
"x  c #38373B",
"c  c gray22",
"v  c #38383A",
"b  c #3A383A",
"n  c #3A383B",
"m  c #3A3A3A",
"M  c #3D3B3B",
"N  c #3A3A3D",
"B  c #3B3A3D",
"V  c #3B3B3D",
"C  c #3D3B3D",
"Z  c gray24",
"A  c #3E3D3D",
"S  c #3E3D3E",
"D  c #3E3E3E",
"F  c #3F3E3E",
"G  c #3F3E3F",
"H  c #3F3F3F",
"J  c #3E3D41",
"K  c #3E3E41",
"L  c #3F3F41",
"P  c #414141",
"I  c gray26",
"U  c #444444",
"Y  c gray27",
"T  c #454448",
"R  c #464548",
"E  c #494848",
"W  c #484849",
"Q  c #4B4949",
"!  c #4C4B4B",
"~  c #49484C",
"^  c #4B494D",
"/  c #4C4B4D",
"(  c #4C4B4F",
")  c #4C4C4C",
"_  c gray30",
"`  c #4D4D4F",
"'  c #4F4D4F",
"]  c #4F4F50",
"[  c #4F4D52",
"{  c #504F50",
"}  c #504F53",
"|  c #505050",
" . c #525052",
".. c gray32",
"X. c #535252",
"o. c #535353",
"O. c #545353",
"+. c #545354",
"@. c #545356",
"#. c gray33",
"$. c #565656",
"%. c #575656",
"&. c #565657",
"*. c gray34",
"=. c #585757",
"-. c #56545A",
";. c #58575B",
":. c #585858",
">. c #5A5858",
",. c #58585B",
"<. c #5B5A5A",
"1. c #5B5B5B",
"2. c #5C5B5B",
"3. c #5B5A5C",
"4. c #5B5B5C",
"5. c #5B5A5E",
"6. c #5C5B5F",
"7. c gray36",
"8. c #5E5C5C",
"9. c #5E5C5F",
"0. c gray37",
"q. c #605F5F",
"w. c #5C5B60",
"e. c #5E5C60",
"r. c #5E5C62",
"t. c #5F5E62",
"y. c #5F5E63",
"u. c #605F60",
"i. c #605F63",
"p. c #606060",
"a. c #626060",
"s. c #626062",
"d. c #626063",
"f. c #626262",
"g. c #636262",
"h. c #626263",
"j. c #636263",
"k. c #646363",
"l. c #626064",
"z. c #636264",
"x. c #636266",
"c. c #636366",
"v. c #646364",
"b. c #646366",
"n. c #646367",
"m. c #646464",
"M. c #646466",
"N. c #646467",
"B. c #666466",
"V. c #666467",
"C. c gray40",
"Z. c #676666",
"A. c #666667",
"S. c #676667",
"D. c #676767",
"F. c #686767",
"G. c #666668",
"H. c #676668",
"J. c #676768",
"K. c #67676A",
"L. c #686768",
"P. c #68676A",
"I. c #686868",
"U. c #6A6868",
"Y. c #68686A",
"T. c #68686B",
"R. c #6A686A",
"E. c #6A686B",
"W. c #6A6A6A",
"Q. c #6B6A6A",
"!. c #6A6A6B",
"~. c #6B6A6B",
"^. c gray42",
"/. c #6C6B6B",
"(. c #6B6A6C",
"). c #6B6B6C",
"_. c #6C6B6C",
"`. c #6C6C6C",
"'. c #6E6C6C",
"]. c #6C6C6E",
"[. c #6E6C6E",
"{. c gray43",
"}. c #6F6E6E",
"|. c #6E6E6F",
" X c #6F6E6F",
".X c #6F6F6F",
"XX c #706F6F",
"oX c #6F6E70",
"OX c #6F6F70",
"+X c #706F70",
"@X c gray44",
"#X c #717070",
"$X c #717071",
"%X c #717171",
"&X c #737171",
"*X c #737173",
"=X c gray45",
"-X c #747373",
";X c #747474",
":X c #757474",
">X c gray46",
",X c #777575",
"<X c #777777",
"1X c #787777",
"2X c gray47",
"3X c #797878",
"4X c #797979",
"5X c #7A7979",
"6X c gray48",
"7X c #7C7A7A",
"8X c #7C7C7C",
"9X c #7D7C7C",
"0X c gray49",
"qX c #7E7D7D",
/* pixels */
"U./..X.XQ.Q.}.=X,XqX7X;X%X@X.X.X).S.i.i.r.i.S.F.i.i.L..X@X XT.w.t.i.B.F.z.e.i.i.i.L..X.XQ.Q.XX%X3X<X4X9X4X;X%X`.}.'.{.%X%X.X/.U.",
"/.@XQ.U.U.{.%X:X7X8X=X%X#X'.U.B.w.r.S.Q.b.t.i.F.F.F.[.@X'.B.r.t.S.F.U.b.t.d.Q.Q.Q.@X=X=X.XQ.Q.&X=X3X9X3X>X9X-X%X`.}.%X@X.XU.XX/.",
"%X%X%XQ.U.U.'..XQ.%X%X%X`.U.b.w.r.L.U..X%X{.B.w.w.w.w.b.U.U.U.L.e.w.B.{.{.^.%X%X%X5XqX2X%X%X%X9XqX,X%X,XqXqXqX;X%X%X}.U.U.U.U..X",
"XXQ.Q.U.}.@X{.Q.U.Q.Q.@X@X'.L.F.S.t.[.%X{.'.@X{.S.r.w.r.r.l.U.U.F.t.r.M.'.@X%X%X6X>X4X9X3X=X9XqX>X3X9X3X=X;XqX9X:X%X%X}.F.t.F.Q.",
"Q.U.U.}.#X<X4X:X.X.X.X`./.'..X{.U.B.x.x.l.B.'.%X.XS.B.B.B.v.i.i.i.b.B.F.Q./.`.%X;X3X1X>X&X/.XX;X=X;X&X}.'.%X:X>X=X}./.L.i.B.i.S.",
"Q.{.{.'.@X;X<X1X3X3X&X.XQ.Q.}.@X{.{.V.t.i.z.B.'.'.{.Q.U.B.i.w.w.z.F.U././.Q.}.%X%X>X;X.X/.Q.}.%X%X}.Q.Q..X%X%X%X}.{./.F.v.d.e.i.",
"Q.}.%X{.{.{.XX;X4XqX1X<X#X'..X%X%X%X{.P.L.S.b.U.U.'.'.'.L.l.l.z.z.v.v.R.{.}.%X{.E.P.).{.'.'.{.%X.X'.XX;X>X%X%X,X-X&XXX'._.G.z.l.",
"/./..X.XQ.Q.}.%X=X5XqX7X:X-X;X%X%X>X>X=X}./.^.U.U./.@X@X`.Q./.^.d.i.r.d.R..X{.B.r.t.B.'.%X@X/.%XXX#X>X7X8X>X%X3X5X1X>X;X%X.XQ.S.",
"%X.XQ.Q.Q..X#X@X@X%X6X>X;X3X5X;X:XqX9X:X%X#X}.Q.Q.@X%X'.Q./.@XXX^.Q.b.y.z.U.B.t.t.D.Q.'.@X@X%X-X5X<X;X<X7X6X%X=X;X4X9X3X@XQ.Q.l.",
".XQ.%X%X%X%X{.U.Q.%X%X6XqXqXqXqXqXqX;X%X%X.X/.%X%X%X%X%X{.U.U.Q.@X%X%X'.U.B.r.U.U..X%X{.U.Q.%X9X:X4XqX3X%X%X%X7XqXqX3X%X%X%X%X^.",
"/.@XQ.@X%X'.U./.XXQ.@X=X=X2XqX7X=X=X7X9X9X9X3X%X%X7X9X,X%X@X@X@XQ.@X%X%XE.e.r.U.XX%X'.U./.#X%X=X5XqX2X=X%X=X9XqXqX1X<X4X%X%XQ.U.",
"U.Q.U.Q.^.Q./.@X%XXX%X%X1X9XqX0X5X%X;X;X;X3X9X7X7XqX<X=X,X2X%X%X@X/.^.^.V.w.w.t.R.^.Q./.).l.l.Q.&X;X2X7X7X5X:X;X;X2X2X%X^.~.i.t.",
"U.U.U.z.d.B.Q.{.%X%X3X4X1X,X,X2XqX4X=X{.`.@X,X1XqXqX6X4X2X;X@X`.`.W.v.d.t.t.b.b.L.U.`.@XOXK.w.i.W.XX;X,X2XqX4X=X%X;X&X/.U.U.!.i.",
"b.L.z.e.d.z.B.I.K.K.&X-X,X:X@XXX2X2X2X@X^.Q.@X3XqX3X2X2X:X@X`.U.z.z.t.i.i.r.v.U.U.b.V.K.K.G.z.z.F./.{..X=X2X2X.X{.XX@X`.W.{.%X!.",
"l.v.w.i.S.b.b.S.i.w.v.F.#X&X{.{.%X%X2X%X'.`.XX4X4XXX@X%X|.P.B.U.d.e.w.i.z.d.l.U.U.z.t.w.w.r.b.U.U.U.Q.}.@X}.}.Q./.{.].Y.B.!.{.@X",
"S.t.w.B.L.U.F.S.B.t.t.S.Q.^.{.%X%XXXXX^.'.XXXXXXXXF.).].N.e.d.U.U.d.t.t.l.S.S.S.U.U.v.t.t.w.w.B.Q.^.{.XX{.S.S.S.~.~.B.t.w.w.B.[.",
"F.S.w.w.b.F.z.r.i.U.U.W..X%X@X#X@XQ.U.U.U.Q.U.U.U.t.w.e.r.d.F.F.U.U.U.U.b.e.w.w.S.U.U.U.b.w.r.r.].@X`.F.B.r.w.w.e.z.F.b.w.r.r.S.",
"w.w.w.w.w.w.z.U.U.U.U..X%X{.U./.%X%XQ.U.{.%X.XU.=.0 , 1 2 1 > < h g.U.U.E 1 > > > 1 2 q j , 2 2 2 2 < > L F.w.w.B.z.w.w.r.U.U..X",
"S.S.S.r.b.S.F.U.Q.@X@Xb.i.y.z.U.Q.Q..X@X'.{.%X*.:             4 } t.t.t.V .         & W H               m t.w.)..X^.S.R.|.@X3X7X",
"i.d.U.B.l.i.b.U.U./.%X].l.i.v.z.U..X%X{.Q.Q.>.,             3 a.B.r.w.d.S .       + R w.S               l V.).@X{.Q./.XX%X%X:X7X",
"v.z.l.l.r.i.S.U.Q.{.%X%X). X*XoX}.%X%X.X%Xg.2           . 9 Q.{.{.V.v.R.I .     # _ L.i.N               C .X2X3X#X{..X-X3X3X3X1X",
"F.z.w.w.i.S.Q.'.'.{.{.@X%X>X6X9X,X%X%X%X7.2             0 I.1X%X<X.X'..XU .   * ...XL.i.n               P &X3X9X3X;X%X-X4XqXqX3X",
"b.t.w.t.S.U./..X}.U./.@X%X=X<X5X4X%X;X7.,             6 XX7X>X>X5X=X%X=XY . % | {.Q.b.i.B               I >X>X4X5X>X=X>X<XqX7X5X",
"l.F.t.B.F.L.L.F.U.U.XX%X%X<X2X%X%X=XU.3           . 9 ,XqXqXqX7X=X%X=X3X! O | Q.Q.Q.U.U.G               U qX9X:X%X=X2XqX9X8X=X@X",
".XU.U.t.w.v.z.i.U.U.U..X%X%X%X%X=Xm.4             w Q.qXqXqX7X%X%X%X5XqX%.o.%X%X%X%X'.U.F             . Q 9X&X7X>X2XqX5X%X%X%X/.",
"Q.U.U.F.F.l.e.w.i.U.t.t.S.{.>X9Xq.,             7 m.=X=X2XqXqX9X9X9X,X=X.X;X9X9X=X%X%X3.-             , <.;X8X:X%X=X=X@X/.%X^..X",
".X.XU.U.{.=X$X~.B.t.w.v._.@X=Xg.,             4 #X%X%X1X9X6X<XqXqX<X=X%X>X7X9X:X5X;X4.;             + f.}.`.;X%X%X%X.XQ.U.^.d.L.",
"-X3X,XQ./.&X1X2X-XE.E.x.c.N.&.2           . 8 0.`.#X%X;X<X1X3X<X<X3X3X>X%X&X>X%X#X0.8           . , @.J./.U.`.G.!.`.'.}.{.U.B.l.",
"3X9X2X.XQ./.&X5X7X%X{.B.z.~ *             4 1.U.U.'.@X%X%X;X<X%X<X9X5X;X@X'.}.%Xp.5 .           1  .t.t.b.U.z.r.d.S.^..X#X'.U.b.",
"5X3X.X.X'./.'.#X,X%X`.W.$.;             2 C.F.B.B.B.`..X]._.@X,X4X1X%X@X%X.XW.f.:             @ >.U.B.i.d.b.d.i.r.d.B.L..X.XS.B.",
"-X@XU.Q.XX.X/.U.Q.@X@X<.1           . 6 2.S.b.t.w.w.b.S.z.z.'.3X@XQ.Q.}.#X}.<.6           . ; :.U.U.U.L.b.e.S.U.z.r.w.t.S.S.r.t.",
"5X@XU.@X@XV.z.U.U.U. .,             4 =.z.e.i.S.w.e.e.e.z.L.L.U.U.U.}.%X{.8.7 .           2 / e.S.U.L.b.w.w.w.S.U.z.e.e.e.w.w.B.",
"@XU.U.U.d.b.z.d.U.O.=             * [ u.k.j.u.,.;.s.j.j.9.,.5.k.k.{.`.U.2.;             % =.S.L.U.d.e.w.w.w.w.e.B.U.L.L.S.w.w.e.",
"i.i.U.i.e.r.z.F.F.k                                             X o.U.U.Z .             r i.U.U.d.e.w.~ T S.S.S.d.t.z.U.U.S.].{.",
"z.w.i.b.t.d.z.i.d.m                                             X ` i.i.V .             u b.i.i.b.B.' ; b d.U.U.S.B.R.'.Q..X3X5X",
"^.z.z.L.B.S.S.d.e.v                                             X ^ w.i.Z .             a L.z.w.d.) %   l r.U.'.{.{..X@X.X2X9X3X",
"'.U.`.`.Q.^.^.L.n.z                                             X ` d.z.C .             y b.b.d.] *     l z./.@X.X@X%X@XXX3X3X-X",
"/./.%X%XXX&X@X'.@XA                                             o O.S.d.x .             t w.i...:       M /.%X@X^.`..X}.`.%X;X=X",
"=X=X%X=X7X9X1X%X=XI                                             o +.d.r.V .             p i.) %         D =X=X/.Q.U.U./.@X@X7X>X",
"qX9X%X8XqX<X%X>XqX{.o...*.<.<.<.<.<.<.#.*.<.=.....e             o / B.U.H .             f { $           I qXqX-X%X'.`..XU.U.@X6X",
",XqX9X:X=X=X,X9XqXqX9X9X<X=X1XqXqXqXqX9X9X4X=X@XU.f             o O.L.U.Q 3 3 3 6 6 4 3 c s 1 , , 1 2 3 ) ;XqX9X:X#X{.Q.U.U.5XqX",
"#XXXXX/.@X<X2X>X<XqXqX<X=X,X7XqX9X>X>X>X>X#X/./.{.f             o =..X/.Z.k.D.D.W.@X@X`.^.}.m.j.h.m.C.Q.:X5X>X>X}./.Q.Q..X.XXX-X",
"@X{.{.Q./.&X;X;X5XqX1X=X%X;X<X3XqX3X=X%X.X^.U.U.^.d             o %.@XXX{..X%X%X%X>X<X1X5X9X3X3X=X%X>X6X9X,X%X{.Q.U.^..X%X%X}.,X",
"{.{.{.'.'.XX@XXX:X2X&X>X<X;X%X=X3X3XXX{.'.'./.L.j.a             o O.`.{..X%X%X%X%X.X@X;X3X3X3XqX3X<X2X3X,X{.{.'.'.Q.^.{.{.{.%X6X",
"S.U./.@XXX.X`.Q.'.%X%X2X9X5X;X%X%X.XQ.Q..X@X`.b.6.i             o O.U.Q.{.%X%X.X.X'..X%X%X&X>X5X9X7X>X%X@X/./.@X%X}./.^.U./.@X2X",
"l./.@X@X^.F.S.W.@X@X%X=X3X7X,X+X[.S.U.{..X^.b.t.e.s             o X.U.}.%X@X.XU.Q.XX@X@X@X&X7X=X4X>X=X;X=X%X%X%X%X%X=X%X'.%X@X@X",
"Q.@XU.U.U.l.w.i.U.U.@X6X,X{.U.B.w.w.S.U.z.w.i.U.F.g o o o o o o O ( !.@X{.U.U.U.@X%X'.U.U.Q.%X%X%X%X1XqX7X%X%X%X%X%X<XqX7X%XQ.U.",
"r.i.U.U.U.L.z.w.i.U.Q.@X%X%X!.e.r.F.U.U.L.z.w.r.r.( J I Y I J J K -.r.t.z.U.U.U.W.Q.{.@X}.U.Q.Q.@X%X%X<XqX7X%X%X%X2X0X6X=X%X#X^.",
"S.B.t.t.t.t.z.S.S.U.U.Q.^.}.{.S.B.i.F.{./.~.]._.S.r.w.r.t.d.S.B.e.w.z.S.v.t.i.U.U.U.Q.{.%X}.U.U.Q.^.}.=X=X'.^.@X2X1X;X%X^.^.^.U.",
"Q.[.b.b.t.d.S.U.Q.}.}.}.^.Q.'.}.{.!.U./.{.@X@X/.U.B.t.w.i.L.}.{.B.r.t.B.F.z.w.d.d.S.b.A.`./.U.U.U.`.@XXX/.U.}.%X:X#X`.R.d.d.L.U.",
"b.P.'.{.V.R.{.{.{.'.'.@X.X/.Q.}.%X%X}.{.{.'.`.U.U.U.b.z.z.b.E.%X{.B.V.~./.F.z.z.e.d.z.B.U.Q.{.{.Q./.'./.U.U.'.'.@X.X/.F.z.z.z.z.",
"i.r.!.@X{.{.@X%X@X/.U.'.}.{.`.{.%X,X,X=X.X`./.L.b.b.F.S.i.r.b.}.}.'.XX@X`.F.b.b.d.d.B.Q.`.'.%X.XQ.U.U.U.U.U.U.U.'.}.`.U.U.U.l.r.",
"b.t.t.(.].~./.XXXX.X/.^.^.}.=X;X>XqX7X;X%X@X{.F.t.w.v.l.t.d.S.S.U.}.XX~.S.b.t.w.B.L.U./.@X%X%X/.^.Q.U.Q.^.Q.U.U.Q.^.U.S.U.S.S.d.",
"i.U.F.r.e.b.U.U.U.Q.@X%X%X%X<X9XqXqX:X%X%X}.Q.Q.W.t.r.B.U.B.e.e.S.U.U.z.e.t.S.r.r.S.Q.U./.#X%X%X#X/.U.'.%X@XU.W..X@XK.i.S.w.e.B.",
"U.F.e.w.B.U.U.U.Q.%X%X%X%X1X4X:XqXqXqX>X%X%X%X%X%XR.U.{.{.U.S.w.w.S.U.U.b.w.t.L.U..X%X{.U.Q.%X%X/.U.'.%XXXU.U.@X%XG.w.w.w.w.S.i.",
"}.U.S.]..X/.`.@X@X%X%X`.Q./.}.%X;X;X;X4X7X7X3X%X%X@XQ.Q.'.@X}.S.S.U.z.t.l.S.L.@X@X%X{.Q./.@X%X%X@X@X@X>X7X3X@X%X'.I.S.S.S.S.i.w.",
"#X}.U././.{.@X%X@X/./.U.U./.@X%X%X%X3X9XqXqX9X5X5X=XXX.X@XXX^.U.U.z.r.d.R..X.X/.@X%X@X.X{.'.%X%X%X%X>X7X8X>X%X%X@X.X`.U.F.i.b.t.",
"'.`.U.U.U./.'.}.#X{.U.U./.{.'.'.'.%X,X7XqX7X<X<X<X&X<X3X3X:X{.{.U.Y.P.Y.Q.}.%X{.'.'.'.'.'.}.%X2X3X3X7XqX9X3X3X=X,X;X@X{.`.v.L.B.",
"/.L.b.v.v.S.U.Q.{.{.'.'.{./.Q./.U.{.#X<X7X7X>X%X%X,X9X6X3X,X%X%X'.{.{./.S.V.E.{.Q.U.U.Q.}.%X%X2X3X8XqXqXqXqXqX2X2X:X%X@X{.'.'.Q.",
"@XQ.x.i.i.z.B.S.U.U..X%X{.Q./.}././.}..X>X5X3X>X>X5X3X=X@X%X%X.X.XQ.S.B.z.i.d.U.U.Q./.'..X.X.X.X%X1X9XqX9X5X5XqX2X=X@X}.`.%XXXQ.",
"@X%X%X/.U.z.e.i.F.U.U..X@X'.U./.%X%X/.Q.}.=X<XqX8X=X`.U.`.@X@XQ.U.F.i.e.z.U.U.Q.Q..X%X}.Q.U.U.Q.@X=X3X0X5X%X=X6X9X>X'.^.@X@XQ.U.",
"/.%X%X%X/.U.z.w.t.U.U.U.U.U.`.%X%X%X%X%X%X<XqX8X%X%X%X`.U./.%X#XU.t.w.z.U.U.Q.%X%X/.{.%X.XU.U.@X%X4XqX4X%X=X0X-X%X'.U.U.U.U.U.U.",
".XQ.Q.Q.d.r.e.i.F.U.t.r.B.'.}.Q.Q.Q.@X3X9X3X=X=X%X%X/.{.@X#X@XQ.U.F.F.z.r.r.t.Q.@X@X'.Q./.@X@XQ.Q.XX=X<X5X%X=X/.Q.{.@X}.U.U.U.U.",
"%X.XU.d.e.w.i.S.F.t.w.v.F.Q.Q.U.U..X%X;X:X=X@X/././.}.@X%X.XQ.U.U.d.B.F.z.t.S.U.^.n.i.H.@X@X^.U.U.Q.}.=X=X/.%X@X^.Q.{.#X}.U.U.U."
};
