/* XPM */
static char *bWVs[] = {
/* columns rows colors chars-per-pixel */
"64 64 177 2 ",
"   c #3C3135",
".  c #3E3438",
"X  c #413639",
"o  c #43393C",
"O  c #3C3E47",
"+  c #3E414A",
"@  c #4C4243",
"#  c #44474C",
"$  c #46494E",
"%  c #514646",
"&  c #534847",
"*  c #53494C",
"=  c #4D4F52",
"-  c #574D50",
";  c #4F5053",
":  c #505154",
">  c #5D5356",
",  c #54565B",
"<  c #5D5D5E",
"1  c #655955",
"2  c #635B5C",
"3  c #595C63",
"4  c #646362",
"5  c #6A6465",
"6  c #696866",
"7  c #6E6C69",
"8  c #746961",
"9  c #726D6C",
"0  c #74716D",
"q  c #7E7268",
"w  c #696B71",
"e  c #7B7372",
"r  c #7D7973",
"t  c #82766D",
"y  c #85796E",
"u  c #837C73",
"i  c #837E7C",
"p  c #8F8376",
"a  c #868179",
"s  c #8A857C",
"d  c #92867A",
"f  c #838283",
"g  c #8A8585",
"h  c #87898D",
"j  c #8E8989",
"k  c #918B81",
"l  c #928D8D",
"z  c #9A9286",
"x  c #9D9589",
"c  c #9F988B",
"v  c #8B8D90",
"b  c #989292",
"n  c #9E9C9A",
"m  c #A09384",
"M  c #A39B8D",
"N  c #AB9F89",
"B  c #A69E91",
"V  c #A09B9A",
"C  c #ADA18C",
"Z  c #B0A48E",
"A  c #AAA294",
"S  c #AEA79A",
"D  c #AFA89B",
"F  c #B1A691",
"G  c #B4A996",
"H  c #BAAD95",
"J  c #B3AB9B",
"K  c #B9AE9A",
"L  c #BCB09B",
"P  c #B3ACA0",
"I  c #B7B1A5",
"U  c #BDB4A3",
"Y  c #BBB4AA",
"T  c #BEB8AD",
"R  c #B9B5B3",
"E  c #BCB8B6",
"W  c #C2B49C",
"Q  c #C5B89E",
"!  c #C1B7A3",
"~  c #C2B9A6",
"^  c #CBBDA4",
"/  c #C4BCAC",
"(  c #C2BDB2",
")  c #C2BFBC",
"_  c #CEC0A5",
"`  c #CCC0A9",
"'  c #D3C5AB",
"]  c #D6C9AE",
"[  c #D8CAAF",
"{  c #C5C0B5",
"}  c #CCC4B5",
"|  c #C7C2B8",
" . c #CAC5BB",
".. c #CEC8BA",
"X. c #DDCFB2",
"o. c #D2CBBD",
"O. c #DFD0B4",
"+. c #E2D3B6",
"@. c #E7D7BA",
"#. c #E7D9BB",
"$. c #EBDCBD",
"%. c #C4C4C2",
"&. c #CDCAC3",
"*. c #D3CEC2",
"=. c #D7D2C4",
"-. c #D9D3C6",
";. c #D6D2C9",
":. c #DBD6C9",
">. c #DEDACE",
",. c #D6D4D0",
"<. c #DCDAD3",
"1. c #DDDCD9",
"2. c #ECDEC1",
"3. c #E4DDCD",
"4. c #E1DDD2",
"5. c #E1DFDB",
"6. c #EEE1C5",
"7. c #EEE3CA",
"8. c #F0E6CE",
"9. c #E4E0D6",
"0. c #E8E2D4",
"q. c #E5E3DB",
"w. c #E9E6DE",
"e. c #EDE9DD",
"r. c #F1E7D0",
"t. c #F3EAD4",
"y. c #F4EDDA",
"u. c #E5E4E0",
"i. c #ECEBE3",
"p. c #EEEEE9",
"a. c #F1EFE6",
"s. c #F0EFE9",
"d. c #F7F1E2",
"f. c #F8F3E4",
"g. c #F3F2EA",
"h. c #F3F1EA",
"j. c #F4F2EB",
"k. c #F5F3EC",
"l. c #F6F5EE",
"z. c #F7F6EF",
"x. c #F5F5EE",
"c. c #F3F2EC",
"v. c #F9F5E9",
"b. c #F9F5E8",
"n. c #FAF7EB",
"m. c #FAF6EA",
"M. c #F9F6EB",
"N. c #FBF8EE",
"B. c #F7F6F0",
"V. c #F5F4F0",
"C. c #F6F7F0",
"Z. c #F8F7F0",
"A. c #F8F7F1",
"S. c #F9F8F2",
"D. c #F9F9F3",
"F. c #FAF9F3",
"G. c #FAFAF3",
"H. c #FBF9F1",
"J. c #FCFAF2",
"K. c #FBFAF5",
"L. c #F9F9F5",
"P. c #FDFBF5",
"I. c #FCFBF6",
"U. c #FDFCF4",
"Y. c #FCFCF6",
"T. c #FCFDF7",
"R. c #FEFDF7",
"E. c #FEFDF6",
"W. c #FEFEF7",
"Q. c #FCFBF4",
"!. c #FDFDF8",
"~. c #FEFDF8",
"^. c #FEFEF8",
"/. c #FEFEF9",
"(. c #FFFFF9",
"). c #FFFFFA",
"_. c #FFFFFA",
/* pixels */
"$.$.$.$.$.$.$.$.$.$.$.$.$.$.$.$.$.$.$.$.$.$.$.$.$.$.$.$.$.$.$.$.$.$.$.$.$.$.$.$.$.$.$.$.$.$.$.$.$.$.$.$.$.$.$.$.$.$.$.$.$.$.$.$.",
"$.$.$.$.$.$.$.$.$.$.$.$.$.$.$.$.$.$.$.$.$.$.$.$.$.$.$.$.$.$.$.$.$.$.$.$.$.$.$.$.$.$.$.$.$.$.$.$.$.$.$.$.$.$.$.$.$.$.$.$.$.$.$.$.",
"$.$.$.$.$.$.$.$.$.$.$.$.$.$.$.$.$.$.$.$.$.$.$.$.$.$.$.$.$.$.$.$.$.$.$.$.$.$.$.$.$.$.$.$.$.$.$.$.$.$.$.$.$.$.$.$.$.$.$.$.$.$.$.$.",
"$.$.$.$.$.$.$.$.$.$.$.$.$.$.$.$.$.$.$.$.$.$.$.$.$.$.$.$.$.$.$.$.$.$.$.$.$.$.$.$.$.$.$.$.$.$.$.$.$.$.$.$.$.$.$.$.$.$.$.$.$.$.$.$.",
"$.$.$.$.$.$.$.$.$.$.$.$.$.$.$.$.$.$.$.$.$.$.$.$.$.$.$.$.$.$.$.$.$.$.$.$.$.$.$.$.@.$.@.$.$.$.$.$.$.$.$.$.$.$.$.$.$.$.$.$.$.$.$.$.",
"$.$.$.$.$.$.$.$.$.$.$.$.$.$.$.$.$.$.$.$.$.$.$.$.$.$.$.$.$.$.$.$.$.$.$.+.[ ' Q W W Q Q ] $.$.$.$.$.$.$.$.$.$.$.$.$.$.$.$.$.$.$.$.",
"$.$.$.$.$.$.$.$.$.$.$.$.$.$.$.$.$.$.$.$.$.$.$.$.$.$.$.$.$.$.$.$.$.+._ H Z N C N N C ~ -.e.t.$.$.$.$.$.$.$.$.$.$.$.$.$.$.$.$.$.$.",
"$.$.$.$.$.$.$.$.$.$.$.$.$.$.$.$.$.$.$.$.$.$.$.$.$.$.$.$.$.$.$.$.6.3.o.o.} ~ H C C *.h././.T.r.$.$.$.$.$.$.$.$.$.$.$.$.$.$.$.$.$.",
"$.$.$.$.$.$.$.$.$.$.$.$.$.$.$.$.$.$.$.$.$.$.$.$.$.$.$.$.$.$.$.6.d.T.T.G.I.B.q.G N >././././.n.$.$.$.$.$.$.$.$.$.$.$.$.$.$.$.$.$.",
"$.$.$.$.$.$.$.$.$.$.$.$.$.$.$.$.$.$.$.$.$.$.$.$.$.$.$.$.$.$.$.6.J././././././.~ N ~ G./././.J.7.$.$.$.$.$.$.$.$.$.$.$.$.$.$.$.$.",
"$.$.$.$.$.$.$.$.$.$.$.$.$.$.$.$.$.$.$.$.$.$.$.$.$.$.$.$.$.$.$.8.I.)./././.Z.i.~ N C U :.i.x.J.6.$.$.$.$.$.$.$.$.$.$.$.$.$.$.$.$.",
"$.$.$.$.$.$.$.$.$.$.$.$.$.$.$.$.$.$.$.$.$.$.$.$.$.$.$.$.$.$.$.6.M.).)./.i.} G N N N N N G / 3.2.$.$.$.$.$.$.$.$.$.$.$.$.$.$.$.$.",
"$.$.$.$.$.$.$.$.$.$.$.$.$.$.$.$.$.$.$.$.$.$.$.$.$.$.$.$.$.$.$.2.t.T.Z.:.U N N N N N C N F K Q @.$.$.$.$.$.$.$.$.$.$.$.$.$.$.$.$.",
"$.$.$.$.$.$.$.$.$.$.$.$.$.$.$.$.$.$.$.$.$.$.$.$.$.$.$.$.$.$.$.$.2.3.~ Z N N N N N N G o.i.h.e.$.$.$.$.$.$.$.$.$.$.$.$.$.$.$.$.$.",
"$.$.$.$.$.$.$.$.$.$.$.$.$.$.$.$.$.$.$.$.$.$.$.$.$.$.$.$.$.$.$.$.$.+...M.J.G.G.x.N N } /.T./.y.$.$.$.$.$.$.$.$.$.$.$.$.$.$.$.$.$.",
"$.$.$.$.$.$.$.$.$.$.$.$.$.$.$.$.$.$.$.$.$.$.$.$.$.$.$.$.$.$.$.$.$.$.8.T./././.j.N Z } T././.8.$.$.$.$.$.$.$.$.$.$.$.$.$.$.$.$.$.",
"$.$.$.$.$.$.$.$.$.$.$.$.$.$.$.$.$.$.$.$.$.$.$.$.$.$.$.$.$.$.$.$.$.$.$.n././.c.` G :.<.T././.2.$.$.$.$.$.$.$.$.$.$.$.$.$.$.$.$.$.",
"$.$.$.$.$.$.$.$.$.$.$.$.$.$.$.$.$.$.$.$.$.$.$.$.$.$.$.$.$.$.$.$.$.$.y.T./.x...C ../././././.$.$.$.$.$.$.$.$.$.$.$.$.$.$.$.$.$.$.",
"$.$.$.$.$.$.$.$.$.$.$.$.$.$.$.$.$.$.$.$.$.$.$.$.$.$.$.$.$.$.$.$.2.y.T.h...U C C L q././.)./.$.$.$.$.$.$.$.$.$.$.$.$.$.$.$.$.$.$.",
"$.$.$.$.$.$.$.$.$.$.$.$.$.$.$.$.$.$.$.$.$.$.$.$.$.$.$.$.$.$.$.$.y.T.x.o.=.~ C C N Z ..I.)./.6.$.$.$.$.$.$.$.$.$.$.$.$.$.$.$.$.$.",
"$.$.$.$.$.$.$.$.$.$.$.$.$.$.$.$.$.$.$.$.@.$.$.$.$.$.$.$.$.$.2.y.T./.T.j.>.G C G z.>.{ =.I./.f.2.$.$.$.$.$.$.$.$.$.$.$.$.$.$.$.$.",
"$.$.$.$.$.$.$.$.$.$.$.$.$.$.$.$.$.$.$.$.Q #.$.$.$.$.$.$.2.r.y./.x.q.o.L C G K K 4.G.G.e.k.).Y.7.$.$.$.$.$.$.$.$.$.$.$.$.$.$.$.$.",
"$.$.$.$.$.$.$.$.$.$.$.$.$.$.$.$.$.$.$.$.z ] $.$.$.$.$.8.f.I./.9.` F N C / 9.w.=.~ *.G././.).T.d.$.$.$.$.$.$.$.$.$.$.$.$.$.$.$.$.",
"$.$.$.$.$.$.$.$.$.$.$.$.$.$.$.$.$.$.$.$.s ` $.$.$.$.t.J././.i.G C N N / k././.Y.a.=.3.T./././.M.6.$.$.$.$.$.$.$.$.$.$.$.$.$.$.$.",
"$.$.$.$.$.$.$.$.$.$.$.$.$.$.$.$.$.$.$.#.4 ` $.$.2.r.Y./.).).o.N N N N q././././.).I.<.w./././.T.r.$.$.$.$.$.$.$.$.$.$.$.$.$.$.$.",
"$.$.$.$.$.$.$.$.$.$.$.$.$.$.$.$.$.$.$.G : ` 7.M././././.).).Z.~ C N N o././././.).).G.w.I./././.y.$.$.$.$.$.$.$.$.$.$.$.$.$.$.$.",
"$.$.$.$.$.$.$.$.$.$.$.$.$.$.$.$.$.$.+.6 , 9.!.).).).).).).)./.w.G N N G B.).).).).).).k.I./././.b.6.$.$.$.$.$.$.$.$.$.$.$.$.$.$.",
"$.$.$.$.$.$.$.$.$.$.$.$.$.$.$.$.$.$.J + w !.).).).).).).)././.h.T N N C :.).).).).).)./.Y./././.T.r.$.$.$.$.$.$.$.$.$.$.$.$.$.$.",
"$.$.$.$.$.$.$.$.$.$.$.$.$.$.$.$.$.$.a + f !././.).).).I.w.4.4.-.U N N N ~ x././.).).).).).).V.<./.b.$.$.$.$.$.$.$.$.$.$.$.$.$.$.",
"$.$.$.$.$.$.$.$.$.$.$.$.$.$.$.$.$.$.i + w L././.).).)./.i.L F C C N N N G <././.).).).).).).i.R /.M.$.$.$.$.$.$.$.$.$.$.$.$.$.$.",
"$.$.$.$.$.$.$.$.$.$.$.$.$.$.$.$.$.7.n + + v p.!.).).).)./.c.~ C N N N N N K >.Z./.).).).).).u.n /.n.$.$.$.$.$.$.$.$.$.$.$.$.$.$.",
"$.$.$.$.$.$.$.$.$.$.$.$.$.$.$.$.$.y.u.3 + w 1.!.).).).).).).I.*.Z N N N N N C / B.).).).).).5.g k.m.2.$.$.$.$.$.$.$.$.$.$.$.$.$.",
"$.$.$.$.$.$.$.$.$.$.$.$.$.$.$.$.2.f.).%.h %.!.).).).).).).)./.G.:.K N N N F / 4.L.).).).).).E e p.a.$.$.$.$.$.$.$.$.$.$.$.$.$.$.",
"$.$.$.$.$.$.$.$.$.$.$.$.$.$.$.$.7.x.).!.c././.).).).)./.).)././.T.4.G C ~ 4.x./.).).).).).1.2 i I.r.$.$.$.$.$.$.$.$.$.$.$.$.$.$.",
"$.$.$.$.$.$.$.$.$.$.$.$.$.$.$.$.8.J.).)./.).).).).)././.).)././././.i.=.x././.).).).).A.E - @ R m.2.$.$.$.$.$.$.$.$.$.$.$.$.$.$.",
"$.$.$.$.$.$.$.$.$.$.$.$.$.$.$.$.8.J.).).).).).)./.).!./././././././././.).).).).).).).&.* . f !.d.2.$.$.$.$.$.$.$.$.$.$.$.$.$.$.",
"$.$.$.$.$.$.$.$.$.$.$.$.$.$.$.6.M./././.L./.I.i.5.w.;.&.{ w.g.h.h.x././.)././.).).).).1.5 j B.).m.6.$.$.$.$.$.$.$.$.$.$.$.$.$.$.",
"$.$.$.$.$.$.$.$.$.$.$.$.$.$.8.M././.I.<.i.i. .P S M M M A D T I I ( 5.V.B.c.c./././.).p.%.L.).).J.6.$.$.$.$.$.$.$.$.$.$.$.$.$.$.",
"$.$.$.$.$.$.$.$.$.$.$.$.$.$.2.e.s.w.;.:.h...M M M M M M M M s a k M P Y T | ;.i.B./.).)././.).).T.6.$.$.$.$.$.$.$.$.$.$.$.$.$.$.",
"$.$.$.$.$.$.$.$.$.$.$.$.$.#.2.2.2.e.k.T. .A M M M M M M c 6 ; ; ; < 0 r a c A S Y u./.)././.).).N.8.$.$.$.$.$.$.$.$.$.$.$.$.$.$.",
"$.$.$.$.$.$.$.$.$.$.$.$.$.$.$.$.7.M./.I.M M M M M M M M x ; # # $ # $ # $ 7 M M M T x./.).).)./.m.6.$.$.$.$.$.$.$.$.$.$.$.$.$.$.",
"$.$.$.$.$.$.$.$.$.$.$.$.$.$.$.$.y././.A.M M M M M M M M M u 4 < ; $ # # # 4 z M M E T./.).).)./.y.$.$.$.$.$.$.$.$.$.$.$.$.$.$.$.",
"$.$.$.$.$.$.$.$.$.$.$.$.$.$.$.6.M./././.J M M M M M M M M M M c s 7 4 4 4 0 z M B w././.).).!.a.6.$.$.$.$.$.$.$.$.$.$.$.$.$.$.$.",
"$.$.$.$.$.$.$.$.$.$.$.$.$.$.$.2.z./././.&.M M M M M M M M M M M M M z x x x M M M s././.)./.u.J +.$.$.$.$.$.$.$.$.$.$.$.$.$.$.$.",
"$.$.$.$.$.$.$.$.$.$.$.$.$.$.$.6.n.).).).c.T B M M M A I  .*.D M M M M M M M M M M i.).).).u.2 t +.$.$.$.$.$.$.$.$.$.$.$.$.$.$.$.",
"$.$.$.$.$.$.$.$.$.$.$.$.$.$.$.6.J.).).)././.h.5.<.w.G.T.)./.I.<.T A S { S M M M M h.).).).l 8 ' $.$.$.$.$.$.$.$.$.$.$.$.$.$.$.$.",
"$.$.$.$.$.$.$.$.$.$.$.$.$.$.$.6.G./.).)././.f.d.I./.)./.).)./.)././././.9.B B J <././.)./.` #.$.$.$.$.$.$.$.$.$.$.$.$.$.$.$.$.$.",
"$.$.$.$.$.$.$.$.$.$.$.$.$.$.$.6.J././././.T.r.$.r.d.G././.)././././.).).p.| &.i././.).).M.$.$.$.$.$.$.$.$.$.$.$.$.$.$.$.$.$.$.$.",
"$.$.$.$.$.$.$.$.$.$.$.$.$.$.$.2.j././././.l.7.$.$.$.7.t.y.y.y.N.).).).)././.).)./././.T.t.$.$.$.$.$.$.$.$.$.$.$.$.$.$.$.$.$.$.$.",
"$.$.$.$.$.$.$.$.$.$.$.$.$.$.#.+.! a./.L.E ~ 2.$.$.$.$.$.$.$.y.J.).).).).).).).)./././.J.6.$.$.$.$.$.$.$.$.$.$.$.$.$.$.$.$.$.$.$.",
"$.$.$.$.$.$.$.$.$.$.$.$.$.$.$.+.d 9 ) V o 8 O.$.$.@.^ W X.a.!.!.).).).).).).).).).)./.d.$.$.$.$.$.$.$.$.$.$.$.$.$.$.$.$.$.$.$.$.",
"$.$.$.$.$.$.$.$.$.$.$.$.$.$.$.$.@.u @ % % y +.2.W &     o b 5.!.).).).).).)././././.d.6.$.$.$.$.$.$.$.$.$.$.$.$.$.$.$.$.$.$.$.$.",
"$.$.$.$.$.$.$.$.$.$.$.$.$.$.$.$.$.+.Z W ] +.$.$.i X         - ,./.).).)././.)././.d.2.$.$.$.$.$.$.$.$.$.$.$.$.$.$.$.$.$.$.$.$.$.",
"$.$.$.$.$.$.$.$.$.$.$.$.$.$.$.$.$.$.$.$.$.$.$.$.^ y   X     X 5 <.).).)./././.z.y.6.$.$.$.$.$.$.$.$.$.$.$.$.$.$.$.$.$.$.$.$.$.$.",
"$.$.$.$.$.$.$.$.$.$.$.$.$.$.$.$.$.$.$.$.$.$.$.$.$.] & X       X n L.).)./.T.y.6.$.$.$.$.$.$.$.$.$.$.$.$.$.$.$.$.$.$.$.$.$.$.$.$.",
"$.$.$.$.$.$.$.$.$.$.$.$.$.$.$.$.$.$.$.$.$.$.$.$.$.@.m X         7 5.).).J.r.$.$.$.$.$.$.$.$.$.$.$.$.$.$.$.$.$.$.$.$.$.$.$.$.$.$.",
"$.$.$.$.$.$.$.$.$.$.$.$.$.$.$.$.$.$.$.$.$.$.$.$.$.$.O.y X       2 <.!.m.8.$.$.$.$.$.$.$.$.$.$.$.$.$.$.$.$.$.$.$.$.$.$.$.$.$.$.$.",
"$.$.$.$.$.$.$.$.$.$.$.$.$.$.$.$.$.$.$.$.$.$.$.$.$.$.$.O.m 1 @   e 5.t.$.$.$.$.$.$.$.$.$.$.$.$.$.$.$.$.$.$.$.$.$.$.$.$.$.$.$.$.$.",
"$.$.$.$.$.$.$.$.$.$.$.$.$.$.$.$.$.$.$.$.$.$.$.$.$.$.$.$.@.' C t G 2.$.$.$.$.$.$.$.$.$.$.$.$.$.$.$.$.$.$.$.$.$.$.$.$.$.$.$.$.$.$.",
"$.$.$.$.$.$.$.$.$.$.$.$.$.$.$.$.$.$.$.$.$.$.$.$.$.$.$.$.$.$.$.O.@.$.$.$.$.$.$.$.$.$.$.$.$.$.$.$.$.$.$.$.$.$.$.$.$.$.$.$.$.$.$.$.",
"$.$.$.$.$.$.$.$.$.$.$.$.$.$.$.$.$.$.$.$.$.$.$.$.$.$.$.$.$.$.$.$.$.$.$.$.$.$.$.$.$.$.$.$.$.$.$.$.$.$.$.$.$.$.$.$.$.$.$.$.$.$.$.$.",
"$.$.$.$.$.$.$.$.$.$.$.$.$.$.$.$.$.$.$.$.$.$.$.$.$.$.$.$.$.$.$.$.$.$.$.$.$.$.$.$.$.$.$.$.$.$.$.$.$.$.$.$.$.$.$.$.$.$.$.$.$.$.$.$.",
"$.$.$.$.$.$.$.$.$.$.$.$.$.$.$.$.$.$.$.$.$.$.$.$.$.$.$.$.$.$.$.$.$.$.$.$.$.$.$.$.$.$.$.$.$.$.$.$.$.$.$.$.$.$.$.$.$.$.$.$.$.$.$.$.",
"$.$.$.$.$.$.$.$.$.$.$.$.$.$.$.$.$.$.$.$.$.$.$.$.$.$.$.$.$.$.$.$.$.$.$.$.$.$.$.$.$.$.$.$.$.$.$.$.$.$.$.$.$.$.$.$.$.$.$.$.$.$.$.$."
};
