/* XPM */
static char *cGFsbWk_[] = {
/* columns rows colors chars-per-pixel */
"64 64 194 2 ",
"   c #1A1C17",
".  c #1B1D1A",
"X  c #191B17",
"o  c #231D1C",
"O  c #251E18",
"+  c #0D3C0C",
"@  c #162216",
"#  c #142B14",
"$  c #1D211E",
"%  c #182618",
"&  c #123312",
"*  c #113B10",
"=  c #173819",
"-  c #2D2416",
";  c #24221C",
":  c #2A241C",
">  c #242616",
",  c #312716",
"<  c #3B2C15",
"1  c #332718",
"2  c #293416",
"3  c #1D2323",
"4  c #1C2829",
"5  c #1C352B",
"6  c #1E3237",
"7  c #1E2830",
"8  c #242523",
"9  c #2A2624",
"0  c #262826",
"q  c #2D2A24",
"w  c #20272B",
"e  c #262B2B",
"r  c #2B2C2B",
"t  c #332B25",
"y  c #352F2C",
"u  c #2E302F",
"i  c #24312A",
"p  c #3B302A",
"a  c #30332F",
"s  c #232B33",
"d  c #212E3B",
"f  c #282F34",
"g  c #302F30",
"h  c #2F3130",
"j  c #23323D",
"k  c #323332",
"l  c #373837",
"z  c #3B3B3B",
"x  c #383838",
"c  c #452E14",
"v  c #463115",
"b  c #4C3415",
"n  c #583814",
"m  c #623E12",
"M  c #403F3F",
"N  c #0C4C0C",
"B  c #0C440B",
"V  c #045C04",
"C  c #0B540B",
"Z  c #085907",
"A  c #154A1B",
"S  c #135613",
"D  c #0F500F",
"F  c #3C4310",
"G  c #016C01",
"H  c #076407",
"J  c #007400",
"K  c #007A00",
"L  c #0D7C0C",
"P  c #116F14",
"I  c #194325",
"U  c #3F403F",
"Y  c #78490F",
"T  c #6C4311",
"R  c #744611",
"E  c #794910",
"W  c #516E09",
"Q  c #707E05",
"!  c #48433F",
"~  c #47540C",
"^  c #243444",
"/  c #24394D",
"(  c #233548",
")  c #263B53",
"_  c #293D59",
"`  c #273F58",
"'  c #3D3F40",
"]  c #403F40",
"[  c #28415D",
"{  c #274658",
"}  c #255151",
"|  c #2A4463",
" . c #2D496C",
".. c #2B4769",
"X. c #2E4C74",
"o. c #30527D",
"O. c #2F5074",
"+. c #424342",
"@. c #484647",
"#. c #484748",
"$. c #4A4A4A",
"%. c #4F514E",
"&. c #565856",
"*. c #635F61",
"=. c #666766",
"-. c #6F6E72",
";. c #797978",
":. c #824D0E",
">. c #8B4D0F",
",. c #8A510E",
"<. c #93560D",
"1. c #99580D",
"2. c #8F5311",
"3. c #A55D0B",
"4. c #AC610B",
"5. c #B96709",
"6. c #BA6909",
"7. c #B4650B",
"8. c #C56C02",
"9. c #C76D08",
"0. c #CC7103",
"q. c #D47403",
"w. c #DE7903",
"e. c #D87600",
"r. c #E37B01",
"t. c #E97E01",
"y. c #0A840A",
"u. c #0C880A",
"i. c #079E04",
"p. c #099705",
"a. c #04A303",
"s. c #03AD01",
"d. c #02B402",
"f. c #01BC01",
"g. c #6CAD02",
"h. c #00C300",
"j. c #00CA00",
"k. c #7ACD00",
"l. c #7F817E",
"z. c #8A9D04",
"x. c #98AC01",
"c. c #A6BD01",
"v. c #EE8101",
"b. c #F28201",
"n. c #FB8600",
"m. c #FF8800",
"M. c #ABC900",
"N. c #CEDE00",
"B. c #D7EE00",
"V. c #325787",
"C. c #365F96",
"Z. c #38629C",
"A. c #3965A1",
"S. c #3B6AAC",
"D. c #3A68A7",
"F. c #3D6EB2",
"G. c #3F71B7",
"H. c #3F72BB",
"J. c #4075BE",
"K. c #437CCC",
"L. c #4278C5",
"P. c #447ED0",
"I. c #4684DC",
"U. c #4683D9",
"Y. c #4887E1",
"T. c #4989E4",
"R. c #4A8DEC",
"E. c #4C92F4",
"W. c #4E97FD",
"Q. c #4E96FB",
"!. c #4F98FF",
"~. c #4F98FF",
"^. c #4B8FF0",
"/. c #858485",
"(. c #8D8B8D",
"). c #918E95",
"_. c #99989A",
"`. c #888790",
"'. c #9F9EA6",
"]. c #A29FA5",
"[. c #A4A2A5",
"{. c #AAA8AA",
"}. c #ADA9B6",
"|. c #B7B5B7",
" X c #B3AFBD",
".X c #B9B6C0",
"XX c #C1BDC1",
"oX c #C6C5C8",
"OX c #CCCAD1",
"+X c #D2CCD2",
"@X c #DAD5DA",
"#X c #DFD9DF",
"$X c #D6D2D7",
"%X c #E1DCE2",
/* pixels */
"!.!.!.!.!.!.!.!.!.!.!.!.!.!.!.!.~.~.~.~.~.~.~.~.~.~.~.~.~.~.~.~.~.~.~.~.~.~.~.~.~.~.~.~.~.~.~.~.~.~.~.~.~.~.~.~.~.~.~.~.~.~.~.~.",
"!.!.!.!.!.!.!.!.!.!.!.!.!.!.!.!.~.~.~.~.~.~.~.~.~.~.~.~.~.~.~.~.~.~.~.~.~.~.~.~.~.~.~.~.~.~.~.~.~.~.~.~.~.~.~.~.~.~.~.~.~.~.~.~.",
"!.!.!.!.!.!.!.!.!.!.!.!.!.!.!.!.~.~.~.~.~.~.~.~.~.~.~.~.~.~.~.~.~.~.~.~.~.~.~.~.~.~.~.~.~.~.~.~.~.~.~.~.~.~.~.~.~.~.~.~.~.~.~.~.",
"!.!.!.!.!.!.!.!.!.!.!.!.!.!.!.!.~.~.~.~.~.~.~.~.~.~.~.~.~.~.~.~.~.~.~.~.~.~.~.~.~.~.~.~.~.~.~.~.~.~.~.~.~.~.~.~.~.~.~.~.~.~.~.~.",
"!.!.!.!.!.!.!.!.!.!.!.!.!.!.!.!.~.~.~.~.~.~.~.~.~.~.~.~.~.~.~.~.~.~.~.~.~.~.~.~.~.~.~.~.~.~.~.~.~.~.~.~.~.~.~.~.~.~.~.~.~.~.~.~.",
"!.!.!.!.!.!.!.!.!.!.!.!.!.!.!.!.~.~.~.~.~.~.~.~.~.~.~.~.~.~.~.~.~.~.~.~.~.~.~.~.~.~.~.~.~.~.~.~.~.~.~.~.~.~.~.~.~.~.~.~.~.~.~.~.",
"!.!.!.!.!.!.!.!.!.!.!.!.!.!.!.!.~.~.~.~.~.~.~.~.~.~.~.~.~.~.~.~.~.~.~.~.~.~.~.~.~.~.~.~.~.~.~.~.~.~.~.~.~.~.~.~.~.~.~.~.~.~.~.~.",
"!.!.!.!.!.!.!.!.!.!.!.!.!.!.!.!.~.~.~.~.~.~.~.~.~.~.~.~.~.~.~.~.~.~.~.~.~.~.~.~.~.~.~.~.~.~.~.~.~.~.~.~.~.~.~.~.~.~.~.~.~.~.~.~.",
"!.!.!.!.!.!.!.!.!.!.!.!.!.!.!.!.!.!.!.!.!.!.W.~.~.R.Z.[ { { { ..J.E.~.~.~.~.~.~.~.!.!.!.~.~.~.~.~.~.~.~.~.~.~.~.~.~.~.~.~.~.~.~.",
"!.!.!.!.!.!.!.!.!.!.!.!.!.!.!.!.!.!.!.!.!.!.W.W.Z.4 B D S f.d.y.@ ) E.~.~.~.~.Q.E.E.!.!.~.~.~.~.~.~.~.~.~.~.~.~.~.~.~.~.~.~.~.~.",
"!.!.!.!.!.!.!.!.!.!.!.!.!.!.!.!.!.!.!.!.!.!.T.| % Z K S L j.h.d.N C / R.R.A.{ j = I } [ Z.Q.~.~.~.~.~.~.~.~.~.~.~.~.~.~.~.~.~.~.",
"!.!.!.!.!.!.!.!.!.!.!.!.!.!.!.!.!.!.!.!.!.U.5 L S J K H u.j.h.d.N K V / 6 * V N y.j.f.L @ [ R.~.~.~.~.~.~.~.~.~.~.~.~.~.~.~.~.~.",
"!.!.!.!.!.!.!.!.!.!.!.!.!.!.!.!.!.!.!.!.~.) y.d.N K J N p.h.f.d.N K & @ V K K S d.h.j.u.S D ^ ^.~.~.~.~.~.~.~.~.~.~.~.~.~.~.~.~.",
"!.!.!.!.!.!.!.!.!.!.!.!.!.!.!.!.!.!.!.Q. .H f.y.N G G B p.d.s.i.B G @ X J J H H j.h.j.H H K B / Y.~.~.~.~.~.~.~.~.~.~.~.~.~.~.~.",
"!.!.!.!.!.!.!.!.!.!.!.!.!.!.!.!.!.!.W.I.3 a.a.# + V V @ y.s.i.p.* V X @ H G + y.d.f.f.* J K Z =  .~.~.~.~.~.~.~.~.~.~.~.~.~.~.~.",
"!.!.!.!.!.!.!.!.!.!.!.!.!.!.!.!.!.!.!.R.{ = 6 S.6 & @ 7 = a.p.P 7 & > > N G # p.a.f.a.& G K Z i.A L.~.~.~.~.~.~.~.~.~.~.~.~.~.~.",
"!.!.!.!.!.!.!.!.!.!.!.!.!.!.!.!.!.!.!.!.W.Y.E.W.R.S.J.E.S.I 5 V.R.[ v z.% % % u.i.d.H + G G N a.y./ Q.~.!.!.!.!.!.!.!.!.!.!.!.!.",
"!.!.!.!.!.!.!.!.!.!.!.!.!.!.!.!.!.!.!.!.W.!.!.!.~.~.W.~.~.W.W.~.W.o.W N.2 K.U.A p.L 5 # V V & a.s.5 R.~.!.!.!.!.!.!.!.!.!.!.!.!.",
"!.!.!.!.!.!.!.!.!.!.!.!.!.!.!.!.!.!.!.!.!.!.!.!.~.~.~.~.~.~.~.~.W.( g.c.i !.!.o.3 K.^.Z.# @ . S f.S I.~.!.!.!.!.!.!.!.!.!.!.!.!.",
"!.!.!.!.!.!.!.!.!.!.!.!.!.!.!.!.!.!.!.!.!.!.!.!.~.~.~.~.~.~.~.~.^.e c.g.i !.!.!.^.~.~.E.L.^.R.O.A = I.~.!.!.!.!.!.!.!.!.!.!.!.!.",
"!.!.!.!.!.!.!.!.!.!.!.!.!.!.!.!.!.!.!.!.!.!.!.!.~.~.~.~.~.~.~.W.J.< B.x.^ !.!.!.~.~.~.~.!.!.!.!.I.U.E.!.!.!.!.!.!.!.!.!.!.!.!.!.",
"!.!.!.!.!.!.!.!.!.!.!.!.!.!.!.!.!.!.!.!.!.!.!.!.~.~.~.~.~.~.~.Q./ W B.c. .W.!.!.~.~.~.~.!.!.!.!.!.Q.!.!.!.!.!.!.!.!.!.!.!.!.!.!.",
"!.!.!.!.!.!.!.!.!.!.!.!.!.!.!.!.!.!.!.!.!.!.!.!.~.~.~.~.~.Y.[ | $ g.k.z.{ K.Q.~.~.~.~.~.!.!.!.!.!.!.!.!.!.!.!.!.!.!.!.!.!.!.!.!.",
"!.!.!.!.!.!.!.!.!.!.!.!.!.!.!.!.!.!.!.!.!.!.!.!.~.~.~.W.T.k M M . 2 g.2 e e I.~.~.~.~.~.!.!.!.!.!.!.!.!.!.!.!.!.!.!.!.!.!.!.!.!.",
"!.!.!.!.!.!.!.!.!.!.!.!.!.!.!.!.!.!.!.!.~.~.~.~.~.~.~.Y.s { ! $.z o e ] ] z O.W.!.!.!.!.!.!.!.!.!.!.!.!.!.!.!.!.!.!.!.!.!.!.!.!.",
"!.!.!.!.!.!.!.!.!.!.!.!.!.!.!.!.!.!.!.!.~.~.~.~.~.~.W. .k @.@.! @.@.@.+.x l r P.!.!.!.!.!.!.!.!.!.!.!.!.!.!.!.!.!.!.!.!.!.!.!.!.",
"!.!.!.!.!.!.!.!.!.!.!.!.!.!.!.!.!.!.!.!.~.~.W.W.~.W.C.; r k h h h f r r u r l o.!.!.!.!.!.!.!.!.!.!.!.!.!.!.!.!.!.!.!.!.!.!.!.!.",
"!.!.!.!.!.!.!.!.!.!.!.!.!.!.!.!.!.!.!.!.~.W.W.W.~.T.f {.OX$XOXXX|.'.).-.z . 8 ^ !.!.!.!.!.!.!.!.!.!.!.!.!.!.!.!.!.!.!.!.!.!.!.!.",
"!.!.!.!.!.!.!.!.!.!.!.!.!.!.W.!.!.R.T.K.A.A.A...| d @.l.(._.'.].}.}.}..X X[.-.z P.W.!.!.!.!.!.!.!.!.!.!.!.!.!.!.!.!.!.!.!.!.!.!.",
"!.!.!.!.!.!.!.!.!.!.!.!.!.!.R.o._ w 8 8 0 0 9 r 0 0 0 9 8 $ 8 o . w k @.-.`.)./. .W.!.!.!.!.!.!.!.!.!.!.!.!.!.!.!.!.!.!.!.!.!.!.",
"!.!.!.!.!.!.!.!.!.!.!.!.!.!.L.8 g k g g g g g g g k g g g g g g g g g r 8 8 8 8 s C.K.Q.!.!.!.!.!.!.!.!.!.!.!.!.!.!.!.!.!.!.!.!.",
"!.!.!.!.!.!.!.!.!.!.!.!.!.!.Q._ 8 0 g g g g g k g g g g r g g r r g k g k h k r 0 8 8 w ` V.U.Q.!.!.!.!.!.!.!.!.!.!.!.!.!.!.!.!.",
"!.!.!.!.!.!.!.!.~.~.~.~.W.W.Q.A.X . ; o ; 8 r f u r 0 : 1 1 1 , - : O 9 q r g k k g g g g 8 $ d F.Y.W.W.~.~.~.~.~.~.~.~.~.~.~.~.",
"!.!.!.!.!.!.!.!.~.~.~.~.W.R./ - R 4.9.q.6.<.<   . , 6.v.b.b.b.b.v.t.q.8.T . X 8 r k g k g g g g e w X.E.~.~.~.~.~.~.~.~.~.~.~.~.",
"!.!.!.!.!.!.!.!.~.~.W.~.L.s ,.e.b.n.m.m.m.m.n.9.R v 8.v.m.m.m.m.n.9.2.Y n .   X . g k f k g g g g g 8 X.~.~.~.~.~.~.~.~.~.~.~.~.",
"!.!.!.!.!.!.!.!.~.~.W.I.r 3.t.r.t.b.n.m.m.m.m.m.m.0.< : <.w.r.5.b q { =.z 8 $ X o 0 r r r r r 9 8 o w V.~.~.~.~.~.~.~.~.~.~.~.~.",
"!.!.!.!.!.!.!.!.~.~.Q.^ R t.e.r.t.v.n.m.m.m.m.m.m.m.b.R O   ; . z {.#X_.l $ X E , . ( _ G.G.G.G.J.J.R.W.W.~.~.~.~.~.~.~.~.~.~.~.",
"!.!.!.!.!.!.!.!.~.~.Y.3 3.0.q.e.t.v.n.m.m.m.m.m.m.m.m.n.<.. 8 q =.@X$X&.$ , 5.m.q., H.W.!.!.!.!.W.W.~.~.~.~.~.~.~.~.~.~.~.~.~.~.",
"!.!.!.!.!.!.!.!.!.!.Y.. 3.8.0.q.r.v.b.n.m.m.m.m.m.m.m.m.t.O 8 k {.%X[.8 v w.m.m.m.4.e R.!.!.!.!.W.W.W.W.~.~.~.~.~.~.~.~.~.~.~.~.",
"!.!.!.!.!.!.!.!.!.W.^.7 ,.q.8.q.e.t.v.b.m.m.m.m.m.m.m.m.n.c $ &.$X/.8 m v.m.m.m.m.n.T ) Q.!.!.!.W.W.W.W.~.~.~.~.~.~.~.~.~.~.~.~.",
"!.!.!.!.!.!.!.!.~.~.Q.) c r.8.8.e.w.t.v.b.n.m.m.m.m.m.0.q.6.o &.&.; T t.m.m.m.w.E v : 8 F.!.!.!.~.~.~.~.~.~.~.~.~.~.~.~.~.~.~.~.",
"!.!.!.!.!.!.!.!.~.~.E._ X m r.q.0.e.r.t.v.b.n.n.m.b.4.1 O R m 1 n 1.n >.m.m.5.1 u z +.+.3 I.!.!.~.~.~.~.~.~.~.~.~.~.~.~.~.~.~.~.",
"!.!.!.!.!.!.!.!.~.~.L.o X X , 3.v.n.n.m.m.b.b.0.>.< 9 p p : o - c - o n b.2.r ] z z u $ 8 7 O.R.~.~.~.~.~.~.~.~.~.~.~.~.~.~.~.~.",
"!.!.!.!.!.!.!.!.~.~.P.9 t 9 O X > c b b b < - ; o t p p t t 9 o o o X O : k +.+.z x $ z @.@.k s D.~.~.~.~.~.~.~.~.~.~.~.~.~.~.~.",
"!.!.!.!.!.!.!.!.~.~.E.9 9 y t t 8 o o .   o o t p p p t t 9 9 8 9 8 X X x ] ] ] z z 8 ! +.#.@.z 8 C.Q.W.~.~.~.~.~.~.~.~.~.~.~.~.",
"!.!.!.!.!.!.!.!.~.W.~.J.o t t t 0 9 8 8 O 9.3.O t t t t 9 0 8 8 o o o z ] ] +.] z z u 3 +.#.@.@.! 8 ) E.~.~.~.~.~.~.~.~.~.~.~.~.",
"!.!.!.!.!.!.!.!.W.W.W.R.^ o : o o o o p ] 3.t.:.1 : : 9 : o . r x . x $.] ] ] ] z z x 0 8 z @.@.#.+.e [ E.~.~.~.~.~.~.~.~.~.~.~.",
"!.!.!.!.!.!.!.!.W.W.^./ 8 9 8 0 o o %.XX$X&.1 n v O M ] ] =.(._.0 ' ] ] @.] @.] z z z z 3 $ M @.#.#.#.0 _ Q.~.~.~.~.~.~.~.~.~.~.",
"!.!.!.!.!.!.!.!.!.I.^ 3 l . +.@.+.l =.+X@X/.$ r k XX#X#X#X@X'.e { #.+.+.+.+.+.+.z z z z k 3 $ +.#.#.@.+.f C.~.~.~.~.~.~.~.~.~.~.",
"!.!.!.!.!.!.!.!.Q.[ 8 ] 8 k #.@.#.! } +X/.9 +.U 8 =.#X%X@X'.a z ! #.z q 0 z ' U z z l z l h ; 8 +.#.@.@.+.8 S.~.~.~.~.~.~.~.~.~.",
"!.!.!.!.!.!.W.Q.C.$ +.x 8 @.#.#.#.@.z _.y : U l ; u |.@X{.r z #.@.! 0 -.;.0 z U l z z l k k k $ g @.@.@.#.] s Y.~.~.~.~.~.~.~.~.",
"!.!.!.!.!.!.W.U.3 l +.8 x #.#.#.#.#.e e |.z . . %._.$.[.0 z #.#.! t =.$X#X;.8 l z z z l k k u 0 . z @.@.#.#.k ) W.~.~.~.~.~.~.~.",
"!.!.!.!.!.!.T.) r +.l 8 @.#.#.#.#.#.r *.|.r z q l.oXk 0 z #.#.+.r 8 0 r t q 9 u z z l k k k u r 8 8 +.#.#.#.+.r J.~.~.~.~.~.~.~.",
"!.!.!.!.!.W.V.$ { U 8 z #.#.#.#.#.#.l %.l.u #.k =.{.0 z #.#.#.#.@.+.{ ! M } ! x l z z k k k u r 0 . z #.@.@.+.] 8 T.~.~.~.~.~.~.",
"!.!.!.!.!.F.. l M p 8 @.#.#.#.#.#.#.! 0 i z @.k % 0 z #.#.#.#.@.! z ! M U U U z z z l h k k r r 0 o r #.@.+.+.] u V.~.~.~.~.~.~.",
"!.!.!.!.E.d e U x : l #.#.#.#.#.#.#.+.8 $ z x q $ x #.#.#.#.#.! U ! ! ! U U l z l l k k k u r r r 0 $ +.+.] ] z z s R.~.~.~.~.~.",
"!.!.!.!.J.$ z k k ; @.@.@.@.@.@.#.#.#.l $ r t . ! @.@.@.@.! +.U { ! U U z z l z x k k k k u r r r 8 . z +.+.z x l u _ W.W.~.~.~.",
"!.!.!.Q.[ k x u 8 a ! ! @.@.$.@.#.#.#.@.$ . O { @.@.@.@.! { ! U ! ! U ! z z z z l l k k k r r r e 8 . x +.z z l k l 3 I.~.~.~.~.",
"!.!.K.| . 3 l l . z +.! +.+.#.#.#.#.@.@.l 0 ! #.#.#.! ! ! ! M ! M U U U l z z l k k k k h r r r 8 8 . k x x l k u k r | W.~.~.~.",
"Q.Z.3 n 7.Y - 3 ; +.+.{ +.+.! @.@.@.#.@.@.+.+.#.#.+.! M { ! ! ! ! U U l z z z l l k k y r r r 0 8 8 . l x k a u r e l 3 T.~.~.~.",
"V.$ <.b.m.n.r.m k ! ! ! U M M M ! M ! r l k y M ! ! M ! +.} M ! U U z l z z l k k k g f r r e 9 0 8 . l k k r r e 8 x $ S.!.!.!.",
"> 4.b.n.m.m.b.v U z z ! +.} ! ! ! M x *.@X+X%.M { ! U ! U +.M M U l z U z l l k k k g r r r e 0 0 8 . l x a u r k k 0 < b | T.!.",
",.m.7.b.m.m.q.$ U U M ! { ' M ! M M k (.%X$Xl.M M } U U U U U z z l l l U k k h k k r r r r 0 9 8 w   o 0 k a a 8 - R b.b.R ^ T.",
"b.b.2.m.m.m.1.h U z M M M ! +.! } ! z U |.[.t M M U U ! U U l z l U U l u k k k g r r r r 9 8 8 8 . <.q.1.:.:.:.6.t.m.m.m.m.E ^ "
};
