/* XPM */
static char *result[] = {
/* columns rows colors chars-per-pixel */
"64 64 193 2 ",
"   c #0D0D0F",
".  c #120C0E",
"X  c #1B110E",
"o  c #0E0E10",
"O  c #120F12",
"+  c #190D10",
"@  c #141314",
"#  c #1A1414",
"$  c #1F1916",
"%  c #161619",
"&  c #19161A",
"*  c #19191B",
"=  c #131816",
"-  c #24140F",
";  c #221614",
":  c #241915",
">  c #2C1D16",
",  c #241B1A",
"<  c #2B1D1B",
"1  c #221718",
"2  c #311E1B",
"3  c #311E17",
"4  c #2F2015",
"5  c #2C211D",
"6  c #27211E",
"7  c #352416",
"8  c #33231B",
"9  c #39221B",
"0  c #382317",
"q  c #1C1B20",
"w  c #251D21",
"e  c #182022",
"r  c #2C2322",
"t  c #2F292B",
"y  c #282427",
"u  c #322323",
"i  c #392321",
"p  c #3B2A25",
"a  c #332729",
"s  c #332B2C",
"d  c #3A2D2E",
"f  c #332821",
"g  c #3A302B",
"h  c #392E32",
"j  c #312C33",
"k  c #3D3234",
"l  c #393739",
"z  c #27373B",
"x  c #412B25",
"c  c #462E2C",
"v  c #43322B",
"b  c #443535",
"n  c #4D3B34",
"m  c #453639",
"M  c #49373C",
"N  c #46393B",
"B  c #4B3C3E",
"V  c #543B32",
"C  c #5A3C35",
"Z  c #533C3F",
"A  c #4F4035",
"S  c #5D4237",
"D  c #5C433D",
"F  c #5B4538",
"G  c #62443A",
"H  c #65483F",
"J  c #263944",
"K  c #4E3E42",
"L  c #523F44",
"P  c #07414A",
"I  c #0A4E5D",
"U  c #2B5562",
"Y  c #4E4144",
"T  c #4E4449",
"R  c #464141",
"E  c #534146",
"W  c #5A4644",
"Q  c #554549",
"!  c #59464A",
"~  c #57484B",
"^  c #5B4A4E",
"/  c #5C4C51",
"(  c #574F51",
")  c #634743",
"_  c #694E48",
"`  c #664C48",
"'  c #6C534D",
"]  c #6F5147",
"[  c #73564A",
"{  c #7A5B4E",
"}  c #604D52",
"|  c #6F5752",
" . c #735B52",
".. c #7A5E50",
"X. c #4E615F",
"o. c #43676F",
"O. c #5E6365",
"+. c #477173",
"@. c #6F6C6C",
"#. c #777C7E",
"$. c #865E4F",
"%. c #805D54",
"&. c #84655B",
"*. c #8D6B5D",
"=. c #87665A",
"-. c #956C5B",
";. c #886E65",
":. c #916D64",
">. c #986F60",
",. c #8F7264",
"<. c #977162",
"1. c #9B7462",
"2. c #9C746B",
"3. c #9D7A68",
"4. c #9F7770",
"5. c #9F7E72",
"6. c #A27462",
"7. c #A67B67",
"8. c #A37C6E",
"9. c #AA7A61",
"0. c #A37E73",
"q. c #AB7D71",
"w. c #71807E",
"e. c #AC826E",
"r. c #B5856C",
"t. c #AC8475",
"y. c #AE8A7C",
"u. c #A98878",
"i. c #B28473",
"p. c #B48975",
"a. c #B58579",
"s. c #B98B7A",
"d. c #B78B78",
"f. c #BD937B",
"g. c #C3947E",
"h. c #26788F",
"j. c #597B83",
"k. c #0A8AA8",
"l. c #1589A7",
"z. c #0996BC",
"x. c #1E9ABC",
"c. c #4A828C",
"v. c #5A8187",
"b. c #768A88",
"n. c #0BA1CA",
"m. c #13A3CF",
"M. c #0AA5D5",
"N. c #11ACDD",
"B. c #04AEE5",
"V. c #06ADE6",
"C. c #01B4ED",
"Z. c #00BDFE",
"A. c #01BCF4",
"S. c #95938C",
"D. c #848388",
"F. c #B88F81",
"G. c #AE9A8A",
"H. c #BE9682",
"J. c #C18E80",
"K. c #C49481",
"L. c #CB9984",
"P. c #CD9B8B",
"I. c #CF9786",
"U. c #D49E84",
"Y. c #D89F89",
"T. c #C8A389",
"R. c #D4A185",
"E. c #D5A28D",
"W. c #DBA58C",
"Q. c #DAA287",
"!. c #CAA394",
"~. c #DBA693",
"^. c #DDAB93",
"/. c #D5A994",
"(. c #DEB29D",
"). c #E4A988",
"_. c #FEB78F",
"`. c #E4AD92",
"'. c #E4B297",
"]. c #EBB295",
"[. c #EEB894",
"{. c #ECB49B",
"}. c #E1B298",
"|. c #F4B695",
" X c #FDBA96",
".X c #F3B59B",
"XX c #FAB79A",
"oX c #F5BB9C",
"OX c #FCBB9A",
"+X c #F8B796",
"@X c #F4BAA2",
"#X c #FABBA2",
"$X c #F3C197",
/* pixels */
"E L Y E L L L L ! L L L L L L L L L L L L K K Y Y L L E E E L E L L L L L L L L L L E L E L L L L L L L L B L L L L L Z B Z L K ",
"L E E L Q L L L Q L ! L L ! L L L L L L L L E L L L L L L L E L L L L L L L L L E L L L L L L Q L L L L K L L L E L B E E L L K ",
"L L L E L L L L L L L L L L L L L L L L L L E L L E L E E E L E E Q L L L L L L L L K Y E L E L E E L L Y E L L Y K E Y A L E K ",
"Y E L E ! ! L ! ! L ! L L T L L L L ! L L L L L L E L E L K L E L L L L K K L L L K E E E L L E L L L E K L L L K Y Y Y E L E E ",
"E Q Q L Q ! E L Q L ! E ! E E E L ! L ! L L L E E Q E Q L L h < , 6 4 5 2 5 5 > 4 , r h E L E E E L L E L L K L K K K L L E L L ",
"! E E E L ! ! ! ! ^ ! Q ! E ~ ~ L Q L L L Q L E L L L d u w 4 u 8 8 8 8 2 8 8 8 8 8 8 4 , s K E E E L E L L E L T L K L L L L L ",
"E Q Q T Q Q Q E ! ! ! E Q T E ~ T ~ ^ L L L L L L b ; 8 8 8 8 8 8 8 8 8 8 8 8 8 8 8 8 8 8 8 1 b E Y K E E Y E Y K T E Y E L Q L ",
"Q Q Q Q Q E ~ T L ^ Q Q T Q Q E ! ! L ! L L L K w u 2 8 8 8 8 8 8 8 8 8 8 8 8 8 8 8 8 8 8 8 8 < K E E Y Y Y Y E E Y E L E E Q L ",
"^ L ^ L L ^ L ^ ! ! Q Q E Q Q Q Q E Q E L L M < 5 8 8 8 8 8 8 8 8 8 8 8 8 8 8 8 8 8 8 8 8 8 9 8 4 E E L Y E E Y Y Q Y Y Q Q T E ",
"L } L ^ ^ L } L T ~ ~ T Q Q ! E Q Q E K L B : u 7 8 8 8 8 8 8 8 8 8 8 8 8 8 8 8 8 8 8 8 8 8 8 8 5 p E ! E E Q Q E Q Q Q Q Q Q Q ",
"L } L ^ L } L } ^ ! ! ! Q ! ! ! ! Q L L L 2 8 8 8 8 8 8 8 8 8 8 8 8 8 8 8 8 8 8 8 8 8 8 8 8 8 8 8 # B E Z E E Q Q Q Q Q Q W Q E ",
"L ^ ) L } L L } L ! ! ! ! ! ! ! ! E L E u u 8 8 8 8 8 8 7 8 8 8 8 8 8 8 8 u 2 > > i 8 8 : : 5 8 7 8 d E E B L E Q Q Y Q Q Q Q Q ",
"^ L } ! ^ L ^ L } L } L ! ! ! L ! ! E M 5 8 8 8 8 8 8 8 8 8 8 8 8 8 8 8 8 D 7.W.oX#X#X$X.XU.-.S 8 7 f Y L L L L L ^ L ! Q ! E ! ",
"L } } L ) ! L } ^ } L } ! L ! ^ ! ! ! : 8 8 8 8 8 8 8 8 8 8 8 8 i 8 > V .XOXOX#XOXOX$X#XOXOX#X$XoXn 6 E L L E E L ) L L Q E E E ",
"L } L ! ! ! } L L } ^ L ^ L ! L E ! N , 8 8 8 8 8 8 8 8 8 8 8 8 5 8 r.OX X$XOX$XOXOX$XOXOXOXOXOXOX.XD E L L K K L L ! ! ! ! E ! ",
"L L } L ! ^ L L ^ L ^ L ! ! ! ^ Q Q d 8 8 8 8 8 7 8 8 8 8 8 7 8 V ^.OXOXOXOXOXOXOX#XOXOXOXOX$X#XOX Xp.b L K K L L L L L L ! E W ",
"^ } ^ L } ! ! T ~ ~ Q Q Q ~ Q T Q r $ 8 8 8 8 8 8 8 8 8 8 8 u S OX XOXOXOX$XOXOX$X#X$X#X$XOX$XOXOX$XoXc L K E L L Y W Y L E ! Q ",
"L ! } L ! ^ ! ^ Q ~ Y a < 6 r 6 $ g 1 7 8 8 7 8 8 8 8 8 8 8 C ].oXOXOXOXW...[ { P.#XOXOX#XOXOXr.1.r.[.-.K E L E E Y E E E E E ! ",
"^ } L } ! Q ! ! b r 1 7 8 8 8 8 X k : 8 4 p Z u 8 8 8 8 8 > ~.XX XOXoX7.t.|.oX[.Q.OX#X$XOXOXoXoXoXR.-.u.T Y E A E Y Y E E E W ! ",
"^ L / L ! Q E t , 8 8 8 8 8 8 5 @ k - 8 S oX'.(.=.9 8 9 2 y.OXOXOXOX X^. X+X{.`.}.'.#X$XOX#X{./.!.`.^.y.R E Q E Q Q Q Q ! ! ! ! ",
"! ! ! ! Q E , 8 8 8 8 8 8 u 8 8 X k ; 8 P.`.E.~.q.Q.2 u 2 P.OXOXOXOXOX XOX}.+.N.V.m.O.`..XF.x.V.C.N.w.:.Q Q ! Q W ! Q Q ! ! ! ! ",
"! ! E ! Q a r 8 8 8 8 8 8 8 8 , s f 1 2 K.OXOXOXp.!.E.p u i `.OX XOXOX X$Xc.Z.Z.Z.Z.A.v.T.z.Z.Z.Z.Z.B.z Q Q Q ! Q ! Q W E ! E ! ",
"E E E Q K , 9 8 7 8 8 8 8 8 , ~ Q m < 5 G #XXX X@X-.#X_ 0 8 %.#XOXOXOX Xf.M.Z.Z.Z.Z.Z.n.o.Z.Z.Z.Z.Z.Z.l.Q ! ! ! ! ! ! ! ! ! ! ! ",
"E Q Q Q , 8 8 8 8 8 8 8 8 1 N ~ Q Q k r 4 g.OX XQ.&.XX1.2 u > U. XOX XoX&.Z.Z.Z.Z.Z.Z.A.I Z.Z.Z.Z.Z.Z.M.T Q ! ! ~ ! ~ Q Q ~ Q ! ",
"~ Q Q E 6 8 8 8 8 8 8 8 8 r Q ~ Q Q T $ 5 [  X@Xa.H.@XK.< 8 9 ..OXOXOXoX6.C.Z.Z.Z.Z.Z.P U Z.Z.Z.Z.Z.z.e T Q Q ~ Q ~ Q ~ W Q ~ Q ",
"Q ~ Q Y 2 8 8 8 8 8 8 8 < E Q Q Q ~ E M > S oX)._ &./.{.: 8 u n XXXX XoX].l.Z.Z.Z.Z.Z.h.G.n.Z.Z.Z.Z.C.J Q Q Q Q Q Q ~ Q ~ ~ Q ~ ",
"Q Q ~ K > u 8 8 8 8 8 8 < Q ~ ! Q Q Q Q j _ *.# * t {.oX8 9 8 2 .XXXOXOX@Xu.k.Z.Z.Z.k.P.XXT.z.Z.Z.A.j.' l Q Q Q E ~ Q ~ Q Q Q ~ ",
"Q Q Q m < 8 8 8 8 8 8 8 u ~ ~ ~ T Q Q Q ^ | = * q D.d @Xx 2 8 3 i.OXOXOXOXoX/.S.b.#./.+XoXoX8.O.#.;.P.<.@.l T Q Q Q Q Q Q Q Q Q ",
"Q Q Q N > 8 8 8 8 8 8 8 r ^ ~ ~ Q Q ~ Q ~ ) = * * y @ W.V 9 8 8 G oXOXOXOX].s.K.d.&.@XOXXXXX@X:.f.`.OX .R t Q ~ Q Q Y E ~ T Q Q ",
"~ ~ Q E 2 8 8 8 8 8 8 8 r ~ ~ ~ ( ~ ! ! Q ' @ * * % + '.W 9 9 8 9 |.XXOXOXXXXX#XOXU.'.XXXX-.@Xq.$XOXOXp = y Q ~ T Q E Q ~ W Q Q ",
"~ ~ ~ E u 8 8 8 8 8 8 8 6 ^ ! ^ ! ~ ! ! ! Z ^ # % * p.a.W 9 8 8 9 ).OX XOX XOXXX@Xa.:.q.J.q.8.F.#X_.E.O O A T Q Q ~ Q Q Q ~ ~ Q ",
"~ ~ ^ E < 8 8 8 8 8 8 8 5 ! ! ! ! ! ^ ! ^ ! N }  .0.p.P.*.u 8 8 8 R.OXOXOXOXOXI.8.P.6.8.2.:.g.s.XX+X;.h Y ~ Q W ~ Q ~ ~ ~ ~ ~ ~ ",
"! ^ ! ! 6 8 8 8 8 8 8 8 8 ! ^ ! ! } } ^ } ^ ! ^ ; C  X X6.8 8 8 5 a. XOXOXXX).q.OXXXOX XOX+X+X XOXoXb ~ ~ ! ^ ^ ! ! ~ ! ~ ~ ~ ~ ",
"^ ^ ^ ^ k 4 8 8 8 8 8 8 < Q ! ^ } ! ! ! ! ! / / < C  XOXe.8 8 8 8 ) OXOXOXoX>.XXXXOXOXOXOXOXOX XOX+X5 ~ ! ^ ^ ! ^ ! ~ ! ~ ~ ~ ~ ",
"^ ^ ~ ^ Q > 8 8 8 8 8 8 > Y ! ^ ! ! ! } } ! ^ ^ < S  X Xp.8 8 8 8 > .XOXOX].r.oXXXOXOXOX XOXoXOXOX[.: M ^ ! ^ ! ~ ! ^ ~ ^ ~ ^ ~ ",
"^ ^ ^ ~ ! r 8 8 8 8 8 8 4 k } ^ ^ ^ ! } ^ ! ^ ! m G  XOXK.8 8 8 8 7 f.OXXXOX+XOXOXOXOXoXQ. X_..XXXY.> r ! ^ ! ! ^ ^ ^ } ^ ~ / ~ ",
"~ ^ ~ ^ ~ d 8 8 8 8 8 8 8 1 } ! } ^ } } } } ! ^ ! ]  X Xg.7 8 8 8 8 =.oXOX X XOXOX9.@XE.x @X1.1.OX6.u < Q ! ^ ^ / / ^ / ^ ^ ^ ~ ",
"^ ~ ^ ~ ~ b r 8 8 8 8 8 8 X } } } ^ ` ! ^ / ^ ^ / $.OXXX`.: 8 8 8 8 x |.OXOXOX XOXv ' v 8 x 8 D oXV u 8 Q ~ ~ / ^ ~ ^ ^ / } ^ } ",
"/ ~ ( ^ ^ W 1 8 8 8 8 8 8 ; ! / } ^ ~ / } } / / ~ >.OXXX+X; 8 8 8 8 8 ) |. X XoXs.2 8 0 8 8 8 7 _ 8 u < Q ~ ~ ~ ~ ^ / ^ ~ ` ^ } ",
"^ ` ^ ^ ^ ^ 1 8 8 8 8 8 u < E / } } } } / / / } ^ 8.OXoX+Xg 8 8 8 8 8 8 p t.^.7.i 8 8 8 8 8 8 8 8 8 8 2 ~ ( ~ ~ ~ ^ / ~ ^ } ^ ^ ",
"^ ^ ^ } ^ ! < 8 8 8 8 8 8 8 K / } } / } / ( ^ / L s.OXXXXX1.8 8 8 8 8 8 8 5 < 5 8 8 8 8 8 8 8 8 8 8 8 2 Q ^ ( / ^ ^ ( / / } ^ ^ ",
"^ } } ^ ^ } a 8 8 8 8 8 8 8 B / ^ E L K K h j t w L.OXOXoX{.8 8 8 8 8 8 8 7 8 7 7 8 8 8 8 8 8 8 8 8 8 5 T / ^ ^ / / / / / / ^ } ",
"^ ^ ^ } ^ ^ s 8 8 8 8 8 8 8 y @ O # % & * * & & @ R.oXOXOX XV 8 8 8 8 8 8 8 8 8 8 8 8 8 8 8 8 8 8 8 8 < o r / } / / / / / / } } ",
"! ^ ^ ^ ^ ^ r 8 8 8 8 8 : @ = * & * & * * * * * & p.oX X XOXQ.5 8 8 7 8 8 8 8 8 8 8 8 8 8 8 8 8 8 8 8 # * = q ^ / / / / } / ^ } ",
"^ ^ ^ ^ ^ ^ 1 2 8 8 8 ; = * * * * * * * * * * * * V oX X XXXOXq.3 2 8 8 8 8 8 8 8 8 8 8 8 8 8 8 8 9 r   * * * e W ^ / / / / ( / ",
"^ / ^ ^ / K ; u 8 8 > @ & * * * * * * * * * * * * @ 0.oXOX X X X0.8 8 8 8 8 8 8 8 8 5 7 8 8 8 8 8 7 : * * * * * k ( ( / / / ( / ",
"^ ^ / } ~ r 8 8 8 8 O * q * * * * * * * * * * * * * #  ..X_. XOX+XI.c u u 8 8 8 8 8 8 8 8 8 8 7 8 8 # & * * * * * ( ` / / / / } ",
"^ ^ ~ Q u < 8 8 8 1 % * * * * * * * * * * * * * * * * = r &.s.`.OXOX{.>.n 2 8 8 8 8 8 8 8 7 8 5 8 8 @ * * * * * = g } ( } / / } ",
"^ ^ Q O 1 # 2 8 8 @ * * * * * * * * * * * * * * * * * $ q & @   ; b D W n 1 # 8 8 8 8 > 8 - 8 : 2 u @ & * * * * * , ^ ^ / / / / ",
"^ ^ ~ Q < < 4 : < @ & * * * * * * * * * * * * * * * * * * * * * * & * * * & # 8 ; 5 8 X 8 < $ , O < @ * * * * * * * ( } } / / / ",
"~ ^ Q f a d ; u # % * * * * * * * * * * * * * * * * * * * * * * * * * * * * @ , X # 5 @ $ , o @ & @ # * * * * * * * l / } ( ^ } ",
"^ ^ ^ ^ ~ t > r @ * * * * * * * * * * * * * * * * * * * * * * * * * * * * * * @ @ * @ = * @ * * * * * * * * * * * * @ ( ^ ^ } ^ ",
"^ ^ ! } M b Y T , * * * * * * * * * * % @ * * * * * * * * * * * * * * * * * * * = * * * * * * * * * * * * * * * * * @ Q / ^ } } ",
"~ ^ ~ / / ^ ! / % * * * * * * * * * * * = * * * * * * * * * * * * * * * * * * * * * * * * * * * * * * * * * * * * * = B ^ ( / / ",
"^ ( ( ~ / Q ~ L % * * * * * * * * * * % * * * * * * * * * * * * * * * * * * * * * * * * * * * * * * * % % * * * * * * b ^ / / / ",
"^ ~ ~ / ! / ( k % * * * * * * * * * * % * * * * * * * * * * * * * * * * * * * * * * * * * * * * * * * % @ * * * * * * 5 ( ( ^ ( ",
"/ / / / / ~ ^ t * * * * * * * * * * * = = * * * * * * * * * * * * * * * * * * * * * * * * * * * * * * * O * * * * * * # ~ ~ ~ / ",
"/ ~ ~ ^ Q / ! w * * * * * * * * * * * @ * * * * * * * * * * * * * * * * * * * * * * * * * * * * * * * * o * * * * * * @ B ~ ^ ^ ",
"~ / ( Q ~ / ~ & * * * * * * * * * * * o * * * * * * * * * * * * * * * * * * * * * * * * * * * * * * * * o q * * * * * * s ^ ^ / ",
"T / / / ~ ~ ^ # * * * * * * * * * * * o * * * * * * * * * * * * * * * * * * * * * * * * * * * * * * * * o * * * * * * * y ^ ^ ^ ",
"/ / / / / / Q # * * * * * * * * * * * o * * * * * * * * * * * * * * * * * * * * * * * * * * * * * * * * O * * * * * * * , ^ ^ ^ ",
"/ / ~ / / / ( # = * * * * * * * * * * o * * * * * * * * * * * * * * * * * * * * * * * * * * * * * * * * = = * * * * * * * ( ^ / ",
"/ / ( ( / / ~ & * * * * * * * * * * *   * * * * * * * * * * * * * * * * * * * * * * * * * * * * * * * * * @ * * * * * q % L ! ^ ",
"! / / / ( / / & * * * * * * * * * * * o * * * * * * * * * * * * * * * * * * * * * * * * * * * * * * * * * @ * * * * * & & k ^ Q "
};
