/* XPM */
static char *eW9zaGk_[] = {
/* columns rows colors chars-per-pixel */
"64 64 256 2 ",
"   c gray3",
".  c #191716",
"X  c #110D0B",
"o  c #251D1C",
"O  c #301A0E",
"+  c #342B1A",
"@  c #2D2D2B",
"#  c #272825",
"$  c #383936",
"%  c #322F2B",
"&  c #1C2A27",
"*  c #5A000C",
"=  c #491D0C",
"-  c #4A0B10",
";  c #74070D",
":  c #572B17",
">  c #502A13",
",  c #682C12",
"<  c #683317",
"1  c #783818",
"2  c #70290E",
"3  c #541621",
"4  c #593A27",
"5  c #4D3831",
"6  c #6F342C",
"7  c #6C1321",
"8  c #2C433B",
"9  c #734C0E",
"0  c #776817",
"q  c #7D7817",
"w  c #454338",
"e  c #574D30",
"r  c #694D3D",
"t  c #795735",
"y  c #6D502E",
"u  c #736C34",
"i  c #564F1D",
"p  c #4B3B56",
"a  c #334B4C",
"s  c #3E6A56",
"d  c #0F596E",
"f  c #315963",
"g  c #13677A",
"h  c #2A6E75",
"j  c #1D4C58",
"k  c #4A4A49",
"l  c #555449",
"z  c #595A5A",
"x  c #4C534E",
"c  c #6A5346",
"v  c #4D6559",
"b  c #536A51",
"n  c #6A6B58",
"m  c #756F4F",
"M  c #4C6866",
"N  c #596A66",
"B  c #517472",
"V  c #636363",
"C  c #6C6B6A",
"Z  c #6B7A78",
"A  c #757674",
"S  c #71766B",
"D  c #435E6A",
"F  c #95080A",
"G  c #AE0812",
"H  c #8B3812",
"J  c #A31527",
"K  c #9C282E",
"L  c #C80417",
"P  c #FE0013",
"I  c #FF0018",
"U  c #F40913",
"Y  c #E32817",
"T  c #97481B",
"R  c #8F5210",
"E  c #AB5509",
"W  c #957211",
"Q  c #A76D10",
"!  c #884C28",
"~  c #954D23",
"^  c #985629",
"/  c #895937",
"(  c #88542E",
")  c #A55E32",
"_  c #A54230",
"`  c #8E6D32",
"'  c #A96735",
"]  c #B36B36",
"[  c #BB7336",
"{  c #B1702E",
"}  c #F64813",
"|  c #CF7206",
" . c #FF6B0D",
".. c #FA6A15",
"X. c #F87509",
"o. c #C85921",
"O. c #8A5449",
"+. c #8E6E4F",
"@. c #A87457",
"#. c #847666",
"$. c #857875",
"%. c #AD7E63",
"&. c #8F5D64",
"*. c #C0764A",
"=. c #7F8C2D",
"-. c #578777",
";. c #6A847C",
":. c #5D9152",
">. c #AA9112",
",. c #B4A712",
"<. c #8F8837",
"1. c #B18F30",
"2. c #B3A733",
"3. c #9E8615",
"4. c #CD8C08",
"5. c #FF8602",
"6. c #FC9803",
"7. c #E48D05",
"8. c #D2AE12",
"9. c #FAB602",
"0. c #ECAE0B",
"q. c #C9AE25",
"w. c #D39826",
"e. c #D4D017",
"r. c #FDC801",
"t. c #FDD703",
"y. c #ECCC0A",
"u. c #FCE602",
"i. c #FFF600",
"p. c #FAF315",
"a. c #DCCC2F",
"s. c #91914E",
"d. c #A5984E",
"f. c #B4AC4F",
"g. c #878578",
"h. c #9A8A78",
"j. c #978E69",
"k. c #AC8D6F",
"l. c #B6AB76",
"z. c #D09271",
"x. c #E69D77",
"c. c #E7A47C",
"v. c #CAA35D",
"b. c #FBF552",
"n. c #FFFC76",
"m. c #E9DC69",
"M. c #16758A",
"N. c #057B98",
"B. c #0C7288",
"V. c #2B758D",
"C. c #077CA2",
"Z. c #4E7D84",
"A. c #627F82",
"S. c #198398",
"D. c #09839F",
"F. c #348B90",
"G. c #088AA9",
"H. c #0796B8",
"J. c #0E91B0",
"K. c #2893AF",
"L. c #578E95",
"P. c #6A988A",
"I. c #769290",
"U. c #72AB97",
"Y. c #789BA5",
"T. c #79BBA6",
"R. c #72B2B2",
"E. c #53A5B2",
"W. c #5AC0BB",
"Q. c #72C3B6",
"!. c #039BC7",
"~. c #1099C7",
"^. c #05A6CB",
"/. c #01ABD3",
"(. c #03A9D6",
"). c #01B2DC",
"_. c #03B0D2",
"`. c #18B3D7",
"'. c #2ABBD5",
"]. c #00BDEC",
"[. c #03B8E6",
"{. c #00BEF2",
"}. c #12B9E3",
"|. c #79B5C3",
" X c #00C1EE",
".X c #04C1E5",
"XX c #00C1F1",
"oX c #15C3EC",
"OX c #25C6E9",
"+X c #4FC6D3",
"@X c #76CAC9",
"#X c #5FD0E7",
"$X c #8D8D8C",
"%X c #868785",
"&X c #999388",
"*X c #989A99",
"=X c #8D918E",
"-X c #A89A8E",
";X c #97A39D",
":X c #89A898",
">X c #A8A986",
",X c #A8A698",
"<X c #B5AC90",
"1X c #96A5A8",
"2X c #93AEAF",
"3X c #A9A9A9",
"4X c #A8B5B5",
"5X c #BBBCBB",
"6X c #B6B5B4",
"7X c #AEAFAB",
"8X c #889DA2",
"9X c #D0AB8E",
"0X c #E9A682",
"qX c #EDB48B",
"wX c #C8BCB0",
"eX c #C39F82",
"rX c #85C8BB",
"tX c #97C5B7",
"yX c #B4C6B9",
"uX c #DAD09E",
"iX c #D3C4AD",
"pX c #E3CAAB",
"aX c #EFD1AD",
"sX c #F8E7BA",
"dX c #F0DD95",
"fX c #BABFC0",
"gX c #81B5C3",
"hX c #88CCC2",
"jX c #96D5C7",
"kX c #94D5D1",
"lX c #B2D6CF",
"zX c #BAE6D7",
"xX c #A9E3CD",
"cX c #9DE4EF",
"vX c #C4C3C3",
"bX c #CCCDCC",
"nX c #C6C9C6",
"mX c #CBD3D5",
"MX c #D2D3D3",
"NX c #DBDBDB",
"BX c #D1D1CF",
"VX c #CCE4D6",
"CX c #FDE9C5",
"ZX c #F6F5CD",
"AX c #CCECE9",
"SX c #E3E4E3",
"DX c #ECEDEC",
"FX c #E6E7E8",
"GX c #E9F6F4",
"HX c #F4F4F4",
"JX c #F9F9F6",
"KX c #F6FBFA",
"LX c #FFFFFF",
"PX c #F7F8F6",
"IX c #EFEEEE",
"UX c #CEDEE0",
/* pixels */
"LXLXLXLXLXLXLXLXLXLXLXLXLXLXLXLXLXLXLXLXLXLXLXLXLXLXLXLXLXLXLXLXLXLXLXLXLXLXLXLXLXLXLXLXLXLXLXLXLXLXLXLXLXLXLXLXLXLXLXLXLXLXLXLX",
"LXLXLXLXLXLXLXLXLXLXLXLXLXLXLXLXKXDXJXLXJXLXLXLXLXLXLXLXLXLXLXLXLXLXLXLXLXLXLXLXLXLXLXLXLXLXLXLXLXLXLXLXLXLXLXLXLXLXLXLXLXLXLXLX",
"LXLXLXLXLXLXLXLXLXLXLXLXLXLXLXLX=XN =X&X*X1XJXLXLXLXLXLXLXLXLXLXLXLXLXLXLXLXLXLXLXLXLXLXLXLXLXLXLXLXLXLXLXLXLXLXLXLXLXLXLXLXLXLX",
"LXLXLXLXLXLXLXLXLXLXLXLXLXLXLXKXN :XPXJXFX$XHXLXLXLXLXLXLXLXLXLXLXLXLXLXLXLXLXLXLXLXLXLXLXLXLXLXLXLXLXLXLXLXLXLXLXLXLXLXLXLXLXLX",
"LXLXLXLXLXLXLXLXLXLXLXLXLXLXLXHXN :X;.B M v HXLXLXLXKXKXKXLXLXLXLXLXLXLXLXLXLXLXLXLXLXLXLXLXLXLXLXLXLXLXLXLXLXLXLXLXLXLXLXLXLXLX",
"LXLXLXLXLXLXLXLXLXLXLXLXLXLXLXbX-.tXFX;Xz *XKXLXLXLXiX3XLXLXLXLXLXJXbXyXNXKXLXLXLXLXLXLXLXLXLXLXLXLXLXLXLXLXLXLXLXLXLXLXLXLXLXLX",
"LXLXLXLXLXLXLXLXLXLXLXLXLXLXLX7XU.yX:Xz x Z KXLXJX3X<.NXLXLXLXLXPXM G.h # z DXLXLXLXLXLXLXLXLXLXLXLXLXLXLXLXLXLXLXLXLXLXLXLXLXLX",
"LXLXLXLXLXLXLXLXLXLXJXKXLXLXLX1XQ.yX6Xa M 8X,Xj.1.8.1.HXLXLXLXLX4X/.G.5XPXMX$XNXLXLXLXLXLXLXLXLXLXLXLXLXLXLXLXLXLXLXLXLXLXLXLXLX",
"LXLXLXLXLXLXLXLXLXLX5XIXLXKX5Xl T.T.yXyXv u q.0.y.r.l.SXLXHXLXKX2X[.L.FXvXHXFXC SXLXLXLXLXJXLXLXKXLXLXLXLXLXLXLXLXLXLXLXLXLXLXLX",
"LXLXLXLXLXLXLXLXLXKX$XFXLXbX( n T.Q.;.m / 1.w.w.w.8.h.g.HX$.A k a G.Y.bXHXbXLXDX3XKXKXBXZ $ $ a x %XNXKXKXLXLXLXLXLXLXLXLXLXLXLX",
"LXLXLXLXLXLXLXLXLXLX#.wXSXr { n Q.-.tX,Xx ` { W 1.i u <.1.8 !.g =X,Xl 1XV $ FXLX$XbXZ.G.).]. X X{./.G.Z.yXLXLXLXLXLXLXLXLXLXLXLX",
"LXLXLXLXLXLXLXLXLXKX#.c %X) { ;.xXn n U.v / ( { y W 8.e.m g (.I.KXKXNXC $   3XJXA h [.XX XXXXX X X{.XXXXC.=XHXLXLXLXLXLXLXLXLXLX",
"LXLXLXLXLXLXLXLXLXJX$.) i @.] ;.xX+.[ { ` { : { w.8.3.y.a.B.H.NXPXLXLX5X%XV fXk G.[.XXXXXXXXXXXX X]. X].XX_.B KXLXLXLXLXLXLXLXLX",
"LXLXLXLXLXLXLXLXLXFX#.) ^ [ ) U.VX+.^ [ [ [ t c W 0.8.>.t.h J.6X6X7XLXHXV NX1X~.{.{. XXXXXXXXXXX)./.H.].XXXX!.=XLXLXLXLXLXLXLXLX",
"LXLXLXLXLXLXLXJXPX#.^ ^ [ [ r rXVX' 4 ' [ [ ( n l ` 2.>.y.M H.5XfX$ NXLXSX3XM.{.XXXXXXXXXXXXXX XH.).]. XXXXXXXM.DXLXLXLXLXLXLXLX",
"LXLXLXLXHXJXLXPX&X^ ' ~ ] [ b tX,X' / ( ' [ y g.*X>X9Xu 8.V.J.NXx   $XLXJXz !.{.XXXXXXXXXXXXXXXX[. X XXXXXXXXX(.%XJXLXLXLXLXLXLX",
"LXLXLXLXSXV g.-X4 y 6 ! ' ] b xXg.' O.z.^ { r pX+ o aXiX<.G.^.mXbXo *XLXDXV.XXXXXXXXXXXXXXXXXXXXXX{.XXXXXX XXX].f DXLXLXLXLXLXLX",
"LXLXLXLXLXHXm ) ) ] T T ~ T b zXm / ! x.0Xc 9XCXwXc CXCXh.G.[.Z HXHXJXLX*X^. XXXXXXXXXXXXX X{.XXXXXXXXXXXXXXXXXXH.fXLXLXLXLXLXLX",
"LXLXLXLXLXLXFXc ( ^ T : ^ ~ -.VXw +.+.c x.x.qXaXsXCXCXCX+.G. X^.8XKXJXHXj ].XXXXXXXXXXXXXXXXXXXXXXXXXXXXXXXXXXXXXX2XKXLXLXLXLXLX",
"LXLXLXLXLXLXMX: : < < 1 ~ ~ P.nXl nXc z.x.x.c.qXqXsXCXpX1.M. X XJ.8XlX1Xj ^.XXXXXXXXXXXXXXXXXXXXXXXXXXXXXXXXXX XXXY.LXLXLXLXLXLX",
"LXLXLXLXLXLX*X: 1 H < 1 T t rXyXO.. o %.x.x.x.0XeX$.r 7 6 z {.XX).G.).[._.H.{.XXXXXXXXXXXXXXXXXXXXXXXXXXXXXXXXXX{.Y.LXLXLXLXLXLX",
"LXLXLXLXLXLX$Xr H H < H 1 > T.,X*.t o %.x.x.z.&XiXBXO.G k.z !.XX{.{.{.{.XXXX XXXXXXXXXXXXXXXXXXXXXXXXXXXXXXXXXXX[.4XLXLXLXLXLXLX",
"LXLXLXLXLXLXbX6 < 9 > 2 = + T.P.6 z.x.0Xc.k.P.yX#.; G G 9X-XC.XXXXXX{.{.XXXXXX X{.XXXXXXXXXXXXXXXXXXXXXXXXXXXXXXD.mXLXLXLXLXLXLX",
"LXLXLXLXLXLXIX< = , = > E R i r : @.0X0Xz.a P.3 ; F F F aX&XN.{.XX X}.#XAXGXcX XXX XXXXXXXXXXXXXXXXXXXXXXXXXXX].D JXLXLXLXLXLXLX",
"LXLXLXLXLXLXDX4 : 2 O | E 0.m.j.r 4 @.c.6 * 3 * * ; ; K sXl g {.oX@XlXKXLXLXKXAXoX[.{.XXXXXXXXXXXXXXXXXXXXXX{.~.MXKXLXLXLXLXLXLX",
"LXLXLXLXLXLXHXz , 2 = | y O i l.m y : @.@.* * * * * 6 iXg.o j {.#XjXAXLXLXLXLXLXcX(.{.XXXXXXXXXXXXXXXXXXXX{.).A.KXLXLXLXLXLXLXLX",
"LXLXLXLXLXLXLX*X2 2 H E pXk 5 j.>Xm 4 +.z.O.O - - 6 pXpX# > ~ (.@XjXzXKXLXLXLXLXGXH.{.XXXXXXXXXXXXXXXXXX{.XXh HXLXLXLXLXLXLXLXLX",
"LXLXLXLXLXLXLX-X2 = Q W k.+.pXd.d.+.2 z.x.x.z.z.z.qX<X@.k.> G j R.hXlXAXLXLXLXLXPXK. X{.XXXXXXXXXXXXXXXX].d NXLXLXLXLXLXLXLXLXLX",
"LXLXLXLXLXLXLXh.2 = 4.t qX+.qXW q u ! r +.z.z.k.+.r +.z.c.5 X O b Q.hXjXGXJXKXLX4X^.[.].].{.{.{.XX].(.^.!.C.IXLXLXLXLXLXLXLXLXLX",
"LXLXLXLXLXLXLXh.2 = 4.y d.+.e Q 3.<Xl.y >.u V g.$ . . c t l % $ $ a Q.rXjXAXDX1X4XVX1XB g H.N.N.B.d N V.[.V.KXLXLXLXLXLXLXLXLXLX",
"LXLXLXLXLXLXLXh.R = 7.+ ! t 4 4.2.uXCXsX+.<.n mX5Xz . & . -.jXV i i u -.@XhXjXzXFXKXJXJXHXMX7XC %XfX2XJ.C.B Y.8XKXLXLXLXLXLXLXLX",
"LXLXLXLXLXLXLXl.7.R 4.W + > y >.e.l.aXaXm m w f !.N.# . # M Z o + u <.b  X'.'.+X#X|.4X4X1XA I.FXSX2X).].H.].[.K.HXLXLXLXLXLXLXLX",
"LXLXLXLXLXLXLX,Xj.MXiX7.0.y.u.,.q.c ' z.5 $ & B !.C.H.C.C.d % 3 o o w f .X X X X X.XR.Q.rXS bXL.~.[.XX).).].L.NXKXLXLXLXLXLXLXLX",
"LXLXLXLXLXLXLXHXLXKXKXm +.f.2.d.<X7X. % @ @ & P.D.!.!.].{.!.M.B.G.H.D.D.^.!.[. XXX].+XQ.rXP.G. XXXXXXXXXXX XK.gXKXLXLXLXLXLXLXLX",
"LXLXLXLXLXLXLXLXLXLXKXz S KXKXJXJXPX# X # @ $ B (.{.{.{.g # u <.u J.oX X XXXXXXXXX].W.@XjXzXD.].XXXX[._.H.`.).'.GXLXLXLXLXLXLXLX",
"LXLXLXLXLXLXLXLXLXLXDX=X=XPXLXLXLXLX%X# # o 8 L.h [.{.B.# @ w s.f.:.^. XXX XXXXXXX XR.kXAXKXE.{.XXJ.2XmXDXmXUXDXJXLXLXLXLXLXLXLX",
"LXLXLXLXLXLXLXLXLXLXKXA V KXLXLXLXLXFXS =XvXx 6 p ~.M.C @ @ % e f.f.s [.XXXXXXXXXXXXhXzXPXLXE.{.K.mXLXLXLXLXLXLXLXLXLXLXLXLXLXLX",
"LXLXLXLXLXLXLXLXLXLXLXSX5 1XIXKXLXLXBXB.A.IX%XY G G K >X@ @ @ 8 m a.u H. XXXXXXXXX}.xXGXLXLXE.F.FXKXLXKXLXLXLXLXLXLXLXLXLXLXLXLX",
"LXLXLXLXLXLXLXLXLXLXLXHX=Xz Z ,XLXLX4X[.).K.V o.G U ` l.@ @ % @ l f.<./.XXXXXXXXXXOXAXLXLXLX3XSXvX>X;XmXJXKXLXLXLXLXLXLXLXLXLXLX",
"LXLXLXLXLXLXLXLXLXLXLXSXN $ :X=XKXLX2X{. X{.!.` J L 3.e.% @ @ @ 8 d.u ].XXXXXXXXXX#XKXKXLXLX;Xg.y W W >.` nXKXLXLXLXLXLXLXLXLXLX",
"LXLXLXLXLXLXLXLXLXLXLX6XB Q.VX=XJXLX4X{.{.{.{.H.9 } >.y.+ % @ @ 8 s.b ].XXXXXXXXXXAXKXKXLXKXn <X0 8.u.t.r.` NXLXLXLXLXLXLXLXLXLX",
"LXLXLXLXLXLXLXLXLXLXLXLX5X;.2X*XKXLXfX[.{.{.XXXXS.| Q 4.W % @ % % u d ].XXXXXXXXOXLXLXLXKXnX<X( W t.t.t.t.0.,XLXLXLXLXLXLXLXLXLX",
"LXLXLXLXLXLXLXLXLXLXLXLXLXNX5XJXLXLXNXH. XXXXXXX].B.f l 4.E # # o e ` J.XXXXXXXXcXLXLXLXDXs.uXT Q r.r.9.6.6.h.KXLXLXLXLXLXLXLXLX",
"LXLXLXLXLXLXLXLXLXLXLXLXLXLXLXLXLXLXHXM }.XXXX X X X.X[.8 7.O % % 8 <.S.XXXXXXoXAXLXLXJX%Xe.a.T ^ 5.5.X.....k.LXLXLXLXLXLXLXLXLX",
"LXLXLXLXLXLXLXLXLXLXLXLXLXLXLXLXLXLXKX*XW.'.{.XX{.XXXX[.G.F.& @ @ & M.[.XXXX}.cXKXLXJX6Xr e.u.9 T  .X. .....k.JXLXLXLXLXLXLXLXLX",
"LXLXLXLXLXLXLXLXLXLXLXLXLXLXLXLXLXLXLXIXI.rX'.[.{.{. X[.).XX).g D.). XXXXX.X#XKXLXLXBXb u.,.u.W 2 .. . .....7XLXLXLXLXLXLXLXLXLX",
"LXLXLXLXLXLXLXLXLXLXLXLXLXLXLXLXLXLXLXLX3X:XrX@XW.}.[.H. XXX XXX X/.XX X].kXGXLXLX2X~.F.u.e.4.0.2 o.} } U G MXLXLXLXLXLXLXLXLXLX",
"LXLXLXLXLXLXLXLXLXLXLXLXLXLXLXLXLXLXLXKXKX,XY.jXrXP.F.].XXXX X XG.[.}.#XxXGXKXHX*XV.[.J.0.r.t.9.H G P P U 6 PXKXLXLXLXLXLXLXLXLX",
"LXLXLXLXLXLXLXLXLXLXLXLXLXLXLXLXLXLXLXLXLXLX5XI.:X7.F. XXX XXXG.Y.jXkXUXHXHXBXA.DXHX$XS.Q 9.6.6.G G I P I F FXKXLXLXLXLXLXLXLXLX",
"LXLXLXLXLXLXLXLXLXLXLXLXLXLXLXLXLXLXLXLXLXLXLXDX-X7.` H.XXXX_.L.lXAXUXfX$X%XBXJXLXKXKXSX-X>.Q 5.F L P P P 7 FXKXLXLXLXLXLXLXLXLX",
"LXLXLXLXLXLXLXLXLXLXLXLXLXLXLXLXLXLXLXLXLXLXLXLX<XR | 4.=.:.b u ;.*X*X5XSXJXLXLXLXKXLXLXPXnX-XQ , 7 L L J $XKXLXLXLXLXLXLXLXLXLX",
"LXLXLXLXLXLXLXLXLXLXLXLXLXLXLXLXLXLXLXLXLXLXLXDXE 6.E 9 q q <.u m NXJXLXLXLXLXLXLXLXLXLXLXLXLXHXJXnX6X6XFXJXLXLXLXLXLXLXLXLXLXLX",
"LXLXLXLXLXLXLXLXLXLXLXLXLXLXLXLXLXLXLXLXLXLXLXSXR 5.5.7.W u.p.b.m.s.BXLXLXLXLXMXC 6X=X%XA A KXLXLXLXLXLXKXLXLXLXLXLXLXLXLXLXLXLX",
"LXLXLXLXLXLXLXLXLXLXLXLXLXLXLXLXLXLXLXLXLXLXLX&XH X.5.7.0.i.i.p.n.sX$XLXLXLXvXX V KXz vXX . LXLXLXLXLXLXLXLXLXLXLXLXLXLXLXLXLXLX",
"LXLXLXLXLXLXLXLXLXLXLXLXLXLXLXLXLXLXLXLXLXLXLX7XG ; | 6.9.u.i.i.b.ZXS JXLXMXX x KXLXJXnX  C LXLXLXLXLXLXLXLXLXLXLXLXLXLXLXLXLXLX",
"LXLXLXLXLXLXLXLXLXLXLXLXLXLXLXLXLXLXLXLXLXLXLXKX9XJ E 6.9.i.i.i.b.ZXj.IXMXo z IXPXHXnXo C HXLXLXLXLXLXLXLXLXLXLXLXLXLXLXLXLXLXLX",
"LXLXLXLXLXLXLXLXLXLXLXLXLXLXLXLXLXLXLXLXLXLXLXLXKXc K 6.9.t.u.p.n.sXg.SXn         k k   SXV LXLXLXLXLXLXLXLXLXLXLXLXLXLXLXLXLXLX",
"LXLXLXLXLXLXLXLXLXLXLXLXLXLXLXLXLXLXLXLXLXLXLXLXLX&.G Q 9.r.t.b.dXl.A JXnX3X3X3XX k z # C @ LXLXLXLXLXLXLXLXLXLXLXLXLXLXLXLXLXLX",
"LXLXLXLXLXLXLXLXLXLXLXLXLXLXLXLXLXLXLXLXLXLXLXLXLXSXK L H Q Q <.q e MXLXLXLXLXLXX k LXLXLXLXLXLXLXLXLXLXLXLXLXLXLXLXLXLXLXLXLXLX",
"LXLXLXLXLXLXLXLXLXLXLXLXLXLXLXLXLXLXLXLXLXLXLXLXKXLXNX&.K J _ ` ,XPXLXLXLXLXLXLXNXSXvXBXvXfXDXLXLXLXLXLXLXLXLXLXLXLXLXLXLXLXLXLX",
"LXLXLXLXLXLXLXLXLXLXLXLXLXLXLXLXLXLXLXLXLXLXLXLXLXLXLXLXHXIXIXPXLXLXLXLXLXLXLXLXLXLX5XMXbX6XIXLXKXLXLXLXLXLXLXLXLXLXLXLXLXLXLXLX",
"LXLXLXLXLXLXLXLXLXLXLXLXLXLXLXLXLXLXLXLXLXLXLXLXLXLXLXLXLXLXLXLXLXLXLXLXLXLXLXLXLXLXJX3X$X%X3X5X*X*XPXLXLXLXLXLXLXLXLXLXLXLXLXLX",
"LXLXLXLXLXLXLXLXLXLXLXLXLXLXLXLXLXLXLXLXLXLXLXLXLXLXLXLXLXLXLXLXLXLXLXLXLXLXLXLXLXLXLXLXHXDXLXJXKXLXLXLXLXLXLXLXLXLXLXLXLXLXLXLX",
"LXLXLXLXLXLXLXLXLXLXLXLXLXLXLXLXLXLXLXLXLXLXLXLXLXLXLXLXLXLXLXLXLXLXLXLXLXLXLXLXLXLXLXLXLXLXLXLXLXLXLXLXLXLXLXLXLXLXLXLXLXLXLXLX"
};
