/* XPM */
static char *result[] = {
/* columns rows colors chars-per-pixel */
"64 64 214 2 ",
"   c black",
".  c #020202",
"X  c gray1",
"o  c gray2",
"O  c gray3",
"+  c #090909",
"@  c #0B0909",
"#  c #09090B",
"$  c gray5",
"%  c #0E0E0E",
"&  c #101011",
"*  c #111111",
"=  c #111113",
"-  c #131113",
";  c #131313",
":  c gray8",
">  c #161416",
",  c #161616",
"<  c #171617",
"1  c gray9",
"2  c #191919",
"3  c gray10",
"4  c gray11",
"5  c #1D1C1C",
"6  c #1D1D1D",
"7  c #1F1D1D",
"8  c gray12",
"9  c gray13",
"0  c #242222",
"q  c gray14",
"w  c #252424",
"e  c #252525",
"r  c #28272A",
"t  c #28282A",
"y  c #2B2A2B",
"u  c gray17",
"i  c #2B2B2C",
"p  c #2C2B2C",
"a  c #2C2C2C",
"s  c gray18",
"d  c #2F2E2E",
"f  c #2F2F2F",
"g  c #323131",
"h  c #353435",
"j  c #343437",
"k  c #353538",
"l  c #383738",
"z  c #38373A",
"x  c #38373B",
"c  c gray22",
"v  c #38383A",
"b  c #3A383A",
"n  c #3A383B",
"m  c #3A3A3A",
"M  c #3D3B3B",
"N  c #3A3A3D",
"B  c #3B3A3D",
"V  c #3B3B3D",
"C  c #3D3B3D",
"Z  c gray24",
"A  c #3E3D3D",
"S  c #3E3D3E",
"D  c #3E3E3E",
"F  c #3F3E3E",
"G  c #3F3E3F",
"H  c #3F3F3F",
"J  c #3E3D41",
"K  c #3E3E41",
"L  c #3F3F41",
"P  c #414141",
"I  c gray26",
"U  c #444444",
"Y  c gray27",
"T  c #454448",
"R  c #464548",
"E  c #494848",
"W  c #484849",
"Q  c #4B4949",
"!  c #4C4B4B",
"~  c #49484C",
"^  c #4B494D",
"/  c #4C4B4D",
"(  c #4C4B4F",
")  c #4C4C4C",
"_  c gray30",
"`  c #4D4D4F",
"'  c #4F4D4F",
"]  c #4F4F50",
"[  c #4F4D52",
"{  c #504F50",
"}  c #504F53",
"|  c #505050",
" . c #525052",
".. c gray32",
"X. c #535252",
"o. c #535353",
"O. c #545353",
"+. c #545354",
"@. c #545356",
"#. c gray33",
"$. c #565656",
"%. c #575656",
"&. c #565657",
"*. c gray34",
"=. c #585757",
"-. c #56545A",
";. c #58575B",
":. c #585858",
">. c #5A5858",
",. c #58585B",
"<. c #5B5A5A",
"1. c #5B5B5B",
"2. c #5C5B5B",
"3. c #5B5A5C",
"4. c #5B5B5C",
"5. c #5B5A5E",
"6. c #5C5B5F",
"7. c gray36",
"8. c #5E5C5C",
"9. c #5E5C5F",
"0. c gray37",
"q. c #605F5F",
"w. c #5C5B60",
"e. c #5E5C60",
"r. c #5E5C62",
"t. c #5F5E62",
"y. c #5F5E63",
"u. c #605F60",
"i. c #605F63",
"p. c #606060",
"a. c #626060",
"s. c #626062",
"d. c #626063",
"f. c #626262",
"g. c #636262",
"h. c #626263",
"j. c #636263",
"k. c #646363",
"l. c #626064",
"z. c #636264",
"x. c #636266",
"c. c #636366",
"v. c #646364",
"b. c #646366",
"n. c #646367",
"m. c #646464",
"M. c #646466",
"N. c #646467",
"B. c #666466",
"V. c #666467",
"C. c gray40",
"Z. c #676666",
"A. c #666667",
"S. c #676667",
"D. c #676767",
"F. c #686767",
"G. c #666668",
"H. c #676668",
"J. c #676768",
"K. c #67676A",
"L. c #686768",
"P. c #68676A",
"I. c #686868",
"U. c #6A6868",
"Y. c #68686A",
"T. c #68686B",
"R. c #6A686A",
"E. c #6A686B",
"W. c #6A6A6A",
"Q. c #6B6A6A",
"!. c #6A6A6B",
"~. c #6B6A6B",
"^. c gray42",
"/. c #6C6B6B",
"(. c #6B6A6C",
"). c #6B6B6C",
"_. c #6C6B6C",
"`. c #6C6C6C",
"'. c #6E6C6C",
"]. c #6C6C6E",
"[. c #6E6C6E",
"{. c gray43",
"}. c #6F6E6E",
"|. c #6E6E6F",
" X c #6F6E6F",
".X c #6F6F6F",
"XX c #706F6F",
"oX c #6F6E70",
"OX c #6F6F70",
"+X c #706F70",
"@X c gray44",
"#X c #717070",
"$X c #717071",
"%X c #717171",
"&X c #737171",
"*X c #737173",
"=X c gray45",
"-X c #747373",
";X c #747474",
":X c #757474",
">X c gray46",
",X c #777575",
"<X c #777777",
"1X c #787777",
"2X c gray47",
"3X c #797878",
"4X c #797979",
"5X c #7A7979",
"6X c gray48",
"7X c #7C7A7A",
"8X c #7C7C7C",
"9X c #7D7C7C",
"0X c gray49",
"qX c #7E7D7D",
/* pixels */
"U./..X%X%X{.'.}.`.%X;X4X9X4X<X3X%XXXQ.Q..X.XL.i.i.i.e.z.F.B.i.t.w.T. X@X.XL.i.i.F.S.i.r.i.i.S.)..X.X@X%X;X7XqX,X=X}.Q.Q..X.X/.U.",
"/.XXU..X@X%X}.`.%X-X9X>X3X9X3X=X&XQ.Q..X=X=X@XQ.Q.Q.d.t.b.U.F.S.t.r.B.'.@X[.F.F.F.i.t.b.Q.S.r.w.B.U.'.#X%X=X8X7X:X%X{.U.U.Q.@X/.",
".XU.U.U.U.}.%X%X;XqXqXqX,X%X,XqX9X%X%X%X2XqX5X%X%X%X^.{.{.B.w.e.L.U.U.U.b.w.w.w.w.B.{.%X.XU.L.r.w.b.U.`.%X%X%XQ..X'.U.U.Q.%X%X%X",
"Q.F.t.F.}.%X%X:X9XqX;X=X3X9X3X>XqX9X=X3X9X4X>X6X%X%X@X'.M.r.t.F.U.U.l.r.r.w.r.S.{.@X'.{.%X[.t.S.F.L.'.@X@XQ.Q.U.Q.{.@X}.U.Q.Q.XX",
"S.i.B.i.L./.}.=X>X:X%X'.}.&X;X=X;XXX/.&X>X1X3X;X%X`./.Q.F.B.b.i.i.i.v.B.B.B.S..X%X'.B.l.x.x.B.U.{..X'./.`..X.X.X:X4X<X#X}.U.U.Q.",
"i.e.d.v.F./.{.}.%X%X%X.XQ.Q.}.%X%X}.Q./..X;X>X%X%X}.Q././.U.F.z.w.w.i.B.U.Q.{.'.'.B.z.i.t.V.{.{.@X}.Q.Q..X&X3X3X1X<X;X@X'.{.{.Q.",
"l.z.G._.'.XX&X-X,X%X%X>X;XXX'..X%X{.'.'.{.).P.E.{.%X}.{.R.v.v.z.z.l.l.L.'.'.'.U.U.b.S.L.P.{.%X%X%X.X'.#X<X1XqX4X;XXX{.{.{.%X}.Q.",
"S.Q..X%X;X>X1X5X3X%X>X8X7X>X#XXX%X/.@X%X'.B.t.r.B.{..XR.d.r.i.d.^./.Q.`.@X@X/.U.U.^./.}.=X>X>X%X%X;X-X:X7XqX5X=X%X}.Q.Q..X.X/./.",
"l.Q.Q.@X3X9X4X;X=X%X6X7X<X;X<X5X-X%X@X@X'.Q.D.t.t.B.U.z.y.b.Q.^.XX@X/.Q.'.%X@XQ.Q.}.#X%X:X9XqX:X;X5X3X;X>X6X%X@X@X#X.XQ.Q.Q..X%X",
"^.%X%X%X%X3XqXqX7X%X%X%X3XqX4X:X9X%XQ.U.{.%X.XU.U.r.B.U.'.%X%X@XQ.U.U.{.%X%X%X%X%X/..X%X%X;XqXqXqXqXqXqX6X%X%XQ.U.{.%X%X%X%XQ..X",
"U.Q.%X%X4X<X1XqXqX9X=X%X=X2XqX5X=X%X#X/.U.'.%XXXU.r.e.E.%X%X@XQ.@X@X@X%X,X9X7X%X%X3X9X9X9X7X=X=X7XqX2X=X=X@XQ.XX/.U.'.%X@XQ.@X/.",
"t.i.~.^.%X2X2X;X;X:X5X7X7X2X;X&XQ.l.l.)./.Q.^.R.t.w.w.V.^.^./.@X%X%X2X,X=X<XqX7X7X9X3X;X;X;X%X5X0XqX9X1X%X%XXX%X@X/.Q.^.Q.U.Q.U.",
"i.!.U.U./.&X;X%X=X4XqX2X,X;XXXW.i.w.K.OX@X`.U.L.b.b.t.t.d.v.W.`.`.@X;X2X4X6XqXqX1X,X@X`.{.=X4XqX2X,X,X1X4X3X%X%X{.Q.B.d.z.U.U.U.",
"!.%X{.W.`.@XXX{..X2X2X=X.X{./.F.z.z.G.K.K.V.b.U.U.v.r.i.i.t.z.z.U.`.@X:X2X2X3XqX3X@XQ.^.@X2X2X2XXX@X:X,X-X&XK.K.I.B.z.d.e.z.L.b.",
"@X{.!.B.Y.].{./.Q.}.}.@X}.Q.U.U.U.b.r.w.w.t.z.U.U.l.d.z.i.w.e.d.U.B.P.|.%X@XXX4X4XXX`.'.%X2X%X%X{.{.&X#XF.v.w.i.S.b.b.S.i.w.v.l.",
"[.B.w.w.t.B.~.~.S.S.S.{.XX{.^.Q.B.w.w.t.t.v.U.U.S.S.S.l.t.t.d.U.U.d.e.N.].).F.XXXXXXXX'.^.XXXX%X%X{.^.Q.S.t.t.B.S.F.U.L.B.w.t.S.",
"S.r.r.w.b.F.z.e.w.w.r.B.F.`.@X].r.r.w.b.U.U.U.S.w.w.e.b.U.U.U.U.F.F.d.r.e.w.t.U.U.U.Q.U.U.U.Q.@X#X@X%X.XW.U.U.i.r.z.F.b.w.w.S.F.",
".XU.U.r.w.w.z.B.w.w.F.L > < 2 2 2 2 , j q 2 1 > > > 1 E U.U.g.h < > 1 2 1 , 0 =.U..X%X{.U.Q.%X%X/.U.{.%X.XU.U.U.U.z.w.w.w.w.w.w.",
"7X3X@X|.R.S.^..X).w.t.m               H W &         . V t.t.t.} 4             : *.%X{.'.@X.XQ.Q.U.z.y.i.b.@X@XQ.U.F.S.b.r.S.S.S.",
"7X:X%X%XXX/.Q.{.@X).V.l               S w.R +       . S d.w.r.B.a.3             , >.Q.Q.{.%X.XU.z.v.i.l.].%X/.U.U.b.i.l.B.U.d.i.",
"1X3X3X3X-X.X{.#X3X2X.XC               N i.L._ #     . I R.v.V.{.{.Q.9 .           2 g.%X.X%X%X}.oX*X X).%X%X{.Q.U.S.i.r.l.l.z.v.",
"3XqXqX4X-X%X;X3X9X3X&XP               n i.L..X..*   . U .X'..X<X%X1XI.0             2 7.%X%X%X,X9X6X>X%X@X{.{.'.'.Q.S.i.w.w.z.F.",
"5X7XqX<X>X=X>X5X4X>X>XI               B i.b.Q.{.| % . Y =X%X=X5X>X>X7XXX6             , 7.;X%X4X5X<X=X%X@X/.U.}..X/.U.S.t.w.t.b.",
"@X=X8X9XqX2X=X%X:X9XqXU               G U.U.Q.Q.Q.| O ! 3X=X%X=X7XqXqXqX,X9 .           3 U.=X%X%X2X<X%X%XXXU.U.F.L.L.F.B.t.F.l.",
"/.%X%X%X5XqX2X>X7X&X9XQ .             F U.'.%X%X%X%Xo.%.qX5X%X%X%X7XqXqXqXQ.w             4 m.=X%X%X%X%X.XU.U.U.i.z.v.w.t.U.U..X",
".X^.%X/.@X=X=X%X:X8X;X<.,             - 3.%X%X=X9X9X;X.X=X,X9X9X9XqXqX2X=X=Xm.7             , q.9X>X{.S.t.t.U.i.w.e.l.F.F.U.U.Q.",
"L.d.^.U.Q..X%X%X%X;X`.}.f.+             ; 4.;X5X:X9X7X>X%X=X<XqXqX<X6X9X1X%X%X#X4             , g.=X@X_.v.w.t.B.~.$X=X{.U.U..X.X",
"l.B.U.{.}.'.`.!.G.`.U./.J.@., .           8 0.#X%X>X&X%X>X3X3X<X<X3X1X<X;X%X#X`.0.8 .           2 &.N.c.x.E.E.-X2X1X&X/.Q.,X3X-X",
"b.U.'.#X.X^.S.d.r.z.U.b.t.t. .1           . 5 p.%X}.'.@X;X5X9X<X%X<X;X%X%X@X'.U.U.1.4             * ~ z.B.{.%X7X5X&X/.Q..X2X9X3X",
"B.S..X.XL.B.d.r.i.d.b.d.i.B.U.>.@             : f.W..X%X@X%X1X4X,X@X_.]..X`.B.B.B.F.C.2             ; $.W.`.%X,X#X'./.'..X.X3X5X",
"t.r.S.S.t.w.r.z.U.S.e.b.L.U.U.U.:.; .           6 <.}.#X}.Q.Q.@X3X'.z.z.S.b.w.w.t.b.S.2.6 .           1 <.@X@XQ.U./..XXXQ.U.@X-X",
"B.w.w.e.e.e.z.U.S.w.w.w.b.L.U.S.e./ 2           . 7 8.{.%X}.U.U.U.L.L.z.e.e.e.w.S.i.e.z.=.4             ,  .U.U.U.z.V.@X@XU.@X5X",
"e.w.w.S.L.L.U.B.e.w.w.w.w.e.d.U.L.S.=.%             ; 2.U.`.{.k.k.5.,.9.j.j.s.;.,.u.j.k.u.[ *             = O.U.d.z.b.d.U.U.U.@X",
"{.].S.U.U.z.t.d.S.S.S.T ~ w.e.d.U.U.i.r             . Z U.U.o.X                                             k F.F.z.r.e.i.U.i.i.",
"5X3X.XQ.'.R.B.S.U.U.d.b ; ' B.b.i.i.b.u             . V i.i.` X                                             m d.i.z.d.t.b.i.w.z.",
"3X9X2X.X@X.X{.{.'.U.r.l   % ) d.w.z.L.a             . Z i.w.^ X                                             v e.d.S.S.B.L.z.z.^.",
"-X3X3XXX@X%X@X.X@X/.z.l     * ] d.b.b.y             . C z.d.` X                                             z n.L.^.^.Q.`.`.U.'.",
"=X;X%X`.}..X`.^.@X%X/.M       : ..i.w.t             . x d.S.O.o                                             A @X'.@X&XXX%X%X/./.",
">X7X@X@X/.U.U.Q./.=X=XD         % ) i.p             . V r.d.+.o                                             I =X%X1X9X7X=X%X=X=X",
"6X@XU.U..X`.'.%X-XqXqXI           $ { f             . H U.B./ o             e ....=.<.*.#.<.<.<.<.<.<.*...o.{.qX>X%X<XqX8X%X9XqX",
"qX5XU.U.Q.{.#X:X9XqX;X) 3 2 1 , , 1 s c 3 4 6 6 3 3 3 Q U.L.O.o             f U.@X=X4X9X9XqXqXqXqX1X=X<X9X9XqXqX9X,X=X=X:X9XqX,X",
"-XXX.X.XQ.Q./.}.>X>X5X:XQ.C.m.h.j.m.}.^.`.@X@XW.D.D.k.Z./..X=.o             f {././.#X>X>X>X>X9XqX7X,X=X<XqXqX<X>X2X<X@X/.XXXX#X",
",X}.%X%X.X^.U.Q.{.%X,X9X6X>X%X=X3X3X9X5X1X<X>X%X%X%X.X{.XX@X%.o             d ^.U.U.^..X%X=X3XqX3X<X;X%X=X1XqX5X;X;X&X/.Q.{.{.@X",
"6X%X{.{.{.^.Q.'.'.{.{.,X3X2X<X3XqX3X3X3X;X@X.X%X%X%X%X.X{.`.O.o             a j.L./.'.'.{.XX3X3X=X%X;X<X>X&X2X:XXX@XXX'.'.{.{.{.",
"2X@X/.U.^./.}.%X@X/./.@X%X>X7X9X5X>X&X%X%X.X'..X.X%X%X{.Q.U.O.o             i 6.b.`.@X.XQ.Q..X%X%X;X5X9X2X%X%X'.Q.`..XXX@X/.U.S.",
"@X@X%X'.%X=X%X%X%X%X%X=X;X=X>X4X=X7X&X@X@X@XXXQ.U..X@X%X}.U.X.o             s e.t.b.^..X{.U.S.[.+X,X7X3X=X%X@X@XW.S.F.^.@X@X/.l.",
"U.Q.%X7XqX<X%X%X%X%X%X7XqX1X%X%X%X%XQ.U.U.'.%X@XU.U.U.{.@X!.( O o o o o o o g F.U.i.w.z.U.S.w.w.B.U.{.,X6X@XU.U.i.w.l.U.U.U.@XQ.",
"^.#X%X=X6X0X2X%X%X%X7XqX<X%X%X@XQ.Q.U.}.@X{.Q.W.U.U.U.z.t.r.-.K J J I Y I J ( r.r.w.z.L.U.U.F.r.e.!.%X%X@XQ.U.i.w.z.L.U.U.U.i.r.",
"U.^.^.^.%X;X1X2X@X^.'.=X=X}.^.Q.U.U.}.%X{.Q.U.U.U.i.t.v.S.z.w.e.B.S.d.t.r.w.r.S._.].~./.{.F.i.B.S.{.}.^.Q.U.U.S.S.z.t.t.t.t.B.S.",
"U.L.d.d.R.`.#X:X%X}.U./.XX@X`.U.U.U./.`.A.b.S.d.d.w.z.F.B.t.r.B.{.}.L.i.w.t.B.U./.@X@X{./.U.!.{.}.'.Q.^.}.}.}.Q.U.S.d.t.b.b.[.Q.",
"z.z.z.z.F./..X@X'.'.U.U./.'./.Q.{.{.Q.U.B.z.d.e.z.z.F./.~.V.B.{.%XE.b.z.z.b.U.U.U.`.'.{.{.}.%X%X}.Q./..X@X'.'.{.{.{.R.V.{.'.P.b.",
"r.l.U.U.U.`.}.'.U.U.U.U.U.U.U.Q..X%X'.`.Q.B.d.d.b.b.F.`.@XXX'.}.}.b.r.i.S.F.b.b.L./.`..X=X,X,X%X{.`.{.}.'.U./.@X%X@X{.{.@X!.r.i.",
"d.S.S.U.S.U.^.Q.U.U.Q.^.Q.U.Q.^./.%X%X@X/.U.L.B.w.t.b.S.~.XX}.U.S.S.d.t.l.v.w.t.F.{.@X%X;X7XqX>X;X=X}.^.^./..XXXXX/.~.].(.t.t.b.",
"B.e.w.S.i.K.@X.XW.U.@X%X'.U./.#X%X%X#X/.U.Q.S.r.r.S.t.e.z.U.U.S.e.e.B.U.B.r.t.W.Q.Q.}.%X%X:XqXqX9X<X%X%X%X@XQ.U.U.U.b.e.r.F.U.i.",
"i.S.w.w.w.w.G.%X@XU.U.XX%X'.U./.%X%XQ.U.{.%X.XU.L.t.w.b.U.U.S.w.w.S.U.{.{.U.R.%X%X%X%X%X>XqXqXqX:X4X1X%X%X%X%XQ.U.U.U.B.w.e.F.U.",
"w.i.S.S.S.S.I.'.%X@X3X7X>X@X@X@X%X%X@X/.Q.{.%X@X@XL.S.l.t.z.U.S.S.}.@X'.Q.Q.@X%X%X3X7X7X4X;X;X;X%X}./.Q.`.%X%X@X@X`./..X].S.U.}.",
"t.b.i.F.U.`..X@X%X%X>X8X7X>X%X%X%X%X'.{..X@X%X@X/..X.XR.d.r.z.U.U.^.XX@X.XXX=X5X5X9XqXqX9X3X%X%X%X@X/.U.U././.@X%X@X{././.U.}.#X",
"B.L.v.`.{.@X;X,X=X3X3X9XqX7X3X3X2X%X}.'.'.'.'.'.{.%X}.Q.Y.P.Y.U.{.{.:X3X3X<X&X<X<X<X7XqX7X,X%X'.'.'.{./.U.U.{.#X}.'./.U.U.U.`.'.",
"Q.'.'.{.@X%X:X2X2XqXqXqXqXqX8X3X2X%X%X}.Q.U.U.Q.{.E.V.S./.{.{.'.%X%X,X3X6X9X,X%X%X>X7X7X<X#X{.U./.Q./.{.'.'.{.{.Q.U.S.v.v.b.L./.",
"Q.XX%X`.}.@X=X2XqX5X5X9XqX9X1X%X.X.X.X.X'./.Q.U.U.d.i.z.B.S.Q..X.X%X%X@X=X3X5X>X>X3X5X>X.X}././.}./.Q.{.%X.XU.U.S.B.z.i.i.x.Q.@X",
"U.Q.@X@X^.'.>X9X6X=X%X5X0X3X=X@XQ.U.U.Q.}.%X.XQ.Q.U.U.z.e.i.F.U.Q.@X@X`.U.`.=X8XqX<X=X}.Q./.%X%X/.U.'.@X.XU.U.F.i.e.z.U./.%X%X@X",
"U.U.U.U.U.U.'.%X-X0X=X%X4XqX4X%X@XU.U..X%X{./.%X%XQ.U.U.z.w.t.U.#X%X/.U.`.%X%X%X8XqX<X%X%X%X%X%X%X`.U.U.U.U.U.t.w.z.U./.%X%X%X/.",
"U.U.U.U.}.@X{.Q./.=X%X5X<X=XXXQ.Q.@X@X/.Q.'.@X@XQ.t.r.r.z.F.F.U.Q.@X#X@X{./.%X%X=X=X3X9X3X@XQ.Q.Q.}.'.B.r.t.U.F.i.e.r.d.Q.Q.Q..X",
"U.U.U.}.#X{.Q.^.@X%X/.=X=X}.Q.U.U.^.@X@XH.i.n.^.U.S.t.z.F.B.d.U.U.Q..X%X@X}./././.@X=X:X;X%X.XU.U.Q.Q.F.v.w.t.F.S.i.w.e.d.U..X%X"
};
