/* XPM */
static char *result[] = {
/* columns rows colors chars-per-pixel */
"64 64 85 1 ",
"  c #5D5C61",
". c #535B6A",
"X c #605F63",
"o c #5F6267",
"O c #5C626D",
"+ c #5A6272",
"@ c #656365",
"# c #686767",
"$ c #64666B",
"% c #686768",
"& c #67696F",
"* c #6C6B6B",
"= c #706F6F",
"- c #646770",
"; c #6A6C73",
": c #666E7C",
"> c #696F7E",
", c #706F70",
"< c #6E7075",
"1 c #6C717D",
"2 c #727272",
"3 c #787777",
"4 c #74767B",
"5 c #76797F",
"6 c #7B7A7A",
"7 c #6B7487",
"8 c #63718B",
"9 c #6B7D9F",
"0 c #7F8289",
"q c #7A8495",
"w c #74839E",
"e c #6E82A6",
"r c #7C8EB1",
"t c #7F93B8",
"y c #808283",
"u c #898B8D",
"i c #8F8F94",
"p c #8F9197",
"a c #909095",
"s c #93969A",
"d c #97999E",
"f c #9A9CA2",
"g c #969EAA",
"h c #9FA1A5",
"j c #9FA1AA",
"k c #9EA5B2",
"l c #A1A3A7",
"z c #A3A5AB",
"x c #A6A9AE",
"c c #A9ABAF",
"v c #A9ABB2",
"b c #ADB0B6",
"n c #AEB1BC",
"m c #B2B5BC",
"M c #B5B8BE",
"N c #8AA3D1",
"B c #B1B8C4",
"V c #B8BBC8",
"C c #BEC1CE",
"Z c #BEC5D1",
"A c #9EC6F5",
"S c #A0C8F6",
"D c #A2C6F9",
"F c #A4CCFB",
"G c #A7D0FE",
"H c #ABD2FF",
"J c #B3D7FF",
"K c #BBDBFF",
"L c #C3C6D4",
"P c #C4CBD6",
"I c #C8CDD6",
"U c #CFD4DC",
"Y c #D2D6DD",
"T c #D1D5E2",
"R c #D4DAE2",
"E c #D7DBEA",
"W c #DAE0E7",
"Q c #DEE2ED",
"! c #CDE5FF",
"~ c #D2E7FF",
"^ c #E0E3EB",
"/ c #E6EBF2",
"( c #EBEFF6",
") c #ECF5FF",
"_ c #F5FAFF",
/* pixels */
"%*=22**=*23666332,*%==#@ @ @##XX %,,,%XX##XXXXX*,,,,26633=%%,=*#",
"*=%*===*226366322*%222=#*%@ @%##  X=,=#%#XXX*#  X*=,,4662,=%%===",
"=#*##=2236y632366222666<=2#**$  %%%%X X XX=,=##XXX**,,,*,=##*2==",
"*#X#=2226622363366236636222*@ X%%*XXX  #=,**,=X%#%==,**%*=,=#%*=",
"#X@X#*=22-OO:177517477771717>>>>>>>>>7>>7>>>:>>771>171;,233==###",
"X @@#*=;O..>77777777777777777777777777777777777777777777333=====",
"@@@%*=2*..+7777777777777777777777777777777777777777778874;*====#",
"@*=2233;..9DDDSSDDDDDDSSSDDDSDDDDDDDDDDDDDDDDDDDDDDDDg772=*#===#",
"@**=666-..eHHHHHHHHHHHHHHHHHHHHHHHHHHHHHHHHHHHHHHHHHHt77<2***%=2",
"%=222664..eHK~HHHHGHHHHHHHHHHHHHHHHHHHHHHHHHHHHHHHHHHt77;;,222%=",
"#*2=633<..eH!)HHHHHHHHHHHHHHHHHHHHHHHHHHHHHHHHHHHHHHHt77;%*2=*2*",
" o%*<33&..eHHJHHHHHHHHHHHHHHHHHHHHHHHHHHHHHHHHHHHHHHHt774****#*#",
"@*#%*23&..eH!)JHHHHHHHHHHHHHHHHHHHHHHHHHHHHHHHHHHHHHHt77;*@X@###",
"#==**2*&..eH!_HHHHHHHHHHHHHHHHHHHHHHHHHHHHHHHHHHHHHHHt77;@@@ @#@",
"=**@%**$..eH~_JHHHHHHHHHHHHHHHHHHHHHHHHHHHHHHHHHHHHHHt77;@@#X @@",
"*@   $*$..eH!_HHHHHHHHHHHHHHHHHGHHHHHHHHHHHHHHHHHHHHHt77;@##@  @",
"%   @#@ ..eH!_HHHHHHHHHGHHHHHHHHHHHHHHHHHHHHHHHHHHHHHt77-@@@  @@",
"<%#   oo..eH!_JHHHHHHHHHHHHHHHHHHHHHHGHHHHHHHHHHHHHHHt77;o      ",
"66==%@%&..eH!_JHHHHHHHHHHHHHHHHHHHHHHHHHHHHHHHHHHHHHHt77;@@@ #@@",
"622=<**%..eH!_JHHHHHHHHHHHHHHHHHHHHHHHHHHHHHHHHHHHHHHt77;@@@@# o",
"33332==&..eH!)HHHHHHHHHHHHHHHHHHHHHHHHHHHHHHHHHHHHHHHt77;@X @X@@",
"3y63222<..eHGHHHHHHHHHHHHHHHHHHHHHHHHHHHHHHHHHHFFGFHHt77<*@@  @@",
"66033222..eHHHHHHHHHHHHHHHHHHHHHHHHHHHHHHHHHHHFAFFAGHt77<*##   @",
"=266662&..eHHHHHHHHHHHHHHHHHHHHHHHHHHHHHHHHHHHSFSAGHHt77;%##@ @@",
"*222666;..eHHHHHHHHHHHHHHHHHHHHHHHHHHHHHHHHHHGGSAFHHHt77-@@  #*=",
"=*=*=22&..eHHHHHHHHHHHHHHHHHHHHHHHHHHHHHHHHHHHFAGHHHHt77$ @#@##*",
"@@*#*=2&..eHHHHHHHHHHHHHHHHHHHHHHHHHHHHHHHHHHHFGHHHHHt77;;2=##==",
"@##=<**o..eHHHHHHHHHHHHHHHHHHHHHHHHHHHHHHHHHHHHHHHHHHt77532**332",
"@#*==*@ ..eHHHHHHHHHHHGHHHHHHHGHHHHGHHHHHHHHHHHHHHHHHt775=**=366",
"@@==#@@ ..8NNNNNNNNNNNNNNNNNNNNNNNNNNNNNNNNNNNNNNNNNNw772=**==36",
"@ @@o  o..+777777777777777777777777777777777777777777777;*==**=2",
"@     X@..+777777777777777777777777777777777777777777777;@@==#=6",
"  X####5gjkBBBBBBBBBBBBBBBBBBBBBBBBBBBBBBBBBBBBBBBBBBBBBy@@@#%*=",
"=*###oXpTRW((((((((((/((((((((((((((((((((((((((((((((((h@  X#XX",
"33=#**#sRRW((((((((((()((((((((ZZ/((((((((((((((((((((((f@@ @X @",
"363====sTRW(((((((((((((((((((^9qQ((((((((((((((((((((((f@@@@@@%",
"336==2=uPRW/(((((((((((((((((((PP/(((((((((((((((((((((^a*****#*",
"222*==*=jYRQ((((((((((((((((((((((()((((((((((((((((((/M2===22**",
"262=*##**0dsdhhhhffhzzzjlfvQ/Q^^QQQQQxhzzzzxvcxzcbczzhu223662222",
"62##=*=22664=%%#  #=33,2,*sEEEEEEEEERp2<2666366y6666226y3=3y6=y6",
"y3##*=22663==*#  #,223662*bEEEEEEEEERj*%,26666666323666663223663",
"2===#**=236622=**=6236632,VEEEEEEEEEEn*,**,3333666326y63333=*===",
"3=2==*##=22663=23366333;26LEEEEEEEEEEL**%**=226666222666222***==",
"32====#=*==3633363632=3sdxR^E^^QQQQQETfaa2***=3622233233====*===",
"3=*##*=2=**2=36662222=v/((()((((((((((((/c,=*%,222663<2***==2*%#",
"222*222222222236262===MYYYYYYYYYYYYTYYYYYm****%*=3632=2=*@#*==*@",
"RRRRRRRRRRRRRRRRRRRRRRRRYRRRRRRRRRRRRRRRRRRRRRRRRRYRRRRRRRRRRRRR",
"RRRRRRRRRRRRRRRRRRRRRRRRRRRRRRRRRRRRRRRRRRRRRRRRRRRRRRRRRRRRRRRR",
"RRRRRRRRRRRRRRRRRRRRRRRRRRRRRRRRRRRRRRRRRRRRRRRRRRRRRRRRRRRRRRRR",
"RRRRRRRRRRRRRRRRRRRRRRRYRRRRRRRRRRRYRRRRRRRYRRRYRRRRRRRRRRRRRRRR",
"#Xoo#===***#*****=*##@  @@***@#=2%@@@@@#**======***22***=*##=*%#",
" X####==#*##*##*=2***@@X@@#*==*=*@ @@#@@#**=233==*==***22=2*=% o",
"@X#####*#********2==*##@  @##==#%%@ @@ o#*=2366322****2*=***%o @",
"#X #X#2=*#==*#*=2=2*#*#  @  @##@  @#@  #**=2=36y63=222*#*%@ o## ",
"X#    @2=##===#*22*#==**#o @###  #%==#%=2==2266y3662222####@  ##",
" XX##@#*2=363====2=**=22=#@oX@##@=2***2223666232<***#22=2**=*##=",
"Xoo#**==2=3663=222*=2=2=*==%@ @*#*====26666666====*##**=2=***#==",
"##@*==23333y663332******=2=####**=2663=3336y63=====*##===*%#*#*=",
"#=*===2636y6y6663<==**#*=%@#****2233663==3663==###=*====*##@@@#*",
"*=2*==2666366632====***##@o@@#**=2==26622662==#===#===###@@@ @*=",
"#*==**2663=6663=*#**===%%#*@  **#=2*%*26632=#=22##===###X @#*=2=",
"###**#==262=666==%#=2=*22%##   #22*#*222y632=2====#####@ @#*222*",
"###*===**22632=**==*%*=2* X @##**==2=*2<22666==##==#  ##    **%=",
"*##==***=2*22=*#%*=2@@@*## @## #*#=2==***=2322=##*##@ X##X  @#=2"
};
