/* XPM */
static char *result[] = {
/* columns rows colors chars-per-pixel */
"64 64 71 1 ",
"  c #231F20",
". c #282425",
"X c #3C3939",
"o c #403C3D",
"O c #454243",
"+ c #514E4F",
"@ c #5E5B5C",
"# c #5E5C61",
"$ c #605F63",
"% c #656365",
"& c #686767",
"* c #676668",
"= c #696768",
"- c #6C6B6B",
"; c #706F6F",
": c #6F6E71",
"> c #716F70",
", c #727272",
"< c #787677",
"1 c #7A7778",
"2 c #7B7A7B",
"3 c #807E7F",
"4 c #7D7E80",
"5 c #827F80",
"6 c #7F8083",
"7 c #858283",
"8 c #888687",
"9 c #858689",
"0 c #898788",
"q c #8D8B8C",
"w c #908E8F",
"e c #8E8E91",
"r c #918F90",
"t c #8F9093",
"y c #949393",
"u c #989697",
"i c #999798",
"p c #9C9B9B",
"a c #A09E9F",
"s c #A19FA0",
"d c #A4A3A3",
"f c #A8A6A7",
"g c #A9A7A8",
"h c #ACABAB",
"j c #B0AEAF",
"k c #B1AFB0",
"l c #B4B3B3",
"z c #B8B7B7",
"x c #B9B7B8",
"c c #BCBBBB",
"v c #C0BFBF",
"b c #C1BFC0",
"n c #C4C3C4",
"m c #C8C7C7",
"M c #C8C7C8",
"N c #CCCBCB",
"B c #D0CFCF",
"V c #D0CFD0",
"C c #D4D3D3",
"Z c #D8D7D7",
"A c #D8D7D8",
"S c #D6D8D8",
"D c #DCDBDB",
"F c #E0DFDF",
"G c #D4DAE2",
"H c #DEDFE0",
"J c #E0DFE0",
"K c #E3E3E3",
"L c #EBEBEB",
"P c #F3F3F3",
"I c #FBFBFB",
/* pixels */
"=-;,,--;-,,222<<,;--;;&$$$#$&%$$#&;:;&$$*&$#$$&-:;,,,24<,;---;-&",
"-;=-;,;-,,2<222,;---,,;---$$%&&&$$&-,-&&*$$%-*##%*-;,,22,;;&&-;-",
";&=-=;,,,423<,<22,;,24<;,,--;%##%&-&%####%-,-=*$#%&-;,,-;----;,,",
"-%%&-,;<43,,<2<<24,222<2,,,-%##&-&$####%-,-:,-$*&*-,;--*-;;-&--;",
"%%%$&-,<<2224669999qqyyyttttytttttttttttttq99777663222<<<2<;;&&-",
"$@$%&;<2679qeyppadfhhlzzccvvmmmmmmmnvvccxzljhgddppytq07322,;-;;-",
"%%*--,<2780wyupadfhjllzcvvmmmNNmMNMMMnnvxxlljhfdspiytq874<,;;;;-",
"%=;,<<2379qyypasdhhlzzccvmmNNNBBBBBNNMnnncxlljhfdapuyq0862,--;--",
"$--;<22580wyupadfjjlzcvnmNNBBCCCCCCBNNNmnvcxzjjfdapuyr0072,---;,",
"-,;,,2558qquiadfhjlzcvnmmNBCZZZZSSSSCCNNmnnczljhfdapurq073<,,;&;",
"&-;,<2578qyuiadfjkzcvnnNNBCZZDDFDFDSZCCNNmncxzkjgfapurw073<,,-;-",
"#$--,257qqyuaddhhlzcvnmNBZZZFFFKzNFFDZCCNmnnvzljgfdaiyw085,-&&-&",
"$-&&-<78qryiaadhklccnmNBCZDFKKCZ@cKFFFZCBNmnccllhgfaiurq96,$%-&&",
"-,---<70qrupadhhkzcvnmBBZZDKKmOOXonKFFSSCNmnvczlhgfaiuyq07,%@%&%",
",--%&<70qruiadhhlzcvnNBCZZFKK2   +LLKFFSCCNmncxlkhdapuyq08,&##%%",
"-%##$,70qyupddhjlccvmNBSZFFLL3   XFLLFFDCCNmncclhgfsaiyq08,&%@#&",
"*###%,6qwrupafhjlxvvmNBZDFKLLv.   uLLKJDZBBmnvxzlhfdayyw07<%@@%*",
"---##:90wyuaafhkzxvnmNBZDFKLLPu&11LPLKKDZBBmnvxlkhfsauywq7;@@###",
"2<:--,70wrupafgjlxvnmBBZDFKLLPIIIPPLLKFDZCBmnvxzlgfdauywq7<%#%*%",
"2<,,;<70wrupsfhjlxvnmNBZDDKLLPPIIPPLLKFDCBNmnvzzkhfaaiyq07>%*=%#",
"<<11,<70wwuaafgjkzvbnNBCSDKKLLPPPPLLKKFDZBNmnczlhhfaauyw07,#%$%%",
"<441,270wwuiafghlzcvnMBCSDFKKLLLLLLKKFDACBMnnczlhhfaiurw07,$#@%%",
"124<<<78qwuiadfhkzxvnmNBCSDCCCSCCCCCCFACCNMnvxzkkfdapurq07,=###%",
",,242277qwyuaafhjlzvvmMBCCSaeewwwwrraCZCBMmnvzzjhfdaiyrq87<%*#%%",
"-,;,<2680qyipadhjlzxvbmNBVVpttqeweeepBCBNmnvczljgfapuywq85,@#==,",
";-,-,<288qyupadfhjlxvvnmNBNpttttytytpmBNmnvvzzkhfdapuyq073,=====",
"&$-&-<278qqyupafgjlzxvbbmNmpiiuuppuupmNmmnvxzljhfsauywq8731--=;;",
"$&&;-<2380qyupadfhjlzvvvnmnappppipppanmmnvcxljhffspuyw08521=-<<,",
"&&-,;,2678qwyipadgjjlzvvnnvdssddadaadvmvvxxlkjffaauyrq0752,-;<21",
"&&;;--<237qqyuiasfgjjlxxcvcdfdddddfddcvvxzzkjgfdapuyqq852<,-;;<2",
"@#*%#-<2378qwyupasfhjjkzxcxhhhhhhhhhgzcczzjjgfdaauywq0752<;;--;,",
"%@##@*,<2588qruuaadfhjjllxlkjjjllljjjlclljjhfdaauuww0872<<-;;&,2",
"@@@&&-;;2338qqyyupadfhhjllllllzcczlllllljhhfdappuyqq8733,;-%&-&>",
";-&&&&;3<2378qwyupaaddfhhjlzzlzzzllzcllhhhddapuuywq87323<;&@@-%@",
"21;----;<<3378qwyyupaadfhhzvvzjjljzccchdfdaapuuywq88223<;-&@%$@$",
"<32;;--;,<2337qqwyuuppadddcnvcjhhhcnncffdaappuywq87733,,;-&&&$%;",
",11,;;&-;,;;4,7307yyuppaadnnmnvllvmnnndapppuyyeeq7722<<;;=--;;&;",
",,,-;-&--,,;2,3286qwyuuupaNNNNNNNNNNNNappuuyywqq7732<<,3&&-;;;-=",
"<1;;-&&&--;,<24678qquyyuuaSNBBBCBVBBBBauuyywq06q732<,,--&=,2,;,,",
"2;--;-&&&;,,<246788q6etyyaSSCCSSSSBSSSftywwwq066322<<;;&==,32;33",
"22&&-;;;2qytyy6uwyuppaadplSSSSSSSSSSSSBpapaaddpapiituuq21,,,<23<",
",;;;&--;,,22,,,--;<,<22,,pHHHHHHGHHHHHS,--,,,,,4422,<42<<1<>-;;;",
"<;;;;-&-,,,42,,,<2222,,,,fKKKKKKKKKKKKH;&--,,,,4<<,,,24<,<>--;-,",
"2;;;;-&;--,,222,222<,,,,,zKKKKKKKKKKKKK&&----,22,,,2,,<<;;;---;-",
"<;----;,,--,,,222,,,,--,;cHKHHHHKKHHKKH$&-,----,,,24<,,---;,,--&",
",,,-;,,,,,,,,,,2,2,,,,,,4pfhllzlzllhhhl2,&-,-&--,,2<,:;;-&&-,--$",
"GGGGGGSGGGGGGGGGGGGGGGSGGGGGGGGGGGGGGGGGGGGGGGGGGGGGGGGGGGGGGGSG",
"GGGGGGGGGGGGGGGGGGGGGGGGGGGGGGGGGGGGGGGGGGGGGGGGGGGGGGGGGGGGGGGG",
"GGGGGGGGGGGGGGGGGGGGGGGGGGGGGGGGGGGGGGGGGGGGGGGHGGGGGGGGGGGGGGGG",
"GGGGGGGGGGGGGGGGGGGGGGGGGGGGGGGGGGGGGGGGGGGGGGGSGGGGGGGGGGGGGGGG",
"%%$%&--,---&----,--&&$$$%$&-&%%-,&%%%%&&&--;;;,,;--;,---,--%;-&%",
"#$&&-----&&-&&&--,---%%$%%&-,,-,-%#$&&%%---,,,,,---;----,--,;-#$",
"$&%&&&---&-&-&---,,,-&&%#$$&-,,&&&$$$%@$&-;,<23<,,----,,,-&--#$%",
"%@#&$&,-&&,,---,,,----&$#&$#$&&%#$%&&$$&---,,,2442,,,,-&&&*##&&$",
"$&##$@*,,&&,,-&-,--&-,-&&$#%--&##&&-;&&,,;,,,424,2<,,,,&&&&*##&&",
"#$%&&&*-,,22,,-,,,,---,--&&$$$&&%,,--&,;,<222,,,,;-&-,-,,--,-&&;",
"@%$&--;,,,,42<,;,,&:::,,&,,&%$%&&-,-,,,2224222,,,,-&&-&;,,---&;,",
"&&&--,,,,,2222<2<,:---,--,--&&&&,-,2<<,,2<242,,---;-&&,,---&&---",
"---;,,,222444222<,,---&-,&%&--,-,,,<<4,,,,222;;&-&-;---,-&&%%*&-",
"-;,--;,2222222<,,-,,---&-$$%%&&;-,,,,24,<<<,;;--;---,,-&**%$$$-,",
"&-;;--,22,,<42,,&&-&-,---&-%$$&&&,,-&-,44<,;&-,;-&-,,&&&$#$---,,",
"&&&-&&;,,4,,22<,,&&,,,--,&&&$#$&,,&&-,,,24<,,;,,,--&&&&$#$--,,,&",
"-&&&;;;--,,2,,;--,,-&-,,-###%&&&&,,,,&,,,,<42;---;-&##&&$##$-&-;",
"&&&,;;--;,;,,;-&&--,&$%-&&$%&&%&&&-,;,-&-,,,,,--&&-&%#$&&$##$&;,"
};
