/* XPM */
static char *result[] = {
/* columns rows colors chars-per-pixel */
"64 64 116 2 ",
"   c #010101",
".  c #0B0B0A",
"X  c #131313",
"o  c #181817",
"O  c #1D1D1D",
"+  c #201F1F",
"@  c #20201F",
"#  c #232323",
"$  c #2D2C2B",
"%  c #31302F",
"&  c #343433",
"*  c #3E3D3B",
"=  c #41403E",
"-  c #434240",
";  c #4C4C4A",
":  c #514F4E",
">  c #50514E",
",  c #535351",
"<  c #5A5B59",
"1  c #686964",
"2  c #6D6D6B",
"3  c #71716F",
"4  c #757674",
"5  c #777875",
"6  c #7B7A76",
"7  c #7E7D7A",
"8  c #807E7C",
"9  c #82827E",
"0  c #787E81",
"q  c #888582",
"w  c #878883",
"e  c #8A8985",
"r  c #818689",
"t  c #858A8D",
"y  c #8E8C8A",
"u  c #928F8C",
"i  c #8F908C",
"p  c #93928E",
"a  c #8A8E92",
"s  c #8D9194",
"d  c #8F9398",
"f  c #959592",
"g  c #999692",
"h  c #979893",
"j  c #9B9A96",
"k  c #93969A",
"l  c #969A9C",
"z  c #9C9D9A",
"x  c #A09D97",
"c  c #A19E9A",
"v  c #9FA09C",
"b  c #A4A29D",
"n  c #979CA0",
"m  c #9C9EA2",
"M  c #A09FA4",
"N  c #9DA1A4",
"B  c #9FA3A8",
"V  c #A5A5A3",
"C  c #A9A6A1",
"Z  c #A7A8A3",
"A  c #ACAAA5",
"S  c #A5A6AA",
"D  c #A8A6AC",
"F  c #A6AAAC",
"G  c #ACACAC",
"H  c #B0ACA3",
"J  c #B1AEA9",
"K  c #AEB0AC",
"L  c #B4B2AD",
"P  c #B9B5AB",
"I  c #BDB9AF",
"U  c #A7ACB0",
"Y  c #ACADB1",
"T  c #B0AFB4",
"R  c #AEB1B4",
"E  c #B3B4B4",
"W  c #B9B6B2",
"Q  c #B6B8B4",
"!  c #BCBAB5",
"~  c #B4B5B9",
"^  c #B8B7BC",
"/  c #B6B9BC",
"(  c #BBBCBC",
")  c #C2BEB5",
"_  c #C1BEB9",
"`  c #BFC0BC",
"'  c #C4C0B7",
"]  c #C4C2BC",
"[  c #C9C5BD",
"{  c #CCC8BF",
"}  c #BDBDC2",
"|  c #C0BFC4",
" . c #BEC1C3",
".. c #C2C2C4",
"X. c #CAC6C1",
"o. c #C7C8C3",
"O. c #CDCAC4",
"+. c #C5C4C9",
"@. c #C8C7CC",
"#. c #C6C9CC",
"$. c #CACACB",
"%. c #D1CDC5",
"&. c #D2CEC9",
"*. c #CFD0CB",
"=. c #D4D0C7",
"-. c #D5D2CB",
";. c #D9D5CD",
":. c #DCD8CF",
">. c #D4D4D1",
",. c #DAD6D1",
"<. c #DEDAD3",
"1. c #E1DDD5",
"2. c #E3DED9",
"3. c #E4E0D7",
"4. c #E5E1DB",
"5. c #EAE6E1",
/* pixels */
"t t s t d n n B N B F U U U N U R F R R U R R R / R ~ / R / F / } }  .} R  .} }  .} } }  .} }  . . . . .} }  .#.@.} }  .#.#. . .",
"t a d a d k N B N B U U U B N R R ~ R U U R R R R R R / ~ ~ U /  .R } / /  .R  .} ~ } }  .}  . . . . . .} } #.| | U } } }  .} } ",
"0 r t r a d l l d d N N N l n n k k Y U U R / R R R R R ~ ~ ~ R U U U R R R R R ~ ~ U Y  .} } } } } } } } } | | #.} U } U U  .} ",
"t s s k z N S S F B F R ~ ~ R R G F ~ Q ~ ~ / ~  ./ ~ } / / } ^ } / /  . .}  . . . .R U  .} }  . . .} R } #.| #.| #.} #.#.#.#.#.",
"d k n N V V G G E G ~ Q Q Q ( ( / ( Q ( E Q ( ( / / ( ( ( } } } } } } } } } } } } } } U }  .} }  .} }  . . .#.|  .#.#. .#.#.#.#.",
"k l m V V S K K E L E ! ! / ( ( ! ` ( ( ~ ( ` ` ` ` ( ` ( } } ( } } } } } }  .}  .~ } R U  . .} } #. . . . .#.#.#. .} } } }  .} ",
"i s y h l j z b v b Z K L K A L K L Q A Q ' ! ` ` R R ( ( ( ( ( R } } } R } } } ~ ~ }  .~ ~ / } } }  .}  .}  . .#.} } U } } } } ",
"l z f l G A A G K L ! ! ` Q W ` ! ` ` ( ] ] ( ] ` ` ( ( ( ( ( ] } } } } } } } } ~ ~  .}  .} } } } }  .} }  .} } } } #. . .} U } ",
"V V v V L P Q ! ! ] ] o.O.[ [ O.O.&.O.$.O.O.X.] ` ] ` ] ..( ( } } (  .R ~ | | +.^ ^ | } +.} T +.} } } } #.#.#.} } } #.#.#.} }  .",
"V Z b V L Q ] [ ' O.O.=.;.O.[ ,.-.-.-.O.&.-.&.O.o.o.o.o.X...! W } } ` ~ } } | | } / @.+. .} Y +.} } } U } } } } } } #. .#.} } #.",
"y h j A W ` ] [ [ { { O.;.=.=.=.-.=.=.O.{ &.=.$.*.o.] ! ! ( ~ E W G ~ ( ^ } ^ ~ / Y N R / R R ^ } } } } } B } } } U } R } } } } ",
"V L P ! ' ] O.%.=.-.=.-.:.<.<.<.:.:.:.1.:.:.,.,.-.-.O.o.o.] o. .( ( ( ` ! ^ ^ ^ } } S U  . .+.} } } } } } } } #.} } }  .}  .} } ",
"! _ ] X.O.%.=.-.;.:.:.:.3.3.3.4.4.2.1.3.2.2.2.<.,.,.,.-.&.$.O.o.( X.o.`  .( ( ..| +.T T @.| +.+.} #.} #. . .#.} #.#.#.#. .#.#.#.",
"] X.O.O.=.=.=.;.:.3.:.3.3.3.3.4.4.4.4.4.2.<.2.<.<.<.,.>.-.&.*.O.o.o.#.o.+.O.X...+.+.^ ^ +.+.| +.#.} } }  .} } #.} #.}  .#. .#.#.",
"H I ) ' ' [ { =.=.=.=.-.:.3.1.3.1.3.-.-.<.<.<.<.<.<.<.,.O.O.O.' ! ` L L ~ G V ~ E E ~ ^ ^ ~ ~ / } } } } } U U } } U } } U } } } ",
") ) ) ! [ =.=.=.=.=.;.;.;.;.3.<.1.2.-.>.<.<.<.<.<.<.,.,.>.O.-.$.o.o.` ( ] ( / ( ( } | | } ^ } } } } } } } } } } } }  . . .} } } ",
"X.%.%.O.;.;.;.:.:.:.1.1.:.:.1.1.1.1.1.1.1.2.1.<.<.<.<.<.,.,.,.-.*.=.O.o.o.o.o.+. .X.X...+.} | | } #.} }  . .#.} } #.}  . .#.| #.",
"X.O.&.%.%.;.;.;.;.:.1.1.1.1.:.1.1.1.1.1.1.1.1.<.<.<.<.<.,.>.-.-.-.=.$.o.o.o.o.+.( ......+.} | @.} } } }  .} #.#.} | } } #.} | @.",
"' { { ) { %.{ %.=.;.=.;.;.:.:.;.1.1.:.1.<.<.:.;.:.;.1.<.<.,.,.,.-.$.O.=.*.$.O.O.( ......} ^ E T U } } } } U } } } } } } } } } } ",
") ' ' %.{ { %.=.:.) %.=.=.:.:.:.:.:.:.:.;.;.=.=.-.,.X._ } ( _ E O.=.o.W E K L K A G A T G G Y / } } } } } } } } } } } } } } } } ",
"O.O.%.%.%.=.;.;.:.%.;.:.1.:.1.:.2.<.2.<.;.<.<.<.4.g . . . .   ; $.,.G . . . . X < X . . . . # ..} } #.#.} } #.|  .#. .} } | @.} ",
"X.O.%.%.%.=.=.;.;.:.;.;.:.:.:.:.;.<.:.<.<.<.;.5.f           = $.-.,.A         w b           O } #.} } } } n | } #.#. .} } #.#.} ",
"[ [ [ [ { { { { =.=.=.;.:.:.;.;.;.;.;.:.;.;.4.u       .   = O.&.O.,.A .     8 <.h           O E }  .} } D n } } } } } } } } } } ",
") ) ) ) [ ' ) [ ) %.=.;.=.;.;.=.;.;.=.;.&.2.q .         - X.] X.] O.b     8 $.O.f           O E } } } } } } } } B } } } } } } } ",
"X.X.%.' O.%.%.&.&.=.,.;.;.=.:.;.;.2.:.,.2.g       .   * &.>.&.-.&.;.C   7 ,.X.-.j           O ..#.} } } | @.| @.} }  . .#.#.| #.",
"[ X.X.[ O.%.%.%.=.-.-.-.;.;.:.;.=.:.-.2.p           * O.,.&.O.-.&.,.A 7 ,.$.X.>.z           o ..+.+.+.} | @.| #.} } } }  .#.| @.",
"_ [ X.[ %.O.%.%.) { %.=.;.=.=.=.-.=.2.u           * &.-.&.-._ O.&.O.] _ X.X.X.$.;           4 $.X. .+.| | @.| | U } } } } } } } ",
"I ) _ X._ [ _ _ %.) ) | %.| =.%.&.<.q .     .   * O.>.O.] O.X.X.X._ X._ _ X.X.:           4 $...o.+.#.| | | | @.} } U } } } } U ",
") _ X.X.X.X.) O.%.| %.%.=.=.=.%.<.u       .   * %.-.&.&.%.&.&.X.O.O.&.X.X.&.:           4 >.X.....o. ...+.+.| | @.| | | } } } } ",
"_ X._ X.X.X.O.O.%.%.%.=.&.%.=.2.e .         * X.-.$.-.&.&.&.&.! X.&.X.$.&.:           5 *.] +.......o.X.| #.#.| | | | | } } @.| ",
"_ _ X.[ X.X.X.O.%.%._ =.%.=.1.q .         - &.,.&.&.,.>.>.-.&.&.&.$.&.&.:           3 -.o. .o...+... ... .} @.| | @.} | } } } } ",
"W W W _ _ _ ) _ ) _ _ %.) | 8 .         % P _ P W L ! W ! L W L _ ) W :           4 ` Q ( ` ....o...o.( #.} } | | | | } } } } } ",
"W _ _ X.[ _ _ _ X.X.X.&.X.[ @           . . . . . . . . . . . . u ) q           % o.o.` ` ` 2 ^ #...X.+.`  .+.^ / | | +.+.+.+.| ",
"! _ _ _ _ X._ X.X.X.O.X.O.X.$                                   y ,.C           $ ` ` [  .; X ` o...o. ... .] / } | } | | +.| +.",
"_ ! _ ] X.X.[ [ X.X.X.X.X.X.$                                   y &.g           $ ` ] o.,   @ ` ....o. . .o... .| } | } | +.+.| ",
"J P W W W W W ! W _ _ [ X._ #                                   u | 6 .         $ ( ] >     @ ( o.( X...o...o. .| | } | | | | | ",
"J W J ! _ _ _ ) _ _ _ ) ] _ * O @ + + @ + + + + O O .           y &.p           $ ` ;       O ( +.( ( o.....+. .| | | | | | | | ",
"_ W W _ _ _ _ _ ] ] _ X.X.] ( W ! ! W ! ( ) ! ! W W $           y -.b . . . .   & ,   . . . # ( ...... .] ..o...| +.| | | | | | ",
") W _ _ _ _ ) ! _ _ ] _ X.X.X.X.X.O.O.X.X.X.X.X.O.] %           y &.( Z Z Z b V Z h V V V V Z ..] ..] ]  ... .` +.| | | | | | +.",
"J L E P W W W ! ! _ _ ] _ _ X._ ] ] ] ] ] ] ] ] ] ] %           u X.` ] X.] ` ` ] ` ` ] } ..( E ( .. ...( ` ` ..| | | | | | | | ",
"c C C J J P J W ! ! ! W W P ! W ! _ _ ! _ X._ ] _ ] %           q X.W J Q Q ` H K Q Q ` ^ ~ L V ~ ..` .. . . .` | } | } ^ | } ^ ",
"J W J P W _ _ _ _ ! ! _ _ ) _ _ ] [ ] X.] _ _ _ X.X.%           y X.( X.[ ] ` ` ` ` ` ` ..X.....] ( o. . . .` ( | | | } | ^ | | ",
"J J P W J J J W W W _ _ _ ) _ _ _ W ) ] _ ] ] _ _ _ - X O O O o p o.( ( ` ` ` ` ` ` ` ` ( ( ( .. .( ` ` ` ` `  .( } | } } } | | ",
"C c C E L W C J W J W _ ! ( ) _ _ ! _ _ ) _ _ _ C _ W W W W W W ! ( ! L ` ` ` ` ` ` Q ` ( ( ] ( ] (  . .`  .` ( ( } } } ^ T } | ",
"c c x b C c c c g g x J J L J H W W _ ! W A A C C W _ ) ! W ! P L K L L L Q P Q I ` R K K ^ ( ( / ^ ~ ` `  .v s | | | | | } T T ",
"L J L L J W W W C W P J W W W W ! W L W _ _ _ W _ W W W ! _ _ ` ( ` ` ` ` ` ` Q Q Q ( ` ( ( ( ( ( W ~ ( / ~ / Q ^ | } | | | | | ",
"H J J J J L P J P W W _ W ! ! _ ) _ _ P ! W _ ! _ _ W _ _ ! Q ` ' ! ` ! ` ` I Q ` ` ( ( ( ]  .` ( ` ( ` ( ` } _ | ^ ^ | | | | | ",
"H J J J C C J J b W W W W W W W ! _ _ W W W ! _ W _ _ ) ( W ! ` ` ` ` ` ` Q ` ` ! ! ` ( ( ( ( ( ( } ( ] ..( ^ ^ | | } | | | ^ } ",
"C C A c c g x c c c L J P W L L J A W ) W ) ) ) _ ) J ) K K Q ! Q Q R Q Q L Q L E W / ( ~ ( ! ~ ( ( ~ ! ~ ( ( / ( / } } } | } ^ ",
"g g C J H J J L P J L H J J W ) ) P M J L W T ) T T ) T ! ` Q ! Q I Q P Q Q L Q Q ! ~ ( ( ( ( ( ( ( _ ( / ( ( ( ^ / } ^ ^ ^ ^ ^ ",
"c c b C H J C H L T P T L J W ) W W M H H L L ) ) T L ) ! ! L Q ` I Q ` ` Q ! ! ! Q ^ ( ( ( ( ! ( ( ( ( ` ` ( ^ } } } } ^ ^ } } ",
"c c C A A J c M H H J J J L W W W W ) L J A L L ) ) T J Q Q Q Q Q R I ` ` Q Q ( ( ( ! ( _ ( ( / Q ( ( / / ^ } } } ^ } } ^ ^ } } ",
"c x c C C C A H c C J H J J J J J J ) J ! W L P J T L J J D K L K K K K K K L K E ~ ! Q ( ( Q Q ( ( R ` ` / } } ^ ^ ^ | | ^ } } ",
"x g c C C H H A C C J M c A C J J L L L P W ! Q J ) W L W W L W Q P L ` L K Q / W R E ( Q / / ( Q ( Q ` / ~ ^ ^ ^ ^ ^ ^ ^ ^ ^ ^ ",
"c c c C c c C C H H J J M H J J J A L J E W P Q ) J J ) W ! C K K Q L ` L K K ~ W E ~ W R K Q ` ~ K R R R ~ / / ^ ^ ^ ^ ^ ^ ^ ^ ",
"x x b b H C A c M J H C J J H C A C A J J J K K D J J D T E A L K K H K E W K L ~ L ~ ~ ` R Q R ~ Q Q R / ~ R / ^ ^ ^ } ^ ^ } ^ ",
"p j x j x b b b c H J A A C c c H H v b H A K H K K L v i K L K K K K L K K K R ~ G E ~ K G K R K E ~ E T T T T T ^ ^ ^ T ^ ^ T ",
"w g p g p b b i c H A C A g c C x v v b v Z K Z Z v H p 9 K L E K Z K K H K Q K G Z V v S G K K K R Q ^ ^ ^ T T T T Y Y T T T ^ ",
"9 h v g p b b b c C c x M c C c v j Z v v A A b A K L R K K Z A K Z ` P L K K K ~ Q Q K ~ Q ~ Q ~ R ~ E W T ^ E Y D ^ T T ^ ^ ^ ",
"9 5 b g g b v b c M x c c M H c v x h h h v Z A K Z A b b K L K Z i K K E E G R K E R U K R ~ R R R T T T M T T ^ ^ ^ T T ^ T Y ",
"6 5 h e 7 i v h h j e f b b g g v v j v v v Z Z Z K K v A Z G G V z V V Z V V F K K ~ K F K R R E E G F M M T Y T T T T T T T T ",
"p 9 e 1 ; 1 i v p w i h c C z j v v Z Z Z Z Z Z b Z H Z v h 3 f y k V h N V G F F K K F N v E F S S D S M Y ^ T T T Y T T T T ^ ",
"p p i h v h i w 9 i p h f p g b j v v Z Z v Z A A Z A Z A A 4 V G G J Y Y K G T R K Z Z F v V S D D Y M M T Y T T T T T T T Y Y ",
"i i h h p i h h 9 f v j h b j z j v Z 9 i Z v Z Z Z Z Z A V r A V A G G G G S A F K R R R R G E W Y Y D k S D D D T T T T T D D "
};
