/* XPM */
static char *result[] = {
/* columns rows colors chars-per-pixel */
"64 64 16 1 ",
"  c #C5C5C5",
". c #ABACAB",
"X c gray56",
"o c #747474",
"O c #686868",
"+ c #3F3E42",
"@ c #494848",
"# c gray31",
"$ c #595858",
"% c #72796E",
"& c #676161",
"* c #888788",
"= c #111111",
"- c gray61",
"; c gray71",
": c gray50",
/* pixels */
"   .....XXX...XoOOOOooooooOOooOOOOOOooooOOOOOOOO   .....XXX...Xo",
"  ..........XXoOoooooooooooooooooooooooooooooooo  ..........XXoO",
" .++++++++++++oO++++++++++++++++++++++++++++++++ .++++++++++++oO",
" .+++@@@++@@@@oO+@@@@##@#@@@##@@@###@@@@@@@@@@@@ .+++@@@++@@@@oO",
"..+@++@@@@@@@@OO+@@##@@@@@@#@@+@###@@@@@@@@@#@@@..+@++@@@@@@@@OO",
"..++@@@@@@@@@@oO+@@@##@@@@@@++@@@#@@@#@@@@@#$###..++@@@@@@@@@@oO",
"..+@@@@@##@@@#oO+@#####@@+@+++++@@@##@@#@##$$$#@..+@@@@@##@@@#oO",
"..+@@@@@@##@#@oO+####@@@++++@@+@@@@@##@@##$$##@@..+@@@@@@##@#@oO",
"X.+##@@@@@@##@oO+@##@@@++@@@#@@@#@#$$$###@@#@@##X.+##@@@@@@##@oO",
"X.+@##@@@@##@#oO+@@@##@@@+@###@###$$$###@@@@@##@X.+@##@@@@##@#oO",
"XX+@@@######@@o%+@@@@@@@@##@@##$$$##@##@#####@@@XX+@@@######@@o%",
"XX+@@@@@###@@@O%+@@@@+@@@@###$$#$####@@@@#####@@XX+@@@@@###@@@O%",
"Xo+@@@##@@####O%+@@@@++@@@@@##@@++@#@@####@@###@Xo+@@@##@@####O%",
"Xo+@@@@##@@@##%o+@@+++@++@@##@@++@@@@@@#@@@##@@@Xo+@@@@##@@@##%o",
"oXooo%%%%%%%%%%o+@+++@@@@@@@@#@@@+++@+@++@@@@#@@oXooo%%%%%%%%%%o",
"oo%%%%%%%%%%%ooo+@@@++@@#@@@@@@@+++@+@@@++@@@@@@oo%%%%%%%%%%%ooo",
"Oo+++++++++++++++@@@@##$$#@@#@##@@@+++++@@@@@@@@@+++++++++++++oO",
"Oo+@@@@@@@@@#@##@@@###$$###@@####@@@++##@@@+@++@@@@@@@@@@@@@@@oO",
"Oo+@@@@@@###@@@@##$$##@#$$$###@@@#@#$$#$#@+++@@@@@@#@@@##@@@@@oO",
"Oo+@@@@##@#@@@#@@$#$#@#$$$&&$##@@@@@#$$#@@@+++@@@##@@@##@#@#@@oO",
"Oo+@@+@@##@###@@+@@##$$$&&$$&$$$##@@@@###@+@@@@##$###$$####@@@oO",
"Oo+@+++@@@@+#@++@#@@##$&$&&$$$$#$###@##@@@@@@##@##$$##$$##@@#@oO",
"oo++++@@@@+@++@++@##@@@###$$##@@###@@@@#@@####$$$$$&&$$$$$##@@oO",
"oo+@@++@@#@++@@#@@@##@@@####$##@@@##@@@@@@@@###$$$&&$$$####@@#oO",
"Oo+@@@@@@@##***************************ooooooooooooo###@#@###@oo",
"Oo+@@#@@@##$**************************************oo$###@@@###oo",
"oo+@#@@##$$&**                    .   .  .........oO#@+++##@@@oo",
"oo+###@@##$$**    ................................oO++@+##@@@@oo",
"oo+#@@##$$&&**  ..................................Oo+@+@+@##@@oo",
"oo+@@@#$$&$$** ...%%%%..%%%%..%%%%..%%%%..%%%%....Oo@@##@@@##@oo",
"oo+@##@##$$$** ...====..====..====..====..====...-OO@#@##@@@@@oO",
"oo+##@+@$#$#o*....====..====..====..====..====...-OO@@+@@+@@@@oO",
"Oo+@@#@++@##o*-...====..====..====..====..====..-.OO@++++++@@@oo",
"Oo+@@@@@++@@**-...====..====..====..====..====..-.OO@@++@@++@@oo",
"Oo+@@@+++++@o*-...====..====..====..====..====..--OO@++@@+@@@@oO",
"Oo+@@@@++@@@o*-...====..====..====..====..====..--OO+@@@@@@@@@oO",
"X-;;;;;;;;;;oo--..====..====--====..====..====..--OO;;;;;;;;;;-X",
"OX--------*****o..====..====--====..====..====..--$O----------XO",
"Oo----XX-X****oo..====..====--====..====..====.---$OXXX--XX-XXoO",
"Oo--XXXX--**--oO-.====..====--====..====..====.---O$-X--XX--X*o$",
"OoX-XX*XX-*o-XoO-.====--====--====..====..====----O$X*-X-X-XX*O$",
"OO-X-X*XX-*oXXOo.-====--====--====..====..====----O$X*X*--XX*XOO",
"$OXX-XX*-XooX*OO.-====--====--====--====..====----$$XX**X-*X**oO",
"OOXXXXX*-XoOOOO$--====--====--====--====..====----$$XX*XXX****o$",
"OOXXX*X*X-OOO$$O--====--====--====--====--====----$$X**XXX**X*o$",
"$OX*X***XXX*$$*---====--====--====--====--====----$$**X*XX**XXO$",
"$OX**X**X*XX$$%---====--====--====--====--====----O$**X**X**XXOO",
"$o***X**X**X$$%---====--====--====--====--====----O$**XX**X*X*OO",
"Oo*X**X***:X@$%*--====--====--====--====--====----O@X*XX**XX**o$",
"Oo*X**XX**:*@$%%--====--====--====--====--====---*O@X*X*:X*X**o$",
"$OXX*XX**:**@$%%*-    --    --    --    --    -***O@XX*X::X:*:O$",
"$OX**X**::**@$O%%**-----------------------------**$@*X**:*X:::O$",
"$o:**:X*:**:@$OO%%*******************************%$@***:*XX*::O$",
"$O*:*:**X*X:@$OOOO%OO%%%%%%%%%%%%%%%%%%%%%%%%%%%%%$@**::*X**:oO$",
"$o::**:*XX**@$$$$$$$OOOOO$$$OOOOOOO$$OOOOO$$$$$$$$$@*::::**:ooO$",
"$o:o:*::*X:*@@@@@@@$$$@@@@@@$$$$$$$$$$$$$@@@@$$$$$$$:*::::*:o:O$",
"$o:oo::**:*::oo:*:**o:o:*:**:o:o*::o**:*::**oo:**:oo:*o:*::o:oO$",
"$o*:o::*:o*:o:oo::*:o:::::*:oo::*:oo:*::*:*:o:::*:oo::o:**oo:oo$",
"$O*:*o:::oo:o::o:*o:oo:::*::oo:*::o:::::**:o::*::::o:o:::*:o::o$",
"$O**:o:o::o:oo::**:oo::o:*::o:**:o::o::o:*:o::**::o::o::*::oo:O$",
"$O:*:ooo:::ooo::*::oo:oo:::o::*::o:oo::o::oo:::*::oo:o::*:::ooO$",
"$O::::ooo:ooo::*::oo::o:::oo::*:oo:o:o::o:ooo:*::oooo:::::::o:O$",
"$OOOOoooOOOoooOOOooOOooOOoooo:oooOOOOOOOooooOOOOooOOOOooooOOOOO$",
"$$$$$$$$$$$$$$$$$$$$$$$$$$$$$$$$$$$$$$$$$$$$$$$$$$$$$$$$$$$$$$$$"
};
