/* XPM */
static char *Ym9va3NoZWxm[] = {
/* columns rows colors chars-per-pixel */
"64 64 169 2 ",
"   c #0E0B07",
".  c #0F0C08",
"X  c #130B06",
"o  c #1A0C07",
"O  c #130F09",
"+  c #1C0E0A",
"@  c #15110B",
"#  c #1B140E",
"$  c #1D180F",
"%  c #1D1610",
"&  c #1E1911",
"*  c #23150C",
"=  c #2A150E",
"-  c #23190E",
";  c #2D1B0C",
":  c #311F0D",
">  c #3A1E0D",
",  c #231712",
"<  c #2D1511",
"1  c #241A12",
"2  c #2A1C13",
"3  c #311713",
"4  c #341B14",
"5  c #3A1D16",
"6  c #301E18",
"7  c #3C1E19",
"8  c #35210E",
"9  c #3B230F",
"0  c #3F280F",
"q  c #2E2113",
"w  c #322112",
"e  c #3D2413",
"r  c #3F2810",
"t  c #36231D",
"y  c #3D231A",
"u  c #42290F",
"i  c #422511",
"p  c #492710",
"a  c #442A11",
"s  c #492D13",
"d  c #43221A",
"f  c #4C251D",
"g  c #462A1C",
"h  c #4A2A1D",
"j  c #522F13",
"k  c #51271E",
"l  c #51281F",
"z  c #4A3014",
"x  c #543215",
"c  c #5B3416",
"v  c #5B3917",
"b  c #55341A",
"n  c #5A361A",
"m  c #5C3B1A",
"M  c #6B3917",
"N  c #613718",
"B  c #633B19",
"V  c #6B3D1A",
"C  c #713F1B",
"Z  c #4E2720",
"A  c #442D23",
"S  c #512721",
"D  c #542A21",
"F  c #5A2D23",
"G  c #453027",
"H  c #4B332A",
"J  c #563320",
"K  c #5D3124",
"L  c #5E3C20",
"P  c #51372D",
"I  c #553B31",
"U  c #593F34",
"Y  c #612E26",
"T  c #603226",
"R  c #633A27",
"E  c #683D2B",
"W  c #5F401E",
"Q  c #64411B",
"!  c #6D421D",
"~  c #6E481B",
"^  c #74431D",
"/  c #79471E",
"(  c #7A491E",
")  c #5D4136",
"_  c #664620",
"`  c #6D4521",
"'  c #624A2E",
"]  c #724622",
"[  c #744B24",
"{  c #7B4A21",
"}  c #7B4D2A",
"|  c #765327",
" . c #785225",
".. c #7E552A",
"X. c #7F592C",
"o. c #654A30",
"O. c #6E5335",
"+. c #6F5638",
"@. c #74593A",
"#. c #7B5F3E",
"$. c #7D6141",
"%. c #814C21",
"&. c #814F29",
"*. c #81512B",
"=. c #825B2C",
"-. c #8C6230",
";. c #836543",
":. c #866946",
">. c #8A6C47",
",. c #866A48",
"<. c #8C6E4A",
"1. c #916F4B",
"2. c #8D714E",
"3. c #93734D",
"4. c #9A794E",
"5. c #8E7250",
"6. c #907451",
"7. c #977850",
"8. c #9C7C52",
"9. c #977B58",
"0. c #9A7F5A",
"q. c #A07F52",
"w. c #9D825D",
"e. c #A48356",
"r. c #A4855C",
"t. c #A9875B",
"y. c #A6895F",
"u. c #AB8A5D",
"i. c #A38660",
"p. c #A58962",
"a. c #A68A62",
"s. c #A68B63",
"d. c #AA8B60",
"f. c #A98B63",
"g. c #A98C63",
"h. c #AB8D62",
"j. c #AE8D61",
"k. c #AB8E65",
"l. c #AB8D66",
"z. c #AD8E65",
"x. c #AB8E68",
"c. c #AC8F68",
"v. c #AB9067",
"b. c #AD9066",
"n. c #AD9067",
"m. c #AC9068",
"M. c #AE9168",
"N. c #AE9069",
"B. c #AF926B",
"V. c #B29366",
"C. c #B19369",
"Z. c #B39468",
"A. c #B1946B",
"S. c #B1936C",
"D. c #B1956D",
"F. c #B3976D",
"G. c #B5976C",
"H. c #B59968",
"J. c #B5996B",
"K. c #B4996C",
"L. c #B69A6D",
"P. c #B4996F",
"I. c #B79C6D",
"U. c #B79C6F",
"Y. c #B99D6E",
"T. c #B89C6F",
"R. c #BA9E6F",
"E. c #BA9F71",
"W. c #BB9F71",
/* pixels */
"e.u.M.O.7.r.h.d.h.j.V.C.A.F.F.F.T.U.U.K.K.T.E.E.K.E.U.U.E.E.E.E.T.K.W.E.R.T.K.I.K.U.K.K.E.K.K.F.G.V.J.K.K.U.F.F.K.U.B.s.$.x.e.e.",
"e.u.A.O.6.0.w.i.w.r.0.i.r.r.i.r.r.a.a.z.k.j.s.k.k.z.z.z.M.F.C.C.z.M.S.S.C.S.S.S.F.M.M.M.M.M.x.x.h.a.a.i.i.i.i.i.i.i.9.2.+.l.u.e.",
"e.u.n.O.<.9.w.0.0.i.i.i.i.i.r.i.i.a.a.a.a.h.k.h.z.z.k.k.k.k.z.c.z.M.C.M.z.z.c.n.c.c.x.x.z.c.a.x.a.i.y.r.i.i.i.i.i.i.w.2.O.h.e.e.",
"t.e.V.' @.$.:.:.,.,.,.:.,.<.<.<.<.,.>.<.<.3.2.3.3.6.3.3.3.3.3.6.3.3.3.3.3.3.3.3.3.3.6.<.1.<.<.<.>.>.:.;.;.;.;.$.$.$.$.+.' h.t.r.",
"e.u.A.O X @ O O O O O O #   O O O O O . O O O O O %   O O @ O @ O O O O @ @ #   O O @ O @ O @ O @ @ #   O @ @ @ @ @ @ O @ z.e.e.",
"u.u.K.X o * = = = < * + %   @ # # # # # % O % % @ %   @ # % % % % % % % % @ %   @ + % % % # % % # # % O @ @ # % $ $ @ # @ z.t.e.",
"u.u.A.@ X * = * < * , + , + % , , , % , % , , , & , @ , & % , & , & % , & , , # % % , , & , , , & & 1 # & % , , 1 1 - # # M.t.t.",
"t.t.A.# + 4 5 y y 5 4 < 1 k F F F f 1 S F F D f 1 Z F Y F f 2 Z F K F f 2 Z F F F Z 1 Z F K F f 2 Z F Y K Z 2 Z F T D 5 $ M.u.t.",
"u.u.C.# = y d g g y y 6 , d Z S Z d , d Z S f d , d Z Z f f 2 d Z Z Z d 2 d Z Z Z d , d Z Z Z d , d Z S f d , d S S f 4 % M.u.u.",
"u.u.S.+ * 4 y d y 5 4 < , f Z F S f , Z S D S f , Z S F Z f , f S F S f 1 f S F Z f < f S F Z f 2 f S F S f 2 f D F f 5 % M.u.u.",
"t.e.C.# 2 H U U ) I H d , F R E R n , F R E R F 1 F R E T K 2 D R E T F 1 F R E T F , F R E R K 2 F E E R F 2 F E E T d # C.h.u.",
"e.t.z.O + = : > 4 : = * , S D F S k , f D F S Z , Z D F k f 2 f S K S Z 2 Z D F S Z , Z D F k f 2 f D F D k 2 f D K Z 7 % M.u.t.",
"e.e.k.# * 4 5 y y 5 4 ; , k F F F f 2 k F F F f , f F F F f 2 f F F F f 2 f F F F f , l F F F f 2 f F F F f 2 l F F l 5 # C.d.e.",
"e.8.a.# * 5 d d i y 5 4 1 k F K D l 2 f F F D k 2 k F F l l 2 k F K D S 2 k F K S l 2 f F K l l 2 Z F K D k < f F T k 7 * c.t.e.",
"e.8.y.# = y h h h h d 5 1 k F F F f 2 k F K F f 2 k F F F f 2 k F K F Z 2 k F Y F f 2 k F K F k 2 l F F F f 2 k F Y l 7 # M.u.t.",
"8.4.r.# * 5 g d g d 5 4 1 S K T F S 2 S F K F S 2 S K T F S 2 k F K F D 2 Z F F F l 2 k F K F S 2 S F T F l 2 k K T S 7 - h.u.e.",
"4.w.y.# q H U ) ) I P A , l F T F l 2 l F T K l 2 l F T K l 2 l F T F l 2 l F T F k 2 k F T F l 6 S F T F l 2 l F Y l 7 - d.e.e.",
"e.4.y.# # ; 4 5 e 3 < = , l K K F l 2 k Y F F k 2 l K F F k 2 k F K F l 2 k Y F F k 2 k Y T F l 2 f T F F l 2 k Y F k 7 - d.e.e.",
"4.e.r.# * 4 y d y y 5 < , l F K F k 2 l F T D l < S F K D l 2 k F T D l 2 S D T D l 2 k F K F l 2 S F K F k 2 k F T k 7 $ a.8.7.",
"4.w.k.@ * 4 y i i d 4 3 2 f D F l k 2 f F F l f , f F F F f 2 f F F F f 2 f F F l f 2 k l F l f 2 f F F l f 2 f F F k 5 $ t.w.4.",
"7.w.s.# = 7 h h g g e 4 , f D K k f 2 f l F h k 2 f D F k f 2 f D F l f 2 f S F l k < d D F S f 2 f D K l f 2 f l Y f 5 # u.w.4.",
"4.w.s.# * 4 e d y e 4 : < h l D l d 2 f l F l d , f k D k h , f k D l d 2 f S D l h 2 f D D l d 1 f S D l d 2 k l l f 4 # u.4.4.",
"w.4.a.# w G H I I P A y , d S l k f , d k l k f 2 d S k f d 2 d S l k d 2 d S l f f , d k S f d 2 d S S k f 2 d l F d 5 $ u.e.q.",
"w.4.i.@ + = < 4 4 < = * , d f S d d , f f S d d , d f k k d , d f k k d 2 d f k d d 2 d f k f d 2 d Z S f d , d k S h 4 # u.e.e.",
"4.4.u.@ * < y 4 e 4 ; = , d f h f d , 7 Z h f d , 7 f h f y , d h f f d , d f f f y , d h f f d 1 y f h Z d , d k k d 4 # z.e.e.",
"e.4.r.# # < 4 y y 4 3 = , 7 d f d d 2 7 d Z d y , d d f d d , d d f d y 1 d d f d d , d d f d 7 1 d d f d d 1 d f k y 3 % z.e.q.",
"e.4.w.# * 4 y y y y 4 2 , h J J D d 2 h J J D f , h J J D h 1 f J J J f 1 d J J D g , f J J J h 2 f J F D h , Z J J D y % C.e.q.",
"4.4.w.# + = 4 4 3 2 < = , 7 d d d 5 , 5 d d y 7 , 7 d d 7 7 , 7 d d y 7 1 y d d 7 7 , 7 d d y 7 , 7 d d y 7 , 7 d f y < % F.q.q.",
"3.3.w.# # q t t t t 2 2 , 5 7 y y 4 1 4 7 7 7 3 , 4 5 7 7 4 1 4 7 d 7 3 1 4 7 7 5 4 , 4 7 7 7 3 1 4 7 7 7 4 , 7 7 d 7 < # x.7.8.",
"4.e.r.# X + * # + # + + , < 3 3 3 = , < 3 3 3 < , < 3 3 3 < , < < 3 3 < 1 < 3 3 3 < 1 < 3 3 3 = 1 < 3 3 3 3 , < 3 3 < * % d.q.4.",
"4.4.w.O.4.e.h.h.u.V.V.C.M.A.G.K.G.U.T.K.E.F.E.E.E.E.T.T.E.E.E.E.U.T.E.K.E.E.E.E.E.F.T.J.K.K.K.F.G.C.G.G.F.P.U.S.K.F.S.a.#.c.4.4.",
"4.4.r.+.3.w.w.i.r.w.w.r.r.i.r.i.r.i.d.d.k.x.a.d.v.x.z.x.c.S.C.M.z.C.S.S.B.B.S.M.F.M.C.M.c.M.x.x.d.x.a.a.i.s.i.a.i.0.9.5.O.a.q.4.",
"7.8.i.O.5.w.w.w.w.i.w.i.i.a.i.i.a.a.a.a.d.d.v.v.g.n.g.h.v.v.v.v.M.z.C.c.z.k.M.M.v.k.k.v.k.x.a.k.a.a.a.y.r.w.w.r.i.w.w.2.O.w.w.4.",
"7.3.y.' @.$.$.,.;.,.,.,.,.>.>.>.<.>.<.>.<.3.3.2.3.2.7.3.3.3.3.6.3.3.3.6.3.3.3.3.3.3.3.2.<.2.3.>.>.,.:.:.;.;.;.;.:.$.#.+.' y.w.4.",
"7.7.y.  . @ @ @ @ @ @ O @ . . @ @ @ @ . @ O @ . @ @ . . @ @ @ @ @ @ @ @ @ @ @   . @ @ @ @ @ O O O O O   O O @ O @ @ O O O a.e.4.",
"w.7.w.# * 8 ; $ @ @ @ @ @ . @ @ @ @ # @ @ @ @ @ @ @ . @ @ @ @ @ # @ @ @ @ @ @   @ @ @ @ @ # @ @ @ @ @   o O @ @ @ @ @ O @ u.e.w.",
"8.7.r.# a n b 1 @ $ $ # & @ % % & & & & & & & $ & & @ & & & & & & & $ & & & & @ % & 2 c M C M c - c V C M c - N C ^ M p # n.e.e.",
"8.7.r.& _ -.X.q & & & & 1 @ & & & & & & & & & & & & @ & 1 & & 1 1 1 & 1 & & 1 @ & & 2 N B B V B = B V B M B = V M V B j # n.r.e.",
"w.7.w.$ b ~ ` q $ , & & & @ & - & 1 1 & 1 $ & $ & q & & 1 1 - $ 1 & 1 % & & & & , & = s j j s s - s z b h s - s x x h > % A.e.e.",
"8.8.y.$ b [ ` - a b x b x s - a b b b b u 2 a b b b z a - a x b m z a 2 a b b b x a q E } *.[ ! 2 ! } *.} V 2 ! *.*.] j , A.r.r.",
"8.w.a.1 b ` ` 2 9 u z u u u - 9 u z u u 0 - 0 u a a a 0 - 0 0 z a a 0 - 9 u u s u 9 ; ! ^ ^ ^ V 2 V ^ / ^ V ; ! ] { C j - F.t.q.",
"e.e.a.# b ! Q - 0 z z z z u - a z z z z 0 - u s z z u u - u z z z r 0 1 u z z z u u ; ^ / ^ ] ^ w ! { ^ ^ C w C / / V c - C.a.q.",
"e.i.M.- b [ [ q a m Q m B u - u v W v v 0 q u v m v v a q a v W v W 0 q u W W v m u q B ^ / V V q V ^ / ^ V 2 V / / V j , S.t.e.",
"e.r.x., b [ [ 1 a a z z s a - a z z u z 0 - 0 z z a u 0 - r z a z r r - u z u z s a - x x v c j 2 j c v c s 2 j c n x 9 - z.t.t.",
"e.e.k.- s [ ! q a m ~ Q v a - a Q ~ Q b a & a Q ~ Q v a 2 a m ~ Q v r q r W ~ Q v u q { } *.&.{ q ] *.*.*.{ w { &.*.{ c , C.t.r.",
"e.y.M.- m  ._ q a a z z a a , a a z z a r q a a z z a a 1 0 s z z z 9 q 0 z a z a a 2 ^ { { ^ ^ w ^ ( %.^ ^ 6 ^ { { V c - C.h.u.",
"e.p.M.$ b [ Q q a a a z a a - a z z z a 0 q a a a z a a - a a s z u u - 0 a z z a a q V ( %./ V 4 C ( %./ V w V ( %.^ j , C.u.u.",
"e.r.v.- b [ ` 2 a a z z a a - a u z z a r 1 a a z z a 0 - 0 a s u z u q 0 a z z z a q ^ / ( ( ^ q ^ / ( / ^ w ^ / %.^ c , M.u.t.",
"i.t.c., v [ Q q 9 r s a a r , r a a z a 9 1 9 a a z a r - r a a a 0 0 - 0 a s a a u 2 ^ / { ^ ^ q ^ ^ ^ ^ C 8 ! / / ! c - M.u.u.",
"t.t.c., b | [ q r r a a r e - e a u a a 9 2 9 a a a r r , 9 a a a a 9 2 0 a a a a 9 2 V ^ / C M q V / / ^ V 2 V / / M j - C.u.t.",
"t.t.c., ~ =.X.1 e a a a a e - 9 u u u u 9 2 9 u u a i 9 , 9 r u a 0 e 1 e e u u e 0 2 V V / ^ B q M ^ / ^ B q M ^ ( M s , z.u.t.",
"i.t.c.1 Q =.X.1 8 r a r 9 9 # > 9 u u 9 8 - 8 u r 9 9 9 - 9 r a e 9 9 - 8 9 0 0 0 9 ; B V V M B ; M V Q V B q M Q ! M j - V.t.e.",
"t.t.M., W ....1 8 9 0 9 9 8 * 8 9 9 0 9 8 - 8 9 9 9 9 9 - 8 9 0 0 9 > - 8 8 9 9 > > - s j x s s 2 u x x s p 2 s x x p > # z.e.e.",
"t.a.M.- W =.| - 8 9 0 9 9 8 $ 8 9 0 0 8 8 * 8 9 9 0 8 8 # : 9 9 0 8 8 # 8 9 0 9 8 8 - B ] [ ` N q B ] [ ` B 2 B ] [ V h - h.t.t.",
"t.d.C.# W ..| - 8 9 9 9 8 8 * 8 8 8 8 8 8 $ 8 8 9 9 8 ; - : 9 8 e 8 : - 8 8 8 e 8 : = n N V B v 2 N N V B N < N B Q B s - k.e.e.",
"e.k.S.< W | [ $ : 8 9 8 8 ; # : 8 8 8 8 : * ; 8 e 8 8 8 # 8 8 9 8 8 : - 8 8 9 8 8 : = N B B N c - v B B B v ; n V B n p - a.e.t.",
"u.j.F.# z Q m , ; 8 8 8 : ; $ ; 8 8 8 : : & ; 8 8 8 : : $ ; 8 8 8 8 : * : 8 8 8 : : - s v N c x , j n N c x 2 x B B j i 1 d.e.e.",
"t.u.S.# z m b - ; 8 8 8 : : $ ; 8 8 8 8 ; $ ; 8 : 8 : ; # ; ; 8 8 8 : $ ; : 8 : : ; - 9 i a i > - 9 i a i > - 9 i s e : # d.t.e.",
"u.h.F.# r W b & ; : : : : ; @ ; : 8 8 ; ; $ ; ; 8 : : ; # ; 8 : ; 8 ; $ ; : : : : ; 1 j n J m b ; b n L m b 2 b m m n i - d.e.t.",
"h.t.M.# w g s % * ; * ; * * @ * * * * * * # * * - - * * # * * ; - * + $ # - - - * * - i p p i i - i p s i i 2 i s h i > # a.e.e.",
"u.t.x.O.8.r.h.h.u.n.k.z.V.V.J.U.F.K.K.U.U.K.K.E.T.T.Y.I.E.T.E.T.E.K.T.E.J.I.U.I.K.U.K.E.K.U.A.K.G.F.H.H.G.P.P.P.K.K.C.i.#.u.e.t.",
"t.t.x.@.5.0.w.w.w.w.i.y.e.y.w.y.y.p.z.s.k.k.h.k.h.n.n.n.M.F.M.M.z.M.A.A.V.H.A.M.F.M.c.C.C.M.k.k.h.a.a.i.i.i.i.i.i.w.0.2.O.d.e.e.",
"e.e.d.+.<.0.0.w.w.w.i.i.r.a.y.y.i.u.a.d.y.k.v.k.n.n.n.u.z.h.z.z.z.z.k.v.v.u.v.v.z.c.k.x.z.x.k.k.a.a.i.i.r.i.w.w.w.w.0.<.O.h.e.e.",
"e.t.c.' @.$.:.,.:.:.:.:.>.>.<.2.>.>.<.<.<.3.3.3.3.3.3.3.6.3.3.3.3.3.3.3.3.3.3.3.3.6.3.1.<.<.2.<.<.>.;.:.,.;.;.;.$.;.#.+.' h.t.e."
};
