/* XPM */
static char *d2luZG93[] = {
/* columns rows colors chars-per-pixel */
"64 64 124 2 ",
"   c #321E08",
".  c #5B3704",
"X  c #613718",
"o  c #643B1C",
"O  c #683E1E",
"+  c #673F20",
"@  c #683F20",
"#  c #6A401F",
"$  c #5C4D39",
"%  c #674020",
"&  c #6C4323",
"*  c #6F4827",
"=  c #6F4728",
"-  c #6F4828",
";  c #714726",
":  c #724827",
">  c #714728",
",  c #744B2A",
"<  c #794F2D",
"1  c #76512D",
"2  c #7A502E",
"3  c #614F3B",
"4  c #774F30",
"5  c #794F30",
"6  c #65533D",
"7  c #69563F",
"8  c #775130",
"9  c #7B5231",
"0  c #675640",
"q  c #6A5741",
"w  c #675841",
"e  c #6B5943",
"r  c #6C5841",
"t  c #725E45",
"y  c #746147",
"u  c #796348",
"i  c #7F664A",
"p  c #805634",
"a  c #81674A",
"s  c #81674B",
"d  c #826A4B",
"f  c #83694C",
"g  c #826A4E",
"h  c #836B4E",
"j  c #866B4D",
"k  c #866B4F",
"l  c #846C4F",
"z  c #866C4F",
"x  c #8A6D4E",
"c  c #8C6F4F",
"v  c #876D50",
"b  c #866D51",
"n  c #896E51",
"m  c #877052",
"M  c #8B7153",
"N  c #8E7353",
"B  c #907455",
"V  c #C7A57C",
"C  c #C9A57C",
"Z  c #CAA57C",
"A  c #CAA77D",
"S  c #CDA77F",
"D  c #CAA87D",
"F  c #C8A87E",
"G  c #CBA87E",
"H  c #CDA87D",
"J  c #CDA87F",
"K  c #CCA97F",
"L  c #D1AA7D",
"P  c #D0AB7F",
"I  c #CDAB81",
"U  c #D2AD83",
"Y  c #D2AE83",
"T  c #D5AF82",
"R  c #D4B186",
"E  c #D9B287",
"W  c #D9B486",
"Q  c #D6B489",
"!  c #D9B58A",
"~  c #D7B88A",
"^  c #DAB98D",
"/  c #DDBE90",
"(  c #E0B787",
")  c #E3BD8E",
"_  c #E4BE91",
"`  c #E4C095",
"'  c #E6C294",
"]  c #E7C395",
"[  c #EAC495",
"{  c #ECC897",
"}  c #E7C39A",
"|  c #E6C59B",
" . c #E9C598",
".. c #EAC698",
"X. c #EAC69A",
"o. c #E6C89D",
"O. c #ECCA9A",
"+. c #F0CC9B",
"@. c #F0D09D",
"#. c #E8C6A1",
"$. c #E7CAA4",
"%. c #EBCBA2",
"&. c #EBCDA7",
"*. c #E6CDA9",
"=. c #E9CDAB",
"-. c #EDCFA9",
";. c #EECFA9",
":. c #EECFAD",
">. c #EFD1A6",
",. c #EDD0AD",
"<. c #EED0AD",
"1. c #EDD1AE",
"2. c #EDD0AF",
"3. c #EED0AF",
"4. c #EED3AF",
"5. c #F2D2A7",
"6. c #F1D2AB",
"7. c #EFD1B1",
"8. c #EED2B0",
"9. c #EED2B1",
"0. c #EFD3B1",
"q. c #EFD4B1",
"w. c #F1D6B2",
"e. c #F2D8B5",
/* pixels */
"                                                                                                                                ",
"  . . . . . . . . . . . . . . . . . . . . . . . . . . . . . . . . . . . . . . . . . . . . . . . . . . . . . . . . . . . . . .   ",
"  . X X X o o # # % # % % % % % % % % # % % % % & % % % % % % % % % % & % & % % % & O & # % % + @ & % @ O O O O O O O X X X .   ",
"  . X o X # # # % % % & & & & & & & & & & & & & & & & % & & & & & & & & & & & & & & & & & & & & & & & & O ; ; O @ O O o o X .   ",
"  . o # # & & & : : : : - * * : * & * * * * * & * & & & * & & : , & * : > ; , ; , ; : : : , : , , , , , : , : : ; ; & # O O .   ",
"  . # % # & ; , , , , , 1 1 1 , < 2 1 , , 1 1 1 1 < < < 1 2 , 1 1 1 1 2 < < < < < < < , , 1 , , , , , , , , , , : ; ; # O O .   ",
"  . # # & & * : , , < < < 1 , 1 2 1 1 2 2 2 2 2 2 2 2 < 2 2 2 2 1 1 2 p 2 2 2 2 < 2 2 2 2 2 < 2 2 2 2 < < < < , , : ; ; # O .   ",
"  . # & * , 1 1 1 2 2 2 2 9 9 9 9 9 9 9 9 2 2 9 9 9 2 9 9 9 9 8 2 2 9 9 9 9 2 2 9 9 9 < 9 9 8 9 2 2 2 9 < < < < < , ; * & O .   ",
"  . % & : , , 2 < 2 9 9 9 5 9 9 2 9 2 2 2 9 1 2 9 8 8 8 1 1 1 1 2 1 1 < 2 1 1 < < < < < < < < 4 4 4 4 < 4 < < < , , : & & & .   ",
"  . % & & * , , < E G A A S S I H H I G H I G G A A A A A G G G G G V V V G V V H V V V A G G A A A A A V V I , , , * & # % .   ",
"  . % % & * : , , W 6 6 7 q 6 q 7 7 7 7 7 7 e e 0 0 e 0 0 e w w e e 7 e 7 e e 7 0 e 7 7 7 0 e w 0 7 q 7 6 $ A < < : * & & % .   ",
"  . & & - , < < 2 ` s s s s s s h h i i g d g h k g g g d b m i g x j j z z z z z z z v v d k d d k g d u 6 U 9 < < , : * % .   ",
"  . % ; ; , , < 9 | x z ` &.<.<.1.1.1.1.<.<.q.4.N v X.&.4.4.4.4.<.<.4.q.q.q.N m X.;.<.q.<.4.q.<.:.:.:.7.s q U 5 2 , > ; & % .   ",
"  . & & , , < 2 9 O.z y ^ { { { { X.{ { O.] { 5.n y ~ { ` ] ' ' ] ` ' / ' *.h y ! ) ) _ ) ) ) ) _ ) ) $.s q I 5 2 , , * & O .   ",
"  . & : , , 2 9 9 %.M e ~ { O.O.O.@.O.O.O.O.O.<.m e ^ O.O.O.O.O.O.O.O.{ { >.m e ! { { { { O.' { ] { [ O.v 0 Q 9 9 < , , ; & .   ",
"  . & * , 1 2 9 9 %.z e ! { { { [ | X.{ o.[ ] $.v 0 Q { [ ' ' ` ` ' | ' ' %.i e R ' ` ' ] ' ' | X.[ | %.n e Y 9 9 < < > ; ; .   ",
"  . & & , , 2 9 9 O.v q Q _ _ [ _ | _ X._ ] ] %.k q Q X._ X.` [ ' ' { ] { %.d e ~ [ [ [ [ [ [ [ ] ] ] %.d 0 U 9 9 < , > & & .   ",
"  . & : : , < 9 9 #.v 0 Q _ [ [ X._ X._ _ ` ` #.k q U _ _ _ _ ' ' ' _ ' ' #.v e R [ [ [ ' [ [ ' { ] [ %.v e Q 9 5 8 , , > & .   ",
"  . & & > , < 2 9 X.d 0 U _ _ _ _ _ X.[ _ ] ] %.v e ! [ ` [ [ [ ] { { { { %.v e ~ [ { { { [ [ [ [ [ ' O.v w U 9 5 < > > : & .   ",
"  . & & & , < < 8 X.d 0 Q _ [ _ [ X.` [ { [ { %.v e ! [ [ { +.{ ] { { | { &.v e ~ [ [ [ { [ [ [ [ [ ` O.i 7 I 9 < < > * & % .   ",
"  . % & ; , , 8 9 | s 7 R ) ` _ ) ' ' ' _ [ [ %.k 0 Q ` [ ' { { { ] { ] [ @.h e Q ' [ ' ' [ [ [ ` ' _ X.d 7 U 9 5 , > ; % O .   ",
"  . & = > , < 5 9 | d 7 R ' ` _ ' ' ) ` _ _ _ #.d 7 U _ ) ) ) ) ) ) ) ) ' | i w R ' ' ' ' ' ) ' ' ) _ O.v 0 U 9 < , , : : & .   ",
"  . % & - , < < 9 | d 7 T ) _ _ ) ' _ ` ] ` _ X.k 7 U ' _ [ _ ` ' ' [ [ [ { m e W [ ' ' ' ' ` [ [ ' _ ] i q U 9 < < : : ; & .   ",
"  . & = - , , 8 2 o.d 7 R R Q Q R R R R R U E ! x 7 R R R E R R R R R Q R ^ h 7 R W W P Q R R R R R R ! d e U 9 2 < , ; ; & .   ",
"  . & , , , 2 2 9 o.M y e r t e e e e e e r t N n t t e e e e e 7 e e e y m M u 0 e e e e e e e e e y z m 7 R 9 9 < , , & & .   ",
"  . & & : < 2 2 p @.N M c c v v v z m m z x n B B n v v b v v k m m h h z N M v v v v b g b h g h z m N m 7 R 9 9 < < , & & .   ",
"  . & & : , < < 9 O.N m +.5.w.6.w.6.w.w.w.7.w.w.B n X.:.<.<.<.<.<.<.<.1.7.7.m z _ *.=.=.*.*.=.=.=.=.<.<.i 7 H 2 < , , & & & .   ",
"  . & - , < 2 p p %.M u _ +.+.+.+.+.+.O.+.+.+.6.M t ) [ [ { { [ ' ' ' ' ` *.v t ~ _ _ _ _ ` _ ` ' ` ` %.d 7 R 9 9 < , - & & .   ",
"  . & : , , < 2 p O.k e E [ { { { { { { { +.+.5.v e ~ O.X.O.+.[ O.+.O.+.O.>.v e ~ O.O.O.+.X.[ O.O.O.{ %.z 7 Q 9 9 2 , : > & .   ",
"  . & ; ; , < 2 9 X.k q E [ { +.{ +.{ +.{ +.+.5.M e ' +.+.+.+.+.+.+.+.O.O.5.M e ( +.O.[ X.[ O.O.{ { { o.m e R 9 9 2 , , ; & .   ",
"  . % & : , , < 5 X.s q E [ [ _ [ [ [ [ [ [ [ +.n e ! X.{ { { { { [ { [ { %.v e ! { [ { [ [ _ [ _ ] ' O.h 7 R 9 2 < , > & & .   ",
"  . & ; ; , < < 9 X.k q E _ _ +.[ [ [ [ [ [ [ +.v e Q ` { ] [ [ [ [ [ ] _ $.b e E _ [ _ [ _ [ _ [ ] _ O.g 7 U 9 9 < < > ; & .   ",
"  . & & > , < < < #.d 7 W ` [ [ _ ] ] ' ] ] ] $.k r ! { ] X.{ _ [ [ [ [ [ %.x q Q ' [ { ' ] { ' ' ' ' O.d e R 9 2 < , : ; ; .   ",
"  . & ; , , < 9 p O.k 7 E [ ) ` ] ' [ ' ] _ ] O.s r ! _ _ _ _ _ ' _ [ _ _ O.v q R ' ' ' ] ` ' ' [ [ [ %.k e U 9 2 2 , , ; @ .   ",
"  . & & > , < 1 9 X.s 7 U ) ] ] ] ] ] ] ] ] ` %.b q ( _ [ [ +.[ { { [ { { %.i e ~ [ [ [ { [ ' ' { ] ] %.g 7 R 9 2 < , ; ; & .   ",
"  . & & , , < 9 9 X.k e ! [ { { { [ { ] ] { { $.b q ( [ [ [ ) { _ ` ' ' _ #.v q R ' ' ' ' _ ' ` _ _ _ X.k 7 U 2 2 < , , ; @ .   ",
"  . & ; , , < 5 9 O.v 0 R ' ' ` _ _ { ` } _ } o.b q Q } _ [ X.{ [ [ ] ] ] X.z q R X.| ' ] | [ ' ` ] _ ] b q U 2 p < , : ; ; .   ",
"  . & ; ; , < 5 9 #.g e R ~ ~ ! ! ^ ^ ~ ^ ^ / _ b t / ! _ ~ W ^ ^ ^ ^ ^ ^ _ M e ^ ~ ~ ~ ~ Q Q ~ Q Q R ! k 7 U 9 < , , ; & @ .   ",
"  . # & , , , < 9 X.v t e e e 7 e r e e e r u n n t q q e e e e t e e e u M n u e e e w 7 7 7 7 7 0 t z s 7 U 9 , , , ; & # .   ",
"  . # & & , < 2 9 | v v i i m h k j j n b v n B N n v v v z x x b v v v v N M v h h m m i m h d z z z N g 7 L 2 < < , ; & O .   ",
"  . & & , , , 2 9 | c h ' =.<.<.7.:.<.<.6.w.q.7.M v O.<.<.4.w.w.q.w.w.e.e.e.N N o.6.e.e.w.w.w.6.w.w.7.w.g e R 9 < < , : ; @ .   ",
"  . # & ; : , < 2 | d y Q ) / ' _ _ _ _ _ _ ' #.z t Q ` ) ' _ _ ` _ ' _ ' =.v t ! _ _ _ ' ' ' ' ' _ _ %.d q H 2 < , : ; @ @ .   ",
"  . & & , , < 2 9 o.h w Q [ | [ [ ` X.' [ ] [ %.v e Q ` ] _ [ _ ' ' ' ` | o.v e U ' ` ` ' ' ' ' ' ' ` O.z 7 R 9 < < , : ; ; .   ",
"  . ; ; : 1 2 2 9 o.m e Q [ { { { { O.{ [ O.[ %.v e ~ { { { [ { { { { { X.&.v e ~ { { { { { { O.{ { { %.z e ~ 9 p < , , ; ; .   ",
"  . & ; : , 2 2 9 o.m 7 R ' ' [ ' ' ] ] O.] { #.b w Q | ] { { { { { O.{ [ 6.z e ^ O.O.X.+.+.O.+.{ O.O.>.m e ~ 2 2 < , , ; ; .   ",
"  . ; ; , , 2 9 9 o.z e Q { O.{ { { { O.[ O.O.>.m t ^ #.+.+.O.O.+.+.+.+.+.5.m t / +.@.@.@.+.@.@.@.@.@.5.m e ~ p p p < , ; # .   ",
"  . ; ; , , 2 9 9 >.m w ~ { { { { { { { [ O.O.=.v e ! [ O.[ O.{ { [ O.X.{ 5.z e ^ { O.[ O.O.O.O.O.{ { >.M e R p 2 2 < , ; # .   ",
"  . & : , 1 9 9 9 %.m e ~ O.| O.[ { | | { ' { %.v e Q X.{ ] ' ` ' ' { [ X.%.v e Q X.X.X.[ X.X.X.| { { >.k e W p p 2 , , : ; .   ",
"  . # ; , , < 8 9 O.d 0 Q ] ] ] ` ` | | ' | ' %.z e Q { { ] ` { ' { { { { =.v e Q { ' { { O.{ X.{ { ' %.k 0 R 9 9 < , , * & .   ",
"  . & & - < < 9 9 $.v 0 ! ` ] ] | _ ' | ' ' ` o.h e Q ` ` ` ` ` ` ` ` [ ] #.v r Q [ ' X.` ' ' [ ' ' ' %.v r Q 9 9 < , , ; & .   ",
"  . & * = , < 5 9 #.i 0 U ` ' ' _ _ _ _ / ] ] ` g 7 R ` ] ] ` ` ` ' ` ` ' [ d 7 R ` ` ] { ' _ ` ' ' ` | s 7 U < < , , > ; % .   ",
"  . # & = - , , 4 / i 0 S I H H I V I I H G F R i 7 H G G G G I G G A I H R d 7 I I I H I H I I I I I R s 6 U < < > > > & O .   ",
"  . O % & , , , 2 | d 7 6 6 6 6 w 0 6 7 6 6 e i i 7 7 3 6 $ 3 3 6 6 $ 6 7 s i 7 7 6 6 6 6 6 6 6 6 6 7 d d 6 L < , , ; ; & @ .   ",
"  . # & & , , < < X.x z s d d d i i i i i s k n x s i i i i i i u i u i g z d d u i i i i s s g i d j c s 6 ( < < , , ; & + .   ",
"  . % & ; , , < 4 o.5.1.<.<.<.=.q.<.=.7.&.*.7.*.=.,.=.<.*.7.*.<.<.*.*.=.1.=.=.=.=.=.*.=.;.*.;.;.<.;.=.<.%.[ ) < < , : : ; & .   ",
"  . % ; ; , , < 5 5 9 2 2 p 9 9 9 9 9 9 9 2 9 9 9 9 9 9 9 9 9 9 9 9 2 2 9 9 9 9 9 9 9 9 9 9 2 9 2 9 2 2 p < < < < , , : @ @ .   ",
"  . @ @ ; ; , , < < < 1 1 8 8 8 8 9 8 9 8 8 8 8 9 8 9 9 9 2 2 2 9 9 9 9 9 9 9 9 2 9 p 2 p 2 2 9 9 2 9 9 2 < 2 < , , : ; @ ; .   ",
"  . O @ @ ; , , > < , 2 , 8 8 , < < < < < < , 2 , < < , < < 2 1 1 2 2 1 < < < < < < < < < < < , 2 < < < < < < , , , ; ; @ O .   ",
"  . O O @ ; > > - > , , , , , - , , , , > , , - , - : , , , : , , : , : , : , , , - - , , : : , , : , , , , > > ; : ; @ O o .   ",
"  . X O O @ @ @ * & - - - - - - ; , > , , > : , , , , , : : , , : , : , : , , & , - , - , : : , , : & , = & & ; @ @ O O O o .   ",
"  . o o o + @ + + + & & * & + & & & & & & & & & & * & & & ; & & ; & & ; & & ; & * & * & & - & & & & & & & & & & O O O o o X .   ",
"  . X X X + o + + + + + O + % + % % % & % % & & % % % & % & & & & & & & & & & & & & & & & & & & & % & & & & O O O O o o X X .   ",
"  . . . . . . . . . . . . . . . . . . . . . . . . . . . . . . . . . . . . . . . . . . . . . . . . . . . . . . . . . . . . . .   ",
"                                                                                                                                "
};
