/* XPM */
static char *anVuZ2xlX2xvZw__[] = {
/* columns rows colors chars-per-pixel */
"64 64 7 1 ",
"  c #1E5B2D",
". c #634234",
"X c #7E4732",
"o c #A25334",
"O c #BB633E",
"+ c #CA7A48",
"@ c #1BB944",
/* pixels */
"...XXooooooooooooooooooo+oooooooooooooooooooooooooooooooooooXX..",
"...XXooooooooooooooooooo+ooooooooooooooooooooooooOooooooooooXX..",
"...XXooooooooooooooooooo+OoooooooooooooooooooooooOooooooooooXXX.",
"...XXooooooooooooooooooO++ooooooooooooooooooooooo+ooooooooooXXX.",
"..XXooooooooooooooooooo+++ooooooooooooooooooooooo+ooooooooooXXX.",
"..XXooooooooooooooooooo+++Ooooooooooooo@@oooooooo+oooooooooooXX.",
"..XXooooooooooooooooooo++++oo@ooooooooo@@oooooooo+oooooooooooXX.",
"..XoOoooooooooooooooooO++++Oooooooooooooooooooooo+OooooooooooXX.",
"..Xo+oooooo@oooooooooo++++++oooooooooo@oooooOoooO+OooooooooooXX.",
"..X++ooooooooooooooooo++++++Oooooooooooooooo+oooO++oooooooooooX.",
"..X++Ooo@@oooooooooooo+++++++ooooooooooooooO+ooo+++ooooooo@oooX.",
"..o+++oo@@oooooooooooO++++++++Oooooooooo@oo++ooo+++oooooooooooX.",
"..o+++oooooooooo@oooo++++++++++oooooooooooo++Ooo+++OooooooooooX.",
"..o++++ooooooooooooo++++o+++++++oooooooooo++++o+++++ooooooooo+X.",
"..o++++++OOooooooO++++++oo++++++++OoooooO++++++++++++oooooooo+..",
"...+++++++++++++++++++++..+++++++++++++++++++++++++++++OoooO+O..",
"...o+++++++++++++++++++o..o+++++++++++++++++++++++++++++++++o...",
".....o++++++++++++++++o.....o+++++++++++++++++oo......oo++o.....",
".......oo+++.++.++oo...........oo+++++++o.+oo...................",
"................................................................",
"................................................................",
"................................................................",
".............XooX......XXXX.....XXXoooo ooX.....................",
"..........Xooooooo....ooooooo ooooooooooooo.....................",
".......Xoooooooooo...ooooooooooooooo  oooooX....ooX.......XX....",
".....XXooooooooooo...ooooooooooooooo  oooooo...oooooX...XXXXX...",
"....XXoo ooooooooo..Xooooooooooooooooooooooo..Xoo ooooooXXXXX...",
"...XXXoooooooooooo..oooooooooooooooooooooOoo..ooooooooooooXXXX..",
"...XXoooooo oooooo..oooooooooooooooooooooOoo..ooooooooooooXXXX..",
"..XXXooooooooooooo..ooooooooooooooooooooo+oo.Xoooooooo ooooXXX..",
"..XXXooooooooooooo.Xooooooooooooooooooooo+oo.ooooooooooooooXXX..",
"..XXo oooooooooooo.oooooooooooooooooooooo+oo.oooooooooooooooXX..",
"..XXoooooooooooooo.oooooooooooooooooooooO+ooXoooooooooooooooXX..",
".XXXoooooooooooOooXoo ooooooooooooooooooO+ooXoooooooooooooooXX..",
".XXXoooooooooooOoooooooooooooooooooooooo++ooooooooo@ooooooooXX..",
".XXXoooooooooooOoo  oooooooooooooooooooo++OoooooooooooooooooXXX.",
".XXooooooooooooOoo  oooooooooooooooooooO+++oooooooooooooooooXXX.",
".XXXoooooooooooOooooooooooooooooooooooo++++OooooooooooooooooXXX.",
".XXoooooooooooo+ooooooooooooooooooooooO+++++ooooooooooooo@ooXXX.",
".XXoooo@ooooooO+Ooooooooooo@oooooooooo++++++ooooooooooooooooXXX.",
".XXo@@oooooooo+++oooooooooooooooooooo++++++++oooo@oooo@@ooooXXX.",
".Xoo@@oooooooo+++ooooooooooooooooooo++++++++++oooooooo@@ooooXXX.",
".Xo+ooooooooo+++++oooooo@ooo++OoooO++++++++++++oooooooooooooXoX.",
".Xo+OooooooO+++++++OoooooooO+++++++++++++++++++++OoooooooooooX..",
".Xoo++++++++++++++++++OooOo+++++++++++++++++++++++++++OoO+++oX..",
"..oo++++++++++++++++++++++++++++++++++o..o++++++++++++++++++X...",
"...o++++++++o....o++++++++++++++++++o......o+++++++++++++++XX...",
"....o++++o...........oo++++++++oo..............o+++++.++++o.....",
"................................................................",
"................................................................",
"................................................................",
"...................XooooX.......................................",
"................Xooooooooo.......oooX...........XXooX......XX...",
"............Xooooooooooooo......XoooooX...XXoooooooooo....XXX...",
"....XX...XooooooooooooooooX.....ooooooooooooooooooooooX..XXXXX..",
"...XXXXXooooooo ooooooooooo....Xooooooooooooooooo  oooo..XXXXX..",
"..XXXXoooooooooooooooooooooX...oooooooooooooooooo  oooo..XoXXX..",
"..XXXXoooooooooooooooooooooo...oooooooooooooooooooooooo..XoXXX..",
"..XXXoo oooooooooooooooooooo...oo ooooooooooooo ooooooo..XoXXX..",
"..XXXooooooooooooooooooooooo...oooooooooooooooooooooooo..oooXX..",
"..XXX oooooooooooooooooooooo..XooooooooooooooooooooooooX.oooXX..",
"..XX  ooooooooooooooooooooooX.oooooooooooooooooooooooooo.oooXX..",
"..XXooooooooooooooooooooooooo.ooooooooooooooooooooooooooXoooXX..",
"..XXoo ooooooooooooooooooooooXooooooooooooooooooooooooooXoooXX.."
};
