/* XPM */
static char *Y2hpc2VsZWRfc2FuZHN0b25l[] = {
/* columns rows colors chars-per-pixel */
"64 64 6 1 ",
"  c #C27B50",
". c #E5AA7A",
"X c #F0BE83",
"o c #F5E49C",
"O c #FFEEA8",
"+ c #FFF9BD",
/* pixels */
"..OOO+++++O+OOOOOo.X++++++++++++++++++++++++++++++++++++++OOOO..",
".XO++++++++++++++O.X++++++++O++OOOOoooooooOO++++++++++++++++++X.",
".O+++OooooooooOOO+.oOoooooooooooooooooooooooooOOOOOOOOOOOooO++OX",
".O+++oooooooooooooXOooooooooooooooooooooooooooooooooooooooooO++X",
".+++OoooooooooooooooooooooooooooOoooooooooooooooooooooooooooo++X",
".+++Ooooooooooooooooooooooooooooooooooooooooooooooooooooooooo++X",
".+++OoooooooooooooooooooooooooooooooOooooooooXooooooooooooooo++X",
".+++ooooooooooooooooooooooooooooooooooooooooX+ooooooooooooooo++X",
".++Oooooooo  Ooooooo   oo Oooooooooooooo oooXooo          oooO+X",
".++Oooooooo  Oooooo   +Oo  Ooooo  ooooo   oX+ooo   .......ooo++X",
".++oooooooo  +oooo   +Ooo .Ooooo  +ooo     X+ooo .+++OOO..OooO+X",
".++ooXooooo .+ooo  .+Oooo .Ooooo  +ooo  ...Xoooo .+ooooo .OooO+X",
".++ooooooo  .+oo ..+ooooo .+oooo .+oo   +...+ooo .+o  oo .+ooO+X",
".++oooooooo .+o ..ooooooo .+oooo .+oo  +oo..+ooo .Oo  +o .+ooO+X",
".++oooooooo .+oo...oooooo .+oooo .+o  +Oooo..+oo .ooo++o .+ooO+X",
".+Ooooooooo .+oo+...ooooo .+oooo .Oo  Ooooo..+oo..oooooo .+ooo+X",
".+Oooo      .+ooo+...oooo . .   ..Oo       ..+oo..       .OoooOX",
".+Ooo........+oooo+...OOo.........oo.........ooo..........OoooOX",
".+oooOO++++++OoooooO++ooooooX+++OooooOOO+++OoooooOO++++++OOooooX",
".OoooooooooooooooooooooooooooOoooooooooooooooooooooooooooooooooX",
".OoooooooooooooXoooooooooooooooooooooooooooooooooooooooooooooooX",
".oooooooooooooooooooooooooooooooX+oooooooooooooooooooooooooooooX",
".Xooooooooooooooooooooooooooooo.X+ooXo+oooooooooooooooooooooooX.",
"..XXXXXXXXXXXXXXXXXXXXXXXXXXXX..XXXXXXXXXXXXXXXXXXXXXXXXXXXXXX..",
"................................................................",
"..XooXXXOOO+++++++++++++++++++++++++++++++++OO..XOOoo.XoooooooX.",
".XO+++++++++++O+++++++++++++++++++++O++++OOOooo.XO+oOOOO++++++XX",
".O+++++++OOooooooooooOO++++++OOOooooooooooooooo.X+oO++++Oooo++OX",
".O+++++ooooooooooooooooooooooooooooooooooooooooXO+oooooooooo++OX",
".O+++OoooooooooooooooooooooooooooooooooooooooooX+oooooooooooo+OX",
".O+++ooooooooooooooooooooooooooooooooooooooooooXooooooooooooo+OX",
".O+++oooooooooooooooooooooooooooooooooooooooooooooooooooooooo+OX",
".O++OooooooooOooooooooooooooooooooooooooooooooooooooooooooooo+OX",
".O++Ooooooooooooooooooooooooooooooooooooooooooooooooooooooooo+OX",
".O++oooooo+oooooooooooooooooooooooooooooooooooooooooooooooooo+OX",
".O++oooooooooooooooooooooooooooooooooooooooooooooooOooooooooo+OX",
".O++ooooooooooooooooooooooooooooooooooooooooooooooooooooooooo+OX",
".O++ooooooooooooooooooooooooooooooooooooooooooooooooooooooooo+OX",
".O++ooooooooooooooooooooooooooooooooooooooooooooooooooooooooo+OX",
".O++ooooooooooooooooooooooooooooooooooooooooooooooooooooOooooOOX",
".O++ooooooooooooooooooooooooooooooooooooooooooooooooooooooooo+OX",
".O++oooooooooooooooooooooooooooooooooooooooooooooooooooooooooOOX",
".O++oooooooooooooooooooooooooooooooooooooooooooooooooooooooooOOX",
".O++oooooooooooooooooooooooooooooooooooooooooooooooooooooooooOOX",
".O++OooooooooooooooooooooooooooooooooooooooooooooooooooooooooOOX",
".O++OooooooooooooooooooooooooooooooooooooooooooooooooooooooooOOX",
".O++OoooooooooooooooooooooooooooooooooooooooooooooooooooooooooOX",
".O++OoooooooooooooooooooooooooooooooooooooooooooooooooooooooooOX",
".O++ooooooooXoooooooooooooooooooooooooooooooooooooooooooooooooOX",
".O+oooooooooooooooooooooooooooooooooooooooooooooooooooooooooooOX",
".O+ooooooooooooooooooooooooooooooooooOooooooooooooooooooooooooOX",
".O+oooooooooooooooooooooooooooooooooooooooooooooooooooooooooooOX",
".O+ooooXooooooooooooooooooooooooooooooo++oooooooooooooooooooooOX",
".O+oooooooooooooooooooooooooooooooooooo++oooooooooooooooooooooOX",
".O+oooooooooooooooooooooooooooooooooooooooooooooooooooooooooooOX",
".OOooooooooooooooooooooooooooooooooooooooooooooooooooooooooooooX",
".OOoooooooooooooooooooooooooooooooooooooooooooooo+oooooooooooooX",
".OOooooooooooooooooooooooooooooooooooooooooooooooooooooooooooooX",
".Oooooooooo+oooooooooooooooooooooooooooooooooooooooooooooooooooX",
".OooooooooX+ooooooooooooooooooooXooooooooooooooooooooooooooooooX",
".OooooooooXO+ooooooooooooooooooooooooooooooooooooooooooooooooooX",
".XoooooooX.Xo+ooooooooXXXooooooooooooooooooooooooooooooo.XooooX.",
"..XXXXXXX..XXXXXXXXXXXXXXXXXXXXXXXXXXXXXXXXXXXXXXXXXXXXX..XXXX..",
"................................................................"
};
