/* XPM */
static char *anVuZ2xlX3BsYW5rcw__[] = {
/* columns rows colors chars-per-pixel */
"64 64 5 1 ",
"  c #804B34",
". c #A65431",
"X c #B35D38",
"o c #BF633A",
"O c #CE7844",
/* pixels */
"OOoooo....ooooo.......ooo....  OOooX.....ooooo......oooX...ooo  ",
"OOoooo....ooooo.......ooo....  OOooX.....ooooo......oooX...ooo  ",
"OOoooo....ooooX.......ooo....  OOooo.....ooooo......oooo...ooo  ",
"OOoooo....ooooX.......ooo....  OOooo.....ooooo......oooo...ooo  ",
"OOoooo....oooo........ooo....  OOooo.....ooooo......oooo...ooo  ",
"OOoooo....oooo........ooo....  OOooo.....ooooo......oooo...ooo  ",
"OOoooo....oooo........ooX....  OOooo.....ooooo......oooo...ooo  ",
"OOoooo....oooo........oo.....  OOooo.....ooooo......oooo...ooo  ",
"OOoooo....oooo........oo.....  OOooo.....ooooo......oooo...ooo  ",
"OOoooo....oooo........oo.....  OOooo.....ooooo......oooo...ooo  ",
"OOoooo....Xooo........oo.....  OOooo.....ooooo.....Xoooo...ooo  ",
"OOoooo....Xooo........oo.....  OOooo.....ooooo.....Xoooo...ooo  ",
"OOoooo.....ooo........oo.....  OOooo.....ooooo.....ooooo...ooo  ",
"OOoooo.....ooo........oo.....  OOooo.....ooooo.....ooooX...ooo  ",
"OOoooo.....ooo........oo.....  OOooo.....Xoooo.....ooooX...ooo  ",
"OOoooo.....ooo........oo.....  OOooo.....Xoooo.....oooo....ooo  ",
"OOoooo.....ooo.......Xoo.....  OOooo......oooo.....oooo....ooo  ",
"OOoooo.....ooo.......XooX....  OOooo......oooo.....oooo....ooo  ",
"OOoooo.....ooo.......Xooo....  OOooX......oooo.....oooo....ooo  ",
"OOoooo.....ooo.......oooo....  OOooX......Xooo.....oooo....ooo  ",
"OOoooo.....ooo.......oooo....  OOoo...X...Xooo.....oooo....ooo  ",
"OOoooo.....ooo.......oooo....  OOoo...X....ooo.....oooo....ooo  ",
"OOoooo.....ooo.......oooo....  OOoo...o....ooo.....oooo....ooo  ",
"OOoooo.....ooo.......oooo....  OOoo...o....ooo.....oooo....ooo  ",
"OOoooo.....ooo.......oooo....  OOoo...oX...ooo.....oooo....ooo  ",
"OOoooo.....oooX......oooo....  OOoo...oo...ooo.....oooo....ooo  ",
"OOoooo.....oooX......oooo....  OOoo...oo...ooo.....oooo....ooo  ",
"OOoooo.....oooX......oooo....  OOoo...oo...Xoo.....oooo....ooo  ",
"OOoooo.....oooo......oooo....  OOoo...oo....oo.....oooo....ooo  ",
"OOoooo.....oooo.....Xoooo....  OOoo...ooX...oo.....Xooo....ooo  ",
"OOoooo.....oooo.....XooooX...  OOoX...ooo...ooX....Xooo....ooo  ",
"OOoooo.....oooo.....oooooX...  OOoX...ooo...ooo.....ooo....ooo  ",
"OOoooo.....oooo.....oooooo...  OOo....ooo...ooo.....ooo....ooo  ",
"OOoooo.....oooo.....oooooo...  OOo....ooo...ooo.....ooo....ooo  ",
"OOoooo.....oooo.....oooooo...  OOo....oXoX..Xoo.....ooo....ooo  ",
"OOoooX.....oooo.....oooooo...  OOo....oXoo...ooX....ooo....ooo  ",
"OOoooX....Xoooo.....oooooo...  OOo....o.oo...ooX....ooo....ooo  ",
"OOooo.....ooooo.....oooooo...  OOo....o.Xo...ooo....ooo....ooo  ",
"OOooo.....ooooo.....oooooX...  OOo....o..o...ooo....ooo....ooo  ",
"OOooo.....ooooo.....oooooX...  OOo....o..o...ooo....ooo....ooo  ",
"OOooo.....ooooo.....ooooo....  OOo....o..o...ooo....ooo....ooo  ",
"OOooo.....ooooo.....ooooo....  OOo....o..o...ooo....ooo....ooo  ",
"OOooo.....ooooo.....ooooo....  OOo....o.Xo...ooo....ooo....ooo  ",
"OOooo.....ooooo.....ooooo....  OOo....oXoo...ooo....ooo....ooo  ",
"OOooo.....ooooo.....ooooo....  OOo....oooo...ooo....ooo....ooo  ",
"OOooo.....ooooo.....ooooo....  OOo....oooo..Xooo....ooo....ooo  ",
"OOooo.....ooooo.....Xoooo....  OOoX...XooX..oooX....ooo....ooo  ",
"OOooo.....ooooo.....Xoooo....  OOoX...Xoo...ooo.....ooo....ooo  ",
"OOooo.....ooooo......oooo....  OOoX....oo...ooo.....ooo....ooo  ",
"OOooo....Xooooo......oooo....  OOoo....oX...ooo.....ooo....ooo  ",
"OOooo....Xooooo......oooo....  OOoo....o...Xooo.....ooo....ooo  ",
"OOooo....oooooo......oooo....  OOoo....o...oooo.....ooo....ooo  ",
"OOooo....oooooo......oooo....  OOoo....X...oooo.....ooo....ooo  ",
"OOooo....oooooo......oooo....  OOoo........oooo.....ooo....ooo  ",
"OOoooX...oooooo......oooo....  OOoo........oooo.....ooo....ooo  ",
"OOoooX...oooooo......oooo....  OOoo.......Xoooo.....ooo....ooo  ",
"OOoooo...oooooo......Xooo....  OOoo.......ooooo.....ooo....ooo  ",
"OOoooo...Xooooo......Xooo....  OOoo.......ooooo.....ooo....ooo  ",
"OOoooo...Xooooo.......ooo....  OOoo.......ooooX.....ooo....ooo  ",
"OOoooo....ooooo.......ooo....  OOoo......Xoooo......ooo....ooo  ",
"OOoooo....ooooo.......ooo....  OOoo......ooooo......ooo....ooo  ",
"OOoooo....ooooo.......ooo....  OOoo......ooooo......ooo....ooo  ",
"OOoooo....ooooo.......ooo....  OOoo......ooooo......ooo....ooo  ",
"OOoooo....ooooo.......ooo....  OOoo......ooooo......ooo....ooo  "
};
