/* XPM */
static char *Z2xvd3N0b25lX24_[] = {
/* columns rows colors chars-per-pixel */
"64 64 247 2 ",
"   c #2D0EDC",
".  c #0E2DDC",
"X  c #2727EA",
"o  c #3636EB",
"O  c #2B2BF2",
"+  c #2929F3",
"@  c #3329F2",
"#  c #2932F3",
"$  c #3B37F8",
"%  c #373BF8",
"&  c #3939F9",
"*  c #3030E5",
"=  c #1D1DE0",
"-  c #6E31CA",
";  c #4C18F7",
":  c #7F04FF",
">  c #701DEC",
",  c #4422E9",
"<  c #453AF6",
"1  c #5132F0",
"2  c #7F27FF",
"3  c #7F2CFB",
"4  c #7F34FF",
"5  c #793AFC",
"6  c #6635F0",
"7  c #184CF7",
"8  c #2244E9",
"9  c #3A45F6",
"0  c #3955FD",
"q  c #3050EC",
"w  c #047FFF",
"e  c #1D70EC",
"r  c #3977E8",
"t  c #277FFF",
"y  c #2C7FFB",
"u  c #347FFF",
"i  c #3B7AFB",
"p  c #3567F2",
"a  c #4544F2",
"s  c #4B4CFC",
"d  c #4848F5",
"f  c #5648FC",
"g  c #4857FC",
"h  c #5C5CFD",
"j  c #5656F7",
"k  c #5151EB",
"l  c #6747FA",
"z  c #7C49FB",
"x  c #635BFD",
"c  c #665AF9",
"v  c #7955FA",
"b  c #6F57EF",
"n  c #4467FA",
"m  c #5B63FD",
"M  c #5967FA",
"N  c #497BF8",
"B  c #5779F8",
"V  c #4E6EED",
"C  c #6C6CFD",
"Z  c #6262F8",
"A  c #7E62FE",
"S  c #7369FD",
"D  c #7969FE",
"F  c #6972FD",
"G  c #6678FD",
"H  c #7373FD",
"J  c #7B76FE",
"K  c #767BFE",
"L  c #7F7FFF",
"P  c #6A44DF",
"I  c #B319F3",
"U  c #8436FE",
"Y  c #9334F4",
"T  c #B934FA",
"R  c #B030EC",
"E  c #D10EDC",
"W  c #F12DDC",
"Q  c #D71BE7",
"!  c #D423EC",
"~  c #DB23EC",
"^  c #DB2AEC",
"/  c #DA24E5",
"(  c #C335EA",
")  c #C33CEB",
"_  c #CA3BEB",
"`  c #CD25F2",
"'  c #DA29F1",
"]  c #CB34F5",
"[  c #C737F8",
"{  c #D42FEB",
"}  c #E429E6",
"|  c #9948FA",
" . c #8959FA",
".. c #9A57FC",
"X. c #8B54F4",
"o. c #AB47FB",
"O. c #BB4BFC",
"+. c #B446FB",
"@. c #A659FD",
"#. c #A559F6",
"$. c #B858FB",
"%. c #B354EB",
"&. c #8B6AFD",
"*. c #8862FD",
"=. c #946BFD",
"-. c #966AFD",
";. c #8475FE",
":. c #8C73FD",
">. c #837CFE",
",. c #8B7DFE",
"<. c #9C73FD",
"1. c #9775FD",
"2. c #A765FC",
"3. c #BA67FA",
"4. c #A679F9",
"5. c #B372F3",
"6. c #8644DF",
"7. c #DD44E6",
"8. c #C658FC",
"9. c #CD4BF0",
"0. c #E74BF8",
"q. c #C577E8",
"w. c #C869FD",
"e. c #CB7FFF",
"r. c #C67DFC",
"t. c #D77FFF",
"y. c #D57CF5",
"u. c #CC66ED",
"i. c #FA7FFF",
"p. c #3987E8",
"a. c #3B95FD",
"s. c #328FF4",
"d. c #19B3F3",
"f. c #39A6FC",
"g. c #34B9FA",
"h. c #2FB3EA",
"j. c #5A87FA",
"k. c #4699FA",
"l. c #559CFD",
"z. c #5997FC",
"x. c #4E90ED",
"c. c #6A8CFC",
"v. c #6289FD",
"b. c #7584FE",
"n. c #7C83FE",
"m. c #738CFD",
"M. c #7D8CFE",
"N. c #6B94FD",
"B. c #6A95FD",
"V. c #7395FD",
"C. c #739CFD",
"Z. c #7E9CFE",
"A. c #46AAFB",
"S. c #59A6FD",
"D. c #59A5F6",
"F. c #4BBBFC",
"G. c #46B4FB",
"H. c #57B7FB",
"J. c #54B3EB",
"K. c #65A7FB",
"L. c #79A9FB",
"P. c #67B8FA",
"I. c #7FB4FE",
"U. c #6AB4EC",
"Y. c #0ED1DC",
"T. c #2DF1DC",
"R. c #1BD7E7",
"E. c #35C3EA",
"W. c #3CC3EB",
"Q. c #3BCAEB",
"!. c #23D4EC",
"~. c #23DBEC",
"^. c #2ADBEC",
"/. c #24DAE5",
"(. c #25CDF2",
"). c #34CBF5",
"_. c #37C7F8",
"`. c #29DAF1",
"'. c #2FD4EB",
"]. c #29E4E6",
"[. c #44DDE6",
"{. c #4ECDF1",
"}. c #77C5E8",
"|. c #7FCBFF",
" X c #79C7FE",
".X c #7FD7FF",
"XX c #7CD5F5",
"oX c #66CAF3",
"OX c #4BE7F8",
"+X c #7FFAFF",
"@X c #8383FE",
"#X c #8B84FE",
"$X c #8C8CFD",
"%X c #858BFD",
"&X c #958DFD",
"*X c #9C87FB",
"=X c #8C95FD",
"-X c #839DFC",
";X c #8C9AFC",
":X c #9393FD",
">X c #9C9AF9",
",X c #A787F8",
"<X c #A49CFD",
"1X c #A698FB",
"2X c #B999FA",
"3X c #B68FEE",
"4X c #89A9F9",
"5X c #9CA4FC",
"6X c #98A5F9",
"7X c #99B7FA",
"8X c #8FB6EE",
"9X c #A2A2FD",
"0X c #A8A8F9",
"qX c #B6ABFC",
"wX c #ACB6FC",
"eX c #B6B6F6",
"rX c #ADADEB",
"tX c #C587E8",
"yX c #C586FA",
"uX c #CD94F5",
"iX c #DDB9E8",
"pX c #C5A9FD",
"aX c #C4BAF6",
"sX c #CEAEEC",
"dX c #EAB3FF",
"fX c #E18EEC",
"gX c #87C5E8",
"hX c #87C6FB",
"jX c #94CEF3",
"kX c #B9DDE8",
"lX c #BAC4F6",
"zX c #ADCCF0",
"xX c #B3EAFF",
"cX c #8EE1EC",
"vX c #F1D1DC",
"bX c #D1F1DC",
"nX c #C8C8EB",
"mX c #D7D7E9",
"MX c #C5C5F9",
"NX c #C6C6F7",
"BX c #D5CCF2",
"VX c #CCD5F2",
"CX c #D4D4F2",
"ZX c #D5D6F3",
"AX c #D0D0EA",
"SX c #E1E1E0",
"DX c None",
/* pixels */
"[ U U : : : : U : : : : : : : : : ; ; : : : : : : : : : : : : : : : : : : : : : : : : : : I I U : : : : : : : U : : : : : : : & ",
"fX,.;.D L L L n.>.J n.&.v v L L L t u J L L L L L >.L L L L L L L L @X>.L L L L >.n.n.>.L r.t.L J ;. .z D >.n.n.>.J L >.L L G s.",
"i.L J L n.>.>.n.L L >.8.v h M @XL t y L L >.L K >.M.L.U.}.}.}.}.}.gXgXgX8X;X%XL #X@X>.n.>.e.t.@X@X-.@.A 0 J n.L L L L L L n.K w ",
"i.L n.>.L L L L L L 4.4.n.L u @XJ s.i >.L n.C.oXoXU.U.M.L L L o.l n.>.n.%X8X8XjX8X;Xn.m.n.r.t.>.L e.>.L j.B >.L L L L L L L L w ",
"i.>.>.L L L L L L L @XpX%XS.z.L L t y M.U.{.U.A J n.L L L n.,.yXs.K @Xn.>.L L >.v 6XzXrX$XyXyX>.>.1X9X%Xf.b.n.>.n.L >.n.L L L w ",
"i.n.n.L >.n.>.n.>.L n.=XI.L.L n.L s.d.{.m.>.3.v V L L @XL >.@X7XK.L L n.@XL L 3. .n K $XzXiXfX;.L L 4XI.V.@XL L >.L L L L L L w ",
"i.>.L L L n.>.L n.L >.L n.J L V.[.T.D.L n.>.<XhXx.@X%XC.L.4XL.U.8XI.8X4X-XM.L 1XXXl.n.>.>.<XbXkX=XJ n.>.@X>.L L L L L L L L L w ",
"i.L n.>.L L L L >.L L n.>.L H.T.[.N.L >.n.L @XV.U.[.DXDX%.+.j.DXDX,Xf DXDXDXkX8X=Xn.>.n.>.>.=XkXbXwX>.n.n.L n.>.n.>.>.n.L L L w ",
"i.L L n.>.n.L >.L n.L L b.[.].c.C L >.@Xn.K.[.DXDXDXDXDXT z.DXDXDXDX1Xf DXDXDXDXDXkX6Xn.>.>.n.&.&XbXnX%XL L L L L L L L n.L n.w ",
"i.L L n.L L L n.L >.n.m./.'.&X#.p >.L D.].DXDXDXDXDXDXo.l.!.DXDXDXDXDX1Xf DXDXDXDXDXDXAX6X@X>.u.j N.VXAX$XL L L n.>.@Xn.>.L >.w ",
"i.L J *.A L L L L L m./.).m.#XzXF.N.oXK DXDXDXDXDX~ +.l.!.DXDXDXDXDXDXDX1Xs DXDXDXDXDX` *.hX:XwXoXb.$XVXmX$XL L L L >.A A L L w ",
"i.@X$. .l M >.n.L m./.).b.L n.L D.DXDXpX .@ DXDXQ +.l.!.DXDXDXDXDXDXDXDXBX<Xf DXDXDX` *.g.DXDX0XL L n.@XnXSX$XL >.n.2.| v g L w ",
"i.,.3.@XL p n.>.K /.'.n.@XL n.{.DXDXDXDXaXv @ ` +.l.!.DXDXDXDXDXDXDXDXDXDXBX<Xf , !  .g.DXDXDXDXlXn.>.n.@XBXmX@X@X>.w.@XL i K w ",
"i.L pX@Xb.f.L n.h.R.b.n.L n.E.DXDXDXDXDXDXpX .+.l.!.DXDXDXDXDXDXDXDXDXDXDXDXBX1XY *.g.DXDXDXDXDXDXnX@XL L #XmXiX@X>.qX#Xn.f.J w ",
"i.L &XhX Xb.L A.R.H H @Xn.E.DXDXDXDXDXDXDX7.o.z.s.DXDXDXDXDXDXDXDXDXDXDXDXDXDX9.*.k.e DXDXDXDXDXDXDXnX@XL ;.:.vXqXJ #XhX Xc.>.s.",
"i.L n.n.L >.c.Y.V.#.0 @Xg.DXDXDXDXDXDXDX~ +.S.hXv @ DXDXDXDXDXDXDXDXDXDXDXDX! *._.5Xs + DXDXDXDXDXDXDXaX>.w.f -XvX&Xn.L L K K w ",
"i.L M.n.L n.(.h.&XjXA.D.DXDXDXDXDXDXDX~ +.S.!.eXaXS O DXDXDXDXDXDXDXDXDXDX! *._.Q.BX<Xs X DXDXDXDXDXDXDX0XqXoXc.iXiX@Xn.n.M.n.w ",
"dX.X.XhX.XoXY.c.L L V.DXDXDXDXDXDXDX/ O.D.!.DXDXaXaXS + DXDXDXDXDXDXDX#.~ *._.E.DXDXCX9Xs + DXDXDXDXDXDXDX=Xn.n.&XvXjXXXhX.X.Xd.",
"dX|.|.|.hX[.S.n.L L f.DXDXDXDXDXDX~ +.S.^.DXDXDXDXaXaXD + c DXDXDXDX#.! *._.E.DXDXDXDXCX9Xs X DXDXDXDXDXDXuX>.n.n.9XkX|.|. X|.d.",
"i.L L L b.h.L L L l.$X< DXDXDXDX/ O.S.!.DXDXDXDXDXDXaXNXD + c J J #.~ *._.E.DXDXDXDXDXDXBX9Xs X DXDXDXDXR v.1X>.L L sX%Xn.L L w ",
"fX>.n.>.k.m.L L n.!.DX4.< DXDX~ +.S.^.DXDXDXDXDXDXDX;.eXaXS + c #.~ *._.E.J DXDXDXDXDXDXDXCX9Xs X DXDXT j.(.BX,.L L $X3X>.n.>.s.",
"i.n.>.>.h.L L L z.DXDXBX,X< I O.S.^.DXDXDXDXDXDXDX;.;.>.eXNXC @ Q &._.h.J J J DXDXDXDXDXDXDXVX9Xs > T j.(.DXDX1XL @X>.sXn.>.K w ",
"i.;.n.z.x.| j >.d.DXDXDXZX4.+.S.^.DXDXDXDXDXDX,.;.>.;.>.;.eXNXo.&.).W.J L J L J J DXDXDXDXDXDXVX>X| v.(.DXDXDXiXL #.l 1X*XL K w ",
"i.>.%Xp.,X5.y c.DXDXDXDX^ O.B.i 9 DXDXDXDXDX;.;.;.>.>.>.>.#.^ -.G.q Z >.J J K J J K DXDXDXDXDX_ [ j.a.8 DXDXDXDX$Xy.N B sXn.J w ",
"i.n.>.s.@X7XK.x.DXDXDX~ O.S.cX*X< < DXDXDXDX;.>.;.,.>.>.#.~ =.).zXC O c J J L K K J DXDXDXDXT ( j.{.5Xs DXDXDXDX3X6XP.n.sX>.>.s.",
"i.>.K h.L L n.d.DXDX} O.K.^.DXZX&X< < DXDX,.,.>.>.>.>.#.! =.).h.eXMXC + Z L K J K J K DXDX( [ v.~.DXVX5Xg DXDXDXiX@XL >.3X#XH w ",
"i.L j.x.L L n.DXDXDXO.K.^.DXDXDXZX*X$ a ;.>.,.>.>.;.#.! &.).h.J J eXNXC + Z J L L K L J ) [ v.!.DXDXDXVX5Xs DXDXDX,.L n.,X,XL w ",
"i.>.x.L L >.v.DXDXO.K.^.DXDXDXDXDXCX&X< a ,.>.>.>.#.! -.E.{.@XL >.L eXNXC + Z K K K L R ] v.~.DXDXDXDXDXVX6Xg DXDX*XL L @X3XL w ",
"i.L p.n.n.>.x.Y O.K.^.DXDXDXDXDXDXDXCX&X$ a >.>.#.~ =.).W.>.L L L L >.eXNXC + M K L ( ] v.!.D.DXDXDXDXDXDXDX5Xg DX,XL @Xn.tXn.s.",
"i.L p.L >.n.j.8.K.^.DXDXDXDXDXDXDXDX1XCX&X< a #.~ =.).W.L L >.L L L L L eXNXC + Z T ( c.~.D.DXDXDXDXDXDXDXDXDX6Xg 3XL n.L tXH w ",
"i.L p.L J n.G K.DXDXDXDXDXDXDXDXDXDXDX<XCX&X$ ! =.E.E.>.>.L >.L L J L K n.eXNXC 1 ] v.!.D.DXDXDXDXDXDXDXDXDXDXDX6X,XL D K tXL w ",
"i.L r 3.5 j x.DXDXDXDXDXDXDXDXDXDXDXDX,.1XBX$.=.).{.>.@X>.@XL L L L @XK L n.eXpXo.B.~.D.b.DXDXDXDXDXDXDXDXDXDXDXDX3X3.U g tXL w ",
"fXn.r 2X Xk.N DXDXDXDXDXDXDXDXDXDXDXDX#X#.~ 1.F.0 a @X>.>.L @XL L L L L L n.) ( B.k.# M n.DXDXDXDXDXDXDXDXDXDXDXDX5.2X XA.q.n.w ",
"i.n.r L %XL N v DXDXDXDXDXDXDXDXDXDXDX#.~ <.).zX&X$ a @X@X@X>.@Xn.n.L n.K ) ( c.].NXF O M DXDXDXDXDXDXDXDXDXDXDX..*X@XM.>.q.>.w ",
"i.;.r >.n.>.N 0Xc DXDXDXDXDXDXDXDXDX#.} 1._.W.>XmX:X$ a >.n.n.n.L @XL L ) ] N./.D.eXNXF + M DXDXDXDXDXDXDXDX! ..f.,X@XL J q.L w ",
"fX>.r L L L B DXqXc DXDXDXDXDXDXDX#.~ =.).{.,.@X>XCX:X& a @X@Xn.n.n.L ) ] B./.l.b.b.eXNXF + DXDXDXDXDXDXDX! ..f.J.5.@XL @Xq.L w ",
"i.>.V K >.L G DXDXqXc @ DXDXDXDXDX~ <._.Q.#X#X@X@X>XZX:X& a @X@Xn.n.) ] B.~.D.L n.n.n.eXlXF + DXDXDXDXDX! ..G.DXDX<.L L ,.5.J w ",
"i.;.B B L n.K DXDXDXqXx @ DXDXDX^ <.).{.@X@X@X@X@X@X<XZX:X& a n.@X) ] B.~.D.n.b.n.b.b.b.lXlXF # DXDXDX! ..G.DXDXDX>.L L 4.4.>.w ",
"i.n.H r n.>.M.q DXDXDXqXx O DX' <._.Q.DXDX#X#X@X%X@X@X>XZX:X& d ) ] B.~.D.n.n.n.b.n.b.DXDXlXlXF + DX/ ..G.R.DXDXu.,.L L u.,.L w ",
"i.>.@Xq J | c n DXDXDXDXqXx T 1._.Q.DXDXDXDX@X@X@X@X@X@X>XZX:X1 ] B./.D.n.n.n.b.n.b.DXDXDXDXlXNXF 3 ..G.~.DXDXDX3...P H u.L L w ",
"i.>.n.V 1.5.s.F DXDXDXDXiXw.1.{.Q.DXDXDXDXDX%X@X%X@X@X@X@X6XsX8.B.!.D.@Xb.n.n.b.M.b.DXDXDXDXDXeXyX-.G.(.DXDXDXDX<.y.N B u.L L w ",
"i.L @XM V 7XS.L 8 DXDXDX' 1.P.Z @ DXDXDXDXDXDX%X@X@X%X@X@X) [ B.H.& a n.M.@XM.n.b.DXDXDXDXDXDX^ ..G.j.# DXDXDX7.>.6XU.5.-.@XL w ",
"i.n.>.L q n.L L M DXDX' 4.{.cXwXh O DXDXDXDXDXDXDX%X@X@X) [ C.^.VX=X% a n.b.b.DXDXDXDXDXDXDX^ ..G.[.lXB # DXDX5.@XL L u.>.L L w ",
"i.L L L k H L L @X8 ' 4.{.DXDXZXeXh @ DXDXDXDXDXDXDX%X_ ] C.~.D.6XVX=X9 a M.DXDXDXDXDXDXDX! @.G.~.DXDXlXB DX{ >.L L :.%.n.L L w ",
"i.L L L K q @Xn.>.M 1.{.DXDXDXDXZXqXh O DXDXDXDXDXDX_ [ C.~.D.%X%X6XVX=X9 a DXDXDXDXDXDX~ @.F./.DXDXDXDXlXF 2.L >.J 9.;.L L L w ",
"0.4 4 4 5 , k L n.>.p DXDXDXDXDXDXmXwXx O DXDXDXDX9.[ C.~.P.DXDXDXDX6XZX=X% 9 DXDXDXDX/ @.G.~.DXDXDXDXDXDXu.>.L L #.R 3 4 U 4 7 ",
"0.U 2 2 U 6 . F >.@XF DXDXDXDXDXDXDXmXwXh O DXDX_ [ L.~.D.DXDXDXDXDXDXDXZX;X9 9 DXDX^ @.F.~.DXDXDXDXDXDXDX=.>.@X1.W Y 2 2 2 2 7 ",
"i.J L ;.J n.# q 1.Y s j DXDXDXDXDXDXDXZXeXm O _ [ C.~.DXDXDXDXDXDXDXDXDXDXZX;X9 < } @.F./.DXDXDXDXDXDXDX#.+.6 F 7._ L L L L L w ",
"i.L L L L L F . S 0Xf.L 9 DXDXDXDXDXDXDXZXwXZ [ L.~.DXDXDXDXDXDXDXDXDXDXDXDXZX=X5 @.F.~.DXDXDXDXDXDXDX9.>.pXD.*.W :.@X>.L L L w ",
"i.>.=.U 5 H L g . c.m.L L * DXDXDXDXDXDXDXfX$.C.g.DXDXDXDXDXDXDXDXDXDXDXDXDXDXyX-.F.d.DXDXDXDXDXDXDX( J n.$X&XW $.L ,.U 4 F L w ",
"i.>.8.>.K 0 L L o 8 H L >.K o DXDXDXDXDXDX9.V. Xm O DXDXDXDXDXDXDXDXDXDXDXDX^ @.F.L.9 DXDXDXDXDXDX( >.>.@X;.^ 9.L L $.;.J 0 L w ",
"i.,.2XL L a.L >.J X # J @XL L < DXDXDXDX9.L.`.kXwXm # DXDXDXDXDXDXDXDXDXDX^ @.F.].VX-X9 DXDXDXDXT >.>.n.>.{ / ;.L >.uX>.>.a.b.w ",
"i.L qX4XP.z.L n.@XH = O H >.L L j DXDX9.4X`.DXDXDXwXm # DXDXDXDXDXDXDXDX^ 2.F.].DXDXZX4X0 DXDX#.@Xn.>.;.] / :.L L @X2X4XI.A.>.w ",
"i.L @XZ.V.L L L L @XH X o H 1.Y s C 6 -X`.DXDXDXDXDXwXM DXDXDXDXDXDXDX^ 2.F.^.DXDXDXDXDX%XR &.+.6 K ;.( / :.L L L n.n.-XV.n.L w ",
"i.>.L L >.L L >.L L >.H X X :.qXs.n.L c @ DXDXDXDXDXDXwXM DXDXDXDXDX^ 2.F.DXDXDXDXDXDX` ..>.@XuXA.S ! ! :.L L L L L n.>.>.n.L w ",
"i.L L L @XL L n.L L @X>.D o   F N.L L @XJ b , DXDXDXDXDXwXM DXDXDXDX2.{.DXDXDXDXDXR | L L @Xn.$X1.E ( ;.L >.L L L L L L L L L w ",
"i.L n.L >.L >.L L L L >.L L f   , S >.L L L L S k > DXDXDXwXM DXDX2.H.h.DXDXR Y *.n.L L L L &.R E o.>.n.L n.L L L L n.L L L >.w ",
"i.L >.L L L n.n.>.n.L L L L n.C ,   h n.L L @.3 h n.J A b z v z | *.z X. .;.n.2.3 M L L >.#.E ` &.L L >.L >.L L >.L >.L >.n.L w ",
"i.L >.L n.>.L >.L n.>.&.z v >.n.L e 8 1 H L 2XI.k.J L >.>.L >.| j L L L L L >.2XI.k.@X&.R 7.u.>.n.@X .5 S L L L n.n.L n.L L L s.",
"i.n.n.L L L L n.L L >.8.D m M >.L y u H P 1 b C.n.n.L L L L ,.r.i b.L L L L @X@X4X6.R | >.tXt.>.n.2.2.;.0 J L L L >.L >.n.K H w ",
"i.L L L n.L >.>.L n.,X,X>.>.s.;.K t u L L L Z 6 6 6 b ;.K n.L 8XP.,.>.@X;.X.6.R Y =.>.L L e.t.@XL e.>.L j.j.>.L L L n.>.L L L w ",
"i.>.>.n.>.L n.L L >.>.qXL.S.j.L K s.u L L @X@X@XL H b P - - - - - - - - 6.X.;.n.L L L L L e.t.@XL >X0XZ.f.n.L L n.L >.n.L L L w ",
"fXL L L n.L >.L >.n.n.%XI.L.@Xn.m.s.u L L L b.n.n.b.@Xn.L L L L L L L L L L L L L L L n.L e.yX@Xn.b.4XL.V.>.L L >.L n.>.n.M.L w ",
"aX+X+X+X+X+X+X+X+X+X+X+X+X+X+XcXcXOXOX+X+X+X+X+XcX+X+XcX+X+X+X+X+X+X+X+X+X+X+X+X+X+X+X+X+XxXxX+XcX+X+XcX+X+X+X+X+X+X+X+X+X+XcXg."
};
