/* XPM */
static char *Z3Jhbml0ZV9u[] = {
/* columns rows colors chars-per-pixel */
"64 64 232 2 ",
"   c #7738E9",
".  c #6A3AE7",
"X  c #3C5EE6",
"o  c #396AE7",
"O  c #377AE7",
"+  c #5C4BEE",
"@  c #574BEB",
"#  c #4D5BEE",
"$  c #5554EE",
"%  c #5954EE",
"&  c #5C4FF1",
"*  c #4D5FF0",
"=  c #5B53F1",
"-  c #5B5CF4",
";  c #555AF1",
":  c #6444EC",
">  c #634AEF",
",  c #6C43ED",
"<  c #7545EF",
"1  c #7B42EF",
"2  c #7B51EF",
"3  c #644BF0",
"4  c #6C4CF2",
"5  c #744EF2",
"6  c #7D4BF3",
"7  c #7F46F0",
"8  c #6453F3",
"9  c #6D53F5",
"0  c #635CF6",
"q  c #6B5CF6",
"w  c #6D5DF8",
"e  c #645FF8",
"r  c #7355F6",
"t  c #7B53F6",
"y  c #7D5BF6",
"u  c #725CF9",
"i  c #7A5EF9",
"p  c #7559F8",
"a  c #4867EC",
"s  c #5168EE",
"d  c #4474EE",
"f  c #4777EE",
"g  c #4E67F1",
"h  c #5365F3",
"j  c #5B64F6",
"k  c #536AF4",
"l  c #5F66F8",
"z  c #5A6BF6",
"x  c #467CF0",
"c  c #4E79F4",
"v  c #5473F6",
"b  c #5A71F7",
"n  c #557FF6",
"m  c #5C72F9",
"M  c #5D7CF9",
"N  c #577DF8",
"B  c #6463F6",
"V  c #6465F9",
"C  c #6A63F9",
"Z  c #646CFA",
"A  c #6C6CFB",
"S  c #6668F7",
"D  c #7464FA",
"F  c #7C64FB",
"G  c #746CFC",
"H  c #7C6CFC",
"J  c #7A6EF6",
"K  c #6474FA",
"L  c #6D75FC",
"P  c #637CFA",
"I  c #6B7AFC",
"U  c #6476F7",
"Y  c #7374FD",
"T  c #7C74FD",
"R  c #747CFD",
"E  c #7C7DFD",
"W  c #7C70F7",
"Q  c #873DEB",
"!  c #913DEB",
"~  c #8D41ED",
"^  c #9343ED",
"/  c #9348ED",
"(  c #9E48ED",
")  c #8D46F0",
"_  c #844EF5",
"`  c #8C4CF3",
"'  c #914CF2",
"]  c #9C4CF0",
"[  c #9546F0",
"{  c #8453F6",
"}  c #8C53F5",
"|  c #8C59F7",
" . c #825CF9",
".. c #8B5EF9",
"X. c #8659F5",
"o. c #9353F5",
"O. c #9B56F5",
"+. c #945BF6",
"@. c #9B5CF6",
"#. c #945DF9",
"$. c #A947E8",
"%. c #A44EEF",
"&. c #AB47E9",
"*. c #AA54EF",
"=. c #AE5DEF",
"-. c #A552EE",
";. c #B35CEE",
":. c #A353F1",
">. c #A35AF3",
",. c #AB5BF0",
"<. c #A954F0",
"1. c #8464FB",
"2. c #8C63FA",
"3. c #836CFC",
"4. c #8A6BFC",
"5. c #9D63F6",
"6. c #9463F9",
"7. c #9B65F8",
"8. c #936CFB",
"9. c #9A6CF9",
"0. c #8374FD",
"q. c #8C74FC",
"w. c #837CFD",
"e. c #8B7BFD",
"r. c #9373FB",
"t. c #9B74FB",
"y. c #947CFC",
"u. c #9B7AFA",
"i. c #9970F6",
"p. c #B564EF",
"a. c #BD6CEC",
"s. c #BB72EF",
"d. c #B878EE",
"f. c #A563F5",
"g. c #AB65F3",
"h. c #A56BF6",
"j. c #AD6BF3",
"k. c #A26BF8",
"l. c #B16AF1",
"z. c #AA73F6",
"x. c #A37CF6",
"c. c #AB7AF6",
"v. c #A473F8",
"b. c #A27BF9",
"n. c #A573F6",
"m. c #B47CF2",
"M. c #B170F3",
"N. c #C36AE9",
"B. c #C37CEB",
"V. c #3988E9",
"C. c #4683F1",
"Z. c #4D83F3",
"A. c #4C8BF3",
"S. c #5383F6",
"D. c #5A86F7",
"F. c #548BF6",
"G. c #598BF7",
"H. c #5C84F9",
"J. c #5D8BF9",
"K. c #5585F8",
"L. c #4B96F1",
"P. c #5992F6",
"I. c #549CF3",
"U. c #5C9BF5",
"Y. c #5893F7",
"T. c #439BEB",
"R. c #6283F6",
"E. c #6483FB",
"W. c #6C83FC",
"Q. c #638BFA",
"!. c #6B8BFC",
"~. c #7484FD",
"^. c #7C84FD",
"/. c #748BFD",
"(. c #7C8CFD",
"). c #6492FA",
"_. c #6D92FB",
"`. c #6C99F9",
"'. c #6691F7",
"]. c #7594FC",
"[. c #7C93FD",
"{. c #759AFB",
"}. c #7C9AFB",
"|. c #7D9AF7",
" X c #5CA2F4",
".X c #6AA6F6",
"XX c #7CA3F8",
"oX c #78AAF7",
"OX c #6CB1F2",
"+X c #77B5F3",
"@X c #64B8EF",
"#X c #8484FE",
"$X c #8B84FD",
"%X c #838CFD",
"&X c #8B8CFD",
"*X c #9283FC",
"=X c #9B83FA",
"-X c #938BFB",
";X c #9B8CFA",
":X c #8595FD",
">X c #8393FD",
",X c #8991FD",
"<X c #8D90FD",
"1X c #8B93FC",
"2X c #839BFB",
"3X c #8B9AFB",
"4X c #9294FC",
"5X c #9C93F9",
"6X c #9599FA",
"7X c #989EF7",
"8X c #BA81EE",
"9X c #BB89EF",
"0X c #BC94EC",
"qX c #B898ED",
"wX c #A685F7",
"eX c #A986F7",
"rX c #A58AF7",
"tX c #AC8DF4",
"yX c #A281FA",
"uX c #A489F8",
"iX c #A884F9",
"pX c #B385F3",
"aX c #B58FF1",
"sX c #A491F7",
"dX c #A599F4",
"fX c #B392F1",
"gX c #83A5F9",
"hX c #9FA1F1",
"jX c #83B2F3",
"kX c #B6A8EB",
"lX c None",
"zX c black",
/* pixels */
"` t u A Y (.%X%X&X&X&X&X&X<X&X&X&X/.U.L.Y.|.7X}.{.{.].}.[.(.zX#XtXuX&X&X,X,X>X[.2X>X2X}.,X).K.E.%X>X>X%X>X(.(.^.#X~.P K | ' ^ ` ",
"} 9 w B Z Y (.,X&X4X4X&X&X<X&X&X&X].Y.L.A.zXzXgX{.(.zXzXzXzXzXw.yXuX&X,X,X>X2X>X[.>X>X>X2X).G.J.[.>X>X[.[.>X>X%X(.(.W.} ) / ` ` ",
"1.V A j l V L (.<X&X-X<X,X,X<X,X<X_.I.G.A.zXzXzXzXzXF  . . .1.1.9.u.e.^.%X%X%X>X>X>X>X>X(._.J.J.[.,X>X>X(.(.%X%X%X%X5.] [ / ` { ",
"/.!.E Z e 0 0 Z %X4X<X<X<X,X1X3X2X`.F.J.zXzXzXzXzX#.} _ t r F 1.6.8.0.~.%X,X>X[.[.[.>X,X>X].J.J./.[.>X>X,X>X%X[.[.b.;.>.+.0.(.(.",
"}.!.&XR G B - - Z -X<X1X3X3XgXgXjX+X.XI.zXzXzXzXg.f.2.1.i D F 1.1.q.R W.~.>X%X>X(.(.>X2XXXOX@XOXzXzXzXzXzX2X2X2X1Xa.l.=X[.].}.}.",
"}._.4X(.(.E S - h K 3XgXoXjX+X+XzXzXzXzXzXzXzXzXb.=X&X%X(.E T T w.E ~.W.W.(.>X>X[.[.}.oXOXzXzXzXzXzXzXzXzXzXzXzXzXB.rX>X}.}.].[.",
"[.].,X2X[.[.}.W.h g zXzXzXzXzXzXzXzXzXzXzXzXzXzXyX-X%X>X,X>X(.(.%X(./.W.R ~.(.%X[.]..XzXzXzXzXzXzXzXzXzXzXzXzXzXzX9X5X>X[.[.[.(.",
"[.2X|.2X2XXX}.{.`.T.zXzXzXzXzXzXzXzXzXzXzXzXzXyX=X&X>X,X>X>X>X[.[.[.(./.W.~.~.(.{.].zXzXzXo.p zXzXzXzXzXzXzXzXzXzX0X5X>X2X}.[.[.",
"}.{.}.2X}.2X}.{.U.zXzXzXzXzXzXzXzXzXzXzXzXzXzXzX-X%X[.>X,X>X>X[.[.>X[.[././.~.~.zXzXzX#.O.o.q j zXzXzXzXzXzXzXzXzXqX5X2X[.}.[.[.",
"[.(.[.>X>X[.}.{.I.zXzXzXzXzXzXzXzXzXzXzXzXzXzXzX&X%X(.%X>X%X[.}.[.}.>X[.(./.R J 1.1.| +.#.2.P b m zXzXzXzXzXzXzXzXzXhX>X[.>X[.}.",
"(.].>X[.(.[.[.`.zXzXzXzXzXzXzXzXzXzXzXzXzXzXzXzX$X(.(.%X%X(.[.}.}.}.2X2X*X2. . .{ } | ..q.[.!.R.M zXzXzXzXzXzXzXzXzXkX:X[.(.[.[.",
"[.(.%X(.(.[.].zXzXzXzXzXzXzXzXzXzXzXzXzXzXzXzXzXzX#X^.#X^.(.(.zXzXzXzXzXeXn.X.y F w.(.{.XX{.{.!.P zXzXzXzXzXzXzXzXzXzXhX>X[.[.[.",
"(.zXzXzXzXzXzXzXzXzXzXzXzXzXzXzXzXzXzXzXzXzXzXzXzXzXzXzXzXzXzXzXzXzXzXzXeXtX2X2X|.].(.].].[.[./.~.zXzXzXzXzXzXzXzXzXzXzX3X[.(.(.",
"zXzXzXzXzXzXzXzXzXzXzXzXzXzXzXzXzXzXzXzXzXzXzXzXzXzXzXzXzXzXzXzXO.u e zXyXyX[.[.|.[.[.].].(.[.[.(.zXzXzXzXzXzXzXzXzXzXzXzXzXzXzX",
"zXzXzXzXzXzXzXzXzXzX4 _ 6 , zXzXzXzXzXzXzXzXzXzXzXzXzXzXzXzXzX>.#.C C e r.-X(.[.(.].}.[.(.(./.zXzXzXzXzXzXzXzXzXzXzXzXzXzXzXzXzX",
"zXzXzXzXzXzXzXzXzX;.r _ t 5 4 , < zXzXzXzXzXzXzXzXzXzXzXzXzX>.>...A A C H #X/.(.].(.(.[.zXzXzXzXzXzXzXzXzXzXzXzXzXzXzXzXzXzXzXzX",
"zXzXzXzXzXzXzXzX;.g. . . .p r 5 3 4 9 zXzXzXzXzXzXzXzXzXO.:.O.7.#XI L L A R R ~./.zXzXzXzXzXzXzXzXzXzXzXzXzXzXzXzXzXzXzXzXzXzXzX",
"zXzXzXzXzXzXzX=.g.g.e.W Y T G F u r s zXzXzXzXzXzXzX| ..@.7.8.E /.(./.Y Y Y Y I zXzXzXzXzXzXzXzXzXzXzXzXzXzXzXzXzXzXzXzXzXzXzXzX",
"zXzXzXzXzXzXf.f.h.&X,X,X[.(.%XE E R.V.zXzXzX....| | i O.O.6.^./.~.W.%X(.~.R Y Y K zXzXzXzXzXzXzXzXzXzXzXzXzXzXzXzXzXzXzXzXzXzXzX",
"zXzXzXzXzXzXg.u.&X,X>X[.[.>X>X>X(.P.C.Z zXt.r.3.8.2...#.0./././.^././.(.^.^.~.Y I zXzXzXzXzXzXzXzXzXzXzXzXzXzXzXzXzXzXzXzXzXzXzX",
"zXzXzXzXzXiX-X4X&X%X,X>X(.%X#X#X(.H.m C zX;X*Xy.t.q.8.E /.(./././.(./.R %X^.E R K zXzXzXzXzXzXzXzXzXzXzXzXzXzXzX&.! . . : zXzXzX",
"zXzXzXzXzXzX-X;Xb.H E #X%X%X#X#X^.I G v zXzX-X;X;Xy.^././././.^.^.(.^.^.R %X^.^.~.zXzXzXzXzXzXzXzXzXzXzXzXzXzX<.,.:.5 3 3 $ zXzX",
"zXzXzXzXzXzX=Xb.c.T Y T 0.T #Xw.w.Y I S.c zXzX5XuX4X^././././.^.^.(.^.^.^.^.(.(./.zXzXzXzXzXzXzXzXzXzXzXzXzX7.k.j.z.F B z g k zX",
"zXzXzXzXzXzXt.b.b.$XT T 0.T T e.0.R J.K.S.zXzX5X5X;X%X~.^.~.~.^./.^.(.^.^./.^.(.(.zXzXzXzXzXzXzXzXzXzXzXzX8.t.v.z.z.3.V g v l 0 ",
"8 r zXzXzX8.r.u.u.$X#XE E w.E w.(.).Q.P.zXzXzXzXsX5X%X^.^./.~./.^.^.(.^.(.(./.zXzXzXzXzXzXzXzXzXzXzXzXzXk.8.8.v.z.z.e.A h # q 9 ",
"$ Z M zXr.8.r.r.-X%X%X%X^.#Xw.E ~.E.H.Q.zXzXzXzX;X5X&X(.~.~.~././.(.^.(.(.(.zXzXzXzXzXzXzXzXzXzXzXzXzXzXk.8.t.h.v.u.-Xw.l $ 4 5 ",
"x N P zX8.r.q.#X%X%X&X%X%X(.%X(.~.P M H.zXzXzXzXzX;X-X#X/.~.~.^.^./.^.(.zXzXzXzXzXzXzXzXzXzXzXzXzXzXzXf.7.6.@.7.u.*X&X,X^.S u - ",
"x N Y 4.8.w.#X%X%X>X,X,X%X%X%X%X/.W.P M zXzXzXzXzX=X-X%X/.~.~././.zXzXzXzXzXzXzXzXzXzXzXzXzXzXzXzXzXzXf.f.#.8.q.e.&X&X,X,XE Y C.",
"S.P Y q.#X[.(.>X%X>X>X,X,X%X%X(.%X~.P M zXzXzXzXzXu.*X#XT F K /.zXzXzXzXzXzXzXzXzXzXzXzXzXzXzXzXzXzXM.h.t.e.$X%X%X%X2X:X:X3X].C.",
"K.E.(.(.(.(.%X(.%X%X%X,X>X,X>X(.>X/.!.P y }  .t { o.' ) ~ 5 o zXzXzXzXzXzXzXzXzXzXzXzXzXzXzXzXzXzXzXm.uX6X1X>X>X>X2X:X:X3X3X}.A.",
"F.Q.].>X[.>X>X>X>X%X>X%X>X>X2X>X[.[.E o.!   6 _ ) [ [ ) ) % a zXzXzXzXzXzXzXzXzXzXzXzXzXzXzXzXzXzXzXfX6X6X>X2X>X[.>X2X2X2X3X2XP.",
"S.J.!.zXzXzXzXzXzXzX>X>X>X}.2X2X>X&Xk.,.(       Q ! ^ ~ { a o o zXzXzXzXzXzXzXzXzXzXzXzXzXzXzXzXzXzXzX6X5X2X2X2X2XXX2X2XgXgX3X_.",
"U.D.zXzXzXzXzXzXzXzXzXzXzXzXzX#X%Xu.p.p.l.4.i y X.1.0.#X(.C.V.O zXzXzXzXzXzXzXzXzXzXzXzXzXzXzXzXzXzXzX6X6X2X2X2X2X2X2X,X>X,X2XXX",
"OXzXzXzXzXzXzXzXzXzXzXzXzXzXzXzX2.=.j.c.5X3X2X}.|.}.}.2X>Xx O d zXzXzXzXzXzXzXzXzXzXzXzXzXzXzXzXzXzXzXzX9...F W ^.#X#X%X#X[.XX.X",
"zXzXzXzXzXzXzXzXzXzXzXzXzXzXzXz.>.O.t.=X&X2X2X|.}.2X2X|.2X_.o X zXzXzXzXzXzXzXzXzXzXzXzXzXzXzXzXzXzXzXj.k.8. .r 9 F J w.^.!..XzX",
"zXzXzXzXzXzXzXzXzXzXzXzXzXzXzXa.g.2.q.$X(.>X2X|.}.2X|.2X2X2XP o B F zXzXzXzXzXzXzXzXzXzXzXzXzXzXzXzXzXv.=X=X$XT C D D G G D.zXzX",
"zXzXzXzXzXzXzXzXzXzXzXzXzXzXzXN.l.H | F 1.D 1.1.H H 3.F J ^.}.f 9 9 j zXzXzXzXzXzXzXzXzXzXzXzXzXzXzXzXt.y.-X-X%X^.Y G G L C.zXzX",
"zXzXzXzXzXzXzXzXzXzXzXzXzXzXM.N.n.8.3.0.H W J 3.H 1.3.T Y K A J 6 - - e D zXzXzXzXzXzXzXzXzXzXzXzXzXv.r.e.#X%X1X,Xw.^.T m V.zXzX",
"zXzXzXzXzXzXzXzXzXzXzXzXzXzXa.s.n.$X%X(.%X^.^./.%X[.}.%X(.W.R (.[.I - B Z D D zXzXzXzXzXzXzXzXzXzXzXu.e.$X%X#X#X&X%X(.w.K.d zXzX",
"zXzXzXzXzXzXzXzXzXzXzXzXzXzXd.d.u.%X(.%X(.%X%X#X/.[.(.(.[././.!.].[./.K u u A Z zXzXzXzXzXzXzXzXzXzX-X%X%X&X,X%X%X>X,X%XJ.x zXzX",
"zXzXzXzXzXzXzXzXzXzXzXzXzXzXc.B.%X%X(.%X%X(.%X(.(.W.>X(.[.(.~.!.].].].(.^.L A Z zXzXzXzXzXzXzXzXzXzX<X,X%X%X,X>X>X>X>X2X).S.zXzX",
"zXzXzXzXzXzXzXzXzXzXzXzXzXz.b.8X%X(.^.%X(.#X%X(.(./.~.:X(.(./.!./.[.].%X>X(.R K Z zXzXzXzXzXzXzXzXzXzX,X>X>X[.>X,X>X>X>X].H.zXzX",
"zXzXzXzXzXzXzXzXzXzXzXzXzXu.z.uX>X>X%X(.(.%X(.(.[.[.~./.:X(.(.E.!.].(.(.%X%X^.I K G 2.y zXzXzXzXzXzXzXzXzXzXzX>X2X>X>X>X}.Q.zXzX",
"zXzXzXzXzXzXzXzXzXzXzXzXzXh.v.1X2X2X2X2X2X2X}.|.[.[.].].>X2X}./.E.~.^.^.^.>X,X^.I H 6. .u 8 zXzXzXzXzXzXzXzXzXzXzXzX%X%X/.zXzXzX",
"zXzXzXzXzXzXzXzXzXzXzXzXyXuX1X3X>X>X2X2X[.[.>X(.%X(.(./.w.^.^./.W.].(.%X^.^.^.%X&X4.@.| 5 4 : 3 zXzXzXzXzXzXzXzXzXzXzXzXzXzXzXzX",
"zXzXzXzXzXzXzXzXzXzXzXzXzX5X1X1X>X>X[.>X>X>X>X>X(.(./.w.^.(.(./.)./.#X%X#X^.#Xw.4.9.k.@.t 9 9 > 4 : zXzXzXzXzXzXzXzXzXzXzXzXzXzX",
"zXzXzXzXzXzXzXzXzXzXzXzXzX;X%X&X%X%X#X#X#X#X#X#Xw.w.0.3.L /.(./.E.~.#X#X(.#Xq.7.O.o.-.3.E G D q 8 q 8 + zXzXzXzXzXzXzXzXzXzXzXzX",
"zXzXzXzXzXzXzXzXzXzXzXzXzXr.^.&X%X&Xe.0.3.1.1.1...1.| D m R.[.(.R Y ^.#X#X8.7.@.@.r.&X%X#Xw.T C q 9 4 > 4 + zXzXzXzXzXzXzXzXzXzX",
"zXzXzXzXzXzXzXzXzXzXzXzX&.D Y ^.%X5Xr.2.| | } _ X.}  .C z v L ~.(.(.R zXr.9.k.9.$X%X%X%X%X&X%XE I 0.A j S A c zXzXzXzXzXzXzXzXzX",
"zXzXzXzXzXzXzXzXzXzXzX&./ ; V Y E z.h.f.O.| X.i X. .i e * k L Y Y ^.E q.t.v.r.%X%X%X&X#X$X%X>X2X#XT G V z n c zXzXzXzXzXzXzXzXzX",
"zXzXzXzXzXzXzXzXzX$.&.&.2 = % B G eXm.h.8.3.4.2.1.1. .C g # l A I R e.4.r.=X%X%X%X%X&X%X%X%X(.$X$X#X~.E.S.S.Z.zXzXzXzXzXzXzXzXzX",
"zXzXzXzXzXzXzXzX( $.&.:.q - = = 8 i.tXaXu.4.4.0.0.3.0.K z j ; V K Y e.r.w.-X&X%X%X&X&X&X%X>X#X$X&X,X(.E.S.S.S.zXzXzXzXzXzXzXzXzX",
"zXzXzXzXzXo.' [ %.-.>.6.D q & & + C 5XdX0X(.y.w.w.#X^.W.P z V ; V D 0.e.w.#X%X%X%X&X%X,X(.$X%X#X$X$X^.E.H.n c zXzXzXzXzXzXzXzXzX",
"zXzXzX:.] o.o.+.>.5.t.y.w.L e 8 $ @ W rX0X=Xr.w.^.(.[.].!.L Z z j C G q.E #X#X#X#X#X%X&X#X-X$X%X$X%X(.!.D.F.K.zXzXzXzXzXzXzXzXzX",
"zXzX:.:.@.2.4.6.r.$X-X,X%X#XY A 0 $ % 3.9X8Xw.(.[.(.].{.[./.R K h A G R /.#X#X$Xw.#X#X#X#X$X#X$X#X%X(.!.J.F.zXzXzXzXzXzXzXzXzXzX",
"zXj.g.7.8.0.e.$X&X&X&X,X<X&X#XY G h B S z.aX>X].[.]._.].[.[.(.~.L m P W.e.W 0.$X#X^.^.$X$X$X#X#X%X#X^.W.K.D.zXzXzXzXzXzXzXzXzXzX",
"zXm.z.u.$Xw.^.%X&X&X&X&X,X&X&X#XE V = 0 8.rX}.].{.{.].[.[.[.[.(.!.P D.E @.G F W E (.%X&X$X#X#X&X#X#X/.!.E.Z D i F zXzXzXzXzXzXzX",
"zX8XeX-X&X#XE #X#X&X&X$X&X&X&X-X$XT C % D $X}.].]./.[.].(.[.>X[.].Q.R.O.' 9 D D G G H #X&X&X%X&X%X#X^.W.I G F F D D zXzXzXzXzXzX",
"zXpXuX;X-X$X#Xw.w.e.e.$X$X$X#X&X<X:X(.n E./.].(.].].].}.}.}.[.>X].Q.7.*.o.r 8 u u p r D W &X%X%X&Xe.E Y Y H F F D D h zXzXzXzXzX",
"zXpXuX=X&X&X&X#X#X$X$Xw.e.w.#Xe.$Xw.R Q.Q.`.2X].].}.].}.}.[.}.2X}.q.*.*.| p 8 4 ) 1 > r 9 A #X$X-Xy.T Y H 1.3.F D F d zXzXzXzXzX",
"zXzXrX;X&X&X&X%X%X&X$X&X&X#X#X#X#X&X/.P.P.!.[.[./.]./.].[.}.[.>X&Xp.,.u.#XE H p t t : > r $ P $Xy.u.#XE T 0.0.T T L d zXzXzXzXzX",
"zXzXsX-X<X&X,X%X&X<X&X&X&X&X#X&X$X%X/.Y.Y.Q./.].{.}.[.].(.(.}.&Xz.s.4X1X1X>X%X#X#X#XE - 0 h a e.u.y.w.R %X%X(.^.^.W.x c zXzXzXzX",
"zXzXb.-X<X<X,X>X,X<X4X&X&X&X&X&X%X%X!.I. X}.(.E R ~.W./.[.].~.5XfXsX6X3X3X3X1X2X2X2X:X(.P k d E =X$X%X(./.%X2X[.>X_.F.S.zXzXzXzX",
"Q Q } 0.#X<X>X>X1X<X<X<X,X&X%X&X%X(.).L.U.XX4X/././././.E ^.#X$XtXsX4X1X,X3X2X2X2X2X2XgX}.D.d L -X%X>X[.(.^.^.#X(./.M v zXzXzX! "
};
