/* XPM */
static char *Z3Jhc3NfYmxvY2tfc25vd19u[] = {
/* columns rows colors chars-per-pixel */
"64 64 249 2 ",
"   c #6D38DE",
".  c #593DE4",
"X  c #6B3DE3",
"o  c #2F76D7",
"O  c #3F65E2",
"+  c #4B4DD8",
"@  c #7746DE",
"#  c #674FDB",
"$  c #5260CF",
"%  c #5363DB",
"&  c #446ED4",
"*  c #6A68D7",
"=  c #7475D2",
"-  c #5C42E7",
";  c #4E5FEA",
":  c #5254E0",
">  c #6A47E3",
",  c #7848E6",
"<  c #6456EB",
"1  c #665BE9",
"2  c #7656E9",
"3  c #6D5BF4",
"4  c #685BF5",
"5  c #7557F6",
"6  c #566CE7",
"7  c #537BED",
"8  c #577AE7",
"9  c #5869F4",
"0  c #5C7CF4",
"q  c #5A77F6",
"w  c #4F7EEE",
"e  c #6764EC",
"r  c #7C6DEE",
"t  c #7368EB",
"y  c #6A78EA",
"u  c #7C72ED",
"i  c #7E79EE",
"p  c #7679E7",
"a  c #6C6DFA",
"s  c #666AF7",
"d  c #7D6EF1",
"f  c #756BFA",
"g  c #7667F7",
"h  c #6B74F6",
"j  c #6672F9",
"k  c #6B75FB",
"l  c #6B7BFB",
"z  c #6979F6",
"x  c #7371F4",
"c  c #7E71F2",
"v  c #747AF6",
"b  c #7A7AF5",
"n  c #7474FB",
"m  c #7B75FC",
"M  c #757CFD",
"N  c #7E7EFE",
"B  c #8B36D6",
"V  c #9B30D8",
"C  c #813CE7",
"Z  c #8F4ED7",
"A  c #AA54DD",
"S  c #8666DB",
"D  c #9E7ED0",
"F  c #8C79D1",
"G  c #AC65D5",
"H  c #B368DC",
"J  c #B97DDF",
"K  c #A671CE",
"L  c #8E49E9",
"P  c #8953E8",
"I  c #9859E8",
"U  c #8C5CF5",
"Y  c #8858F1",
"T  c #9B58F0",
"R  c #9445E3",
"E  c #A35EEE",
"W  c #AD52E3",
"Q  c #8768EC",
"!  c #9669E7",
"~  c #8275EC",
"^  c #8777EA",
"/  c #9E7CEB",
"(  c #9474E8",
")  c #8463F3",
"_  c #826EFA",
"`  c #8C6CF9",
"'  c #8968F7",
"]  c #9463F4",
"[  c #9963F4",
"{  c #926BF4",
"}  c #9465F8",
"|  c #936EFB",
" . c #9C6BF6",
".. c #8071F2",
"X. c #8A73F4",
"o. c #827DF5",
"O. c #8374FC",
"+. c #8B75FB",
"@. c #817EFE",
"#. c #8C7CFC",
"$. c #8D7AF3",
"%. c #9272F4",
"&. c #9274FB",
"*. c #917DFA",
"=. c #9977F5",
"-. c #A667E9",
";. c #B768ED",
":. c #A977E9",
">. c #B779E6",
",. c #A567F3",
"<. c #A373F3",
"1. c #A975F1",
"2. c #B36AF1",
"3. c #CC75D3",
"4. c #C663D2",
"5. c #3583DA",
"6. c #399AE1",
"7. c #338CE2",
"8. c #3EADE1",
"9. c #4E90D8",
"0. c #798CD8",
"q. c #759DD9",
"w. c #6295D0",
"e. c #4CA9DE",
"r. c #5BA6DD",
"t. c #49B2D8",
"y. c #7AACD5",
"u. c #7BB8C9",
"i. c #4883ED",
"p. c #5487E7",
"a. c #4A97EB",
"s. c #5697EA",
"d. c #5C8CF3",
"f. c #5986F4",
"g. c #5996F4",
"h. c #678DE5",
"j. c #7A89EA",
"k. c #6D9AE5",
"l. c #6E9DEC",
"z. c #6596E8",
"x. c #7599E6",
"c. c #628CF5",
"v. c #6D8DF4",
"b. c #6484FA",
"n. c #6C84FB",
"m. c #648CF9",
"M. c #698CFB",
"N. c #6383F6",
"B. c #7B83F3",
"V. c #758DF5",
"C. c #7484FD",
"Z. c #7D82FE",
"A. c #748AFC",
"S. c #7E88FE",
"D. c #7D88FD",
"F. c #7C8AFD",
"G. c #7987F3",
"H. c #6C9CF3",
"J. c #6D90FB",
"K. c #6898F5",
"L. c #7392F6",
"P. c #759BF3",
"I. c #7494FA",
"U. c #7C95FA",
"Y. c #7699FA",
"T. c #7D99F7",
"R. c #5AA6E8",
"E. c #54A3ED",
"W. c #74A2EC",
"Q. c #7AA5E4",
"!. c #65B2E9",
"~. c #79B8E8",
"^. c #6AA7F3",
"/. c #74A4F6",
"(. c #78A6F6",
"). c #6DAFEF",
"_. c #5AC5D8",
"`. c #76C7E6",
"'. c #8A8CDC",
"]. c #9F80DC",
"[. c #8799D6",
"{. c #989DD8",
"}. c #BA96D4",
"|. c #B783D7",
" X c #89B7D4",
".X c #97A7D3",
"XX c #B7A9D3",
"oX c #8686EA",
"OX c #9787E8",
"+X c #839CEC",
"@X c #8A9EEC",
"#X c #8698E9",
"$X c #9698E8",
"%X c #8383F4",
"&X c #8A83F6",
"*X c #8B8DF4",
"=X c #8080FE",
"-X c #8081FE",
";X c #8181FE",
":X c #8083FE",
">X c #8182FD",
",X c #8287FD",
"<X c #8184FE",
"1X c #8285FE",
"2X c #8187FE",
"3X c #8287FE",
"4X c #8185FD",
"5X c #8282FE",
"6X c #8B83FC",
"7X c #8188FE",
"8X c #8288FE",
"9X c #8289FD",
"0X c #8488FE",
"qX c #828AFD",
"wX c #8A8AFB",
"eX c #858EF7",
"rX c #9C82F2",
"tX c #9284FA",
"yX c #9A82F9",
"uX c #9589F7",
"iX c #8C94F3",
"pX c #8392FB",
"aX c #8B93FA",
"sX c #8799F6",
"dX c #9597F7",
"fX c #A987E5",
"gX c #B68CE7",
"hX c #A49CEA",
"jX c #A28BF5",
"kX c #A888F3",
"lX c #AB91F3",
"zX c #A398F4",
"xX c #B595E3",
"cX c #87A8EA",
"vX c #98ABED",
"bX c #83B4E8",
"nX c #9AB3E8",
"mX c #87A9F3",
"MX c #99AFF2",
"NX c #ABA5EA",
"BX c #A8A7E7",
"VX c #B2A5E6",
"CX c #A2BAE2",
"ZX c #ACA2F0",
"AX c #CA90D6",
"SX c #C28BE7",
"DX c #C0A3E1",
"FX c #91CADA",
"GX c None",
/* pixels */
"c ..c c ..d ..d ..d c ..c ..c ..c ......c c u c ....d c ..c ..c ..c c ..c c ..c c ....c ..c ........c ..c c c c ..c ..c ..~ d c ",
"N ;X@.Z.Z.;XZ.Z.;XZ.;XZ.@.Z.Z.@.;XN Z.N Z.;X;XZ.N ;X;XZ.;XZ.@.Z.@.Z.Z.;XZ.@.Z.;XZ.;XN @.;XZ.N ;XZ.Z.;XZ.@.Z.Z.N ;XZ.;XN Z.@.Z.N ",
"Z.;XZ.;XZ.;X;XZ.Z.Z.;X;X;XZ.;XZ.Z.;XZ.;X;XZ.;X;XZ.Z.;XZ.;XN Z.@.;XZ.@.Z.Z.@.Z.N ;XZ.;X;XZ.;XZ.Z.Z.;X;XZ.;X;X;X;X@.;XZ.Z.@.Z.Z.@.",
"Z.@.Z.N Z.@.Z.N ;XN Z.;XN Z.;XN Z.@.N N ;XZ.Z.@.Z.N N ;XZ.Z.;XZ.Z.Z.;XN ;XZ.;XN Z.@.Z.N N ;XZ.@.N @.Z.Z.Z.@.Z.Z.Z.Z.@.Z.Z.;XN Z.",
"N @.Z.N @.N Z.@.@.N @.N Z.@.N N Z.@.Z.Z.Z.;X@.N N @.@.N Z.@.N @.@.N ;XN N N ;X@.;XN Z.Z.@.Z.Z.N @.Z.N N @.N N ;XN Z.@.Z.@.Z.@.N ",
"N Z.@.N Z.N N N Z.N Z.N N @.@.Z.;XN @.@.N N N N N N Z.N @.Z.N N N N N N N Z.Z.@.N N @.N ;X@.@.N @.N @.Z.@.Z.N N N N ;X@.N N @.N ",
"@.N Z.@.@.N N N @.@.N @.N N @.N N @.N N N @.N N N N @.N @.N N @.Z.@.N N N N @.N @.N N N N N N @.N N N @.N N N @.@.N N N N N Z.@.",
"@.N N N N N @.@.N @.N N N N @.N N @.N N N N N N @.N N @.N @.N N N @.N N @.N N @.N N @.N @.@.N N N @.N @.N @.N N @.N N N @.N N N ",
"@.N N N N N @.N N @.N N @.N N @.N @.N N N N @.N @.@.N N @.N N @.N @.N N N N @.@.@.N @.N N @.N @.N @.N @.N @.@.@.N @.N N @.N N @.",
"@.N N @.@.N N N @.N N N N N @.N @.N N N @.N @.N N @.N N N N N @.N N @.N N @.N N N N N N @.N N N N @.N N N N N N N N N @.N @.N N ",
"N N N N N N @.@.N N N @.N N N @.N @.N @.N N @.N @.N N N N @.N @.N @.N N N N N N @.N @.N N N N @.N N N N @.N N N N N @.N N N N @.",
"N @.;XN N @.N @.N @.Z.N N N N @.N N N @.N N @.N N N @.N N @.N @.@.N N @.N N @.@.@.N N @.N @.N ;XN @.N @.N @.N @.N @.N N N @.N N ",
"N @.@.N N N @.N @.N N N @.N @.N N ;XZ.N N N @.N @.N ;XN N @.N N N N @.@.N N @.@.@.N N Z.N @.N @.N @.N N @.@.N @.@.Z.Z.N N @.@.N ",
"N N @.N N N Z.@.N N N N N N N N Z.N @.@.N ;XN Z.N @.N N @.N Z.@.N N N @.N @.Z.@.N N N @.@.N N N N N @.N N Z.N @.N @.N N N @.N @.",
"N N Z.N Z.@.N ;XN Z.N ;XN @.N N @.;X;XZ.Z.@.@.@.Z.@.N N ;XN @.N @.N @.Z.;XN Z.N Z.@.N @.N @.N @.@.Z.N N N N N ;XN N N @.@.N N @.",
"N ;X@.N N N @.N N @.@.N Z.Z.Z.;XN Z.N N ;XZ.Z.N ;X@.Z.N N @.Z.N N Z.;XN N N @.N @.N Z.N Z.@.N Z.N N @.N ;XN N @.N N ;XN N N Z.N ",
"@.Z.Z.@.Z.;XN N N N Z.Z.Z.N N N Z.Z.Z.Z.;X;XZ.Z.;X;XZ.Z.@.N N ;X;XN N Z.N @.N @.N ;X@.Z.N ;XN Z.Z.@.@.Z.@.N N N Z.@.N N @.N N @.",
"Z.N @.N N N N ;XZ.N Z.N N Z.Z.Z.N Z.;XZ.Z.;X;X;X@.;XZ.;XN ;XZ.@.N N N @.N Z.@.Z.@.N N N ;XN N N @.Z.N @.Z.@.Z.@.;XN Z.N ;XZ.@.Z.",
"@.N Z.@.@.Z.Z.;XN N N Z.Z.Z.Z.Z.Z.Z.Z.;XZ.2XZ.;X;XZ.;XZ.;XZ.@.N ;XZ.N ;XZ.@.N N Z.@.@.N N Z.;XN N @.N @.N N @.N N N @.@.@.N N Z.",
"Z.@.Z.Z.;XN Z.Z.N Z.Z.Z.Z.Z.Z.Z.Z.;XZ.2X;XZ.;X2X;X;X;X;XZ.;X;XZ.N ;X;XZ.N @.@.Z.@.N Z.N @.N @.N Z.N N Z.Z.N ;XZ.N Z.Z.N Z.;XZ.@.",
";XZ.Z.;XZ.Z.Z.;XZ.Z.Z.N Z.Z.Z.Z.Z.Z.7XZ.2X2X;X2X;X;X2X2X>X;X;X;X;XZ.Z.;X;XZ.N N Z.N Z.N Z.@.@.N N @.@.N @.N N @.@.N @.@.Z.N N Z.",
"N ;XZ.2X;XZ.Z.Z.Z.Z.Z.F.Z.F.Z.Z.Z.2X2XZ.2X;XZ.2X2X;X;X;X;X2XZ.>X;X;XZ.;X;XZ.;XZ.@.@.N @.N @.N Z.N Z.Z.N N Z.N Z.;XZ.;XZ.Z.Z.Z.@.",
"Z.;XZ.Z.2XZ.;XZ.Z.Z.Z.Z.F.Z.Z.F.S.S.7XS.2X2X2X2X3X2X;X2X4XZ.;X2XZ.;X;X;X;X;X;XN ;X@.Z.@.N Z.N N N @.;X@.N N ;XN N Z.N Z.N Z.Z.Z.",
"Z.Z.Z.7XZ.Z.Z.Z.Z.F.Z.F.Z.F.F.Z.S.Z.Z.2X2X2X3X2X2X2X2X2X2X7X;X4X2X;X;X2X;X;XZ.;XZ.;XZ.;X@.Z.@.N @.Z.N Z.@.Z.@.N Z.N Z.Z.Z.Z.;XZ.",
"Z.Z.Z.2XZ.Z.Z.S.Z.Z.S.F.F.F.F.F.S.Z.S.7X2X2X2X2X0X3X2X3X2X2X3X;X2X2X;X;X2X;X;X;X;X;X;XZ.@.Z.@.;X@.N N @.@.N Z.N Z.Z.Z.Z.Z.Z.Z.Z.",
"S.S.Z.S.2XD.S.S.S.S.Z.F.Z.C.Z.F.F.S.S.S.2X7X7X2X2X7X2X3X4X2X2X3X2X;X3X5X3X;X2X;X;X2X;X;X;X@.Z.N N ;XZ.N N Z.N C.N Z.Z.Z.Z.C.Z.Z.",
"Z.S.S.S.S.F.S.S.F.Z.F.F.Z.F.F.F.A.k.+X#X*X2X7X7X3X7X0X7X0X2X0X4X3X3X3X3X3X5X;X2X;X;X2X;X;XZ.;XZ.Z.;X@.Z.Z.Z.N N Z.Z.Z.Z.F.Z.F.S.",
"S.Z.S.S.Z.S.S.S.F.F.F.F.F.F.Z.F.z.@.m @.$XeX7X7X7X7X0X2X7X7X7X7X7X3X3X3X,X3X5X2X2X;X;X;X;X;XZ.;X;XZ.Z.Z.;XN N Z.Z.Z.C.Z.Z.Z.F.F.",
"F.S.S.D.S.S.7XF.Z.Z.Z.F.F.F.H.x.;X@.@.N N G.$XqX2X7X7X9X7X0X9X7X7X0X4X7X3X3X3X3X3X5X2X5X2X;XZ.;XZ.;XZ.Z.Z.N Z.Z.Z.Z.Z.Z.C.Z.C.Z.",
"F.F.F.F.S.S.S.Z.S.S.S.F.x.+XC.N N @.N N N M n #X@X0X7XF.9X7X9X9X9X0X0X0X,X3X6X3X3X3X5X3X;X2X2X;XZ.;XZ.;XZ.Z.Z.F.Z.F.C.F.F.F.F.F.",
"F.S.S.S.S.F.F.S.F.S.Z.b & >.N N N @.N N @.N M m m #Xx.$X@XS.eXF.9X4X0X0X0X0X3X0X7X3X0X3X2X2X;X2XZ.2X2XZ.F.Z.Z.Z.F.C.F.C.F.C.F.F.",
"[.$.M Z.F.S.4XD.Z.;X+.N 8 D Y 5 n ;XZ.N @.N M M M Z.v O.o.@XT.$X*X0X7X0X0X0X0X3X0X3X2X2X2X2X2X2X2X;X2X2XZ.Z.F.F.Z.F.C.Z.F.F.F.C.",
"4.@.Z.m m m b b X.+.@.b 8 AXZ.m s n o.m N C.F.Z.n.N M N O.@.@.;X$XeX4X0X0X0X0X9X0X7XqX7XqX0X7X7X0X7X7XZ.S.Z.S.F.F.C.C.F.F.F.C.z.",
">.N @.N N @.@.O.;X5X;XN & XX&X;Xk a ` m n K.aXF.C.N Z.N 2X5XF.F.F.$X@XeX0X0XeX9XqXqX0XqX0X7X7X7X7X7X7X7XS.F.F.F.F.F.F.F.C.F.v.F ",
"( o.Z.V.%X,X;XN @.@.N >X& Z fX;XM n B.D.b.l A.sX@.Z.N M Z.;XZ.Z.N N ..Q j.$X0X0XqX0X0XqXqXqXqXqXqXF.F.qXqXF.F.F.F.F.C.A.F.F.h.A ",
"@.N Z./ ^ j.@.N @.@.Z.6Xy 1  .@.N n O.g q m.d.hX7X;XN M N Z.@.@.N ] W < , o.dX0XqX7XeX0XqXqXqXqXqXqXqXF.F.F.F.F.A.F.F.F.C.h.D A ",
"@.N M &XmXB.@.@.;X@.Z.;XZ.f.6X5XN N m +.a - - 1 hX6X;XZ.M N m @.I I O.N f k @.aX7X7X0X7XqXqXqX7XF.qXpXF.F.F.F.F.F.F.A.F.L.s.K ,.",
"@.@.;Xm _ N ;X@.;XZ.S.qXH.d.tX6XZ.@.N N O.m 3 . C g m 2X2X+.R B =.Z.;X@.N j ;X@.wX0X7X7XqXqXqX7XF.qXqXF.F.F.F.S.F.F.Z.L.v.r -.@.",
"2XZ.;XZ.5XN @.;XZ.I.T.Y.M.k 3XuX@.@.@.Z.Z.2XZ.N 3 4 4 a B.H -.2 y @.N ;X5Xz N Z.5XZ.S.pXqXqXS.7XqXF.S.qXqXF.qXS.F.I.P.V.Z.*.:.Z.",
"N N @.Z.7XZ.Z.R. XiX@.@.m n n yXZ.Z.Z.N ;XZ.Z.Z.;Xn 4 9 h BXVXP.p.o.N ;X;XZ.z @.Z.F.I.I.eXsX/.cXcXS.qXS.F.F.F.U.P.A.N ;XO.#.( >X",
"N N N C.Y.(.!.X.L } O.m M N f.kXS.7X@.@.N N N @.Z.@.M 9 0 $X>./.G.O.@.@.N Z.b.@.A.P.>Xo.Z.Z.N.C.'.iXsXqXS.U.P.V.N N N N #.=.%X3X",
"5XN N n.J.J.| | O.2XZ.N A.S.i.|.P 2 v @.N N Z.;XN N N 9 q -.b o.O.@.@.Z.C.A.C.V.L.+.@.@.@.Z.k s OX6X;XpXU.F.2XZ.Z.N ;XN tX<.M ;X",
"@.@.M f.K.S.yX#.@.N @.C.k @.9.3.} 0 0 3X@.M N N N ;XZ.M 7 >.N ;XZ.Z.Z.C.N C.V.H.O.O.;X;XN Z.N w :.#.@.O.b N Z.@.Z.Z.N N tX<.@.m ",
"N @.@.8 n.@.<.6X;X;X@.M C.g.* -.cXE.h.6X3X@.N N b N N N 6 >.@.N ;X;X;XM m e.[.2.O.N N N N @.N 7 ;.;X@.@.@.M N N N N @.N wX/ @.@.",
"N N F.z.N U } @.@.N @.N d.m.2.@.j.v./ z.O.Z.5XN N Z.@.C.b.kXaX;X@.Z.@.@.r.t.4.*.;X;XN N m @.N 7 <.@.O.>XN M Z.@.N N N N N.gX6XZ.",
"Z.l._.( T d @.@.;X@.@.A.z ) { ;XZ.Z.j.%X#.N N 5XN F.@.m.H.lXyXO.N N 4Xt.GX-.;.#.Z.S.2X;X;X;XN n.$.D.eX9XZ.Z.@.Z.@.Z.@.N f.gXtXZ.",
"r.9.K ! 2X;XN N N ;XF.A.A.5X6XZ.Z.m O.O.@.N N @.Z.m A.a.P.lXlX5XN H.^.% Y OX<.N Z.N Z.3XZ.A.pXC.;XM 6XZ.2XeX5X@.Z.Z.@.F.p.AXtXI.",
"v I O.Z.S.0X;XN N N M n.F.5XaX,XN N @.N ;XN N N ;XF.g.a.@XtXgXpXI.s.=.+.% '.BXF.N A.Z.Z.Z.A.7X3X@.M O.@.M k 0.cX7X;XF.I.J.0.FXK.",
"( ..Z.C.;X;X6XZ.Z.Z.Z.c.6XZ.N uX3X;X@.@.@.;XZ.F.I.).!.E.K.fXyXsXB.5 { m k % NXMXsXF.@.F.Z.M O.O.@.@.O.@.N m 5 B P g x V.n.8 AXeX",
"jXdXN M @.@.6XS.N F.R.hX6X;XN Z.*X3X3X2XS.7XF.m.E.0.e < - |.$.;X%.f m _ f + , 6XdXwXpXqX@.@.@.@.@.5X@.@.M +.} | v P . , , % OX$X",
"%.x.CX(./.).`.`.bX~.s.VXzX;X@.@.m #.N N F.S.S.g.a.A a j 9 Y NXjXtXN N @.N f > . U M H.~.NX@.@.N @.@.@.N C.1.{ 6XN OXp.b O.m # fX",
"j.0.hXmX/./.I.Z.N O.U # }.#.+.O.O.O.N N n.Z.S.0 I X.j j j d n.VX#.N N N N @.@.4 e 9 4 5 >.#.N N ;X5X@.N d..XN @.@.m c O.Z.N M # ",
"5.,.+.2XN M N N N <.} ! 1 i OX+.O.@.N m l @.N n x nXI.M.B.j w gXrXN N N N N ;X@.s 4 L X , _ b N N @.@.N 6.D OX@.5XN N Z.Z.Z.N N ",
"o =.Z.5X] t a N } T u %X.._ U #.N N @.N N.U.2XF.n.v T.V.;XN ; oXgXZ.N N N N ;X5XN s } O.f 5 5 Y d @.Z.n.7.1.gX5X5XZ.N M Z.N N N ",
"5.&.d T M C.b.N ;...( L 2 &.N @.N N Z.N t.vXS.F.Z.N m N @.@.Z.* AX5XZ.Z.Z.N o.>XZ.C.>X;X@.N O.;Xm t N f.w <.lXNX6X@.Z.Z.N N N Z.",
"h.[ } N C.M.Z.N fXeX-.[ e #.Z.2X;XN N l & ,.6XZ.Z.N N N N @.N y DXuXN N @.Z.N N N :.^ %X@.Z.Z.@.@.M e i.n.` 6XMXCXiXZ.Z.N Z.@.N ",
"H %.4XF.n.m.;XT [ ` fXdXx.#.N N 6X;X@.f.f.| @.@.N N N N N Z.N N '.DXwX;X@.N ;X;XN *XQ.+.@.N Z.;X@.F.a.e.OX@.m m *XCXnX9XT.pXW.r.",
";.N C.>XR.vX .} #.#.M oX@.@.M m @.;XF.g.m O.N N Z.N Z.N N N Z.N 8 CXXXN @.@.Z.Z.6XN @.@.Z.@.;X;XZ.R._.E.J @.N @.M N #XbX~.~.l.V.",
"( M C.v 6 ( >.2X&.#.@.N N ;XN N Z.@.n.c.N N N N N N @.N N @.C.6X8 1 3.tX@.@.N m O.;X>XN V.q. XbX_.r.+.n >.N @.N N C.m N D.>XZ.b ",
"tXN c v.C.2 gX&.+.Z.N @.N N N N v Z.d.N N N N N N N N N N Z.N O.z 1 SXkXN Z.N Z.@.G.W.k.* V X L X   2 _ <.O.N N C.N N Z.P.wXqXj.",
"$X+X(.U.Z.=.U 1.N N @.@.@.N Z.N Z.n.s.&Xo.N m N Z.N Z.F.2XN ;X;XN x ! dXiX3XS./.!.W...T ) O.@.m m < . > #.3XZ.Z.N M N l f X.f.j.",
"{ v 5X@.B.kX( { 2XN @.@.;XN @.N Z.p.w.*XZ.Z.Z.N N N M N @.;XN @.@.;Xb ~.nXmX!.e.D ! _ N ;X@.@.Z.N N @.< e 3X;XZ.N N N l M sXh.! ",
"cX+._ 3X%X$X]. .p N N Z.@.N Z.N Z.6.= 6X;X@.N N N N M @.@.@.N N ;XN l q.BXiXH.Z { ;XZ.@.@.@.@.Z.Z.@.N Z.; k ;X@.N N N n.V.n.] p ",
"! I I   @ 2 .Xu.[.'.i c ~ ..c d p.9.r {.[.y.y. X[.~ r r d i i ~ ~ d t $ H ! Z ) d u d r c d c u d d d d t : r ~ u u h.y p Q ~ j."
};
