/* XPM */
static char *Z3Jhc3NfYmxvY2tfdG9wX24_[] = {
/* columns rows colors chars-per-pixel */
"64 64 255 2 ",
"   c #6237D7",
".  c #6A3AE8",
"X  c #763AE6",
"o  c #3C4FD6",
"O  c #3371D9",
"+  c #3A73E3",
"@  c #584BDB",
"#  c #4D57DE",
"$  c #694DDA",
"%  c #5072DA",
"&  c #6A67D9",
"*  c #6F70D3",
"=  c #7977DB",
"-  c #5848E8",
";  c #495BE8",
":  c #575AEA",
">  c #5C5AF1",
",  c #6749EA",
"<  c #7648EB",
"1  c #6857E9",
"2  c #7A58EB",
"3  c #674DF1",
"4  c #784CF2",
"5  c #6A57F4",
"6  c #645AF2",
"7  c #7659F4",
"8  c #7B5BF4",
"9  c #4C69E7",
"0  c #5864EA",
"q  c #4A76EA",
"w  c #5877E9",
"e  c #5A68F4",
"r  c #5C6CF5",
"t  c #4B77F1",
"y  c #5A78F5",
"u  c #6967E8",
"i  c #7968EB",
"p  c #6978EA",
"a  c #7777E9",
"s  c #6C63F6",
"d  c #646BF4",
"f  c #6C6BF4",
"g  c #686AF8",
"h  c #7362F5",
"j  c #7B64F5",
"k  c #746BF5",
"l  c #7B6BF4",
"z  c #7664F9",
"x  c #736CFA",
"c  c #7B6CF9",
"v  c #6373F3",
"b  c #6C74F4",
"n  c #627BF7",
"m  c #6C7BF4",
"M  c #6574FA",
"N  c #6C74FA",
"B  c #6C7BFB",
"V  c #7B73F3",
"C  c #7678F4",
"Z  c #7473FA",
"A  c #7C75FC",
"S  c #747CFC",
"D  c #7C7CFC",
"F  c #8F36D8",
"G  c #873AE4",
"H  c #9547DB",
"J  c #8B51DB",
"K  c #B152D7",
"L  c #906ED9",
"P  c #B06AD8",
"I  c #8747E7",
"U  c #9848E8",
"Y  c #8959E9",
"T  c #9556EC",
"R  c #8749F1",
"E  c #944DF1",
"W  c #8C54F4",
"Q  c #8458F6",
"!  c #8D5CF4",
"~  c #9559F2",
"^  c #A648E9",
"/  c #A758EA",
"(  c #B359E9",
")  c #A55BF2",
"_  c #8866EA",
"`  c #9668E9",
"'  c #8777EB",
"]  c #9675E9",
"[  c #8365F5",
"{  c #8C64F4",
"}  c #856DF4",
"|  c #8C6AF4",
" . c #8364F9",
".. c #8B63F9",
"X. c #846CFA",
"o. c #8B6BF9",
"O. c #9464F4",
"+. c #9B64F3",
"@. c #936BF4",
"#. c #9B6BF5",
"$. c #986BF9",
"%. c #8373F4",
"&. c #8C73F5",
"*. c #857BF5",
"=. c #8C7CF5",
"-. c #8475FB",
";. c #8B74FA",
":. c #847CFC",
">. c #8C7BFB",
",. c #9474F6",
"<. c #9C74F5",
"1. c #947BF5",
"2. c #9C7DF4",
"3. c #9374FA",
"4. c #9B73F9",
"5. c #927CFB",
"6. c #9A7BFA",
"7. c #A667E8",
"8. c #B768E9",
"9. c #A777E9",
"0. c #B776E9",
"q. c #A665F4",
"w. c #A26CF5",
"e. c #A678F6",
"r. c #B372F2",
"t. c #CA6FDA",
"y. c #C36EE6",
"u. c #3B8DDA",
"i. c #3E93E5",
"p. c #5A8DDB",
"a. c #5094DB",
"s. c #6E90DB",
"d. c #50B0DB",
"f. c #70A9DD",
"g. c #4889E9",
"h. c #5687E8",
"j. c #4797E6",
"k. c #5998EA",
"l. c #4C89F2",
"z. c #5886F6",
"x. c #5C8BF5",
"c. c #4D95F2",
"v. c #5C94F4",
"b. c #5798F3",
"n. c #6886E9",
"m. c #7786EA",
"M. c #6996E9",
"N. c #7895E9",
"B. c #6B84F4",
"V. c #6388F3",
"C. c #6A8CF4",
"Z. c #6384FA",
"A. c #6C82FB",
"S. c #658CF9",
"D. c #6C8BFB",
"F. c #7284F6",
"G. c #7B82F6",
"H. c #748CF5",
"J. c #7B8CF3",
"K. c #7383FC",
"L. c #7C84FD",
"P. c #748BFB",
"I. c #7C8BFC",
"U. c #6493F5",
"Y. c #6A97F6",
"T. c #6E9AF5",
"R. c #6393F9",
"E. c #7593F5",
"W. c #7B94F5",
"Q. c #769BF5",
"!. c #7393FA",
"~. c #7B93FA",
"^. c #7C9BF9",
"/. c #48A4E5",
"(. c #5AA5E8",
"). c #5CB5E5",
"_. c #5DA3F3",
"`. c #68A7E9",
"'. c #79A8E8",
"]. c #69B8E7",
"[. c #77B8E9",
"{. c #63A3F3",
"}. c #6CA3F5",
"|. c #6AAAF3",
" X c #76A6F5",
".X c #7DA3F2",
"XX c #68B2F1",
"oX c #74B4F2",
"OX c #71C8DC",
"+X c #6BC3E4",
"@X c #77C4E8",
"#X c #888DD6",
"$X c #A98EDB",
"%X c #8CB0D7",
"&X c #A5AEDD",
"*X c #8787EB",
"=X c #9687EC",
"-X c #8897EA",
";X c #9698EC",
":X c #8485F4",
">X c #8B84F6",
",X c #848CF5",
"<X c #8D8CF5",
"1X c #8484FD",
"2X c #8B84FC",
"3X c #838BFB",
"4X c #8B8BFB",
"5X c #9383F5",
"6X c #9B84F5",
"7X c #938BF6",
"8X c #9B8CF4",
"9X c #9284FA",
"0X c #9A84FA",
"qX c #928CFA",
"wX c #9B8BF9",
"eX c #8396F7",
"rX c #8B92F4",
"tX c #849CF4",
"yX c #8C9AF4",
"uX c #8493FB",
"iX c #8A93FA",
"pX c #8C9CF9",
"aX c #9393F3",
"sX c #9897F7",
"dX c #9B9BF4",
"fX c #9393FA",
"gX c #A789EA",
"hX c #B688E9",
"jX c #A798EA",
"kX c #B497EB",
"lX c #A483F4",
"zX c #AC85F4",
"xX c #A588F7",
"cX c #A48CF4",
"vX c #B787F1",
"bX c #A696F4",
"nX c #B096F1",
"mX c #86A5EB",
"MX c #99A5E9",
"NX c #89B8E9",
"BX c #96B8E7",
"VX c #8BA4F5",
"CX c #86A8F4",
"ZX c #94A4F3",
"AX c #98A5F3",
"SX c #86B3F3",
"DX c #96B0F2",
"FX c #A8A6EB",
"GX c #ABAEEB",
"HX c #D18BDA",
"JX c #C385E6",
"KX c #95C9DE",
"LX c #ACC7D9",
"PX c #88C4E6",
"IX c #91C2E8",
/* pixels */
"5X| | l i [ J.F.h.s.-X&X%Xa.<XjX'.7X&.` s _ _ l n.,Xr F.rXVXiX-.c 4XpXP.M lXM Z 4X2XD N 5.N >.xXL.S 3X^.I.%.{ W T ] >X*.D b 0 *X",
"*X=X,.| l N.i rXA.# p <.h H F F & U Y C.4Xx m n.L ..A.r H.=Xw.D T.,X.XtXI.0XD t 1X7X1XD 5.y >.9XI.K.B >.9X2X9X2X5X5X&.l k G.b 1 ",
"7 ^ ! M.).-X%XH.J.d._ / ^ ` -X].<X.X[.qXX.9Xc 5 7 N P.B Y i -.v.@.p k ,XpXe.1Xt C.cX2X1X2XM 3X4X2X1XA T j } $.2X7X<XrXiXuXf k x ",
"o.>Xd.d.bXD W G.(.@.) 2.8X*X(.yX[.+XAXbXsX-.:.:.h 5 3 T C G.F.T C.J.>.7  .xX1Xj I 0 qXL.9XS d >X5.A.2.-.V.=X;.{.PXPXNXPXIXNXVX:.",
"1X(.M.6 ~ +.H.b.h >.2X8X;Xo.g.oXW.+.#.6.pXAXVXuXI.D x x N Z @.C.`.fX;.2Xc O.U ..b.N.qXL.4XL.1Xs 6.M 8.S n q.A.a.' +.&...E ~ @.2X",
"_.(.+.b O.P.U.D z 8 Y A 8.D 9 I I R W l o..XNXNXCX7XP.uXZ h L.j.x fXdX9X+.+.1X{.0 , :.1X4X1XF.,X2X;.e.Z.%.3.x.p $.O.$.5.iXiX2X1X",
"XX7.C :.L.b.I.2X;.~ h R #.S 8 [ j A D S ~.M.` ) / :./.MXpX3XS 1 n 3.q.) 1.2X|.*.,., - 8 A 2X5.o.o.4.@.y 2.1Xl.*.4.3X7X%.>.4X XXX",
"Y #.C.1X_.L.Y j >.e.F.4X1X1XL.!. X XE.n.= T ) #.2XY.D.>.4XT.'.mX% @.w.<X9X{.].GX8X@.> 4 . 1 ' 7X3Xe.wX1 h I.l.1.1XI.9.w SXpX~.*X",
"x P.}.|.I.I.hX0 T D H.4X3XE.XX+X;X1XtX~.C 3.iX<X}._.I.4X XXX1XK.,X6.iX6.}.v.v ;XGXFX=.u &.2 X X I } ,XFXg 0 9 5X3XJ.8.q N.bX>.#.",
"5.9 h.iX4X[ 8.-.N S n.` G.D.g.) ,.U.Q.VXyX4X4X~.J.S K.!.`.9X1XL.9XuX6.^.}.5X5 j 2.FXGXb N.tX.XoX'.J.p -XyXP.> : B 9.e.w h.=X7.#X",
"cXd % 9./ / ;.0Xr A.L } h.A.n >.] % ` i $.>.:.I.I.>.c 7 , ;.3XK.3X6.^.}.~.fXMXf j 5.gXGXd } M.N.7XeXT.tXGXpXi n r 9.8Xz.& ^ b.8X",
"kXL.q Y q.2X!.nXS t ;X'.J 9 D.4X] J L % 2X2XQ.3X:.1X3X1XZ 5 7 k W Y 2 f { i ` 1.X.X.5.aXyXp.m.0X3X4XR.1XiX0.k h.D.0.7XB.` R.M.aX",
"JX2XV.j 4X3X_.hXL.t n.hXtX/.B.9.C %X].s.J U.>.;.I.Q.CXSXCXuXc E o.J.T.a Y I T R 8 f :.>.*.m.> -.I.3XS.2X` y.M h.I.vX4X1X,X/.W.uX",
"0.I.I.A.2X{.-X9.3XA.9 *X[.Y.F.8.z.J & 7.p.C :.1XD v 1X#.+.` *.T.!.N./ | H.<XQ.oX].AXG.>.;.;.5 3 h L.:.~ 7.r.n g.4XzXuX3XE.k.4X5X",
"6XH.~.eXD.b.9.e.L.P.v Q q !.7.1.l.-XL s.f..... .Q 5 < } rX.X*Xo.x.P { k. X+X'.2XK.'.BXdXfX:.:.x 5 3 ~ I.0.2.Z.u.7XxXuXiXv.n.4Xr.",
"u Y.iXP.P.C r.4.1XK.V.-Xi.*X8.1Xi.*Xf.4X>.>.>.>.2X:.A h 7 W -.R.` ) b.(.Q.>X3.2Xf i / #.3XDXVXeXL.x s } zX>XV.O nXwX3X4XS.h.6X8.",
"N.0 ,X!.uX3.r.D 1Xl.~.v.h.9.e.I.l.2.y 2XiXVXVXuX.XSXSXiX1X:.T.@.( F./.B :.3.:.;.| W [ T.%XD f.BXDXpXuXZ zX' B.+ ' wX3X1XS.h.K ` ",
"jXV 0 3X>.w.e.V B z.<X0 t 0.wXI.z.5.q uXuX,X+.1XS.1X$.:.1XT.@./ 1Xc.u 2 V 2X2X9X2XuX`.j.P k u ) @.L.`.;XcXlXw g.= 9XI.gX1 H ! /.",
"8.xXe u 4.w.2XjX> h.J.=X9 e.<X3XS 5.q L.I.8.v L.S 3.1X>.G.~ $.1XQ.C.}.`.1X4X4XiXVXQ.C $ t.* u 2X4XR.M.` xX0.+ t p 9XI.P / | k.a.",
"<.8XA ; o.6.~.cX5X# m.kX0 ' 4X3X_ 2Xt n 1.8.t *...! ! ! ! X.D  XG.w [ 8 j  .} ..{ 8 ` = *XN.C.1X XT.] 1.1XHX9 + n >.( ^ >.b.x.= ",
"2X<X0XM d I.2X6.kXb o L *.# 3X7.F.2Xy e 7.<.g.5X:.2X9X2X1X}.).SXFXv [ Q R 4 G R Q  .c E.l a Z.E.U.6X9.5.B.HXB.O p ( ( 4XY.Y.H.k ",
"I.N.nXI.e M 4Xe.7XaXn : cXy 2 -.N.3XA.N 8.:.i.dX2X~.CXSX[.). X0XcXFXb >X9X2X:.I.Q.XX X^.-XP.n D 2 V r.9Xx.HX-X9 & r.qX<XY.Z.Q.:X",
"I.h.kX3XI.e D zXS MXE.B.a 3Xk c.<X3XI.-.e.H.g.*.cXZ p Q.:XE G G I _ *X1XiXCX XW.U.'.DXZXqXL.2 Y p.7X0.4Xl.FXMXN.9 e.4XE.D j.jXaX",
"3Xz.hXdXP.I.N e.D V.DX!.~.<XL.t N 4X=._ 4XS.y z <.2XN 7 +.&.>.>.D P.E.N.m.] ;.(.a E I Y ) { M.`.D ~ e.3Xl.aXGXeXz.3X4X;.A.a.e.4X",
"3XK.6XtXpXL.~.e.L.t Q.DXP.e.F.y N U L p 3Xv.E.1X` m.:.x >.>X.X[.@XQ.a / _ ;.(.N.5X8X8X5X4XH.v a 3.P.xXuXl.P.FXZXeXG.6.:.x.q 0X3X",
"I.:X7XT.AXpX:.xXL.z.% hXe.1XS.P...9.2 h.3Xv.P.9.%.n.2.C x C C p ;.<.~ ;.1Xb.b.b VXbX8XrXoX'..X2XI.T.xXI.x.D.-XbXuX4.>.L.c.A.A I.",
"!.7XqXr MXdXxX9X3Xz.n q.4X3XY.>.;.kXf + 3XS.:.t.h.M.nXv 3XI.A h z ,.@.P.|.Y.X.e [ 6XqX{.iX3X3X2XR.4XwXuXS.S.w.2.w.3.3X!.c.1XS L.",
"!.yXaX2X: 9.e.I.3Xb.=.uX3X}.2X4.x.$X5X9 9 V./ 9.k.N.hX0 I.T.gXM.5X+.K.Y.A x &.j > >X^.L.3X4X3XI.R.0X9X1XB h q.w.>.3X3XY.j.zXB B ",
"y =XiXjX:.c 6.~.P.R.uX4X X2Xw.;.h.t.>XF.; J *X7Xj.m.t.m i 0 9.u q.L.c.mX4XL.-.3.6 0 ;.S ,X2X3XD.A.6X9X:.>.X.$.2X3X4X}.{.T.zX:.r ",
"s 8 j ' bXD 1X3XR.R.iX^.>.4.w.D.a r.I.3Xm t ' eXi.J.HXS i d 3.N 1XC.j.aXbX4X1X2.;.- s K.X.L.3XL.%.! ;.;.>.>.1X3X3X}.T.k.9XzX1XB ",
"B ^. X^.bXqXI.3XR.Y.uX5.$.w.2Xb.gX6XC.aX~.y r P.j.:.HX' } N A A.1Xv.k.K.bXsXO.,.=.V - 1 K.-.{ U T f Q -.-.-.D 1X}.!.B.V >.xX2XS ",
"M r B 4XzXsXL.D.S.S 3.$.4.4X~._.hX>XI.-.!.eXy y g.D t.n.e.y D y I.c.U.*.] ( &.b.GXZXI.1 : +.+.*. XVX~.I. X XVX3XM :.X.8 4 o.9XL.",
"A M r %.xXfX1X1Xs 5 #.5.<X1XR.1XvX<X6.x.CXD.^.y 9 P L s.6Xy :.y Z.g.L.q./ 2.Y.U.I..XKXBXS 1 ,X`.2X^.^.^.I.~.^.ZXVXL.2X2X1XL.X.c ",
"2 - d f 0XfX4X4X1XA c 1X#.D y #Xq.w.L.j.pXuX~.D.p K g.$X6XB.:.B r 0 2 q.6.3Xb.I.L.K.5.sXMXeXw -.S.iX1XL.L.P.D.<X] s.SXCXpX>X,.,.",
"-XVXu - ;.;.4X~.VXpX3X;.>.:XN ~ q.2XH.t I.iXD.I.8.<.u.K D P.S B K.r g 6.4XY.S.I.:.c ..>.6.%.' 2 , %.1X| I F F = d.C ;.;.7.T Z W.",
",Xm N.'.s.4X4XN 9X-.G.zXI.1X:.#.3X3X~.q H.qXL.5Xy.N.Y n.tX3XA.K.S.L.M I.4XP.K.H.iX7X;.z ,.,.@.` Y   I ^ ` J.`.w , W W ^ T S U.<X",
"1 n.N.L.S 2X3XiX;.>.>.3.I.3.2X3X3X|.cXq M.8X3X9.zX1.E.d.bX3XP.P.z.uXD.B uX:.A.A.3XzX;.} C ZXMXMX;X%., *X].OX5X1., 3 ^ @.L.G.4 < ",
"j , - C K.1XL.:.qXqX-.>.A 3X2X3X}.|.0.r + gX<.( =X,Xd.jXcX3X3XR.!.D L.A.5.:.S 5 ;.1.cX3.s f !.'.&XKXBXm % #XhX' ,.2 8 L.I.,.3.>.",
"pX3Xs @ 1 ,.z -.>.;.2X<X:.A 2XL.y ] e.*.o gXr.7X;X=.O hXxXI.3Xv.P.%.:.n 5.L.K.>X6 8X6X6X;.6 : V 6X6XN.#XL J s.jXbX=.%.5 3 i iXiX",
"IXKXNXtXV $ 2 v ;.;.>.c <XiXL.1Xz.7.6.aXu @ 7XeX;X&.O 9.0XP.I.R.,.B.>.N >.L.N 1.:.8 ;.bX8X:.5 - _ | } U Y (.*X2XdXIXPXPXNXJ.k p.",
"& } =X=X<X1Xl , u AX9X>.s D 4XI.*.4.G.J.;X0 0  Xy.2XO 0X4X3X!.F.#.n :.D Z X.! X.A L.P.uXFXZXeXZ > L 7.*Xd.*X4X2XuX{.tXrX:X*X#XN.",
"< < R [ V *X-Xf.M.m dXMX2Xd I.3Xe.5.= f.jXE.y : y.:.+ J.~.3XF.<.>.N D A X.Y S !.~.K.I.1X1XaXDXCXtX} ;Xd.N.qX>.0Xj 5 z >.9X9Xo.4 ",
">.-.D L.I.W.F.m.= f Y Y =X4Xr L.0.:.p U.] mXE.C y.1Xq p V 1.p e.D :.N :.q.b A.S D >.z ! X.P.C.-XjXiXM.(.qXqXlXo.0Xc 5 x 7X>.>.9X",
"CXoX+XOX[.mXmX=.<.1.&.{ Y < 6 7 r.L.M.* %XMX^.8XvXP.t u n.#.p r.S 1XB w.$.j.4XD A o.-.P.T.:.B 3.7XQ.f.p 3X4XbXbXX.0X8 3 6 ;X;XrX",
"].'.J.:.4XaX5X2._ @.*XmX[.OX[.=X9XI.w d.:XFX;XcXvX3Xz.z.` S i 5.D.2XK.r.H.j.fX4X1X3XI.D z S P.D 7XF.8 4 < s ;XnXbXX.0Xz < I R f ",
"i o.Q 4 4 Q 5.sXgX=X%.j e 2 O.e.3XeXC % I.<XjXzXnXP.A.v -.I.A 3XD.7X>.5XU.h.0XfX1XP.pXiXL.N x :.1X>.5.5.8 H   H E ~ W o.A Z Y.p.",
"  $ &.;.{ < G H m.N.;XVXC D :.eX3X-X*.# p 1.7.w.bXI.3XS V.<.z.1Xv.8X0X4Xc.F.1X4X4XL.S 6.L.uXS  .! W W W ! <._ Q ~ o.D !.:.D 7 3 ",
"x 3 , _ W / { A.& * mXdX2Xn 1XeX{.gX6XO i H 5.4XwX3X4XF.R.<.z.T.*X} 4X3Xj.F.2XeXfXK.2X;.A.uXqX5.5.>.5.;.=.>.>.1X1XP.XX[.DXVXeXI.",
"SXpXZ < W X.K.P.n % 3XbX7XG.M I.Y.gX8Xy 2 C.4X~.zXL.3XD.*.2Xl.Y.gXb :XH.x.A.L.;.>.2X3.1XS.,X7XqX9X>.5.>.=.3.>.1X|.).oX>X`.%X%XBX",
"E ~ ..-.I.(.OXGXiX# u 6XbXI.L.y S zX;XH.n M.3XJ.0.S 1XP.>.I.i.L.0.1 K # x 5  .X.-.3.:.L.l.9X4.#.@.&.=.,.@.%.L.T.M.n.1.C W R R R ",
"-.D Y.3X(.h.% MXLXZX0 Y o.3XP.S M 9XnXI.y v =.' 0.S Z.uX3XP.g.5.hX'.-Xd.fXx h A 2X:.;.M x.0XlX6X2.1.@._ F.`.].<X8 < ..! ! ! ! { ",
"I.|.tXXX).%Xw V =.jXMXp Z E.] 1 B | w.D.~.f | m.e.K.y 3X3XH.x.1X7.5XV.a I 1XD s h 4X7XA ; 4.6.dXMX;XMXtXT.(.FX0X,.%.3 V 4XqX9X>.",
"].@X+X].p { = i 3.$.>.yXn.a t.p.$ ~ ;.x.1X-.A.>.zX1Xy S L.D.V.9.T J.v ` mXa.ZX3XZ g 4XsXr V >.@.~ @.q.D c.k.FXGXFX7X1Xl 8 A eXoX",
"p.oX-X,.@.` T <   } 1X,X$X% MXjX`.;.L.B.>.P.{.;XzXL.n K.D r S cX%X] V.8X% v dXdXI.K.M aXfX7 E ..:.) >.V./.l X.gXDXBXNX@XPXCXK.b ",
"p @ Y ` o.<X;XMXrXu 1 = P w i ] ,X2XY.L.~._.D.zXnXI.L.y wXN > ~.FXBX~.:XZ e s 8XfXL.x E ~ o.:.:.+.>.:.n.a.1. .} 9XtX[.@XaX;XAX,X",
",.4 X X G , & -XmXBX'.f.%X%X2 ] n ~.T.~.I.v 3XcXxX3XI.y 4X4Xv 0 =XbX3XiX2Xr N L.qX4X4X4X2X1X:.3.uX2X}.).J u 5.>.8 5 u =.bXwX,.6X",
"1.5.:Xa D C k , 1 i D.F.#.e.[.mX|.I.c o.V A 6 7XcXqXI.D h 2XL.r 0 jXfX3XwXS e H.2X4X2X5.uX2XiX3X9X}.m.& #XV ..o.3.o.< - a MXGXdX",
"W.PXOXKXmXtXJ.M.f.f.B.A 9XiX4XW.L.>.5.>.[ 7 s d cXfXP.8Xb E.3XL.r a dX4XxX1Xy r 1XqXe.X.~.eX9XuXoXXX%X'.%.;.9XX.%.,X2Xx - J H ! ",
"f.MX* P = %.1.: : K.L.L.4X4X1X&.;.o.} >.>.1Xz - V fX1X*.7X0 <XK.K.r ,XwXxXI.S.Z 5 $.w.D.G.4XeX}. XD.2XiXaX7X5X;.;.6 -X;X} ~ P.].",
"j 7.s.' %XMX>.A - @ D L.;.;.3.2X>.;.} -.&.>.L.S 5 Y } Y.bXP.r ' m S Q 3.xXI.K.:.>.Q 2Xc.uX4X1Xz.1XS S 1XyXZXaXAXaX1X4 ~ -.{.d.k ",
"j j jXL u } jX<XD > @ I I I F G I i `.CXSX[.[. X5XD U.m fXuXP.*Xu C 1X3X0XL.D.fX>.>.D s 4 c >.N :.D N 1X1X6.7X7X7XfX9X3X(.j.X.5.",
">.c k ;X=.#.~ v.BXVXz U ! [ D T.).+X XmXiXa <.( ;./.Q.tXI.sX~.I.gX: S 3XwX:.S.3XdXpXuXuXI.D z A d 1XB S 2X2X0XqXyXVXyXiXs > h X.",
">X-.c 2 7.=.W.l 1 e.<X9XW.].+XM.g s :.2X2.@.T 5.b.y S 3XI.>.D L.kXL.; a wX9Xy 3X9X3X!.'.tXSXCX3XZ N L.x } 1XeX.XSXjXnX;.5.5 - l ",
"u 8X>.>XrXM.'.MXJ.J.-XXXQ.f.-X>Xx 5 6 T ~ 7XyX'.M.Z v A &.9.b Z ;XdXA.e A e.t 2X2X1XK.Z =.S 4X0XK.A.X.X.l 8 2 7 i 2.gXgX1X:Xp u "
};
